{
  "accessors": [
    {
      "bufferView": 2,
      "componentType": 5126,
      "count": 64,
      "max": [
        1.0485488176345825,
        12.728789329528809,
        0.9999999403953552
      ],
      "min": [
        -1.0485488176345825,
        -0.9999999403953552,
        -6.500345230102539
      ],
      "type": "VEC3"
    },
    {
      "bufferView": 2,
      "byteOffset": 768,
      "componentType": 5126,
      "count": 64,
      "max": [
        0.0,
        1.0,
        1.0
      ],
      "min": [
        0.0,
        -1.0,
        -1.0
      ],
      "type": "VEC3"
    },
    {
      "bufferView": 1,
      "componentType": 5126,
      "count": 64,
      "max": [
        0.9840446710586548,
        0.30478450655937195
      ],
      "min": [
        0.6870002746582031,
        0.03504055738449097
      ],
      "type": "VEC2"
    },
    {
      "bufferView": 0,
      "componentType": 5125,
      "count": 96,
      "type": "SCALAR"
    },
    {
      "bufferView": 2,
      "byteOffset": 1536,
      "componentType": 5126,
      "count": 926,
      "max": [
        1.00605046749115,
        1.0578242540359497,
        7.942988395690918
      ],
      "min": [
        -1.0060505867004395,
        -1.0578241348266602,
        -2.6802916526794434
      ],
      "type": "VEC3"
    },
    {
      "bufferView": 2,
      "byteOffset": 12648,
      "componentType": 5126,
      "count": 926,
      "max": [
        1.0,
        0.9510566592216492,
        1.0
      ],
      "min": [
        -1.0,
        -0.951056718826294,
        -1.0
      ],
      "type": "VEC3"
    },
    {
      "bufferView": 1,
      "byteOffset": 512,
      "componentType": 5126,
      "count": 926,
      "max": [
        0.3215453624725342,
        0.9166514873504639
      ],
      "min": [
        0.024133529514074326,
        0.0432397723197937
      ],
      "type": "VEC2"
    },
    {
      "bufferView": 0,
      "byteOffset": 384,
      "componentType": 5125,
      "count": 1428,
      "type": "SCALAR"
    },
    {
      "bufferView": 2,
      "byteOffset": 23760,
      "componentType": 5126,
      "count": 276,
      "max": [
        2.460639238357544,
        14.501127243041992,
        1.6844319105148315
      ],
      "min": [
        -2.460639238357544,
        -2.578735828399658,
        -3.85099196434021
      ],
      "type": "VEC3"
    },
    {
      "bufferView": 2,
      "byteOffset": 27072,
      "componentType": 5126,
      "count": 276,
      "max": [
        1.0,
        1.0,
        1.0
      ],
      "min": [
        -1.0,
        -1.0,
        -1.0
      ],
      "type": "VEC3"
    },
    {
      "bufferView": 1,
      "byteOffset": 7920,
      "componentType": 5126,
      "count": 276,
      "max": [
        0.9848386645317078,
        0.59993577003479
      ],
      "min": [
        0.018766582012176514,
        0.19373440742492676
      ],
      "type": "VEC2"
    },
    {
      "bufferView": 0,
      "byteOffset": 6096,
      "componentType": 5125,
      "count": 456,
      "type": "SCALAR"
    },
    {
      "bufferView": 2,
      "byteOffset": 30384,
      "componentType": 5126,
      "count": 50,
      "max": [
        0.39323246479034424,
        0.41346871852874756,
        5.4979352951049805
      ],
      "min": [
        -0.3932322561740875,
        -0.3345032334327698,
        -5.4979352951049805
      ],
      "type": "VEC3"
    },
    {
      "bufferView": 2,
      "byteOffset": 30984,
      "componentType": 5126,
      "count": 50,
      "max": [
        0.9510566592216492,
        0.8090170621871948,
        1.0
      ],
      "min": [
        -0.9510565400123596,
        -1.0,
        -1.0
      ],
      "type": "VEC3"
    },
    {
      "bufferView": 1,
      "byteOffset": 10128,
      "componentType": 5126,
      "count": 50,
      "max": [
        0.28069937229156494,
        0.2983258068561554
      ],
      "min": [
        0.09270104765892029,
        0.02713775634765625
      ],
      "type": "VEC2"
    },
    {
      "bufferView": 0,
      "byteOffset": 7920,
      "componentType": 5125,
      "count": 78,
      "type": "SCALAR"
    },
    {
      "bufferView": 2,
      "byteOffset": 31584,
      "componentType": 5126,
      "count": 60,
      "max": [
        0.9510568380355835,
        1.0,
        5.305353164672852
      ],
      "min": [
        -0.9510562419891357,
        -0.8090170621871948,
        -5.305353164672852
      ],
      "type": "VEC3"
    },
    {
      "bufferView": 2,
      "byteOffset": 32304,
      "componentType": 5126,
      "count": 60,
      "max": [
        0.9510566592216492,
        0.8090172410011292,
        1.0
      ],
      "min": [
        -0.9510565996170044,
        -1.0,
        -1.0
      ],
      "type": "VEC3"
    },
    {
      "bufferView": 1,
      "byteOffset": 10528,
      "componentType": 5126,
      "count": 60,
      "max": [
        0.9625662565231323,
        0.6064737439155579
      ],
      "min": [
        0.7103537321090698,
        0.38476961851119995
      ],
      "type": "VEC2"
    },
    {
      "bufferView": 0,
      "byteOffset": 8232,
      "componentType": 5125,
      "count": 96,
      "type": "SCALAR"
    },
    {
      "bufferView": 2,
      "byteOffset": 33024,
      "componentType": 5126,
      "count": 192,
      "max": [
        0.8662369251251221,
        0.8662368059158325,
        1.2611135244369507
      ],
      "min": [
        -0.8662367463111877,
        -0.8662368059158325,
        -1.2611135244369507
      ],
      "type": "VEC3"
    },
    {
      "bufferView": 2,
      "byteOffset": 35328,
      "componentType": 5126,
      "count": 192,
      "max": [
        0.9924734830856323,
        0.9924734830856323,
        0.9967307448387146
      ],
      "min": [
        -0.9924735426902771,
        -0.9924736022949219,
        -0.9967308044433594
      ],
      "type": "VEC3"
    },
    {
      "bufferView": 1,
      "byteOffset": 11008,
      "componentType": 5126,
      "count": 192,
      "max": [
        0.9690878391265869,
        0.29634198546409607
      ],
      "min": [
        0.6865777969360352,
        0.032771795988082886
      ],
      "type": "VEC2"
    },
    {
      "bufferView": 0,
      "byteOffset": 8616,
      "componentType": 5125,
      "count": 288,
      "type": "SCALAR"
    },
    {
      "bufferView": 2,
      "byteOffset": 37632,
      "componentType": 5126,
      "count": 384,
      "max": [
        1.0,
        1.0,
        1.3364367485046387
      ],
      "min": [
        -0.9999999403953552,
        -1.0,
        -1.3364367485046387
      ],
      "type": "VEC3"
    },
    {
      "bufferView": 2,
      "byteOffset": 42240,
      "componentType": 5126,
      "count": 384,
      "max": [
        0.9659261107444763,
        0.965925931930542,
        1.0
      ],
      "min": [
        -0.9659260511398315,
        -0.965925931930542,
        -1.0
      ],
      "type": "VEC3"
    },
    {
      "bufferView": 1,
      "byteOffset": 12544,
      "componentType": 5126,
      "count": 384,
      "max": [
        0.9685308933258057,
        0.6409700512886047
      ],
      "min": [
        0.017497655004262924,
        0.028307557106018066
      ],
      "type": "VEC2"
    },
    {
      "bufferView": 0,
      "byteOffset": 9768,
      "componentType": 5125,
      "count": 576,
      "type": "SCALAR"
    }
  ],
  "asset": {
    "extras": {
      "author": "Untara (https://sketchfab.com/untara)",
      "license": "CC-BY-4.0 (http://creativecommons.org/licenses/by/4.0/)",
      "source": "https://sketchfab.com/3d-models/low-poly-medieval-cannon-42717150e3e741a3aee7346b85c06890",
      "title": "Low Poly medieval cannon"
    },
    "generator": "Sketchfab-12.67.0",
    "version": "2.0"
  },
  "bufferViews": [
    {
      "buffer": 0,
      "byteLength": 12072,
      "name": "floatBufferViews",
      "target": 34963
    },
    {
      "buffer": 0,
      "byteLength": 15616,
      "byteOffset": 12072,
      "byteStride": 8,
      "name": "floatBufferViews",
      "target": 34962
    },
    {
      "buffer": 0,
      "byteLength": 46848,
      "byteOffset": 27688,
      "byteStride": 12,
      "name": "floatBufferViews",
      "target": 34962
    }
  ],
  "buffers": [
    {
      "byteLength": 74536,
      "uri": "scene.bin"
    }
  ],
  "materials": [
    {
      "doubleSided": true,
      "name": "Material.001",
      "pbrMetallicRoughness": {
        "baseColorFactor": [
          0.3052835848314484,
          0.3052835848314484,
          0.3052835848314484,
          1.0
        ],
        "metallicFactor": 0.0,
        "roughnessFactor": 0.9577051495
      }
    }
  ],
  "meshes": [
    {
      "name": "Cube.001_Material.001_0",
      "primitives": [
        {
          "attributes": {
            "NORMAL": 1,
            "POSITION": 0,
            "TEXCOORD_0": 2
          },
          "indices": 3,
          "material": 0,
          "mode": 4
        }
      ]
    },
    {
      "name": "Circle.004_Material.001_0",
      "primitives": [
        {
          "attributes": {
            "NORMAL": 5,
            "POSITION": 4,
            "TEXCOORD_0": 6
          },
          "indices": 7,
          "material": 0,
          "mode": 4
        }
      ]
    },
    {
      "name": "Cube_Material.001_0",
      "primitives": [
        {
          "attributes": {
            "NORMAL": 9,
            "POSITION": 8,
            "TEXCOORD_0": 10
          },
          "indices": 11,
          "material": 0,
          "mode": 4
        }
      ]
    },
    {
      "name": "Circle.003_Material.001_0",
      "primitives": [
        {
          "attributes": {
            "NORMAL": 13,
            "POSITION": 12,
            "TEXCOORD_0": 14
          },
          "indices": 15,
          "material": 0,
          "mode": 4
        }
      ]
    },
    {
      "name": "Circle.002_Material.001_0",
      "primitives": [
        {
          "attributes": {
            "NORMAL": 17,
            "POSITION": 16,
            "TEXCOORD_0": 18
          },
          "indices": 19,
          "material": 0,
          "mode": 4
        }
      ]
    },
    {
      "name": "Circle.001_Material.001_0",
      "primitives": [
        {
          "attributes": {
            "NORMAL": 21,
            "POSITION": 20,
            "TEXCOORD_0": 22
          },
          "indices": 23,
          "material": 0,
          "mode": 4
        }
      ]
    },
    {
      "name": "Circle_Material.001_0",
      "primitives": [
        {
          "attributes": {
            "NORMAL": 25,
            "POSITION": 24,
            "TEXCOORD_0": 26
          },
          "indices": 27,
          "material": 0,
          "mode": 4
        }
      ]
    }
  ],
  "nodes": [
    {
      "children": [
        1
      ],
      "matrix": [
        1.0,
        0.0,
        0.0,
        0.0,
        0.0,
        2.220446049250313e-16,
        -1.0,
        0.0,
        0.0,
        1.0,
        2.220446049250313e-16,
        0.0,
        0.0,
        0.0,
        0.0,
        1.0
      ],
      "name": "Sketchfab_model"
    },
    {
      "children": [
        2
      ],
      "matrix": [
        1.0,
        0.0,
        0.0,
        0.0,
        0.0,
        0.0,
        1.0,
        0.0,
        0.0,
        -1.0,
        0.0,
        0.0,
        0.0,
        0.0,
        0.0,
        1.0
      ],
      "name": "738da3529841421d9300af35a7e91b79.fbx"
    },
    {
      "children": [
        3,
        5,
        7,
        9,
        11,
        13,
        15
      ],
      "name": "RootNode"
    },
    {
      "children": [
        4
      ],
      "matrix": [
        60.48013687133789,
        0.0,
        0.0,
        0.0,
        0.0,
        -6.584549411052627e-06,
        -40.41567611694283,
        0.0,
        0.0,
        16.47761917114236,
        -2.684544910122415e-06,
        0.0,
        0.0,
        27.306852340698242,
        -18.66295623779297,
        1.0
      ],
      "name": "Cube.001"
    },
    {
      "mesh": 0,
      "name": "Cube.001_Material.001_0"
    },
    {
      "children": [
        6
      ],
      "matrix": [
        60.96195983886719,
        0.0,
        0.0,
        0.0,
        0.0,
        60.961959838867124,
        2.664732113817636e-06,
        0.0,
        0.0,
        -2.664732113817636e-06,
        60.961959838867124,
        0.0,
        0.0,
        108.80328369140625,
        0.0,
        1.0
      ],
      "name": "Circle.004"
    },
    {
      "mesh": 1,
      "name": "Circle.004_Material.001_0"
    },
    {
      "children": [
        8
      ],
      "matrix": [
        38.14726638793945,
        0.0,
        0.0,
        0.0,
        0.0,
        -6.21497855686427e-06,
        -38.14726638793895,
        0.0,
        0.0,
        38.14726638793895,
        -6.21497855686427e-06,
        0.0,
        0.0,
        46.92134094238281,
        0.0,
        1.0
      ],
      "name": "Cube"
    },
    {
      "mesh": 2,
      "name": "Cube_Material.001_0"
    },
    {
      "children": [
        10
      ],
      "matrix": [
        1.789695125694235e-06,
        -23.70523071289056,
        0.0,
        0.0,
        1.7896951270101396e-06,
        1.3159046470751293e-13,
        -23.70523071289056,
        0.0,
        23.705230712890494,
        1.7896951270101396e-06,
        1.789695125694235e-06,
        0.0,
        0.17633885145187378,
        0.0,
        0.0,
        1.0
      ],
      "name": "Circle.003"
    },
    {
      "mesh": 3,
      "name": "Circle.003_Material.001_0"
    },
    {
      "children": [
        12
      ],
      "matrix": [
        1.789695125694235e-06,
        -23.70523071289056,
        0.0,
        0.0,
        1.7896951270101396e-06,
        1.3159046470751293e-13,
        -23.70523071289056,
        0.0,
        23.705230712890494,
        1.7896951270101396e-06,
        1.789695125694235e-06,
        0.0,
        0.17633885145187378,
        0.0,
        0.0,
        1.0
      ],
      "name": "Circle.002"
    },
    {
      "mesh": 4,
      "name": "Circle.002_Material.001_0"
    },
    {
      "children": [
        14
      ],
      "matrix": [
        7.549789948768648e-06,
        -99.99999999999973,
        0.0,
        0.0,
        7.549789954319763e-06,
        5.551115123125783e-13,
        -99.99999999999973,
        0.0,
        99.99999999999945,
        7.549789954319763e-06,
        7.549789948768648e-06,
        0.0,
        0.0,
        0.0,
        0.0,
        1.0
      ],
      "name": "Circle.001"
    },
    {
      "mesh": 5,
      "name": "Circle.001_Material.001_0"
    },
    {
      "children": [
        16
      ],
      "matrix": [
        7.549789948768648e-06,
        -99.99999999999973,
        0.0,
        0.0,
        7.549789954319763e-06,
        5.551115123125783e-13,
        -99.99999999999973,
        0.0,
        99.99999999999945,
        7.549789954319763e-06,
        7.549789948768648e-06,
        0.0,
        0.0,
        0.0,
        0.0,
        1.0
      ],
      "name": "Circle"
    },
    {
      "mesh": 6,
      "name": "Circle_Material.001_0"
    }
  ],
  "scene": 0,
  "scenes": [
    {
      "name": "Sketchfab_Scene",
      "nodes": [
        0
      ]
    }
  ]
}
