{
  "accessors": [
    {
      "bufferView": 2,
      "componentType": 5126,
      "count": 1930,
      "max": [
        14.304499626159668,
        27.069599151611328,
        30.579299926757813
      ],
      "min": [
        -14.304499626159668,
        -27.069599151611328,
        0.2718000113964081
      ],
      "type": "VEC3"
    },
    {
      "bufferView": 2,
      "byteOffset": 23160,
      "componentType": 5126,
      "count": 1930,
      "max": [
        0.9999968409538269,
        0.9999998211860657,
        0.9999960660934448
      ],
      "min": [
        -0.9999969005584717,
        -0.9999999403953552,
        -1.0
      ],
      "type": "VEC3"
    },
    {
      "bufferView": 3,
      "componentType": 5126,
      "count": 1930,
      "max": [
        0.9999997019767761,
        0.9999997019767761,
        0.9999219179153442,
        1.0
      ],
      "min": [
        -0.9999997019767761,
        -1.0,
        -0.9999998807907104,
        -1.0
      ],
      "type": "VEC4"
    },
    {
      "bufferView": 1,
      "componentType": 5126,
      "count": 1930,
      "max": [
        0.9751999974250793,
        0.9994000196456909
      ],
      "min": [
        0.0006000000284984708,
        0.0006000000284984708
      ],
      "type": "VEC2"
    },
    {
      "bufferView": 0,
      "componentType": 5125,
      "count": 6120,
      "type": "SCALAR"
    }
  ],
  "asset": {
    "extras": {
      "author": "mudroljub (https://sketchfab.com/mudroljub)",
      "license": "CC-BY-4.0 (http://creativecommons.org/licenses/by/4.0/)",
      "source": "https://sketchfab.com/3d-models/mortar-52df2d44117a45f588bd7b9e4a0ab01a",
      "title": "Mortar"
    },
    "generator": "Sketchfab-13.42.0",
    "version": "2.0"
  },
  "bufferViews": [
    {
      "buffer": 0,
      "byteLength": 24480,
      "name": "floatBufferViews",
      "target": 34963
    },
    {
      "buffer": 0,
      "byteLength": 15440,
      "byteOffset": 24480,
      "byteStride": 8,
      "name": "floatBufferViews",
      "target": 34962
    },
    {
      "buffer": 0,
      "byteLength": 46320,
      "byteOffset": 39920,
      "byteStride": 12,
      "name": "floatBufferViews",
      "target": 34962
    },
    {
      "buffer": 0,
      "byteLength": 30880,
      "byteOffset": 86240,
      "byteStride": 16,
      "name": "floatBufferViews",
      "target": 34962
    }
  ],
  "buffers": [
    {
      "byteLength": 117120,
      "uri": "scene.bin"
    }
  ],
  "images": [
    {
      "uri": "textures/st_metal_2_baseColor.png"
    },
    {
      "uri": "textures/st_metal_2_metallicRoughness.png"
    },
    {
      "uri": "textures/st_metal_2_emissive.jpeg"
    },
    {
      "uri": "textures/st_metal_2_normal.png"
    }
  ],
  "materials": [
    {
      "alphaMode": "BLEND",
      "doubleSided": true,
      "emissiveTexture": {
        "index": 2
      },
      "name": "st_metal_2",
      "normalTexture": {
        "index": 3
      },
      "pbrMetallicRoughness": {
        "baseColorTexture": {
          "index": 0
        },
        "metallicRoughnessTexture": {
          "index": 1
        }
      }
    }
  ],
  "meshes": [
    {
      "name": "Object_0",
      "primitives": [
        {
          "attributes": {
            "NORMAL": 1,
            "POSITION": 0,
            "TANGENT": 2,
            "TEXCOORD_0": 3
          },
          "indices": 4,
          "material": 0,
          "mode": 4
        }
      ]
    }
  ],
  "nodes": [
    {
      "children": [
        1
      ],
      "matrix": [
        1.0,
        0.0,
        0.0,
        0.0,
        0.0,
        2.220446049250313e-16,
        -1.0,
        0.0,
        0.0,
        1.0,
        2.220446049250313e-16,
        0.0,
        0.0,
        0.0,
        0.0,
        1.0
      ],
      "name": "Sketchfab_model"
    },
    {
      "children": [
        2
      ],
      "name": "Cannon N190119.obj.cleaner.materialmerger.gles"
    },
    {
      "mesh": 0,
      "name": "Object_2"
    }
  ],
  "samplers": [
    {
      "magFilter": 9729,
      "minFilter": 9987,
      "wrapS": 10497,
      "wrapT": 10497
    }
  ],
  "scene": 0,
  "scenes": [
    {
      "name": "Sketchfab_Scene",
      "nodes": [
        0
      ]
    }
  ],
  "textures": [
    {
      "sampler": 0,
      "source": 0
    },
    {
      "sampler": 0,
      "source": 1
    },
    {
      "sampler": 0,
      "source": 2
    },
    {
      "sampler": 0,
      "source": 3
    }
  ]
}
