{
  "accessors": [
    {
      "bufferView": 1,
      "componentType": 5126,
      "count": 998,
      "max": [
        113.60962677001953,
        477.48516845703125,
        298.712646484375
      ],
      "min": [
        -133.087646484375,
        -402.2113037109375,
        4.875
      ],
      "type": "VEC3"
    },
    {
      "bufferView": 0,
      "componentType": 5125,
      "count": 4352,
      "type": "SCALAR"
    },
    {
      "bufferView": 1,
      "byteOffset": 11976,
      "componentType": 5126,
      "count": 2633,
      "max": [
        113.60962677001953,
        477.48516845703125,
        298.712646484375
      ],
      "min": [
        -133.087646484375,
        -402.2113037109375,
        4.875
      ],
      "type": "VEC3"
    },
    {
      "bufferView": 1,
      "byteOffset": 43572,
      "componentType": 5126,
      "count": 2633,
      "max": [
        1.0,
        1.0,
        1.0
      ],
      "min": [
        -1.0,
        -1.0,
        -1.0
      ],
      "type": "VEC3"
    },
    {
      "bufferView": 0,
      "byteOffset": 17408,
      "componentType": 5125,
      "count": 11691,
      "type": "SCALAR"
    },
    {
      "bufferView": 1,
      "byteOffset": 75168,
      "componentType": 5126,
      "count": 97,
      "max": [
        27.718379974365234,
        89.90150451660156,
        54.79518127441406
      ],
      "min": [
        -27.7183895111084,
        -89.90150451660156,
        29.14232063293457
      ],
      "type": "VEC3"
    },
    {
      "bufferView": 1,
      "byteOffset": 76332,
      "componentType": 5126,
      "count": 97,
      "max": [
        0.9991905093193054,
        0.9185038805007935,
        1.4263579551553269e-16
      ],
      "min": [
        -0.9991905093193054,
        -0.9185038805007935,
        -5.223637892036285e-16
      ],
      "type": "VEC3"
    },
    {
      "bufferView": 0,
      "byteOffset": 64172,
      "componentType": 5125,
      "count": 147,
      "type": "SCALAR"
    }
  ],
  "asset": {
    "extras": {
      "author": "mudroljub (https://sketchfab.com/mudroljub)",
      "license": "CC-BY-4.0 (http://creativecommons.org/licenses/by/4.0/)",
      "source": "https://sketchfab.com/3d-models/airship-486ed428b13840b49d6ff71c2a878320",
      "title": "Airship"
    },
    "generator": "Sketchfab-13.42.0",
    "version": "2.0"
  },
  "bufferViews": [
    {
      "buffer": 0,
      "byteLength": 64760,
      "name": "floatBufferViews",
      "target": 34963
    },
    {
      "buffer": 0,
      "byteLength": 77496,
      "byteOffset": 64760,
      "byteStride": 12,
      "name": "floatBufferViews",
      "target": 34962
    }
  ],
  "buffers": [
    {
      "byteLength": 142256,
      "uri": "scene.bin"
    }
  ],
  "materials": [
    {
      "name": "edge_color1049383255",
      "pbrMetallicRoughness": {
        "metallicFactor": 0.0,
        "roughnessFactor": 0.6
      }
    },
    {
      "name": "material_5",
      "pbrMetallicRoughness": {
        "baseColorFactor": [
          0.407843,
          0.364706,
          0.32549,
          1.0
        ],
        "metallicFactor": 0.0,
        "roughnessFactor": 0.6
      }
    },
    {
      "name": "material_2",
      "pbrMetallicRoughness": {
        "baseColorFactor": [
          0.494118,
          0.494118,
          0.494118,
          1.0
        ],
        "metallicFactor": 0.0,
        "roughnessFactor": 0.6
      }
    }
  ],
  "meshes": [
    {
      "name": "Material4",
      "primitives": [
        {
          "attributes": {
            "POSITION": 0
          },
          "indices": 1,
          "material": 0,
          "mode": 1
        }
      ]
    },
    {
      "name": "Material2",
      "primitives": [
        {
          "attributes": {
            "NORMAL": 3,
            "POSITION": 2
          },
          "indices": 4,
          "material": 1,
          "mode": 4
        }
      ]
    },
    {
      "name": "Material3",
      "primitives": [
        {
          "attributes": {
            "NORMAL": 6,
            "POSITION": 5
          },
          "indices": 7,
          "material": 2,
          "mode": 4
        }
      ]
    }
  ],
  "nodes": [
    {
      "children": [
        1
      ],
      "matrix": [
        1.0,
        0.0,
        0.0,
        0.0,
        0.0,
        2.220446049250313e-16,
        -1.0,
        0.0,
        0.0,
        1.0,
        2.220446049250313e-16,
        0.0,
        0.0,
        0.0,
        0.0,
        1.0
      ],
      "name": "Sketchfab_model"
    },
    {
      "children": [
        2,
        3,
        4,
        5
      ],
      "name": "Collada visual scene group"
    },
    {
      "mesh": 0,
      "name": "Material4"
    },
    {
      "mesh": 1,
      "name": "Material2"
    },
    {
      "mesh": 2,
      "name": "Material3"
    },
    {
      "children": [
        6
      ],
      "name": "SketchUp"
    },
    {
      "children": [
        7
      ],
      "matrix": [
        0.6426442,
        -0.7661648,
        -1.110223e-16,
        0.0,
        -0.4965651,
        -0.4165093,
        0.7615399,
        0.0,
        -0.583465,
        -0.4893992,
        -0.648118,
        0.0,
        -504.7966,
        -443.4048,
        -386.7338,
        1.0
      ],
      "name": "skp_camera_Last_Saved_SketchUp_View"
    },
    {
      "name": "ID1"
    }
  ],
  "scene": 0,
  "scenes": [
    {
      "name": "Sketchfab_Scene",
      "nodes": [
        0
      ]
    }
  ]
}
