{
  "accessors": [
    {
      "bufferView": 1,
      "componentType": 5126,
      "count": 2802,
      "max": [
        352.6614074707031,
        212.3613739013672,
        129.50660705566406
      ],
      "min": [
        -80.0824966430664,
        46.51839065551758,
        3.1952619552612305
      ],
      "type": "VEC3"
    },
    {
      "bufferView": 0,
      "componentType": 5125,
      "count": 10304,
      "type": "SCALAR"
    },
    {
      "bufferView": 1,
      "byteOffset": 33624,
      "componentType": 5126,
      "count": 5555,
      "max": [
        352.6614074707031,
        212.3613739013672,
        129.50660705566406
      ],
      "min": [
        -80.0824966430664,
        46.51839065551758,
        3.1952619552612305
      ],
      "type": "VEC3"
    },
    {
      "bufferView": 1,
      "byteOffset": 100284,
      "componentType": 5126,
      "count": 5555,
      "max": [
        0.9999902248382568,
        0.999782919883728,
        0.9999231100082397
      ],
      "min": [
        -0.9999902248382568,
        -0.9997835159301758,
        -0.9997792840003967
      ],
      "type": "VEC3"
    },
    {
      "bufferView": 0,
      "byteOffset": 41216,
      "componentType": 5125,
      "count": 13014,
      "type": "SCALAR"
    },
    {
      "bufferView": 1,
      "byteOffset": 166944,
      "componentType": 5126,
      "count": 5555,
      "max": [
        352.6614074707031,
        212.3613739013672,
        129.50660705566406
      ],
      "min": [
        -80.0824966430664,
        46.51839065551758,
        3.1952619552612305
      ],
      "type": "VEC3"
    },
    {
      "bufferView": 1,
      "byteOffset": 233604,
      "componentType": 5126,
      "count": 5555,
      "max": [
        0.9999902248382568,
        0.9997835159301758,
        0.9997792840003967
      ],
      "min": [
        -0.9999902248382568,
        -0.999782919883728,
        -0.9999231100082397
      ],
      "type": "VEC3"
    },
    {
      "bufferView": 0,
      "byteOffset": 93272,
      "componentType": 5125,
      "count": 13014,
      "type": "SCALAR"
    }
  ],
  "asset": {
    "extras": {
      "author": "mudroljub (https://sketchfab.com/mudroljub)",
      "license": "CC-BY-4.0 (http://creativecommons.org/licenses/by/4.0/)",
      "source": "https://sketchfab.com/3d-models/tank-c3f0d5bcd6ff441aa89bda7886575199",
      "title": "Tank"
    },
    "generator": "Sketchfab-13.42.0",
    "version": "2.0"
  },
  "bufferViews": [
    {
      "buffer": 0,
      "byteLength": 145328,
      "name": "floatBufferViews",
      "target": 34963
    },
    {
      "buffer": 0,
      "byteLength": 300264,
      "byteOffset": 145328,
      "byteStride": 12,
      "name": "floatBufferViews",
      "target": 34962
    }
  ],
  "buffers": [
    {
      "byteLength": 445592,
      "uri": "scene.bin"
    }
  ],
  "materials": [
    {
      "name": "edge_color000255",
      "pbrMetallicRoughness": {
        "metallicFactor": 0.0,
        "roughnessFactor": 0.6
      }
    },
    {
      "name": "00000000.dds1",
      "pbrMetallicRoughness": {
        "baseColorFactor": [
          0.266667,
          0.227451,
          0.137255,
          1.0
        ],
        "metallicFactor": 0.0,
        "roughnessFactor": 0.6
      }
    },
    {
      "name": "material",
      "pbrMetallicRoughness": {
        "baseColorFactor": [
          0.670588,
          0.690196,
          0.8,
          1.0
        ],
        "metallicFactor": 0.0,
        "roughnessFactor": 0.6
      }
    }
  ],
  "meshes": [
    {
      "name": "Material4",
      "primitives": [
        {
          "attributes": {
            "POSITION": 0
          },
          "indices": 1,
          "material": 0,
          "mode": 1
        }
      ]
    },
    {
      "name": "Material2",
      "primitives": [
        {
          "attributes": {
            "NORMAL": 3,
            "POSITION": 2
          },
          "indices": 4,
          "material": 1,
          "mode": 4
        }
      ]
    },
    {
      "name": "Material3",
      "primitives": [
        {
          "attributes": {
            "NORMAL": 6,
            "POSITION": 5
          },
          "indices": 7,
          "material": 2,
          "mode": 4
        }
      ]
    }
  ],
  "nodes": [
    {
      "children": [
        1
      ],
      "matrix": [
        1.0,
        0.0,
        0.0,
        0.0,
        0.0,
        2.220446049250313e-16,
        -1.0,
        0.0,
        0.0,
        1.0,
        2.220446049250313e-16,
        0.0,
        0.0,
        0.0,
        0.0,
        1.0
      ],
      "name": "Sketchfab_model"
    },
    {
      "children": [
        2,
        3,
        4,
        5
      ],
      "name": "Collada visual scene group"
    },
    {
      "mesh": 0,
      "name": "Material4"
    },
    {
      "mesh": 1,
      "name": "Material2"
    },
    {
      "mesh": 2,
      "name": "Material3"
    },
    {
      "children": [
        6
      ],
      "name": "SketchUp"
    },
    {
      "children": [
        7
      ],
      "matrix": [
        0.8063943,
        -0.5913783,
        5.551115e-17,
        0.0,
        0.1931674,
        0.2634001,
        0.9451491,
        0.0,
        -0.5589406,
        -0.7621628,
        0.3266394,
        0.0,
        -193.2412,
        -282.5432,
        245.2719,
        1.0
      ],
      "name": "skp_camera_Last_Saved_SketchUp_View"
    },
    {
      "name": "ID1"
    }
  ],
  "scene": 0,
  "scenes": [
    {
      "name": "Sketchfab_Scene",
      "nodes": [
        0
      ]
    }
  ]
}
