{
  "accessors": [
    {
      "bufferView": 2,
      "componentType": 5126,
      "count": 164,
      "max": [
        -846.0779418945313,
        3375.596435546875,
        1181.8414306640625
      ],
      "min": [
        -1318.7998046875,
        -4156.271484375,
        -692.233642578125
      ],
      "type": "VEC3"
    },
    {
      "bufferView": 2,
      "byteOffset": 1968,
      "componentType": 5126,
      "count": 164,
      "max": [
        1.0,
        0.9973657727241516,
        0.9999993443489075
      ],
      "min": [
        -1.0,
        -0.9927340149879456,
        -0.9999858140945435
      ],
      "type": "VEC3"
    },
    {
      "bufferView": 1,
      "componentType": 5126,
      "count": 164,
      "max": [
        0.9939967393875122,
        0.9657252430915833
      ],
      "min": [
        0.008788138628005981,
        0.030260175466537476
      ],
      "type": "VEC2"
    },
    {
      "bufferView": 0,
      "componentType": 5125,
      "count": 276,
      "type": "SCALAR"
    },
    {
      "bufferView": 2,
      "byteOffset": 3936,
      "componentType": 5126,
      "count": 1670,
      "max": [
        -1174.7823486328125,
        235.72076416015625,
        1126.7459716796875
      ],
      "min": [
        -1941.965087890625,
        -2049.085693359375,
        305.9457092285156
      ],
      "type": "VEC3"
    },
    {
      "bufferView": 2,
      "byteOffset": 23976,
      "componentType": 5126,
      "count": 1670,
      "max": [
        1.0,
        0.8907221555709839,
        1.0
      ],
      "min": [
        -1.0,
        -0.9998127818107605,
        -1.0
      ],
      "type": "VEC3"
    },
    {
      "bufferView": 1,
      "byteOffset": 1312,
      "componentType": 5126,
      "count": 1670,
      "max": [
        0.9994654655456543,
        0.7835626602172852
      ],
      "min": [
        0.4482535421848297,
        0.4198428988456726
      ],
      "type": "VEC2"
    },
    {
      "bufferView": 0,
      "byteOffset": 1104,
      "componentType": 5125,
      "count": 4170,
      "type": "SCALAR"
    },
    {
      "bufferView": 2,
      "byteOffset": 44016,
      "componentType": 5126,
      "count": 1475,
      "max": [
        -1174.7823486328125,
        235.72076416015625,
        1126.7459716796875
      ],
      "min": [
        -1941.965087890625,
        -2049.085693359375,
        305.9457092285156
      ],
      "type": "VEC3"
    },
    {
      "bufferView": 2,
      "byteOffset": 61716,
      "componentType": 5126,
      "count": 1475,
      "max": [
        1.0,
        1.0,
        1.0
      ],
      "min": [
        -1.0,
        -1.0,
        -1.0
      ],
      "type": "VEC3"
    },
    {
      "bufferView": 1,
      "byteOffset": 14672,
      "componentType": 5126,
      "count": 1475,
      "max": [
        0.9994654655456543,
        0.7835626602172852
      ],
      "min": [
        0.47141173481941223,
        0.44626107811927795
      ],
      "type": "VEC2"
    },
    {
      "bufferView": 0,
      "byteOffset": 17784,
      "componentType": 5125,
      "count": 3438,
      "type": "SCALAR"
    },
    {
      "bufferView": 2,
      "byteOffset": 79416,
      "componentType": 5126,
      "count": 4141,
      "max": [
        740.1028442382813,
        2339.427978515625,
        1514.47216796875
      ],
      "min": [
        -854.3592529296875,
        -3583.60791015625,
        -462.7394104003906
      ],
      "type": "VEC3"
    },
    {
      "bufferView": 2,
      "byteOffset": 129108,
      "componentType": 5126,
      "count": 4141,
      "max": [
        1.0,
        1.0,
        1.0
      ],
      "min": [
        -1.0,
        -1.0,
        -1.0
      ],
      "type": "VEC3"
    },
    {
      "bufferView": 1,
      "byteOffset": 26472,
      "componentType": 5126,
      "count": 4141,
      "max": [
        0.9190893173217773,
        0.9428957104682922
      ],
      "min": [
        0.14432448148727417,
        0.13037586212158203
      ],
      "type": "VEC2"
    },
    {
      "bufferView": 0,
      "byteOffset": 31536,
      "componentType": 5125,
      "count": 6768,
      "type": "SCALAR"
    },
    {
      "bufferView": 2,
      "byteOffset": 178800,
      "componentType": 5126,
      "count": 164,
      "max": [
        1207.3018798828125,
        3375.596435546875,
        1181.8414306640625
      ],
      "min": [
        730.0529174804688,
        -4156.271484375,
        -692.233642578125
      ],
      "type": "VEC3"
    },
    {
      "bufferView": 2,
      "byteOffset": 180768,
      "componentType": 5126,
      "count": 164,
      "max": [
        1.0,
        0.9973657727241516,
        0.9999992847442627
      ],
      "min": [
        -1.0,
        -0.9927340149879456,
        -0.9999858140945435
      ],
      "type": "VEC3"
    },
    {
      "bufferView": 1,
      "byteOffset": 59600,
      "componentType": 5126,
      "count": 164,
      "max": [
        0.9939966797828674,
        0.9657252430915833
      ],
      "min": [
        0.008788228034973145,
        0.03026026487350464
      ],
      "type": "VEC2"
    },
    {
      "bufferView": 0,
      "byteOffset": 58608,
      "componentType": 5125,
      "count": 276,
      "type": "SCALAR"
    },
    {
      "bufferView": 2,
      "byteOffset": 182736,
      "componentType": 5126,
      "count": 3508,
      "max": [
        1828.7696533203125,
        235.72264099121094,
        1126.7459716796875
      ],
      "min": [
        1061.5887451171875,
        -2048.741455078125,
        305.9457092285156
      ],
      "type": "VEC3"
    },
    {
      "bufferView": 2,
      "byteOffset": 224832,
      "componentType": 5126,
      "count": 3508,
      "max": [
        1.0,
        1.0,
        1.0
      ],
      "min": [
        -1.0,
        -1.0,
        -1.0
      ],
      "type": "VEC3"
    },
    {
      "bufferView": 1,
      "byteOffset": 60912,
      "componentType": 5126,
      "count": 3508,
      "max": [
        0.6906768083572388,
        0.7835626602172852
      ],
      "min": [
        -0.00109100341796875,
        0.4198426902294159
      ],
      "type": "VEC2"
    },
    {
      "bufferView": 0,
      "byteOffset": 59712,
      "componentType": 5125,
      "count": 7098,
      "type": "SCALAR"
    },
    {
      "bufferView": 2,
      "byteOffset": 266928,
      "componentType": 5126,
      "count": 816,
      "max": [
        732.2409057617188,
        3375.6494140625,
        1665.5762939453125
      ],
      "min": [
        -846.8946533203125,
        -3935.443115234375,
        -560.3296508789063
      ],
      "type": "VEC3"
    },
    {
      "bufferView": 2,
      "byteOffset": 276720,
      "componentType": 5126,
      "count": 816,
      "max": [
        1.0,
        1.0,
        1.0
      ],
      "min": [
        -1.0,
        -0.8943477272987366,
        -0.9999322891235352
      ],
      "type": "VEC3"
    },
    {
      "bufferView": 1,
      "byteOffset": 88976,
      "componentType": 5126,
      "count": 816,
      "max": [
        0.965111255645752,
        1.004990816116333
      ],
      "min": [
        0.008781194686889648,
        0.008781194686889648
      ],
      "type": "VEC2"
    },
    {
      "bufferView": 0,
      "byteOffset": 88104,
      "componentType": 5125,
      "count": 1026,
      "type": "SCALAR"
    },
    {
      "bufferView": 2,
      "byteOffset": 286512,
      "componentType": 5126,
      "count": 3482,
      "max": [
        729.9818725585938,
        -1961.8343505859375,
        1487.0384521484375
      ],
      "min": [
        -845.1577758789063,
        -3613.455078125,
        286.362060546875
      ],
      "type": "VEC3"
    },
    {
      "bufferView": 2,
      "byteOffset": 328296,
      "componentType": 5126,
      "count": 3482,
      "max": [
        1.0,
        1.0,
        1.0
      ],
      "min": [
        -1.0,
        -1.0,
        -1.0
      ],
      "type": "VEC3"
    },
    {
      "bufferView": 1,
      "byteOffset": 95504,
      "componentType": 5126,
      "count": 3482,
      "max": [
        0.9229934811592102,
        0.9316220283508301
      ],
      "min": [
        0.29047006368637085,
        0.4382133483886719
      ],
      "type": "VEC2"
    },
    {
      "bufferView": 0,
      "byteOffset": 92208,
      "componentType": 5125,
      "count": 5952,
      "type": "SCALAR"
    },
    {
      "bufferView": 2,
      "byteOffset": 370080,
      "componentType": 5126,
      "count": 2463,
      "max": [
        451.9498291015625,
        2493.491455078125,
        1550.255615234375
      ],
      "min": [
        46.14143371582031,
        -1776.406982421875,
        28.17943000793457
      ],
      "type": "VEC3"
    },
    {
      "bufferView": 2,
      "byteOffset": 399636,
      "componentType": 5126,
      "count": 2463,
      "max": [
        1.0,
        1.0,
        1.0
      ],
      "min": [
        -1.0,
        -1.0,
        -1.0
      ],
      "type": "VEC3"
    },
    {
      "bufferView": 1,
      "byteOffset": 123360,
      "componentType": 5126,
      "count": 2463,
      "max": [
        0.6826977729797363,
        0.9576006531715393
      ],
      "min": [
        0.12601828575134277,
        0.1242942214012146
      ],
      "type": "VEC2"
    },
    {
      "bufferView": 0,
      "byteOffset": 116016,
      "componentType": 5125,
      "count": 4650,
      "type": "SCALAR"
    },
    {
      "bufferView": 2,
      "byteOffset": 429192,
      "componentType": 5126,
      "count": 5700,
      "max": [
        1228.6236572265625,
        3492.12451171875,
        1291.75048828125
      ],
      "min": [
        -1339.6790771484375,
        -4267.47216796875,
        -822.1741333007813
      ],
      "type": "VEC3"
    },
    {
      "bufferView": 2,
      "byteOffset": 497592,
      "componentType": 5126,
      "count": 5700,
      "max": [
        1.0,
        1.0,
        0.9999998807907104
      ],
      "min": [
        -1.0,
        -1.0,
        -1.0
      ],
      "type": "VEC3"
    },
    {
      "bufferView": 1,
      "byteOffset": 143064,
      "componentType": 5126,
      "count": 5700,
      "max": [
        1.0,
        1.0
      ],
      "min": [
        -5.960464477539063e-08,
        5.960464477539063e-08
      ],
      "type": "VEC2"
    },
    {
      "bufferView": 0,
      "byteOffset": 134616,
      "componentType": 5125,
      "count": 7056,
      "type": "SCALAR"
    }
  ],
  "asset": {
    "extras": {
      "author": "mudroljub (https://sketchfab.com/mudroljub)",
      "license": "CC-BY-4.0 (http://creativecommons.org/licenses/by/4.0/)",
      "source": "https://sketchfab.com/3d-models/tank-ww1-2a5801f7842e4c3d8346653193341c5d",
      "title": "Tank WW1"
    },
    "generator": "Sketchfab-13.42.0",
    "version": "2.0"
  },
  "bufferViews": [
    {
      "buffer": 0,
      "byteLength": 162840,
      "name": "floatBufferViews",
      "target": 34963
    },
    {
      "buffer": 0,
      "byteLength": 188664,
      "byteOffset": 162840,
      "byteStride": 8,
      "name": "floatBufferViews",
      "target": 34962
    },
    {
      "buffer": 0,
      "byteLength": 565992,
      "byteOffset": 351504,
      "byteStride": 12,
      "name": "floatBufferViews",
      "target": 34962
    }
  ],
  "buffers": [
    {
      "byteLength": 917496,
      "uri": "scene.bin"
    }
  ],
  "images": [
    {
      "uri": "textures/TRACK_baseColor.png"
    },
    {
      "uri": "textures/BODY_baseColor.png"
    }
  ],
  "materials": [
    {
      "doubleSided": true,
      "name": "TRACK",
      "pbrMetallicRoughness": {
        "baseColorTexture": {
          "index": 0
        },
        "metallicFactor": 0.0,
        "roughnessFactor": 0.6
      }
    },
    {
      "doubleSided": true,
      "name": "BODY",
      "pbrMetallicRoughness": {
        "baseColorTexture": {
          "index": 1
        },
        "metallicFactor": 0.0,
        "roughnessFactor": 0.6
      }
    }
  ],
  "meshes": [
    {
      "name": "Object_0",
      "primitives": [
        {
          "attributes": {
            "NORMAL": 1,
            "POSITION": 0,
            "TEXCOORD_0": 2
          },
          "indices": 3,
          "material": 1,
          "mode": 4
        }
      ]
    },
    {
      "name": "Object_1",
      "primitives": [
        {
          "attributes": {
            "NORMAL": 5,
            "POSITION": 4,
            "TEXCOORD_0": 6
          },
          "indices": 7,
          "material": 1,
          "mode": 4
        }
      ]
    },
    {
      "name": "Object_2",
      "primitives": [
        {
          "attributes": {
            "NORMAL": 9,
            "POSITION": 8,
            "TEXCOORD_0": 10
          },
          "indices": 11,
          "material": 1,
          "mode": 4
        }
      ]
    },
    {
      "name": "Object_3",
      "primitives": [
        {
          "attributes": {
            "NORMAL": 13,
            "POSITION": 12,
            "TEXCOORD_0": 14
          },
          "indices": 15,
          "material": 1,
          "mode": 4
        }
      ]
    },
    {
      "name": "Object_4",
      "primitives": [
        {
          "attributes": {
            "NORMAL": 17,
            "POSITION": 16,
            "TEXCOORD_0": 18
          },
          "indices": 19,
          "material": 1,
          "mode": 4
        }
      ]
    },
    {
      "name": "Object_5",
      "primitives": [
        {
          "attributes": {
            "NORMAL": 21,
            "POSITION": 20,
            "TEXCOORD_0": 22
          },
          "indices": 23,
          "material": 1,
          "mode": 4
        }
      ]
    },
    {
      "name": "Object_6",
      "primitives": [
        {
          "attributes": {
            "NORMAL": 25,
            "POSITION": 24,
            "TEXCOORD_0": 26
          },
          "indices": 27,
          "material": 1,
          "mode": 4
        }
      ]
    },
    {
      "name": "Object_7",
      "primitives": [
        {
          "attributes": {
            "NORMAL": 29,
            "POSITION": 28,
            "TEXCOORD_0": 30
          },
          "indices": 31,
          "material": 1,
          "mode": 4
        }
      ]
    },
    {
      "name": "Object_8",
      "primitives": [
        {
          "attributes": {
            "NORMAL": 33,
            "POSITION": 32,
            "TEXCOORD_0": 34
          },
          "indices": 35,
          "material": 1,
          "mode": 4
        }
      ]
    },
    {
      "name": "Object_9",
      "primitives": [
        {
          "attributes": {
            "NORMAL": 37,
            "POSITION": 36,
            "TEXCOORD_0": 38
          },
          "indices": 39,
          "material": 0,
          "mode": 4
        }
      ]
    }
  ],
  "nodes": [
    {
      "children": [
        1
      ],
      "matrix": [
        1.0,
        0.0,
        0.0,
        0.0,
        0.0,
        2.220446049250313e-16,
        -1.0,
        0.0,
        0.0,
        1.0,
        2.220446049250313e-16,
        0.0,
        0.0,
        0.0,
        0.0,
        1.0
      ],
      "name": "Sketchfab_model"
    },
    {
      "children": [
        2,
        5,
        9,
        12,
        15,
        18,
        21,
        24,
        27
      ],
      "name": "Tank FEMALE N070712.3DS"
    },
    {
      "children": [
        3
      ],
      "matrix": [
        0.0,
        1.000000238418579,
        2.980232949312267e-08,
        0.0,
        2.9802322387695313e-08,
        0.0,
        1.0,
        0.0,
        1.1556003093719482,
        3.443957297122324e-08,
        0.0,
        0.0,
        -1377.71923828125,
        -593.932373046875,
        208.55349731445313,
        1.0
      ],
      "name": "RIGHT WING"
    },
    {
      "children": [
        4
      ],
      "matrix": [
        0.0,
        0.0,
        0.8653511009732121,
        0.0,
        0.9999997615814776,
        0.0,
        0.0,
        0.0,
        0.0,
        0.9999999999999999,
        0.0,
        0.0,
        593.9322314423962,
        -208.5534973144531,
        1192.2108596786547,
        1.0
      ],
      "name": "3DSMeshMatrix"
    },
    {
      "mesh": 0,
      "name": "Object_4"
    },
    {
      "children": [
        6
      ],
      "matrix": [
        -1.630783299333416e-05,
        34.20000076293945,
        0.0,
        0.0,
        -34.20000076293945,
        -1.630783299333416e-05,
        0.0,
        0.0,
        0.0,
        0.0,
        34.19999694824219,
        0.0,
        -88.76322937011719,
        -338.2023620605469,
        794.1206665039063,
        1.0
      ],
      "name": "RIGHT GUNN"
    },
    {
      "children": [
        7,
        8
      ],
      "matrix": [
        -1.4788367139610109e-08,
        -0.029239762168150156,
        0.0,
        0.0,
        0.029239762168150156,
        -1.4788367139610107e-08,
        0.0,
        0.0,
        0.0,
        0.0,
        0.029239768691014405,
        0.0,
        9.888955318693776,
        -2.595420717519885,
        -23.21990460132841,
        1.0
      ],
      "name": "3DSMeshMatrix"
    },
    {
      "mesh": 1,
      "name": "Object_7"
    },
    {
      "mesh": 2,
      "name": "Object_8"
    },
    {
      "children": [
        10
      ],
      "matrix": [
        -1.630783299333416e-05,
        34.20000076293945,
        0.0,
        0.0,
        -34.20000076293945,
        -1.630783299333416e-05,
        0.0,
        0.0,
        0.0,
        0.0,
        34.19999694824219,
        0.0,
        -88.76322937011719,
        -338.2023620605469,
        794.1206665039063,
        1.0
      ],
      "name": "MAIN BODY"
    },
    {
      "children": [
        11
      ],
      "matrix": [
        -1.4788367139610109e-08,
        -0.029239762168150156,
        0.0,
        0.0,
        0.029239762168150156,
        -1.4788367139610107e-08,
        0.0,
        0.0,
        0.0,
        0.0,
        0.029239768691014405,
        0.0,
        9.888955318693776,
        -2.595420717519885,
        -23.21990460132841,
        1.0
      ],
      "name": "3DSMeshMatrix"
    },
    {
      "mesh": 3,
      "name": "Object_11"
    },
    {
      "children": [
        13
      ],
      "matrix": [
        0.0,
        1.000000238418579,
        2.980232949312267e-08,
        0.0,
        2.9802322387695313e-08,
        0.0,
        1.0,
        0.0,
        1.1666669845581055,
        3.476938559288101e-08,
        0.0,
        0.0,
        670.5692138671875,
        -593.932373046875,
        208.55349731445313,
        1.0
      ],
      "name": "LEFT WING"
    },
    {
      "children": [
        14
      ],
      "matrix": [
        0.0,
        0.0,
        0.8571426235900269,
        0.0,
        0.9999997615814777,
        0.0,
        0.0,
        0.0,
        0.0,
        1.0,
        0.0,
        0.0,
        593.9322314423963,
        -208.55349731445313,
        -574.773455272823,
        1.0
      ],
      "name": "3DSMeshMatrix"
    },
    {
      "mesh": 4,
      "name": "Object_14"
    },
    {
      "children": [
        16
      ],
      "matrix": [
        -1.630783299333416e-05,
        34.20000076293945,
        0.0,
        0.0,
        -34.20000076293945,
        -1.630783299333416e-05,
        0.0,
        0.0,
        0.0,
        0.0,
        34.19999694824219,
        0.0,
        -88.76322937011719,
        -338.2023620605469,
        794.1206665039063,
        1.0
      ],
      "name": "LEFT GUNNE"
    },
    {
      "children": [
        17
      ],
      "matrix": [
        -1.4788367139610109e-08,
        -0.029239762168150156,
        0.0,
        0.0,
        0.029239762168150156,
        -1.4788367139610107e-08,
        0.0,
        0.0,
        0.0,
        0.0,
        0.029239768691014405,
        0.0,
        9.888955318693776,
        -2.595420717519885,
        -23.21990460132841,
        1.0
      ],
      "name": "3DSMeshMatrix"
    },
    {
      "mesh": 5,
      "name": "Object_17"
    },
    {
      "children": [
        19
      ],
      "matrix": [
        -1.630783299333416e-05,
        34.20000076293945,
        0.0,
        0.0,
        -34.20000076293945,
        -1.630783299333416e-05,
        0.0,
        0.0,
        0.0,
        0.0,
        34.19999694824219,
        0.0,
        -88.76322937011719,
        -338.2023620605469,
        794.1206665039063,
        1.0
      ],
      "name": "HAND RAIL"
    },
    {
      "children": [
        20
      ],
      "matrix": [
        -1.4788367139610109e-08,
        -0.029239762168150156,
        0.0,
        0.0,
        0.029239762168150156,
        -1.4788367139610107e-08,
        0.0,
        0.0,
        0.0,
        0.0,
        0.029239768691014405,
        0.0,
        9.888955318693776,
        -2.595420717519885,
        -23.21990460132841,
        1.0
      ],
      "name": "3DSMeshMatrix"
    },
    {
      "mesh": 6,
      "name": "Object_20"
    },
    {
      "children": [
        22
      ],
      "matrix": [
        -1.630783299333416e-05,
        34.20000076293945,
        0.0,
        0.0,
        -34.20000076293945,
        -1.630783299333416e-05,
        0.0,
        0.0,
        0.0,
        0.0,
        34.19999694824219,
        0.0,
        -88.76322937011719,
        -338.2023620605469,
        794.1206665039063,
        1.0
      ],
      "name": "FRONT GUNN"
    },
    {
      "children": [
        23
      ],
      "matrix": [
        -1.4788367139610109e-08,
        -0.029239762168150156,
        0.0,
        0.0,
        0.029239762168150156,
        -1.4788367139610107e-08,
        0.0,
        0.0,
        0.0,
        0.0,
        0.029239768691014405,
        0.0,
        9.888955318693776,
        -2.595420717519885,
        -23.21990460132841,
        1.0
      ],
      "name": "3DSMeshMatrix"
    },
    {
      "mesh": 7,
      "name": "Object_23"
    },
    {
      "children": [
        25
      ],
      "matrix": [
        -1.630783299333416e-05,
        34.20000076293945,
        0.0,
        0.0,
        -34.20000076293945,
        -1.630783299333416e-05,
        0.0,
        0.0,
        0.0,
        0.0,
        34.19999694824219,
        0.0,
        -88.76322937011719,
        -338.2023620605469,
        794.1206665039063,
        1.0
      ],
      "name": "EXHAUST"
    },
    {
      "children": [
        26
      ],
      "matrix": [
        -1.4788367139610109e-08,
        -0.029239762168150156,
        0.0,
        0.0,
        0.029239762168150156,
        -1.4788367139610107e-08,
        0.0,
        0.0,
        0.0,
        0.0,
        0.029239768691014405,
        0.0,
        9.888955318693776,
        -2.595420717519885,
        -23.21990460132841,
        1.0
      ],
      "name": "3DSMeshMatrix"
    },
    {
      "mesh": 8,
      "name": "Object_26"
    },
    {
      "children": [
        28
      ],
      "matrix": [
        0.0,
        0.13124999403953552,
        -0.991349458694458,
        0.0,
        -4.470347647611561e-08,
        0.9913491010665894,
        0.13124994933605194,
        0.0,
        1.0000001192092896,
        4.4703490686970326e-08,
        0.0,
        0.0,
        -1339.678955078125,
        3449.659912109375,
        -223.40826416015625,
        1.0
      ],
      "name": "TRACKS"
    },
    {
      "children": [
        29
      ],
      "matrix": [
        -2.0045942261594414e-08,
        -4.0736794039111465e-08,
        0.9999998807907224,
        0.0,
        0.13124997082758197,
        0.9913495084724471,
        4.89501043530945e-08,
        0.0,
        -0.9913491508445621,
        0.13124998572874544,
        -1.3950433881461802e-08,
        0.0,
        -674.24338265139,
        -3390.4963813582553,
        1339.67862339811,
        1.0
      ],
      "name": "3DSMeshMatrix"
    },
    {
      "mesh": 9,
      "name": "Object_29"
    }
  ],
  "samplers": [
    {
      "magFilter": 9729,
      "minFilter": 9987,
      "wrapS": 10497,
      "wrapT": 10497
    }
  ],
  "scene": 0,
  "scenes": [
    {
      "name": "Sketchfab_Scene",
      "nodes": [
        0
      ]
    }
  ],
  "textures": [
    {
      "sampler": 0,
      "source": 0
    },
    {
      "sampler": 0,
      "source": 1
    }
  ]
}
