{
  "accessors": [
    {
      "bufferView": 2,
      "componentType": 5126,
      "count": 100,
      "max": [
        38.927093505859375,
        50.6857795715332,
        36.2204704284668
      ],
      "min": [
        38.927093505859375,
        -50.68569564819336,
        0.0
      ],
      "type": "VEC3"
    },
    {
      "bufferView": 2,
      "byteOffset": 1200,
      "componentType": 5126,
      "count": 100,
      "max": [
        1.0,
        1.2637040394149202e-13,
        8.966438630388687e-31
      ],
      "min": [
        -1.0,
        -1.2637040394149202e-13,
        -8.966438630388687e-31
      ],
      "type": "VEC3"
    },
    {
      "bufferView": 0,
      "componentType": 5125,
      "count": 276,
      "type": "SCALAR"
    },
    {
      "bufferView": 2,
      "byteOffset": 2400,
      "componentType": 5126,
      "count": 258,
      "max": [
        211.34970092773438,
        50.6857795715332,
        46.60327911376953
      ],
      "min": [
        -9.277491699322127e-07,
        -50.68569564819336,
        0.0
      ],
      "type": "VEC3"
    },
    {
      "bufferView": 0,
      "byteOffset": 1104,
      "componentType": 5125,
      "count": 1152,
      "type": "SCALAR"
    },
    {
      "bufferView": 2,
      "byteOffset": 5496,
      "componentType": 5126,
      "count": 61,
      "max": [
        207.413330078125,
        117.26278686523438,
        37.63933181762695
      ],
      "min": [
        37.493896484375,
        -117.26268768310547,
        21.142520904541016
      ],
      "type": "VEC3"
    },
    {
      "bufferView": 0,
      "byteOffset": 5712,
      "componentType": 5125,
      "count": 204,
      "type": "SCALAR"
    },
    {
      "bufferView": 2,
      "byteOffset": 6228,
      "componentType": 5126,
      "count": 670,
      "max": [
        211.34970092773438,
        117.26278686523438,
        46.60327911376953
      ],
      "min": [
        -9.277491699322127e-07,
        -117.26268768310547,
        11.290550231933594
      ],
      "type": "VEC3"
    },
    {
      "bufferView": 2,
      "byteOffset": 14268,
      "componentType": 5126,
      "count": 670,
      "max": [
        1.0,
        1.0,
        0.9999625086784363
      ],
      "min": [
        -1.0,
        -1.0,
        -0.9999625086784363
      ],
      "type": "VEC3"
    },
    {
      "bufferView": 1,
      "componentType": 5126,
      "count": 670,
      "max": [
        0.9828839898109436,
        0.9731760025024414
      ],
      "min": [
        0.01388006005436182,
        0.03827571123838425
      ],
      "type": "VEC2"
    },
    {
      "bufferView": 0,
      "byteOffset": 6528,
      "componentType": 5125,
      "count": 2664,
      "type": "SCALAR"
    }
  ],
  "asset": {
    "extras": {
      "author": "mudroljub (https://sketchfab.com/mudroljub)",
      "license": "CC-BY-4.0 (http://creativecommons.org/licenses/by/4.0/)",
      "source": "https://sketchfab.com/3d-models/messerschmitt-bf-110-2648d80e94fe463786bb2651a2f4d0b3",
      "title": "Messerschmitt Bf 110"
    },
    "generator": "Sketchfab-13.42.0",
    "version": "2.0"
  },
  "bufferViews": [
    {
      "buffer": 0,
      "byteLength": 17184,
      "name": "floatBufferViews",
      "target": 34963
    },
    {
      "buffer": 0,
      "byteLength": 5360,
      "byteOffset": 17184,
      "byteStride": 8,
      "name": "floatBufferViews",
      "target": 34962
    },
    {
      "buffer": 0,
      "byteLength": 22308,
      "byteOffset": 22544,
      "byteStride": 12,
      "name": "floatBufferViews",
      "target": 34962
    }
  ],
  "buffers": [
    {
      "byteLength": 44852,
      "uri": "scene.bin"
    }
  ],
  "images": [
    {
      "uri": "textures/bf110_baseColor.png"
    }
  ],
  "materials": [
    {
      "alphaMode": "BLEND",
      "name": "Translucent_Glass_Gray",
      "pbrMetallicRoughness": {
        "baseColorFactor": [
          0.501961,
          0.501961,
          0.501961,
          0.501961
        ],
        "metallicFactor": 0.0,
        "roughnessFactor": 0.6
      }
    },
    {
      "name": "edge_color000255",
      "pbrMetallicRoughness": {
        "metallicFactor": 0.0,
        "roughnessFactor": 0.6
      }
    },
    {
      "name": "edge_color514954255",
      "pbrMetallicRoughness": {
        "metallicFactor": 0.0,
        "roughnessFactor": 0.6
      }
    },
    {
      "name": "bf110",
      "pbrMetallicRoughness": {
        "baseColorTexture": {
          "index": 0
        },
        "metallicFactor": 0.0,
        "roughnessFactor": 0.6
      }
    }
  ],
  "meshes": [
    {
      "name": "Material2",
      "primitives": [
        {
          "attributes": {
            "NORMAL": 1,
            "POSITION": 0
          },
          "indices": 2,
          "material": 0,
          "mode": 4
        }
      ]
    },
    {
      "name": "Material4",
      "primitives": [
        {
          "attributes": {
            "POSITION": 3
          },
          "indices": 4,
          "material": 1,
          "mode": 1
        }
      ]
    },
    {
      "name": "Material3",
      "primitives": [
        {
          "attributes": {
            "POSITION": 5
          },
          "indices": 6,
          "material": 2,
          "mode": 1
        }
      ]
    },
    {
      "name": "Material2",
      "primitives": [
        {
          "attributes": {
            "NORMAL": 8,
            "POSITION": 7,
            "TEXCOORD_0": 9
          },
          "indices": 10,
          "material": 3,
          "mode": 4
        }
      ]
    }
  ],
  "nodes": [
    {
      "children": [
        1
      ],
      "matrix": [
        1.0,
        0.0,
        0.0,
        0.0,
        0.0,
        2.220446049250313e-16,
        -1.0,
        0.0,
        0.0,
        1.0,
        2.220446049250313e-16,
        0.0,
        0.0,
        0.0,
        0.0,
        1.0
      ],
      "name": "Sketchfab_model"
    },
    {
      "children": [
        2,
        3,
        4,
        5,
        6
      ],
      "name": "Collada visual scene group"
    },
    {
      "mesh": 0,
      "name": "Material2"
    },
    {
      "mesh": 1,
      "name": "Material4"
    },
    {
      "mesh": 2,
      "name": "Material3"
    },
    {
      "mesh": 3,
      "name": "Material2"
    },
    {
      "children": [
        7,
        9
      ],
      "name": "SketchUp"
    },
    {
      "children": [
        8
      ],
      "matrix": [
        0.6906655,
        -0.7231744,
        -8.326673e-17,
        0.0,
        0.4852154,
        0.4634035,
        0.7415007,
        0.0,
        -0.5362343,
        -0.5121289,
        0.6709521,
        0.0,
        -46.201,
        -149.5262,
        194.4155,
        1.0
      ],
      "name": "skp_camera_Last_Saved_SketchUp_View"
    },
    {
      "name": "ID1"
    },
    {
      "children": [
        10
      ],
      "matrix": [
        0.6906655,
        -0.7231744,
        -8.326673e-17,
        0.0,
        0.4852154,
        0.4634035,
        0.7415007,
        0.0,
        -0.5362343,
        -0.5121289,
        0.6709521,
        0.0,
        -46.201,
        -149.5262,
        194.4155,
        1.0
      ],
      "name": "skp_camera_Scene_1"
    },
    {
      "name": "ID2"
    }
  ],
  "samplers": [
    {
      "magFilter": 9729,
      "minFilter": 9987,
      "wrapS": 10497,
      "wrapT": 10497
    }
  ],
  "scene": 0,
  "scenes": [
    {
      "name": "Sketchfab_Scene",
      "nodes": [
        0
      ]
    }
  ],
  "textures": [
    {
      "sampler": 0,
      "source": 0
    }
  ]
}
