{
  "accessors": [
    {
      "bufferView": 2,
      "componentType": 5126,
      "count": 6,
      "max": [
        149.36929321289063,
        81.25955200195313,
        291.1377868652344
      ],
      "min": [
        45.87051010131836,
        -68.3753890991211,
        169.3052978515625
      ],
      "type": "VEC3"
    },
    {
      "bufferView": 0,
      "componentType": 5125,
      "count": 6,
      "type": "SCALAR"
    },
    {
      "bufferView": 2,
      "byteOffset": 72,
      "componentType": 5126,
      "count": 192,
      "max": [
        130.93966674804688,
        151.24783325195313,
        137.38380432128906
      ],
      "min": [
        -122.28430938720703,
        -145.7705535888672,
        -133.86085510253906
      ],
      "type": "VEC3"
    },
    {
      "bufferView": 2,
      "byteOffset": 2376,
      "componentType": 5126,
      "count": 192,
      "max": [
        0.4233858585357666,
        0.6402860879898071,
        0.9998142719268799
      ],
      "min": [
        -0.4233858585357666,
        -0.6402860879898071,
        -0.9998142719268799
      ],
      "type": "VEC3"
    },
    {
      "bufferView": 0,
      "byteOffset": 24,
      "componentType": 5125,
      "count": 480,
      "type": "SCALAR"
    },
    {
      "bufferView": 2,
      "byteOffset": 4680,
      "componentType": 5126,
      "count": 5168,
      "max": [
        130.93966674804688,
        151.24783325195313,
        137.38380432128906
      ],
      "min": [
        -122.28430938720703,
        -145.7705535888672,
        -139.00062561035156
      ],
      "type": "VEC3"
    },
    {
      "bufferView": 2,
      "byteOffset": 66696,
      "componentType": 5126,
      "count": 5168,
      "max": [
        1.0,
        1.0,
        1.0
      ],
      "min": [
        -1.0,
        -1.0,
        -1.0
      ],
      "type": "VEC3"
    },
    {
      "bufferView": 1,
      "componentType": 5126,
      "count": 5168,
      "max": [
        12.622650146484375,
        14.376409530639648
      ],
      "min": [
        -12.622650146484375,
        -11.501330375671387
      ],
      "type": "VEC2"
    },
    {
      "bufferView": 0,
      "byteOffset": 1944,
      "componentType": 5125,
      "count": 8064,
      "type": "SCALAR"
    },
    {
      "bufferView": 2,
      "byteOffset": 128712,
      "componentType": 5126,
      "count": 30612,
      "max": [
        136.0261688232422,
        151.59986877441406,
        146.0742645263672
      ],
      "min": [
        -127.4263916015625,
        -146.634765625,
        -26.973926544189453
      ],
      "type": "VEC3"
    },
    {
      "bufferView": 2,
      "byteOffset": 496056,
      "componentType": 5126,
      "count": 30612,
      "max": [
        1.0,
        1.0,
        0.9983735680580139
      ],
      "min": [
        -1.0,
        -1.0,
        -1.0
      ],
      "type": "VEC3"
    },
    {
      "bufferView": 1,
      "byteOffset": 41344,
      "componentType": 5126,
      "count": 30612,
      "max": [
        62.81435012817383,
        60.45771026611328
      ],
      "min": [
        -62.82286071777344,
        -61.136680603027344
      ],
      "type": "VEC2"
    },
    {
      "bufferView": 0,
      "byteOffset": 34200,
      "componentType": 5125,
      "count": 47184,
      "type": "SCALAR"
    },
    {
      "bufferView": 2,
      "byteOffset": 863400,
      "componentType": 5126,
      "count": 600,
      "max": [
        134.80032348632813,
        149.24705505371094,
        144.7589569091797
      ],
      "min": [
        -126.20423126220703,
        -145.41432189941406,
        -25.751802444458008
      ],
      "type": "VEC3"
    },
    {
      "bufferView": 2,
      "byteOffset": 870600,
      "componentType": 5126,
      "count": 600,
      "max": [
        0.7295206189155579,
        0.6702800989151001,
        0.9918167591094971
      ],
      "min": [
        -0.7295206189155579,
        -0.6702800989151001,
        -0.9918167591094971
      ],
      "type": "VEC3"
    },
    {
      "bufferView": 1,
      "byteOffset": 286240,
      "componentType": 5126,
      "count": 600,
      "max": [
        1.3490010499954224,
        2.3070991039276123
      ],
      "min": [
        -2.6817679405212402,
        -1.2611550092697144
      ],
      "type": "VEC2"
    },
    {
      "bufferView": 0,
      "byteOffset": 222936,
      "componentType": 5125,
      "count": 648,
      "type": "SCALAR"
    },
    {
      "bufferView": 2,
      "byteOffset": 877800,
      "componentType": 5126,
      "count": 644,
      "max": [
        130.2282257080078,
        150.4566650390625,
        146.0742645263672
      ],
      "min": [
        -122.4811782836914,
        -145.624755859375,
        -26.973926544189453
      ],
      "type": "VEC3"
    },
    {
      "bufferView": 2,
      "byteOffset": 885528,
      "componentType": 5126,
      "count": 644,
      "max": [
        1.0,
        0.9926701784133911,
        0.9702521562576294
      ],
      "min": [
        -1.0,
        -0.9983735680580139,
        -0.9702521562576294
      ],
      "type": "VEC3"
    },
    {
      "bufferView": 1,
      "byteOffset": 291040,
      "componentType": 5126,
      "count": 644,
      "max": [
        61.679378509521484,
        53.81473159790039
      ],
      "min": [
        -50.21929931640625,
        -22.67091941833496
      ],
      "type": "VEC2"
    },
    {
      "bufferView": 0,
      "byteOffset": 225528,
      "componentType": 5125,
      "count": 1452,
      "type": "SCALAR"
    },
    {
      "bufferView": 2,
      "byteOffset": 893256,
      "componentType": 5126,
      "count": 15,
      "max": [
        7.8191447257995605,
        -15.157730102539063,
        102.34690856933594
      ],
      "min": [
        -8.590089797973633,
        -30.284284591674805,
        14.773934364318848
      ],
      "type": "VEC3"
    },
    {
      "bufferView": 0,
      "byteOffset": 231336,
      "componentType": 5125,
      "count": 24,
      "type": "SCALAR"
    },
    {
      "bufferView": 2,
      "byteOffset": 893436,
      "componentType": 5126,
      "count": 104,
      "max": [
        49.345088958740234,
        42.98548126220703,
        144.7589111328125
      ],
      "min": [
        -65.53331756591797,
        -71.8929214477539,
        -150.16294860839844
      ],
      "type": "VEC3"
    },
    {
      "bufferView": 0,
      "byteOffset": 231432,
      "componentType": 5125,
      "count": 180,
      "type": "SCALAR"
    },
    {
      "bufferView": 2,
      "byteOffset": 894684,
      "componentType": 5126,
      "count": 7784,
      "max": [
        65.71932220458984,
        59.35971450805664,
        143.64230346679688
      ],
      "min": [
        -81.90750122070313,
        -88.26709747314453,
        -150.16294860839844
      ],
      "type": "VEC3"
    },
    {
      "bufferView": 2,
      "byteOffset": 988092,
      "componentType": 5126,
      "count": 7784,
      "max": [
        1.0,
        1.0,
        1.0
      ],
      "min": [
        -1.0,
        -1.0,
        -1.0
      ],
      "type": "VEC3"
    },
    {
      "bufferView": 1,
      "byteOffset": 296192,
      "componentType": 5126,
      "count": 7784,
      "max": [
        1.9357149600982666,
        2.0950169563293457
      ],
      "min": [
        -1.9357149600982666,
        -0.2543885111808777
      ],
      "type": "VEC2"
    },
    {
      "bufferView": 0,
      "byteOffset": 232152,
      "componentType": 5125,
      "count": 15516,
      "type": "SCALAR"
    },
    {
      "bufferView": 2,
      "byteOffset": 1081500,
      "componentType": 5126,
      "count": 2176,
      "max": [
        64.94206237792969,
        58.582454681396484,
        148.13572692871094
      ],
      "min": [
        -81.13023376464844,
        -87.48983764648438,
        -150.16294860839844
      ],
      "type": "VEC3"
    },
    {
      "bufferView": 2,
      "byteOffset": 1107612,
      "componentType": 5126,
      "count": 2176,
      "max": [
        1.0,
        1.0,
        1.0
      ],
      "min": [
        -1.0,
        -1.0,
        -1.0
      ],
      "type": "VEC3"
    },
    {
      "bufferView": 1,
      "byteOffset": 358464,
      "componentType": 5126,
      "count": 2176,
      "max": [
        0.1490395963191986,
        2.15093994140625
      ],
      "min": [
        -0.15370650589466095,
        -0.2543885111808777
      ],
      "type": "VEC2"
    },
    {
      "bufferView": 0,
      "byteOffset": 294216,
      "componentType": 5125,
      "count": 5316,
      "type": "SCALAR"
    },
    {
      "bufferView": 2,
      "byteOffset": 1133724,
      "componentType": 5126,
      "count": 288,
      "max": [
        58.13029479980469,
        51.77070999145508,
        -150.53500366210938
      ],
      "min": [
        -74.31851959228516,
        -80.67809295654297,
        -153.486572265625
      ],
      "type": "VEC3"
    },
    {
      "bufferView": 2,
      "byteOffset": 1137180,
      "componentType": 5126,
      "count": 288,
      "max": [
        1.0,
        1.0,
        1.0
      ],
      "min": [
        -1.0,
        -1.0,
        -1.0
      ],
      "type": "VEC3"
    },
    {
      "bufferView": 1,
      "byteOffset": 375872,
      "componentType": 5126,
      "count": 288,
      "max": [
        2.919948101043701,
        2.919948101043701
      ],
      "min": [
        -2.919948101043701,
        -0.06506998836994171
      ],
      "type": "VEC2"
    },
    {
      "bufferView": 0,
      "byteOffset": 315480,
      "componentType": 5125,
      "count": 576,
      "type": "SCALAR"
    }
  ],
  "asset": {
    "extras": {
      "author": "mudroljub (https://sketchfab.com/mudroljub)",
      "license": "CC-BY-4.0 (http://creativecommons.org/licenses/by/4.0/)",
      "source": "https://sketchfab.com/3d-models/aerial-screw-d3b3ddac07824a2fb5da985cf9e3669b",
      "title": "Aerial-screw"
    },
    "generator": "Sketchfab-13.42.0",
    "version": "2.0"
  },
  "bufferViews": [
    {
      "buffer": 0,
      "byteLength": 317784,
      "name": "floatBufferViews",
      "target": 34963
    },
    {
      "buffer": 0,
      "byteLength": 378176,
      "byteOffset": 317784,
      "byteStride": 8,
      "name": "floatBufferViews",
      "target": 34962
    },
    {
      "buffer": 0,
      "byteLength": 1140636,
      "byteOffset": 695960,
      "byteStride": 12,
      "name": "floatBufferViews",
      "target": 34962
    }
  ],
  "buffers": [
    {
      "byteLength": 1836596,
      "uri": "scene.bin"
    }
  ],
  "images": [
    {
      "uri": "textures/Carpet_Berber_Multi_baseColor.jpeg"
    },
    {
      "uri": "textures/Metal_Rough_0_baseColor.jpeg"
    },
    {
      "uri": "textures/Stone_Brushed_Khaki_baseColor.jpeg"
    },
    {
      "uri": "textures/Metal_Rough_baseColor.jpeg"
    },
    {
      "uri": "textures/Metal_Rough_metallicRoughness.png"
    },
    {
      "uri": "textures/Wood_Cherry_Original_baseColor.jpeg"
    },
    {
      "uri": "textures/Wood_Cherry_Original_1_baseColor.jpeg"
    },
    {
      "uri": "textures/Wood_Cherry_Original_1_10_baseColor.jpeg"
    }
  ],
  "materials": [
    {
      "name": "edge_color000255",
      "pbrMetallicRoughness": {
        "metallicFactor": 0.0,
        "roughnessFactor": 0.6
      }
    },
    {
      "name": "material",
      "pbrMetallicRoughness": {
        "metallicFactor": 0.0,
        "roughnessFactor": 0.6
      }
    },
    {
      "name": "Carpet_Berber_Multi",
      "pbrMetallicRoughness": {
        "baseColorTexture": {
          "index": 0
        },
        "metallicFactor": 0.0,
        "roughnessFactor": 0.6
      }
    },
    {
      "name": "Metal_Rough_0",
      "pbrMetallicRoughness": {
        "baseColorTexture": {
          "index": 1
        },
        "metallicFactor": 0.0,
        "roughnessFactor": 0.6
      }
    },
    {
      "name": "Stone_Brushed_Khaki",
      "pbrMetallicRoughness": {
        "baseColorTexture": {
          "index": 2
        },
        "metallicFactor": 0.0,
        "roughnessFactor": 0.6
      }
    },
    {
      "name": "Metal_Rough",
      "pbrMetallicRoughness": {
        "baseColorTexture": {
          "index": 3
        },
        "metallicFactor": 0.0,
        "metallicRoughnessTexture": {
          "index": 4
        }
      }
    },
    {
      "name": "edge_color118125131255",
      "pbrMetallicRoughness": {
        "metallicFactor": 0.0,
        "roughnessFactor": 0.6
      }
    },
    {
      "name": "edge_color1096943255",
      "pbrMetallicRoughness": {
        "metallicFactor": 0.0,
        "roughnessFactor": 0.6
      }
    },
    {
      "name": "Wood_Cherry_Original",
      "pbrMetallicRoughness": {
        "baseColorTexture": {
          "index": 5
        },
        "metallicFactor": 0.0,
        "roughnessFactor": 0.6
      }
    },
    {
      "name": "Wood_Cherry_Original_1",
      "pbrMetallicRoughness": {
        "baseColorTexture": {
          "index": 6
        },
        "metallicFactor": 0.0,
        "roughnessFactor": 0.6
      }
    },
    {
      "name": "Wood_Cherry_Original_1_10",
      "pbrMetallicRoughness": {
        "baseColorTexture": {
          "index": 7
        },
        "metallicFactor": 0.0,
        "roughnessFactor": 0.6
      }
    }
  ],
  "meshes": [
    {
      "name": "Material2",
      "primitives": [
        {
          "attributes": {
            "POSITION": 0
          },
          "indices": 1,
          "material": 0,
          "mode": 1
        }
      ]
    },
    {
      "name": "Material2",
      "primitives": [
        {
          "attributes": {
            "NORMAL": 3,
            "POSITION": 2
          },
          "indices": 4,
          "material": 1,
          "mode": 4
        }
      ]
    },
    {
      "name": "Material2",
      "primitives": [
        {
          "attributes": {
            "NORMAL": 6,
            "POSITION": 5,
            "TEXCOORD_0": 7
          },
          "indices": 8,
          "material": 2,
          "mode": 4
        }
      ]
    },
    {
      "name": "Material2",
      "primitives": [
        {
          "attributes": {
            "NORMAL": 10,
            "POSITION": 9,
            "TEXCOORD_0": 11
          },
          "indices": 12,
          "material": 3,
          "mode": 4
        }
      ]
    },
    {
      "name": "Material2",
      "primitives": [
        {
          "attributes": {
            "NORMAL": 14,
            "POSITION": 13,
            "TEXCOORD_0": 15
          },
          "indices": 16,
          "material": 4,
          "mode": 4
        }
      ]
    },
    {
      "name": "Material2",
      "primitives": [
        {
          "attributes": {
            "NORMAL": 18,
            "POSITION": 17,
            "TEXCOORD_0": 19
          },
          "indices": 20,
          "material": 5,
          "mode": 4
        }
      ]
    },
    {
      "name": "Material2",
      "primitives": [
        {
          "attributes": {
            "POSITION": 21
          },
          "indices": 22,
          "material": 6,
          "mode": 1
        }
      ]
    },
    {
      "name": "Material2",
      "primitives": [
        {
          "attributes": {
            "POSITION": 23
          },
          "indices": 24,
          "material": 7,
          "mode": 1
        }
      ]
    },
    {
      "name": "Material2",
      "primitives": [
        {
          "attributes": {
            "NORMAL": 26,
            "POSITION": 25,
            "TEXCOORD_0": 27
          },
          "indices": 28,
          "material": 8,
          "mode": 4
        }
      ]
    },
    {
      "name": "Material3",
      "primitives": [
        {
          "attributes": {
            "NORMAL": 30,
            "POSITION": 29,
            "TEXCOORD_0": 31
          },
          "indices": 32,
          "material": 9,
          "mode": 4
        }
      ]
    },
    {
      "name": "Material2",
      "primitives": [
        {
          "attributes": {
            "NORMAL": 34,
            "POSITION": 33,
            "TEXCOORD_0": 35
          },
          "indices": 36,
          "material": 10,
          "mode": 4
        }
      ]
    }
  ],
  "nodes": [
    {
      "children": [
        1
      ],
      "matrix": [
        1.0,
        0.0,
        0.0,
        0.0,
        0.0,
        2.220446049250313e-16,
        -1.0,
        0.0,
        0.0,
        1.0,
        2.220446049250313e-16,
        0.0,
        0.0,
        0.0,
        0.0,
        1.0
      ],
      "name": "Sketchfab_model"
    },
    {
      "children": [
        2,
        3,
        4,
        5,
        6,
        7,
        8,
        9,
        10,
        11,
        12
      ],
      "name": "Collada visual scene group"
    },
    {
      "mesh": 0,
      "name": "Material2"
    },
    {
      "mesh": 1,
      "name": "Material2"
    },
    {
      "mesh": 2,
      "name": "Material2"
    },
    {
      "mesh": 3,
      "name": "Material2"
    },
    {
      "mesh": 4,
      "name": "Material2"
    },
    {
      "mesh": 5,
      "name": "Material2"
    },
    {
      "mesh": 6,
      "name": "Material2"
    },
    {
      "mesh": 7,
      "name": "Material2"
    },
    {
      "mesh": 8,
      "name": "Material2"
    },
    {
      "mesh": 9,
      "name": "Material3"
    },
    {
      "mesh": 10,
      "name": "Material2"
    }
  ],
  "samplers": [
    {
      "magFilter": 9729,
      "minFilter": 9987,
      "wrapS": 10497,
      "wrapT": 10497
    }
  ],
  "scene": 0,
  "scenes": [
    {
      "name": "Sketchfab_Scene",
      "nodes": [
        0
      ]
    }
  ],
  "textures": [
    {
      "sampler": 0,
      "source": 0
    },
    {
      "sampler": 0,
      "source": 1
    },
    {
      "sampler": 0,
      "source": 2
    },
    {
      "sampler": 0,
      "source": 3
    },
    {
      "sampler": 0,
      "source": 4
    },
    {
      "sampler": 0,
      "source": 5
    },
    {
      "sampler": 0,
      "source": 6
    },
    {
      "sampler": 0,
      "source": 7
    }
  ]
}
