{
  "accessors": [
    {
      "bufferView": 1,
      "componentType": 5126,
      "count": 723,
      "max": [
        440.710693359375,
        155.8531951904297,
        77.54627990722656
      ],
      "min": [
        0.0,
        1.2987148761749268,
        -7.2975922194018494e-06
      ],
      "type": "VEC3"
    },
    {
      "bufferView": 0,
      "componentType": 5125,
      "count": 2244,
      "type": "SCALAR"
    },
    {
      "bufferView": 1,
      "byteOffset": 8676,
      "componentType": 5126,
      "count": 2619,
      "max": [
        484.8446350097656,
        164.32489013671875,
        101.5193099975586
      ],
      "min": [
        0.0,
        0.5578485131263733,
        -7.2975922194018494e-06
      ],
      "type": "VEC3"
    },
    {
      "bufferView": 1,
      "byteOffset": 40104,
      "componentType": 5126,
      "count": 2619,
      "max": [
        1.0,
        1.0,
        1.0
      ],
      "min": [
        -1.0,
        -1.0,
        -1.0
      ],
      "type": "VEC3"
    },
    {
      "bufferView": 0,
      "byteOffset": 8976,
      "componentType": 5125,
      "count": 7281,
      "type": "SCALAR"
    },
    {
      "bufferView": 1,
      "byteOffset": 71532,
      "componentType": 5126,
      "count": 811,
      "max": [
        440.710693359375,
        163.5840301513672,
        60.95793533325195
      ],
      "min": [
        134.48651123046875,
        1.2987148761749268,
        0.08516243100166321
      ],
      "type": "VEC3"
    },
    {
      "bufferView": 1,
      "byteOffset": 81264,
      "componentType": 5126,
      "count": 811,
      "max": [
        1.0,
        1.0,
        1.0
      ],
      "min": [
        -1.0,
        -1.0,
        -1.0
      ],
      "type": "VEC3"
    },
    {
      "bufferView": 0,
      "byteOffset": 38100,
      "componentType": 5125,
      "count": 1413,
      "type": "SCALAR"
    },
    {
      "bufferView": 1,
      "byteOffset": 90996,
      "componentType": 5126,
      "count": 147,
      "max": [
        467.5153503417969,
        164.32489013671875,
        60.95793533325195
      ],
      "min": [
        126.90070343017578,
        0.5578485131263733,
        0.08516243100166321
      ],
      "type": "VEC3"
    },
    {
      "bufferView": 0,
      "byteOffset": 43752,
      "componentType": 5125,
      "count": 390,
      "type": "SCALAR"
    },
    {
      "bufferView": 1,
      "byteOffset": 92760,
      "componentType": 5126,
      "count": 165,
      "max": [
        484.8446350097656,
        164.8827362060547,
        101.5193099975586
      ],
      "min": [
        126.90070343017578,
        -2.842170943040401e-14,
        18.586740493774414
      ],
      "type": "VEC3"
    },
    {
      "bufferView": 0,
      "byteOffset": 45312,
      "componentType": 5125,
      "count": 504,
      "type": "SCALAR"
    },
    {
      "bufferView": 1,
      "byteOffset": 94740,
      "componentType": 5126,
      "count": 988,
      "max": [
        484.8446350097656,
        164.8827362060547,
        101.5193099975586
      ],
      "min": [
        0.0,
        -2.842170943040401e-14,
        18.586740493774414
      ],
      "type": "VEC3"
    },
    {
      "bufferView": 1,
      "byteOffset": 106596,
      "componentType": 5126,
      "count": 988,
      "max": [
        1.0,
        1.0,
        1.0
      ],
      "min": [
        -1.0,
        -1.0,
        -1.0
      ],
      "type": "VEC3"
    },
    {
      "bufferView": 0,
      "byteOffset": 47328,
      "componentType": 5125,
      "count": 2286,
      "type": "SCALAR"
    }
  ],
  "asset": {
    "extras": {
      "author": "mudroljub (https://sketchfab.com/mudroljub)",
      "license": "CC-BY-4.0 (http://creativecommons.org/licenses/by/4.0/)",
      "source": "https://sketchfab.com/3d-models/group-16-ecfc4150e194453ea67f2885551539f0",
      "title": "Group 16"
    },
    "generator": "Sketchfab-13.42.0",
    "version": "2.0"
  },
  "bufferViews": [
    {
      "buffer": 0,
      "byteLength": 56472,
      "name": "floatBufferViews",
      "target": 34963
    },
    {
      "buffer": 0,
      "byteLength": 118452,
      "byteOffset": 56472,
      "byteStride": 12,
      "name": "floatBufferViews",
      "target": 34962
    }
  ],
  "buffers": [
    {
      "byteLength": 174924,
      "uri": "scene.bin"
    }
  ],
  "materials": [
    {
      "name": "edge_color585858255",
      "pbrMetallicRoughness": {
        "metallicFactor": 0.0,
        "roughnessFactor": 0.6
      }
    },
    {
      "name": "Color_007",
      "pbrMetallicRoughness": {
        "baseColorFactor": [
          0.227451,
          0.227451,
          0.227451,
          1.0
        ],
        "metallicFactor": 0.0,
        "roughnessFactor": 0.6
      }
    },
    {
      "name": "Color_008",
      "pbrMetallicRoughness": {
        "baseColorFactor": [
          0.117647,
          0.117647,
          0.117647,
          1.0
        ],
        "metallicFactor": 0.0,
        "roughnessFactor": 0.6
      }
    },
    {
      "name": "edge_color303030255",
      "pbrMetallicRoughness": {
        "metallicFactor": 0.0,
        "roughnessFactor": 0.6
      }
    },
    {
      "name": "edge_color476234255",
      "pbrMetallicRoughness": {
        "metallicFactor": 0.0,
        "roughnessFactor": 0.6
      }
    },
    {
      "name": "Color_F18_1",
      "pbrMetallicRoughness": {
        "baseColorFactor": [
          0.184314,
          0.243137,
          0.133333,
          1.0
        ],
        "metallicFactor": 0.0,
        "roughnessFactor": 0.6
      }
    }
  ],
  "meshes": [
    {
      "name": "Material3",
      "primitives": [
        {
          "attributes": {
            "POSITION": 0
          },
          "indices": 1,
          "material": 0,
          "mode": 1
        }
      ]
    },
    {
      "name": "Material2",
      "primitives": [
        {
          "attributes": {
            "NORMAL": 3,
            "POSITION": 2
          },
          "indices": 4,
          "material": 1,
          "mode": 4
        }
      ]
    },
    {
      "name": "Material2",
      "primitives": [
        {
          "attributes": {
            "NORMAL": 6,
            "POSITION": 5
          },
          "indices": 7,
          "material": 2,
          "mode": 4
        }
      ]
    },
    {
      "name": "Material3",
      "primitives": [
        {
          "attributes": {
            "POSITION": 8
          },
          "indices": 9,
          "material": 3,
          "mode": 1
        }
      ]
    },
    {
      "name": "Material3",
      "primitives": [
        {
          "attributes": {
            "POSITION": 10
          },
          "indices": 11,
          "material": 4,
          "mode": 1
        }
      ]
    },
    {
      "name": "Material3",
      "primitives": [
        {
          "attributes": {
            "NORMAL": 13,
            "POSITION": 12
          },
          "indices": 14,
          "material": 5,
          "mode": 4
        }
      ]
    }
  ],
  "nodes": [
    {
      "children": [
        1
      ],
      "matrix": [
        1.0,
        0.0,
        0.0,
        0.0,
        0.0,
        2.220446049250313e-16,
        -1.0,
        0.0,
        0.0,
        1.0,
        2.220446049250313e-16,
        0.0,
        0.0,
        0.0,
        0.0,
        1.0
      ],
      "name": "Sketchfab_model"
    },
    {
      "children": [
        2,
        3,
        4,
        5,
        6,
        7,
        8
      ],
      "name": "Collada visual scene group"
    },
    {
      "mesh": 0,
      "name": "Material3"
    },
    {
      "mesh": 1,
      "name": "Material2"
    },
    {
      "mesh": 2,
      "name": "Material2"
    },
    {
      "mesh": 3,
      "name": "Material3"
    },
    {
      "mesh": 4,
      "name": "Material3"
    },
    {
      "mesh": 5,
      "name": "Material3"
    },
    {
      "children": [
        9
      ],
      "name": "SketchUp"
    },
    {
      "children": [
        10
      ],
      "matrix": [
        0.6582685,
        -0.7489557,
        0.07581474,
        0.0,
        0.2003225,
        0.2713619,
        0.9413998,
        0.0,
        -0.72564,
        -0.6045065,
        0.3286617,
        0.0,
        -54.76316,
        -84.41371,
        135.6035,
        1.0
      ],
      "name": "skp_camera_Last_Saved_SketchUp_View"
    },
    {
      "name": "ID1"
    }
  ],
  "scene": 0,
  "scenes": [
    {
      "name": "Sketchfab_Scene",
      "nodes": [
        0
      ]
    }
  ]
}
