{
  "accessors": [
    {
      "bufferView": 2,
      "componentType": 5126,
      "count": 4,
      "max": [
        0.0,
        11.0,
        4.603346347808838
      ],
      "min": [
        -18.25,
        11.0,
        0.7283465266227722
      ],
      "type": "VEC3"
    },
    {
      "bufferView": 2,
      "byteOffset": 48,
      "componentType": 5126,
      "count": 4,
      "max": [
        0.0,
        1.0,
        0.0
      ],
      "min": [
        0.0,
        1.0,
        0.0
      ],
      "type": "VEC3"
    },
    {
      "bufferView": 1,
      "componentType": 5126,
      "count": 4,
      "max": [
        1.0,
        1.0
      ],
      "min": [
        0.0,
        0.0
      ],
      "type": "VEC2"
    },
    {
      "bufferView": 0,
      "componentType": 5125,
      "count": 6,
      "type": "SCALAR"
    },
    {
      "bufferView": 2,
      "byteOffset": 96,
      "componentType": 5126,
      "count": 6882,
      "max": [
        0.8117769956588745,
        11.691909790039063,
        5.456693172454834
      ],
      "min": [
        -19.06178092956543,
        -0.3583928048610687,
        -0.5007970333099365
      ],
      "type": "VEC3"
    },
    {
      "bufferView": 2,
      "byteOffset": 82680,
      "componentType": 5126,
      "count": 6882,
      "max": [
        1.0,
        1.0,
        1.0
      ],
      "min": [
        -1.0,
        -1.0,
        -1.0
      ],
      "type": "VEC3"
    },
    {
      "bufferView": 0,
      "byteOffset": 24,
      "componentType": 5125,
      "count": 24378,
      "type": "SCALAR"
    },
    {
      "bufferView": 2,
      "byteOffset": 165264,
      "componentType": 5126,
      "count": 4,
      "max": [
        0.0,
        11.0,
        5.331692695617676
      ],
      "min": [
        -18.25,
        0.0,
        5.331692695617676
      ],
      "type": "VEC3"
    },
    {
      "bufferView": 2,
      "byteOffset": 165312,
      "componentType": 5126,
      "count": 4,
      "max": [
        0.0,
        0.0,
        1.0
      ],
      "min": [
        0.0,
        0.0,
        1.0
      ],
      "type": "VEC3"
    },
    {
      "bufferView": 1,
      "byteOffset": 32,
      "componentType": 5126,
      "count": 4,
      "max": [
        1.0,
        1.0
      ],
      "min": [
        0.0,
        0.0
      ],
      "type": "VEC2"
    },
    {
      "bufferView": 0,
      "byteOffset": 97536,
      "componentType": 5125,
      "count": 6,
      "type": "SCALAR"
    },
    {
      "bufferView": 2,
      "byteOffset": 165360,
      "componentType": 5126,
      "count": 4,
      "max": [
        0.0,
        11.0,
        5.331692695617676
      ],
      "min": [
        -18.25,
        11.0,
        4.60334587097168
      ],
      "type": "VEC3"
    },
    {
      "bufferView": 2,
      "byteOffset": 165408,
      "componentType": 5126,
      "count": 4,
      "max": [
        0.0,
        1.0,
        0.0
      ],
      "min": [
        0.0,
        1.0,
        0.0
      ],
      "type": "VEC3"
    },
    {
      "bufferView": 1,
      "byteOffset": 64,
      "componentType": 5126,
      "count": 4,
      "max": [
        1.0,
        1.0
      ],
      "min": [
        0.0,
        0.0
      ],
      "type": "VEC2"
    },
    {
      "bufferView": 0,
      "byteOffset": 97560,
      "componentType": 5125,
      "count": 6,
      "type": "SCALAR"
    },
    {
      "bufferView": 2,
      "byteOffset": 165456,
      "componentType": 5126,
      "count": 2168,
      "max": [
        0.8117769956588745,
        11.691909790039063,
        5.456693172454834
      ],
      "min": [
        -19.06178092956543,
        -0.3583928048610687,
        -0.5007970333099365
      ],
      "type": "VEC3"
    },
    {
      "bufferView": 0,
      "byteOffset": 97584,
      "componentType": 5125,
      "count": 7374,
      "type": "SCALAR"
    }
  ],
  "asset": {
    "extras": {
      "author": "mudroljub (https://sketchfab.com/mudroljub)",
      "license": "CC-BY-4.0 (http://creativecommons.org/licenses/by/4.0/)",
      "source": "https://sketchfab.com/3d-models/ww2-ammunition-crate-6c02efb0e8f245adb61d6637810de3e5",
      "title": "ww2 Ammunition Crate"
    },
    "generator": "Sketchfab-13.42.0",
    "version": "2.0"
  },
  "bufferViews": [
    {
      "buffer": 0,
      "byteLength": 127080,
      "name": "floatBufferViews",
      "target": 34963
    },
    {
      "buffer": 0,
      "byteLength": 96,
      "byteOffset": 127080,
      "byteStride": 8,
      "name": "floatBufferViews",
      "target": 34962
    },
    {
      "buffer": 0,
      "byteLength": 191472,
      "byteOffset": 127176,
      "byteStride": 12,
      "name": "floatBufferViews",
      "target": 34962
    }
  ],
  "buffers": [
    {
      "byteLength": 318648,
      "uri": "scene.bin"
    }
  ],
  "images": [
    {
      "uri": "textures/002-latches_removed_baseColor.jpeg"
    },
    {
      "uri": "textures/001-1_baseColor.jpeg"
    },
    {
      "uri": "textures/002-latches_removed_0_baseColor.jpeg"
    }
  ],
  "materials": [
    {
      "name": "edge_color748678255",
      "pbrMetallicRoughness": {
        "metallicFactor": 0.0,
        "roughnessFactor": 0.6
      }
    },
    {
      "name": "002-latches_removed",
      "pbrMetallicRoughness": {
        "baseColorTexture": {
          "index": 0
        },
        "metallicFactor": 0.0,
        "roughnessFactor": 0.6
      }
    },
    {
      "name": "Color_E17",
      "pbrMetallicRoughness": {
        "baseColorFactor": [
          0.290196,
          0.337255,
          0.305882,
          1.0
        ],
        "metallicFactor": 0.0,
        "roughnessFactor": 0.6
      }
    },
    {
      "name": "001-1",
      "pbrMetallicRoughness": {
        "baseColorTexture": {
          "index": 1
        },
        "metallicFactor": 0.0,
        "roughnessFactor": 0.6
      }
    },
    {
      "name": "002-latches_removed_0",
      "pbrMetallicRoughness": {
        "baseColorTexture": {
          "index": 2
        },
        "metallicFactor": 0.0,
        "roughnessFactor": 0.6
      }
    }
  ],
  "meshes": [
    {
      "name": "Material2",
      "primitives": [
        {
          "attributes": {
            "NORMAL": 1,
            "POSITION": 0,
            "TEXCOORD_0": 2
          },
          "indices": 3,
          "material": 1,
          "mode": 4
        }
      ]
    },
    {
      "name": "Material2",
      "primitives": [
        {
          "attributes": {
            "NORMAL": 5,
            "POSITION": 4
          },
          "indices": 6,
          "material": 2,
          "mode": 4
        }
      ]
    },
    {
      "name": "Material3",
      "primitives": [
        {
          "attributes": {
            "NORMAL": 8,
            "POSITION": 7,
            "TEXCOORD_0": 9
          },
          "indices": 10,
          "material": 3,
          "mode": 4
        }
      ]
    },
    {
      "name": "Material3",
      "primitives": [
        {
          "attributes": {
            "NORMAL": 12,
            "POSITION": 11,
            "TEXCOORD_0": 13
          },
          "indices": 14,
          "material": 4,
          "mode": 4
        }
      ]
    },
    {
      "name": "Material2",
      "primitives": [
        {
          "attributes": {
            "POSITION": 15
          },
          "indices": 16,
          "material": 0,
          "mode": 1
        }
      ]
    }
  ],
  "nodes": [
    {
      "children": [
        1
      ],
      "matrix": [
        1.0,
        0.0,
        0.0,
        0.0,
        0.0,
        2.220446049250313e-16,
        -1.0,
        0.0,
        0.0,
        1.0,
        2.220446049250313e-16,
        0.0,
        0.0,
        0.0,
        0.0,
        1.0
      ],
      "name": "Sketchfab_model"
    },
    {
      "children": [
        2,
        3,
        4,
        5,
        6,
        7
      ],
      "name": "Collada visual scene group"
    },
    {
      "mesh": 0,
      "name": "Material2"
    },
    {
      "mesh": 1,
      "name": "Material2"
    },
    {
      "mesh": 2,
      "name": "Material3"
    },
    {
      "mesh": 3,
      "name": "Material3"
    },
    {
      "mesh": 4,
      "name": "Material2"
    },
    {
      "children": [
        8
      ],
      "name": "SketchUp"
    },
    {
      "children": [
        9
      ],
      "matrix": [
        -0.8077947,
        0.589426,
        -0.006684151,
        0.0,
        -0.2154419,
        -0.2846653,
        0.9341041,
        0.0,
        0.5486825,
        0.7560043,
        0.3569382,
        0.0,
        5.179284,
        24.46244,
        9.024684,
        1.0
      ],
      "name": "skp_camera_Last_Saved_SketchUp_View"
    },
    {
      "name": "ID1"
    }
  ],
  "samplers": [
    {
      "magFilter": 9729,
      "minFilter": 9987,
      "wrapS": 10497,
      "wrapT": 10497
    }
  ],
  "scene": 0,
  "scenes": [
    {
      "name": "Sketchfab_Scene",
      "nodes": [
        0
      ]
    }
  ],
  "textures": [
    {
      "sampler": 0,
      "source": 0
    },
    {
      "sampler": 0,
      "source": 1
    },
    {
      "sampler": 0,
      "source": 2
    }
  ]
}
