{
  "accessors": [
    {
      "bufferView": 2,
      "componentType": 5126,
      "count": 18910,
      "max": [
        1917.322998046875,
        14871.6904296875,
        2987.5
      ],
      "min": [
        0.0,
        0.0,
        0.0
      ],
      "type": "VEC3"
    },
    {
      "bufferView": 2,
      "byteOffset": 226920,
      "componentType": 5126,
      "count": 18910,
      "max": [
        1.0,
        1.0,
        1.0
      ],
      "min": [
        -1.0,
        -1.0,
        -1.0
      ],
      "type": "VEC3"
    },
    {
      "bufferView": 1,
      "componentType": 5126,
      "count": 18910,
      "max": [
        495.7715148925781,
        499.64068603515625
      ],
      "min": [
        -500.7366943359375,
        -491.8523864746094
      ],
      "type": "VEC2"
    },
    {
      "bufferView": 0,
      "componentType": 5125,
      "count": 31239,
      "type": "SCALAR"
    },
    {
      "bufferView": 2,
      "byteOffset": 453840,
      "componentType": 5126,
      "count": 144,
      "max": [
        1782.282958984375,
        13622.8896484375,
        1500.8990478515625
      ],
      "min": [
        82.03778076171875,
        1844.302001953125,
        392.3146057128906
      ],
      "type": "VEC3"
    },
    {
      "bufferView": 2,
      "byteOffset": 455568,
      "componentType": 5126,
      "count": 144,
      "max": [
        1.0,
        1.0,
        1.0
      ],
      "min": [
        -0.9946079850196838,
        -1.0,
        -1.0
      ],
      "type": "VEC3"
    },
    {
      "bufferView": 0,
      "byteOffset": 124956,
      "componentType": 5125,
      "count": 240,
      "type": "SCALAR"
    },
    {
      "bufferView": 2,
      "byteOffset": 457296,
      "componentType": 5126,
      "count": 200,
      "max": [
        904.7855834960938,
        7148.48388671875,
        626.4083251953125
      ],
      "min": [
        603.7061767578125,
        3324.830078125,
        322.0824890136719
      ],
      "type": "VEC3"
    },
    {
      "bufferView": 2,
      "byteOffset": 459696,
      "componentType": 5126,
      "count": 200,
      "max": [
        1.0,
        1.0,
        1.0
      ],
      "min": [
        -1.0,
        -1.0,
        -1.0
      ],
      "type": "VEC3"
    },
    {
      "bufferView": 1,
      "byteOffset": 151280,
      "componentType": 5126,
      "count": 200,
      "max": [
        401.22320556640625,
        62.25761032104492
      ],
      "min": [
        -401.22320556640625,
        -72.37101745605469
      ],
      "type": "VEC2"
    },
    {
      "bufferView": 0,
      "byteOffset": 125916,
      "componentType": 5125,
      "count": 432,
      "type": "SCALAR"
    },
    {
      "bufferView": 2,
      "byteOffset": 462096,
      "componentType": 5126,
      "count": 373,
      "max": [
        1265.35205078125,
        3324.830078125,
        466.7510986328125
      ],
      "min": [
        651.9423217773438,
        2334.0849609375,
        370.3052978515625
      ],
      "type": "VEC3"
    },
    {
      "bufferView": 2,
      "byteOffset": 466572,
      "componentType": 5126,
      "count": 373,
      "max": [
        1.0,
        5.2557409429784734e-30,
        1.0
      ],
      "min": [
        -1.0,
        -1.0,
        -1.0
      ],
      "type": "VEC3"
    },
    {
      "bufferView": 1,
      "byteOffset": 152880,
      "componentType": 5126,
      "count": 373,
      "max": [
        176.08920288085938,
        27.553489685058594
      ],
      "min": [
        -176.08920288085938,
        -32.0483283996582
      ],
      "type": "VEC2"
    },
    {
      "bufferView": 0,
      "byteOffset": 127644,
      "componentType": 5125,
      "count": 720,
      "type": "SCALAR"
    },
    {
      "bufferView": 2,
      "byteOffset": 471048,
      "componentType": 5126,
      "count": 817,
      "max": [
        1790.531005859375,
        13622.8896484375,
        1372.9329833984375
      ],
      "min": [
        119.42160034179688,
        1844.302001953125,
        320.472412109375
      ],
      "type": "VEC3"
    },
    {
      "bufferView": 2,
      "byteOffset": 480852,
      "componentType": 5126,
      "count": 817,
      "max": [
        1.0,
        1.0,
        1.0
      ],
      "min": [
        -1.0,
        -1.0,
        -1.0
      ],
      "type": "VEC3"
    },
    {
      "bufferView": 0,
      "byteOffset": 130524,
      "componentType": 5125,
      "count": 2067,
      "type": "SCALAR"
    },
    {
      "bufferView": 2,
      "byteOffset": 490656,
      "componentType": 5126,
      "count": 1464,
      "max": [
        1392.021240234375,
        2395.108642578125,
        612.0003051757813
      ],
      "min": [
        525.2734985351563,
        2334.0849609375,
        293.08111572265625
      ],
      "type": "VEC3"
    },
    {
      "bufferView": 2,
      "byteOffset": 508224,
      "componentType": 5126,
      "count": 1464,
      "max": [
        1.0,
        1.0,
        1.0
      ],
      "min": [
        -1.0,
        -1.0,
        -1.0
      ],
      "type": "VEC3"
    },
    {
      "bufferView": 1,
      "byteOffset": 155864,
      "componentType": 5126,
      "count": 1464,
      "max": [
        4.777238845825195,
        4.184485912322998
      ],
      "min": [
        -4.777238845825195,
        -3.1086161136627197
      ],
      "type": "VEC2"
    },
    {
      "bufferView": 0,
      "byteOffset": 138792,
      "componentType": 5125,
      "count": 3168,
      "type": "SCALAR"
    },
    {
      "bufferView": 2,
      "byteOffset": 525792,
      "componentType": 5126,
      "count": 348,
      "max": [
        1392.021240234375,
        2395.108642578125,
        612.0003051757813
      ],
      "min": [
        525.2734985351563,
        2334.0849609375,
        293.08111572265625
      ],
      "type": "VEC3"
    },
    {
      "bufferView": 0,
      "byteOffset": 151464,
      "componentType": 5125,
      "count": 888,
      "type": "SCALAR"
    },
    {
      "bufferView": 2,
      "byteOffset": 529968,
      "componentType": 5126,
      "count": 2194,
      "max": [
        1917.322998046875,
        14807.150390625,
        2987.5
      ],
      "min": [
        0.0,
        0.0,
        0.0
      ],
      "type": "VEC3"
    },
    {
      "bufferView": 0,
      "byteOffset": 155016,
      "componentType": 5125,
      "count": 6534,
      "type": "SCALAR"
    },
    {
      "bufferView": 2,
      "byteOffset": 556296,
      "componentType": 5126,
      "count": 1183,
      "max": [
        1917.322998046875,
        14871.6904296875,
        2204.822998046875
      ],
      "min": [
        0.0,
        0.0,
        0.0
      ],
      "type": "VEC3"
    },
    {
      "bufferView": 0,
      "byteOffset": 181152,
      "componentType": 5125,
      "count": 3010,
      "type": "SCALAR"
    }
  ],
  "asset": {
    "extras": {
      "author": "mudroljub (https://sketchfab.com/mudroljub)",
      "license": "CC-BY-4.0 (http://creativecommons.org/licenses/by/4.0/)",
      "source": "https://sketchfab.com/3d-models/u-boat-aa7ef5ea54ec46e5a2b387c58461f42f",
      "title": "U-boat"
    },
    "generator": "Sketchfab-13.42.0",
    "version": "2.0"
  },
  "bufferViews": [
    {
      "buffer": 0,
      "byteLength": 193192,
      "name": "floatBufferViews",
      "target": 34963
    },
    {
      "buffer": 0,
      "byteLength": 167576,
      "byteOffset": 193192,
      "byteStride": 8,
      "name": "floatBufferViews",
      "target": 34962
    },
    {
      "buffer": 0,
      "byteLength": 570492,
      "byteOffset": 360768,
      "byteStride": 12,
      "name": "floatBufferViews",
      "target": 34962
    }
  ],
  "buffers": [
    {
      "byteLength": 931260,
      "uri": "scene.bin"
    }
  ],
  "images": [
    {
      "uri": "textures/Metal_Panel_baseColor.jpeg"
    },
    {
      "uri": "textures/Metal_Panel_1_baseColor.jpeg"
    },
    {
      "uri": "textures/Metal_Aluminum_Anodized_0_baseColor.jpeg"
    },
    {
      "uri": "textures/Metal_Aluminum_Anodized_baseColor.jpeg"
    }
  ],
  "materials": [
    {
      "name": "edge_color000255",
      "pbrMetallicRoughness": {
        "metallicFactor": 0.0,
        "roughnessFactor": 0.6
      }
    },
    {
      "name": "Metal_Panel",
      "pbrMetallicRoughness": {
        "baseColorTexture": {
          "index": 0
        },
        "metallicFactor": 0.0,
        "roughnessFactor": 0.6
      }
    },
    {
      "name": "edge_color143157158255",
      "pbrMetallicRoughness": {
        "metallicFactor": 0.0,
        "roughnessFactor": 0.6
      }
    },
    {
      "name": "material_1",
      "pbrMetallicRoughness": {
        "metallicFactor": 0.0,
        "roughnessFactor": 0.6
      }
    },
    {
      "name": "Metal_Panel_1",
      "pbrMetallicRoughness": {
        "baseColorTexture": {
          "index": 1
        },
        "metallicFactor": 0.0,
        "roughnessFactor": 0.6
      }
    },
    {
      "name": "Metal_Aluminum_Anodized_0",
      "pbrMetallicRoughness": {
        "baseColorTexture": {
          "index": 2
        },
        "metallicFactor": 0.0,
        "roughnessFactor": 0.6
      }
    },
    {
      "name": "material",
      "pbrMetallicRoughness": {
        "baseColorFactor": [
          0.670588,
          0.690196,
          0.8,
          1.0
        ],
        "metallicFactor": 0.0,
        "roughnessFactor": 0.6
      }
    },
    {
      "name": "Metal_Aluminum_Anodized",
      "pbrMetallicRoughness": {
        "baseColorTexture": {
          "index": 3
        },
        "metallicFactor": 0.0,
        "roughnessFactor": 0.6
      }
    },
    {
      "name": "edge_color202209219255",
      "pbrMetallicRoughness": {
        "metallicFactor": 0.0,
        "roughnessFactor": 0.6
      }
    }
  ],
  "meshes": [
    {
      "name": "Material2",
      "primitives": [
        {
          "attributes": {
            "NORMAL": 1,
            "POSITION": 0,
            "TEXCOORD_0": 2
          },
          "indices": 3,
          "material": 1,
          "mode": 4
        }
      ]
    },
    {
      "name": "Material3",
      "primitives": [
        {
          "attributes": {
            "NORMAL": 5,
            "POSITION": 4
          },
          "indices": 6,
          "material": 3,
          "mode": 4
        }
      ]
    },
    {
      "name": "Material2",
      "primitives": [
        {
          "attributes": {
            "NORMAL": 8,
            "POSITION": 7,
            "TEXCOORD_0": 9
          },
          "indices": 10,
          "material": 4,
          "mode": 4
        }
      ]
    },
    {
      "name": "Material2",
      "primitives": [
        {
          "attributes": {
            "NORMAL": 12,
            "POSITION": 11,
            "TEXCOORD_0": 13
          },
          "indices": 14,
          "material": 5,
          "mode": 4
        }
      ]
    },
    {
      "name": "Material3",
      "primitives": [
        {
          "attributes": {
            "NORMAL": 16,
            "POSITION": 15
          },
          "indices": 17,
          "material": 6,
          "mode": 4
        }
      ]
    },
    {
      "name": "Material2",
      "primitives": [
        {
          "attributes": {
            "NORMAL": 19,
            "POSITION": 18,
            "TEXCOORD_0": 20
          },
          "indices": 21,
          "material": 7,
          "mode": 4
        }
      ]
    },
    {
      "name": "Material3",
      "primitives": [
        {
          "attributes": {
            "POSITION": 22
          },
          "indices": 23,
          "material": 8,
          "mode": 1
        }
      ]
    },
    {
      "name": "Material2",
      "primitives": [
        {
          "attributes": {
            "POSITION": 24
          },
          "indices": 25,
          "material": 0,
          "mode": 1
        }
      ]
    },
    {
      "name": "Material2",
      "primitives": [
        {
          "attributes": {
            "POSITION": 26
          },
          "indices": 27,
          "material": 2,
          "mode": 1
        }
      ]
    }
  ],
  "nodes": [
    {
      "children": [
        1
      ],
      "matrix": [
        1.0,
        0.0,
        0.0,
        0.0,
        0.0,
        2.220446049250313e-16,
        -1.0,
        0.0,
        0.0,
        1.0,
        2.220446049250313e-16,
        0.0,
        0.0,
        0.0,
        0.0,
        1.0
      ],
      "name": "Sketchfab_model"
    },
    {
      "children": [
        2,
        3,
        4,
        5,
        6,
        7,
        8,
        9,
        10,
        11
      ],
      "name": "Collada visual scene group"
    },
    {
      "mesh": 0,
      "name": "Material2"
    },
    {
      "mesh": 1,
      "name": "Material3"
    },
    {
      "mesh": 2,
      "name": "Material2"
    },
    {
      "mesh": 3,
      "name": "Material2"
    },
    {
      "mesh": 4,
      "name": "Material3"
    },
    {
      "mesh": 5,
      "name": "Material2"
    },
    {
      "mesh": 6,
      "name": "Material3"
    },
    {
      "mesh": 7,
      "name": "Material2"
    },
    {
      "mesh": 8,
      "name": "Material2"
    },
    {
      "children": [
        12
      ],
      "name": "SketchUp"
    },
    {
      "children": [
        13
      ],
      "matrix": [
        -0.6758683,
        0.7370223,
        -1.387779e-16,
        0.0,
        -0.3212641,
        -0.2946073,
        0.8999977,
        0.0,
        0.6633185,
        0.60828,
        0.4358946,
        0.0,
        5731.067,
        15669.1,
        4529.712,
        1.0
      ],
      "name": "skp_camera_Last_Saved_SketchUp_View"
    },
    {
      "name": "ID1"
    }
  ],
  "samplers": [
    {
      "magFilter": 9729,
      "minFilter": 9987,
      "wrapS": 10497,
      "wrapT": 10497
    }
  ],
  "scene": 0,
  "scenes": [
    {
      "name": "Sketchfab_Scene",
      "nodes": [
        0
      ]
    }
  ],
  "textures": [
    {
      "sampler": 0,
      "source": 0
    },
    {
      "sampler": 0,
      "source": 1
    },
    {
      "sampler": 0,
      "source": 2
    },
    {
      "sampler": 0,
      "source": 3
    }
  ]
}
