{
  "accessors": [
    {
      "bufferView": 2,
      "componentType": 5126,
      "count": 2301,
      "max": [
        2.9422900676727295,
        3.0368099212646484,
        17.99798011779785
      ],
      "min": [
        -2.8289899826049805,
        -3.5985898971557617,
        -0.07831999659538269
      ],
      "type": "VEC3"
    },
    {
      "bufferView": 2,
      "byteOffset": 27612,
      "componentType": 5126,
      "count": 2301,
      "max": [
        0.9999890923500061,
        1.0,
        1.0
      ],
      "min": [
        -0.9999890923500061,
        -1.0,
        -1.0
      ],
      "type": "VEC3"
    },
    {
      "bufferView": 1,
      "componentType": 5126,
      "count": 2301,
      "max": [
        0.9343199729919434,
        0.9611799716949463
      ],
      "min": [
        0.0660799965262413,
        0.5655900239944458
      ],
      "type": "VEC2"
    },
    {
      "bufferView": 0,
      "componentType": 5125,
      "count": 4581,
      "type": "SCALAR"
    }
  ],
  "asset": {
    "extras": {
      "author": "VitSh (https://sketchfab.com/VitSh)",
      "license": "CC-BY-4.0 (http://creativecommons.org/licenses/by/4.0/)",
      "source": "https://sketchfab.com/3d-models/tower-asset-fot-tower-of-the-wizard-scene-bd64c3eb9deb4d52938798ad70bba708",
      "title": "Tower asset fot 'Tower of the Wizard' scene"
    },
    "generator": "Sketchfab-12.65.0",
    "version": "2.0"
  },
  "bufferViews": [
    {
      "buffer": 0,
      "byteLength": 18324,
      "name": "floatBufferViews",
      "target": 34963
    },
    {
      "buffer": 0,
      "byteLength": 18408,
      "byteOffset": 18324,
      "byteStride": 8,
      "name": "floatBufferViews",
      "target": 34962
    },
    {
      "buffer": 0,
      "byteLength": 55224,
      "byteOffset": 36732,
      "byteStride": 12,
      "name": "floatBufferViews",
      "target": 34962
    }
  ],
  "buffers": [
    {
      "byteLength": 91956,
      "uri": "scene.bin"
    }
  ],
  "images": [
    {
      "uri": "textures/color_baseColor.png"
    }
  ],
  "materials": [
    {
      "doubleSided": true,
      "name": "color",
      "pbrMetallicRoughness": {
        "baseColorTexture": {
          "index": 0
        },
        "metallicFactor": 0.0
      }
    }
  ],
  "meshes": [
    {
      "name": "Circle_0",
      "primitives": [
        {
          "attributes": {
            "NORMAL": 1,
            "POSITION": 0,
            "TEXCOORD_0": 2
          },
          "indices": 3,
          "material": 0,
          "mode": 4
        }
      ]
    }
  ],
  "nodes": [
    {
      "children": [
        1
      ],
      "matrix": [
        1.0,
        0.0,
        0.0,
        0.0,
        0.0,
        2.220446049250313e-16,
        -1.0,
        0.0,
        0.0,
        1.0,
        2.220446049250313e-16,
        0.0,
        0.0,
        0.0,
        0.0,
        1.0
      ],
      "name": "Sketchfab_model"
    },
    {
      "children": [
        2,
        4,
        6
      ],
      "name": "Root"
    },
    {
      "children": [
        3
      ],
      "matrix": [
        1.0,
        0.0,
        0.0,
        0.0,
        0.0,
        1.0,
        0.0,
        0.0,
        0.0,
        0.0,
        1.0,
        0.0,
        -0.004750000000000001,
        0.0,
        0.0,
        1.0
      ],
      "name": "Circle"
    },
    {
      "mesh": 0,
      "name": "Circle_0"
    },
    {
      "children": [
        5
      ],
      "matrix": [
        -0.002810000000000001,
        1.14098,
        0.70576,
        0.0,
        -1.3048899999999999,
        0.16166000000000003,
        -0.26655,
        0.0,
        -0.31173,
        -0.6870000000000002,
        1.10941,
        0.0,
        -7.09746,
        3.30792,
        10.429730000000001,
        1.0
      ],
      "name": "Hemi"
    },
    {
      "name": "Hemi"
    },
    {
      "children": [
        7
      ],
      "matrix": [
        0.12254000000000001,
        0.7808200000000001,
        1.0840800000000002,
        0.0,
        -1.27155,
        0.40223,
        -0.14598000000000003,
        0.0,
        -0.40998000000000007,
        -1.01413,
        0.77678,
        0.0,
        -5.02667,
        -12.80421,
        15.36497,
        1.0
      ],
      "name": "Hemi.001"
    },
    {
      "name": "Hemi.001"
    }
  ],
  "samplers": [
    {
      "magFilter": 9729,
      "minFilter": 9987,
      "wrapS": 10497,
      "wrapT": 10497
    }
  ],
  "scene": 0,
  "scenes": [
    {
      "name": "Sketchfab_Scene",
      "nodes": [
        0
      ]
    }
  ],
  "textures": [
    {
      "sampler": 0,
      "source": 0
    }
  ]
}
