#
#
#

mtllib house1-04.mtl


#
# 
#
g 


#
# _Material__25
#
usemtl _Material__25

v 2.712916 0.321874 -5.970713
v 0.008437 0.321875 -5.970713
v 0.008437 3.110415 -5.970713
v 2.711724 3.110414 -5.970713
v 0.654058 0.319906 -6.100520
v -0.635487 0.319906 -6.100520
v -0.635487 2.368644 -6.100520
v 0.654058 2.368644 -6.100520
v -2.645538 3.026501 -6.355532
v 2.688472 2.992310 -6.465432
v 2.688472 2.945799 -6.438578
v -2.645538 2.979990 -6.328679
v 2.644525 3.134503 -5.923079
v -2.584650 3.168695 -5.813176
v -2.584650 3.324126 -5.840029
v 2.644525 3.289935 -5.949932
v 0.722073 2.427078 -5.959856
v -0.703500 2.427078 -5.959856
v -0.703500 0.319906 -5.959856
v 0.722073 0.319906 -5.959857
v -2.780267 2.259538 -2.334833
v -2.780267 2.259538 -3.438351
v -2.780267 1.330506 -3.438351
v -2.780267 1.330506 -2.334833
v 1.104981 2.268416 -6.061974
v 2.208499 2.268416 -6.061974
v 2.208499 1.339384 -6.061974
v 1.104981 1.339384 -6.061974
v -0.570741 4.088783 -6.061974
v -0.570741 5.017813 -6.061974
v 0.532777 5.017813 -6.061974
v 0.532777 4.088783 -6.061974
v -2.680467 2.290997 -3.475718
v -2.680467 2.290997 -2.297464
v -2.680467 1.299047 -2.297464
v -2.680467 1.299047 -3.475718
v 1.067612 1.307925 -5.962175
v 2.245867 1.307925 -5.962173
v 2.245867 2.299875 -5.962173
v 1.067612 2.299875 -5.962175
v 0.570145 5.049273 -5.962175
v -0.608110 5.049273 -5.962173
v -0.608110 4.057324 -5.962173
v 0.570145 4.057324 -5.962175
v 2.784700 1.330506 -3.438350
v 2.784700 2.259537 -3.438350
v 2.784699 2.259537 -2.334832
v 2.784699 1.330506 -2.334832
v 2.684900 1.299047 -2.297464
v 2.684900 2.290997 -2.297464
v 2.684899 2.290997 -3.475718
v 2.684899 1.299047 -3.475718
v 0.752332 5.748774 0.000000
v 3.113712 3.110414 0.000000
v 3.125139 3.102931 -6.381164
v 0.807747 5.837429 -6.381164
v 3.250561 -0.088540 -6.481643
v -3.250560 -0.088540 -6.481643
v -2.791819 0.419877 -6.086267
v 2.783590 0.419876 -6.075628
v -3.250561 -0.114651 -0.000000
v -2.786757 0.449873 -0.000000
v 2.786755 0.449872 0.000000
v 3.250560 -0.114650 0.000000
v -3.250560 -1.321640 -6.481643
v 3.250561 -1.321640 -6.481643
v 3.250560 -1.321639 0.000000
v -3.250561 -1.321640 -0.000000
v 0.008438 6.056311 -6.381164
v 0.008437 6.026826 0.000000
v 0.008439 5.742572 -5.970713
v 0.682287 5.546241 -5.970713
v -2.696041 0.321874 -5.970713
v -2.694847 3.110414 -5.970713
v -3.108262 3.102931 -6.381164
v -3.096836 3.110414 -0.000000
v -0.735456 5.748774 -0.000000
v -0.790872 5.837429 -6.381164
v -0.665412 5.546241 -5.970713
v -2.238119 2.268416 -6.061974
v -1.134601 2.268416 -6.061974
v -1.134601 1.339384 -6.061974
v -2.238119 1.339384 -6.061974
v -2.275488 1.307925 -5.962175
v -1.097233 1.307925 -5.962173
v -1.097233 2.299875 -5.962173
v -2.275488 2.299875 -5.962175
v -2.859503 0.319907 -0.702937
v -2.859503 0.319907 0.586608
v -2.859503 2.368644 0.586608
v -2.859503 2.368644 -0.702937
v -2.685860 2.427078 -0.770953
v -2.685861 2.427078 0.654621
v -2.685860 0.319907 0.654621
v -2.685861 0.319907 -0.770953
v 0.008437 3.110415 5.970713
v 0.008437 0.321874 5.970713
v 2.712915 0.321874 5.970713
v 2.711723 3.110414 5.970713
v 2.688472 2.945799 6.438577
v 2.688472 2.992311 6.465431
v -2.645539 3.026503 6.355532
v -2.645539 2.979991 6.328679
v 2.644524 3.134504 5.923079
v -2.584650 3.168695 5.813176
v -2.584650 3.324126 5.840030
v 2.644524 3.289935 5.949931
v -2.780268 1.330506 3.438350
v -2.780268 2.259538 3.438350
v -2.780267 2.259538 2.334832
v -2.780267 1.330506 2.334832
v 2.208497 1.339385 6.061975
v 2.208497 2.268416 6.061975
v 1.104981 2.268416 6.061975
v 1.104981 1.339385 6.061975
v 0.532776 5.017815 6.061975
v -0.570743 5.017815 6.061975
v -0.570743 4.088784 6.061975
v 0.532776 4.088784 6.061975
v -2.680467 1.299047 2.297464
v -2.680467 2.290997 2.297464
v -2.680467 2.290997 3.475718
v -2.680467 1.299047 3.475718
v 2.245867 2.299875 5.962173
v 2.245867 1.307925 5.962173
v 1.067611 1.307925 5.962175
v 1.067612 2.299875 5.962175
v -0.608111 4.057325 5.962173
v -0.608111 5.049274 5.962173
v 0.570144 5.049274 5.962175
v 0.570144 4.057325 5.962175
v 2.784699 2.259537 2.334833
v 2.784699 2.259537 3.438351
v 2.784699 1.330506 3.438351
v 2.784699 1.330506 2.334833
v 2.684899 2.290997 3.475718
v 2.684900 2.290997 2.297464
v 2.684900 1.299047 2.297464
v 2.684899 1.299047 3.475718
v 3.125139 3.102931 6.381164
v 0.807746 5.837429 6.381164
v -2.791819 0.419877 6.086266
v -3.250561 -0.088540 6.481643
v 3.250560 -0.088540 6.481643
v 2.783589 0.419876 6.075628
v 3.250560 -1.321640 6.481643
v -3.250561 -1.321640 6.481643
v 0.008437 6.056311 6.381164
v 0.682286 5.546241 5.970713
v 0.008438 5.742572 5.970713
v -2.696041 0.321873 5.970713
v -2.694847 3.110414 5.970713
v -3.108262 3.102931 6.381164
v -0.790873 5.837429 6.381164
v -0.665412 5.546241 5.970713
v -1.134602 1.339385 6.061975
v -1.134602 2.268416 6.061975
v -2.238120 2.268416 6.061975
v -2.238120 1.339385 6.061975
v -1.097234 2.299876 5.962173
v -1.097234 1.307925 5.962173
v -2.275489 1.307925 5.962175
v -2.275489 2.299876 5.962175
v 2.712915 3.110414 0.000000
v 2.712916 0.321874 0.000000
v -0.572883 5.811489 -3.666898
v -0.572883 5.811489 -2.571450
v -0.572883 7.200678 -2.571450
v -0.572883 7.200678 -3.666898
v 0.513888 5.811489 -2.571450
v 0.513889 7.200678 -2.571450
v 0.513889 5.811489 -3.666898
v 0.513889 7.200678 -3.666898
v -0.039657 7.200678 -3.129415
v 0.008437 0.321874 0.000000
v -2.696041 3.110414 -0.000000
v -2.696041 0.321874 -0.000000
vn 0.408306 -0.816438 -0.408307
vn 0.000000 -0.707107 -0.707107
vn 0.000000 -0.000000 -1.000000
vn 0.192748 -0.531292 -0.824971
vn 0.647144 -0.359413 -0.672329
vn -0.343465 -0.763014 -0.547577
vn -0.594392 0.304856 -0.744151
vn 0.298882 0.613173 -0.731224
vn -0.611009 0.235963 -0.755638
vn 0.584856 0.232619 -0.777066
vn 0.548973 -0.797282 -0.250939
vn -0.567403 -0.789570 -0.233738
vn 0.539516 -0.396123 0.742973
vn -0.515727 -0.393522 0.761030
vn -0.626255 0.681928 0.377861
vn 0.646689 0.673712 0.357637
vn 0.882851 0.452806 -0.124666
vn -0.436043 0.894563 -0.098105
vn -0.872502 -0.484570 0.062703
vn 0.397507 -0.883076 0.249329
vn -0.689688 0.328571 0.645268
vn -0.676483 0.661080 -0.324568
vn -0.689687 -0.328572 -0.645269
vn -0.676485 -0.661079 0.324566
vn -0.645261 0.328569 -0.689697
vn 0.324567 0.661078 -0.676485
vn 0.645269 -0.328572 -0.689687
vn -0.324564 -0.661077 -0.676488
vn -0.645264 -0.328570 -0.689692
vn -0.324564 0.661073 -0.676491
vn 0.645264 0.328569 -0.689693
vn 0.324565 -0.661077 -0.676487
vn -0.000924 0.453761 -0.891123
vn 0.022619 0.897418 0.440601
vn -0.000926 -0.453761 0.891123
vn 0.022617 -0.897418 -0.440601
vn -0.891122 -0.453762 -0.000942
vn 0.440601 -0.897418 0.022615
vn 0.891123 0.453761 -0.000924
vn -0.440600 0.897419 0.022607
vn 0.440602 0.897418 0.022603
vn -0.891123 0.453761 -0.000939
vn -0.440600 -0.897419 0.022609
vn 0.891123 -0.453761 -0.000934
vn 0.689687 -0.328572 -0.645269
vn 0.676483 0.661080 -0.324568
vn 0.689690 0.328571 0.645267
vn 0.676485 -0.661078 0.324565
vn 0.000929 -0.453761 0.891123
vn -0.022617 0.897418 0.440601
vn 0.000923 0.453761 -0.891123
vn -0.022617 -0.897418 -0.440601
vn 0.548973 -0.797282 -0.250939
vn -0.611009 0.235963 -0.755638
vn -0.567403 -0.789570 -0.233738
vn -0.515727 -0.393522 0.761030
vn 0.550479 0.834849 0.000000
vn 0.910127 -0.414329 0.000000
vn 0.065272 -0.950500 -0.303791
vn -0.234707 -0.371110 -0.898438
vn 0.624891 0.453498 -0.635493
vn -0.497871 0.360020 -0.788993
vn -0.300504 0.900801 -0.313456
vn 0.299551 0.901170 -0.313308
vn -0.973185 0.230022 -0.000000
vn -0.417168 0.908830 -0.000000
vn 0.415110 0.909771 0.000000
vn 0.972858 0.231403 0.000000
vn -0.816497 -0.408248 -0.408248
vn 0.666667 -0.333333 -0.666667
vn 0.707107 -0.707107 0.000000
vn -0.707107 -0.707107 -0.000000
vn -0.300504 0.900801 -0.313456
vn 0.000000 0.288123 -0.957593
vn -0.000000 1.000000 -0.000000
vn -0.000000 -0.572713 -0.819756
vn -0.320166 -0.482892 -0.815052
vn -0.408306 -0.816438 -0.408307
vn -0.192748 -0.531292 -0.824971
vn -0.065273 -0.950500 -0.303791
vn -0.910127 -0.414329 -0.000000
vn -0.550479 0.834849 -0.000000
vn 0.234707 -0.371110 -0.898437
vn 0.320166 -0.482892 -0.815051
vn -0.645261 0.328569 -0.689697
vn 0.324567 0.661078 -0.676485
vn 0.645270 -0.328572 -0.689687
vn -0.324564 -0.661077 -0.676488
vn -0.891122 -0.453762 -0.000941
vn 0.440601 -0.897418 0.022617
vn 0.891123 0.453761 -0.000923
vn -0.633238 -0.366154 -0.681865
vn -0.526078 -0.770977 0.358937
vn -0.700032 0.323905 0.636428
vn -0.688080 0.651300 -0.319927
vn -0.023143 0.453458 -0.890977
vn -0.001225 0.897558 0.440894
vn 0.126976 -0.469263 0.873882
vn 0.276719 -0.871167 -0.405580
vn -0.000000 0.000000 1.000000
vn 0.000000 -0.707107 0.707107
vn 0.408306 -0.816438 0.408307
vn 0.192748 -0.531292 0.824971
vn 0.548974 -0.797281 0.250940
vn 0.584855 0.232622 0.777066
vn -0.611008 0.235966 0.755638
vn -0.567404 -0.789569 0.233739
vn 0.539517 -0.396122 -0.742973
vn -0.515727 -0.393522 -0.761030
vn -0.626254 0.681929 -0.377861
vn 0.646689 0.673713 -0.357637
vn -0.689687 -0.328572 0.645269
vn -0.676482 0.661080 0.324568
vn -0.689688 0.328572 -0.645269
vn -0.676484 -0.661079 -0.324566
vn 0.645267 -0.328571 0.689690
vn 0.324567 0.661080 0.676484
vn -0.645263 0.328570 0.689694
vn -0.324564 -0.661075 0.676490
vn 0.645267 0.328570 0.689690
vn -0.324568 0.661080 0.676482
vn -0.645273 -0.328573 0.689683
vn 0.324567 -0.661081 0.676483
vn -0.000924 -0.453761 -0.891123
vn 0.022620 0.897418 -0.440601
vn -0.000923 0.453761 0.891123
vn 0.022618 -0.897418 0.440601
vn 0.891122 0.453763 0.000923
vn 0.440601 -0.897418 -0.022610
vn -0.891123 -0.453761 0.000939
vn -0.440600 0.897419 -0.022615
vn -0.440601 -0.897418 -0.022624
vn -0.891123 0.453761 0.000914
vn 0.440601 0.897418 -0.022618
vn 0.891123 -0.453761 0.000925
vn 0.689690 0.328571 -0.645266
vn 0.676481 0.661081 0.324569
vn 0.689684 -0.328573 0.645272
vn 0.676486 -0.661078 -0.324565
vn 0.000917 0.453760 0.891123
vn -0.022617 0.897418 -0.440601
vn 0.000930 -0.453761 -0.891123
vn -0.022618 -0.897418 0.440601
vn 0.548974 -0.797281 0.250940
vn 0.539517 -0.396122 -0.742973
vn 0.646689 0.673713 -0.357637
vn 0.584855 0.232622 0.777066
vn -0.626254 0.681929 -0.377860
vn 0.065272 -0.950500 0.303791
vn -0.234707 -0.371110 0.898438
vn -0.300504 0.900801 0.313456
vn -0.497871 0.360020 0.788993
vn 0.624891 0.453499 0.635493
vn 0.299550 0.901170 0.313308
vn -0.417168 0.908830 -0.000000
vn 0.666667 -0.333333 0.666667
vn -0.816497 -0.408248 0.408248
vn 0.415110 0.909771 0.000000
vn -0.417168 0.908830 -0.000000
vn -0.000000 0.288123 0.957593
vn -0.320166 -0.482892 0.815052
vn -0.000000 -0.572712 0.819757
vn -0.408306 -0.816438 0.408306
vn -0.192748 -0.531292 0.824971
vn -0.550479 0.834849 -0.000000
vn -0.065273 -0.950500 0.303791
vn 0.234707 -0.371110 0.898438
vn -0.550479 0.834849 -0.000000
vn -0.000000 0.000000 1.000000
vn 0.320166 -0.482892 0.815051
vn 0.645271 -0.328572 0.689686
vn 0.324567 0.661076 0.676487
vn -0.645262 0.328568 0.689695
vn -0.324564 -0.661075 0.676489
vn 0.891123 0.453760 0.000921
vn 0.440602 -0.897418 -0.022614
vn -0.891123 -0.453761 0.000939
vn -0.440601 0.897418 -0.022605
vn 0.192748 -0.531292 -0.824971
vn 0.440734 -0.897638 0.000000
vn 0.894504 -0.447060 0.000000
vn 0.910127 -0.414329 0.000000
vn 0.065272 -0.950500 -0.303791
vn 0.192748 -0.531292 -0.824971
vn -0.872502 -0.484570 0.062703
vn -0.436043 0.894563 -0.098105
vn 0.882851 0.452806 -0.124666
vn 0.882851 0.452806 -0.124666
vn 0.397507 -0.883076 0.249329
vn -0.816497 -0.408248 -0.408248
vn -0.333333 -0.666667 0.666667
vn -0.666667 0.666667 0.333333
vn -0.333333 0.666667 -0.666667
vn 0.816497 -0.408248 0.408248
vn 0.333333 0.666667 0.666667
vn 0.333333 -0.666667 -0.666667
vn 0.666667 0.666667 -0.333333
vn 0.000000 1.000000 0.000000
vn 0.022617 -0.897418 -0.440601
vn -0.689688 0.328571 0.645268
vn -0.324564 -0.661077 -0.676488
vn 0.440601 -0.897418 0.022615
vn -0.891122 -0.453762 -0.000942
vn -0.645261 0.328569 -0.689697
vn 0.891123 0.453761 -0.000924
vn 0.440601 -0.897418 0.022615
vn 0.891123 -0.453761 -0.000934
vn 0.440602 0.897418 0.022603
vn -0.440600 -0.897419 0.022609
vn -0.891123 0.453761 -0.000939
vn -0.324564 0.661073 -0.676491
vn -0.891123 0.453761 -0.000939
vn 0.000929 -0.453761 0.891123
vn 0.676485 -0.661078 0.324565
vn 0.689690 0.328571 0.645267
vn 0.000929 -0.453761 0.891123
vn -0.022617 0.897418 0.440601
vn -0.022617 -0.897418 -0.440601
vn 0.000923 0.453761 -0.891123
vn 0.689687 -0.328572 -0.645269
vn 0.000923 0.453761 -0.891123
vn 0.000000 -1.000000 -0.000000
vn 0.000000 -0.707107 -0.707107
vn 0.972858 0.231403 0.000000
vn 0.707107 -0.707107 0.000000
vn 0.972858 0.231403 0.000000
vn 0.000000 0.288123 -0.957593
vn -0.440734 -0.897638 -0.000000
vn -0.894504 -0.447060 -0.000000
vn -0.910127 -0.414329 -0.000000
vn -0.440734 -0.897638 -0.000000
vn -0.065273 -0.950500 -0.303791
vn 0.234707 -0.371110 -0.898437
vn -0.408306 -0.816438 -0.408307
vn 0.000000 0.288123 -0.957593
vn -0.000000 -0.572712 -0.819756
vn 0.234707 -0.371110 -0.898437
vn 0.440601 -0.897418 0.022617
vn -0.891122 -0.453762 -0.000942
vn -0.891122 -0.453762 -0.000942
vn 0.891123 0.453761 -0.000923
vn -0.001225 0.897558 0.440894
vn -0.688080 0.651300 -0.319927
vn -0.023143 0.453458 -0.890977
vn 0.276719 -0.871167 -0.405580
vn 0.894504 -0.447060 0.000000
vn 0.440734 -0.897638 0.000000
vn 0.910127 -0.414329 0.000000
vn 0.440734 -0.897638 0.000000
vn 0.065272 -0.950500 0.303791
vn 0.192748 -0.531292 0.824971
vn -0.234707 -0.371110 0.898438
vn 0.022618 -0.897418 0.440601
vn -0.000924 -0.453761 -0.891123
vn -0.000923 0.453761 0.891123
vn -0.000923 0.453761 0.891123
vn -0.324564 -0.661075 0.676490
vn 0.440601 -0.897418 -0.022610
vn -0.891123 -0.453761 0.000939
vn -0.440600 0.897419 -0.022615
vn 0.324567 0.661080 0.676484
vn 0.440601 -0.897418 -0.022610
vn 0.891122 0.453763 0.000923
vn 0.645267 -0.328571 0.689690
vn -0.440601 -0.897418 -0.022624
vn 0.440601 0.897418 -0.022618
vn -0.891123 0.453761 0.000914
vn -0.891123 0.453761 0.000914
vn 0.000930 -0.453761 -0.891123
vn -0.022617 0.897418 -0.440601
vn 0.689690 0.328571 -0.645266
vn 0.000917 0.453760 0.891123
vn -0.022618 -0.897418 0.440601
vn 0.689684 -0.328573 0.645272
vn -0.497871 0.360020 0.788993
vn 0.972858 0.231403 0.000000
vn 0.624891 0.453499 0.635493
vn 0.972858 0.231403 0.000000
vn -0.000000 0.288123 0.957593
vn -0.894504 -0.447060 -0.000000
vn -0.440734 -0.897638 -0.000000
vn -0.192748 -0.531292 0.824971
vn -0.440734 -0.897638 -0.000000
vn 0.234707 -0.371110 0.898438
vn -0.065273 -0.950500 0.303791
vn -0.192748 -0.531292 0.824971
vn -0.408306 -0.816438 0.408306
vn -0.894504 -0.447060 -0.000000
vn 0.000000 -1.000000 -0.000000
vn -0.000000 -0.572712 0.819756
vn -0.000000 0.288123 0.957593
vn 0.234707 -0.371110 0.898438
vn -0.000000 -0.572712 0.819757
vn -0.440601 0.897418 -0.022605
vn -0.645262 0.328568 0.689695
vn 0.440602 -0.897418 -0.022614
vn 0.891123 0.453760 0.000921
vn 0.324567 0.661076 0.676487
vn 0.645271 -0.328572 0.689686
vn 0.891123 0.453760 0.000921
vt -0.018488 0.559815
vt 0.400771 0.559815
vt 0.397119 0.998806
vt -0.018488 0.998819
vt 0.235120 0.130419
vt 0.456625 0.130419
vt 0.456625 0.550526
vt 0.235120 0.550526
vt 0.666779 0.371810
vt 0.995075 0.364522
vt 0.995108 0.376733
vt 0.667783 0.383208
vt 0.666605 0.344287
vt 0.994596 0.342823
vt 0.993496 0.377325
vt 0.667575 0.378801
vt 0.640992 0.542612
vt 0.471214 0.542612
vt 0.471214 0.373405
vt 0.640992 0.373405
vt 0.994596 0.365678
vt 0.666605 0.367143
vt 0.993416 0.350933
vt 0.993428 0.169746
vt 0.657977 0.168062
vt 0.658720 0.350868
vt 0.476240 0.090278
vt 0.995287 0.090298
vt 0.966073 0.138733
vt 0.506739 0.138712
vt 0.497796 0.094734
vt 0.987667 0.093138
vt 0.959439 0.148461
vt 0.525815 0.146002
vt 0.660606 0.129051
vt 0.660606 0.005970
vt 0.548107 0.005970
vt 0.548107 0.129051
vt 0.658569 0.145426
vt 0.658704 0.005758
vt 0.908652 0.005931
vt 0.908683 0.145629
vt 0.657977 0.422984
vt 0.993428 0.424668
vt 0.398877 0.531692
vt 0.393738 1.005845
vt 0.287419 0.970683
vt -0.016730 0.531680
vt -0.017587 0.998794
vt 0.740608 0.998819
vt 0.740608 0.559985
vt -0.017587 0.559985
vt 0.007544 0.546521
vt 0.004753 0.001359
vt 0.081536 0.000108
vt 0.081042 0.546590
vt 0.264636 0.137748
vt 0.264636 0.544811
vt 0.232551 0.544422
vt 0.232551 0.137748
vt 0.243116 0.004451
vt 0.442192 0.004451
vt 0.442192 0.127653
vt 0.243116 0.127653
vt 0.366318 0.004451
vt 0.366318 0.127653
vt 0.167566 0.501304
vt 0.149827 0.529339
vt 0.150324 0.474606
vt 0.150224 0.529737
vt 0.150224 0.473434
vt 0.167972 0.501059
vt 0.264636 0.287186
vt 0.232551 0.287186
vt 0.442192 0.068847
vt 0.243116 0.066612
vt 0.168283 0.501092
vt 0.149607 0.530276
vt 0.150105 0.474051
vt 0.150799 0.473931
vt 0.150799 0.530234
vt 0.167895 0.501556
vt 0.476240 0.011601
vt 0.995287 0.011621
vt 0.497796 0.005380
vt 0.988950 0.005672
f 1/1/1 2/2/2 3/3/3 4/4/4
f 5/5/5 6/6/6 7/7/7 8/8/8
f 9/9/9 10/10/10 11/11/11 12/12/12
f 12/13/12 11/14/11 13/15/13 14/16/14
f 10/13/10 9/14/9 15/15/15 16/16/16
f 17/8/17 18/7/18 19/6/19 20/5/20
f 21/17/21 22/18/22 23/19/23 24/20/24
f 25/17/25 26/18/26 27/19/27 28/20/28
f 29/19/29 30/18/30 31/17/31 32/20/32
f 33/17/33 34/18/34 35/19/35 36/20/36
f 37/17/37 38/18/38 39/19/39 40/20/40
f 41/17/41 42/18/42 43/19/43 44/20/44
f 45/19/45 46/18/46 47/17/47 48/20/48
f 49/19/49 50/18/50 51/17/51 52/20/52
f 15/16/15 14/16/14 13/15/13 16/15/16
f 16/15/16 13/15/13 11/14/53 10/21/10
f 9/22/54 12/13/55 14/16/56 15/16/15
f 53/23/57 54/24/58 55/25/59 56/26/60
f 57/27/61 58/28/62 59/29/63 60/30/64
f 58/31/62 61/32/65 62/33/66 59/34/63
f 63/33/67 64/32/68 57/31/61 60/34/64
f 65/35/69 66/36/70 67/37/71 68/38/72
f 62/39/66 63/40/67 60/41/64 59/42/73
f 53/23/57 56/26/60 69/43/74 70/44/75
f 3/45/3 71/46/76 72/47/77 4/48/4
f 3/3/3 2/2/2 73/1/78 74/4/79
f 75/25/80 76/24/81 77/23/82 78/26/83
f 69/43/74 78/26/83 77/23/82 70/44/75
f 79/47/84 71/46/76 3/45/3 74/48/79
f 80/17/85 81/18/86 82/19/87 83/20/88
f 84/17/89 85/18/90 86/19/91 87/20/40
f 88/5/92 89/6/93 90/7/94 91/8/95
f 92/8/96 93/7/97 94/6/98 95/5/99
f 96/3/100 97/2/101 98/1/102 99/4/103
f 100/11/104 101/10/105 102/9/106 103/12/107
f 104/15/108 100/14/104 103/13/107 105/16/109
f 106/15/110 102/14/106 101/13/105 107/16/111
f 108/19/112 109/18/113 110/17/114 111/20/115
f 112/19/116 113/18/117 114/17/118 115/20/119
f 116/17/120 117/18/121 118/19/122 119/20/123
f 120/19/124 121/18/125 122/17/126 123/20/127
f 124/19/128 125/18/129 126/17/130 127/20/131
f 128/19/132 129/18/133 130/17/134 131/20/135
f 132/17/136 133/18/137 134/19/138 135/20/139
f 136/17/140 137/18/141 138/19/142 139/20/143
f 104/15/108 105/16/109 106/16/110 107/15/111
f 100/14/144 104/15/145 107/15/146 101/21/147
f 105/16/109 103/13/107 102/22/106 106/16/148
f 140/25/149 54/24/58 53/23/57 141/26/150
f 142/29/151 143/28/152 144/27/153 145/30/154
f 62/33/155 61/32/65 143/31/152 142/34/151
f 144/31/153 64/32/68 63/33/67 145/34/154
f 67/37/71 146/36/156 147/35/157 68/38/72
f 145/41/154 63/40/158 62/39/159 142/42/151
f 148/43/160 141/26/150 53/23/57 70/44/75
f 149/47/161 150/46/162 96/45/100 99/48/103
f 151/1/163 97/2/101 96/3/100 152/4/164
f 77/23/165 76/24/81 153/25/166 154/26/167
f 77/23/168 154/26/167 148/43/160 70/44/75
f 96/45/169 150/46/162 155/47/170 152/48/164
f 156/19/171 157/18/172 158/17/173 159/20/174
f 160/19/175 161/18/176 162/17/177 163/20/178
f 4/49/179 164/50/180 165/51/181
f 165/51/181 1/52/1 4/49/4
f 164/53/180 4/54/179 55/55/59
f 55/55/59 54/56/182 164/53/180
f 56/53/60 55/54/183 4/55/4
f 4/55/184 72/56/77 56/53/60
f 6/57/6 5/58/5 20/59/20
f 20/59/20 19/60/19 6/57/6
f 7/57/7 6/58/6 19/59/19
f 19/59/185 18/60/18 7/57/7
f 8/57/8 7/58/7 18/59/186
f 18/59/18 17/60/17 8/57/8
f 5/57/5 8/58/8 17/59/187
f 17/59/188 20/60/189 5/57/5
f 166/61/190 167/62/191 168/63/192
f 168/63/192 169/64/193 166/61/190
f 167/61/191 170/65/194 171/66/195
f 171/66/195 168/64/192 167/61/191
f 170/61/194 172/62/196 173/63/197
f 173/63/197 171/64/195 170/61/194
f 172/61/196 166/65/190 169/66/193
f 169/66/193 173/64/197 172/61/196
f 174/67/198 168/68/192 171/69/195
f 171/70/195 173/71/197 174/72/198
f 36/73/36 35/58/35 24/59/24
f 24/59/24 23/74/23 36/73/199
f 35/73/35 34/58/34 21/59/21
f 21/59/200 24/74/24 35/73/35
f 34/73/34 33/58/33 22/59/22
f 22/59/22 21/74/21 34/73/34
f 33/73/33 36/58/36 23/59/23
f 23/59/23 22/74/22 33/73/33
f 38/73/38 37/58/37 28/59/28
f 28/59/201 27/74/27 38/73/202
f 37/73/37 40/58/40 25/59/25
f 25/59/25 28/74/28 37/73/203
f 40/73/40 39/58/39 26/59/26
f 26/59/26 25/74/204 40/73/40
f 39/73/205 38/58/206 27/59/27
f 27/59/27 26/74/26 39/73/39
f 44/58/44 43/73/43 32/59/32
f 29/74/29 32/59/32 43/73/43
f 41/58/41 44/73/207 31/59/31
f 32/74/32 31/59/31 44/73/207
f 42/58/42 41/73/208 30/59/30
f 31/74/31 30/59/30 41/73/41
f 43/58/209 42/73/210 29/59/29
f 30/74/211 29/59/29 42/73/212
f 49/58/49 52/73/52 48/59/48
f 45/74/45 48/59/48 52/73/52
f 50/58/50 49/73/213 47/59/47
f 48/74/214 47/59/215 49/73/216
f 51/58/51 50/73/217 46/59/46
f 47/74/215 46/59/46 50/73/50
f 52/58/218 51/73/219 45/59/45
f 46/74/46 45/59/220 51/73/221
f 175/75/222 2/76/223 1/61/1
f 174/77/198 173/78/197 169/79/193
f 169/80/193 168/81/192 174/82/198
f 172/61/196 170/65/194 167/66/191
f 167/66/191 166/64/190 172/61/196
f 58/28/62 57/27/61 66/83/70
f 66/83/70 65/84/69 58/28/62
f 61/32/65 58/31/62 65/85/69
f 65/85/69 68/86/72 61/32/65
f 57/31/61 64/32/224 66/85/70
f 67/86/225 66/85/70 64/32/226
f 1/61/1 165/62/181 175/75/222
f 71/56/76 69/53/227 56/54/60
f 56/54/60 72/55/77 71/56/76
f 176/50/228 74/49/79 177/51/229
f 73/52/78 177/51/229 74/49/79
f 74/54/79 176/53/228 75/55/80
f 76/56/230 75/55/80 176/53/231
f 75/54/232 78/53/233 74/55/79
f 79/56/84 74/55/79 78/53/233
f 2/76/223 175/75/222 73/61/234
f 177/62/229 73/61/78 175/75/222
f 69/53/235 71/56/236 78/54/237
f 79/55/84 78/54/237 71/56/236
f 85/73/90 84/58/89 83/59/88
f 83/59/88 82/74/87 85/73/238
f 84/73/239 87/58/40 80/59/85
f 80/59/85 83/74/88 84/73/240
f 87/73/40 86/58/91 81/59/86
f 81/59/86 80/74/85 87/73/40
f 86/73/91 85/58/238 82/59/87
f 82/59/87 81/74/86 86/73/241
f 89/57/93 88/58/92 95/59/99
f 95/59/99 94/60/98 89/57/93
f 90/57/94 89/58/93 94/59/98
f 94/59/98 93/60/97 90/57/94
f 91/57/95 90/58/94 93/59/242
f 93/59/242 92/60/96 91/57/95
f 88/57/92 91/58/243 92/59/244
f 92/59/244 95/60/245 88/57/92
f 164/50/180 99/49/103 165/51/181
f 98/52/102 165/51/246 99/49/103
f 99/54/103 164/53/247 140/55/149
f 54/56/248 140/55/149 164/53/249
f 140/54/250 141/53/150 99/55/103
f 149/56/161 99/55/251 141/53/252
f 120/58/124 123/73/127 111/59/115
f 108/74/112 111/59/115 123/73/253
f 121/58/125 120/73/254 110/59/114
f 111/74/115 110/59/114 120/73/254
f 122/58/126 121/73/125 109/59/113
f 110/74/114 109/59/113 121/73/125
f 123/58/253 122/73/255 108/59/112
f 109/74/113 108/59/112 122/73/256
f 126/58/130 125/73/129 115/59/119
f 112/74/116 115/59/257 125/73/258
f 127/58/131 126/73/259 114/59/118
f 115/74/119 114/59/118 126/73/130
f 124/58/128 127/73/260 113/59/117
f 114/74/118 113/59/261 127/73/131
f 125/58/262 124/73/263 112/59/116
f 113/74/261 112/59/264 124/73/263
f 128/73/132 131/58/135 119/59/123
f 119/59/123 118/74/122 128/73/265
f 131/73/135 130/58/134 116/59/120
f 116/59/120 119/74/123 131/73/135
f 130/73/266 129/58/133 117/59/121
f 117/59/121 116/74/120 130/73/266
f 129/73/267 128/58/132 118/59/122
f 118/59/122 117/74/121 129/73/268
f 139/73/143 138/58/142 135/59/139
f 135/59/139 134/74/138 139/73/143
f 138/73/269 137/58/141 132/59/136
f 132/59/136 135/74/139 138/73/269
f 137/73/270 136/58/140 133/59/137
f 133/59/137 132/74/271 137/73/270
f 136/73/272 139/58/273 134/59/138
f 134/59/274 133/74/137 136/73/140
f 97/76/101 175/75/222 98/61/102
f 144/27/153 143/28/275 146/83/156
f 147/84/157 146/83/156 143/28/152
f 143/31/152 61/32/65 147/85/157
f 68/86/72 147/85/157 61/32/65
f 64/32/276 144/31/277 146/85/156
f 146/85/156 67/86/225 64/32/278
f 165/62/181 98/61/102 175/75/222
f 148/53/279 150/56/162 141/54/252
f 149/55/161 141/54/252 150/56/162
f 152/49/164 176/50/231 177/51/229
f 177/51/280 151/52/163 152/49/164
f 176/53/281 152/54/282 153/55/166
f 153/55/166 76/56/81 176/53/283
f 154/53/284 153/54/285 152/55/282
f 152/55/286 155/56/170 154/53/284
f 175/75/222 97/76/101 151/61/287
f 151/61/163 177/62/288 175/75/289
f 150/56/290 148/53/291 154/54/284
f 154/54/292 155/55/170 150/56/293
f 162/58/177 161/73/176 159/59/174
f 156/74/171 159/59/174 161/73/176
f 163/58/178 162/73/177 158/59/173
f 159/74/174 158/59/173 162/73/177
f 160/58/175 163/73/294 157/59/172
f 158/74/295 157/59/172 163/73/294
f 161/58/296 160/73/297 156/59/171
f 157/74/298 156/59/299 160/73/300
