#
#
#

mtllib well-01.mtl


#
# 
#
g 


#
# _Material__25
#
usemtl _Material__25

v 0.050024 0.113269 0.803650
v 0.730723 0.113269 0.410649
v 0.730724 0.951470 0.410649
v 0.050024 0.951470 0.803650
v 0.730723 0.113269 -0.375356
v 0.730724 0.951470 -0.375356
v 0.050024 0.113269 -0.768358
v 0.050024 0.951470 -0.768358
v -0.630676 0.113269 -0.375355
v -0.630676 0.951470 -0.375355
v -0.630676 0.113269 0.410649
v -0.630676 0.951470 0.410649
v 0.554881 0.951470 0.309126
v 0.050024 0.951470 0.600606
v 0.554881 0.951470 -0.273833
v 0.050024 0.951470 -0.565313
v -0.454835 0.951470 -0.273833
v -0.454835 0.951470 0.309126
v 0.554881 0.150426 0.309126
v 0.050024 0.150426 0.600606
v 0.554881 0.150426 -0.273833
v 0.050024 0.150426 -0.565313
v -0.454835 0.150426 -0.273833
v -0.454835 0.150426 0.309126
v 0.743531 1.454160 0.112978
v 0.743531 1.582956 0.038618
v -0.626994 1.582956 0.038618
v -0.626994 1.454160 0.112978
v 0.743531 1.582956 -0.110103
v -0.626994 1.582956 -0.110103
v 0.743531 1.454160 -0.184463
v -0.626994 1.454160 -0.184463
v 0.743531 1.325365 -0.110103
v -0.626994 1.325365 -0.110103
v 0.743531 1.325365 0.038618
v -0.626994 1.325365 0.038618
v -0.726041 1.692578 -0.110273
v -0.726041 2.133132 -0.364856
v -0.628540 2.133132 -0.364856
v -0.628540 1.692578 -0.110273
v -0.726041 0.090697 -0.110273
v -0.628540 0.090697 -0.110273
v -0.726041 1.675789 0.069178
v -0.726041 0.090697 0.069178
v -0.628540 0.090697 0.069178
v -0.628540 1.675789 0.069178
v -0.726041 2.095248 0.325363
v -0.628540 2.095248 0.325363
v -0.726041 1.889060 0.070856
v -0.726041 2.176296 0.220531
v -0.628540 2.176297 0.220531
v -0.628540 1.889060 0.070856
v -0.726041 2.296154 0.072092
v -0.628540 2.296154 0.072092
v -0.726041 1.899043 -0.108594
v -0.726041 2.296237 -0.109783
v -0.628540 2.296238 -0.109783
v -0.628540 1.899043 -0.108594
v -0.726041 2.196193 -0.269063
v -0.628540 2.196194 -0.269063
v -0.728727 1.797133 -0.422228
v -0.820098 1.797133 -0.422228
v -0.820098 1.970112 -0.068552
v -0.728727 1.970112 -0.068552
v -0.817591 1.732826 -0.349382
v -0.817591 1.873129 -0.062514
v -0.731233 1.732826 -0.349382
v -0.731233 1.873129 -0.062514
v -0.820098 1.842341 0.303850
v -0.728727 1.842341 0.303850
v -0.817591 1.769493 0.239543
v -0.731233 1.769493 0.239543
v -0.820098 1.488664 0.476830
v -0.728727 1.488664 0.476830
v -0.817591 1.482625 0.379848
v -0.731233 1.482625 0.379848
v -0.820098 1.116261 0.349057
v -0.728727 1.116262 0.349057
v -0.817591 1.180568 0.276211
v -0.731233 1.180568 0.276211
v -0.820098 0.943282 -0.004619
v -0.728727 0.943282 -0.004619
v -0.817591 1.040264 -0.010657
v -0.731233 1.040264 -0.010657
v -0.820098 1.071054 -0.377021
v -0.728727 1.071054 -0.377021
v -0.817591 1.143901 -0.312714
v -0.731233 1.143901 -0.312714
v -0.820098 1.424730 -0.550000
v -0.728727 1.424730 -0.550000
v -0.817591 1.430769 -0.453017
v -0.731233 1.430769 -0.453017
v -0.722826 1.081349 0.107488
v -0.722826 1.789163 -0.231820
v -0.722826 1.821815 -0.163708
v -0.722826 1.114001 0.175600
v -0.778065 1.086393 0.105071
v -0.778065 1.119043 0.173183
v -0.778065 1.826857 -0.166125
v -0.778065 1.794206 -0.234237
v -0.740480 1.315932 -0.398571
v -0.740480 1.655240 0.309243
v -0.740480 1.587127 0.341894
v -0.740480 1.247820 -0.365919
v -0.785861 1.320022 -0.400531
v -0.785861 1.251909 -0.367881
v -0.785861 1.591217 0.339934
v -0.785861 1.659329 0.307283
v 0.936512 1.833084 -0.803648
v 0.936512 2.286357 -0.106825
v -0.936511 2.286357 -0.106825
v -0.936511 1.833084 -0.803648
v 0.936512 2.286357 0.055540
v -0.936511 2.286357 0.055540
v 0.936511 1.772197 0.759128
v -0.936511 1.772197 0.759128
v 0.936512 2.462255 -0.025643
v -0.936511 2.462253 -0.025643
v 0.730723 -0.724932 0.410649
v 0.050024 -0.724932 0.803650
v 0.730723 -0.724932 -0.375356
v 0.050024 -0.724932 -0.768358
v -0.630676 -0.724932 -0.375355
v -0.630676 -0.724932 0.410649
v 0.554881 -0.724932 0.309126
v 0.050024 -0.724932 0.600606
v 0.554881 -0.724932 -0.273833
v 0.050024 -0.724932 -0.565313
v -0.454835 -0.724932 -0.273833
v -0.454835 -0.724932 0.309126
v 0.739336 1.692578 -0.110273
v 0.739337 2.133132 -0.364856
v 0.836838 2.133132 -0.364856
v 0.836838 1.692578 -0.110273
v 0.739338 0.090697 -0.110273
v 0.836838 0.090697 -0.110273
v 0.739336 1.675789 0.069178
v 0.739338 0.090697 0.069178
v 0.836838 0.090697 0.069178
v 0.836838 1.675789 0.069178
v 0.739337 2.095248 0.325364
v 0.836838 2.095248 0.325364
v 0.739336 1.889060 0.070857
v 0.739337 2.176296 0.220531
v 0.836838 2.176297 0.220531
v 0.836838 1.889060 0.070857
v 0.739337 2.296154 0.072092
v 0.836838 2.296154 0.072092
v 0.739336 1.899043 -0.108594
v 0.739337 2.296237 -0.109783
v 0.836838 2.296238 -0.109783
v 0.836838 1.899043 -0.108594
v 0.739337 2.196193 -0.269063
v 0.836838 2.196194 -0.269063
vn 0.000000 -0.000000 1.000000
vn 0.866025 -0.000000 0.500000
vn 0.566947 0.755929 0.327327
vn 0.000000 0.755929 0.654654
vn 0.866025 -0.000000 -0.500000
vn 0.566947 0.755929 -0.327327
vn -0.000001 0.000000 -1.000000
vn -0.000000 0.755929 -0.654654
vn -0.866026 0.000000 -0.500000
vn -0.566947 0.755929 -0.327327
vn -0.866025 0.000000 0.500000
vn -0.566946 0.755929 0.327327
vn -0.566947 0.755929 -0.327327
vn -0.000000 0.755929 -0.654654
vn -0.566947 0.755929 0.327326
vn -0.000000 0.755929 -0.654654
vn -0.000000 0.755929 0.654654
vn 0.566947 0.755929 0.327327
vn 0.566946 0.755929 -0.327327
vn -0.866025 0.000000 -0.500000
vn -0.000000 0.000000 -1.000000
vn -0.866026 0.000000 0.499999
vn -0.000000 0.000000 1.000000
vn 0.866026 -0.000000 0.500000
vn 0.866025 -0.000000 -0.500001
vn 0.755929 0.000000 0.654654
vn 0.500000 0.749999 0.433013
vn -0.866026 0.433012 0.250000
vn -0.500000 -0.000000 0.866026
vn 0.755929 0.566946 -0.327327
vn -0.500000 0.749999 -0.433013
vn 0.500000 -0.000000 -0.866026
vn -0.755929 -0.000000 -0.654654
vn 0.866026 -0.433012 -0.250000
vn -0.500000 -0.750000 -0.433013
vn 0.500000 -0.749999 0.433013
vn -0.755929 -0.566946 0.327327
vn 0.755929 0.000000 0.654654
vn -0.755929 -0.000000 -0.654654
vn -0.840773 -0.140223 -0.522913
vn -0.566471 0.189722 -0.801945
vn 0.566468 0.189722 -0.801947
vn 0.840773 -0.140223 -0.522913
vn -0.577350 -0.577350 -0.577350
vn 0.577350 -0.577350 -0.577350
vn -0.841594 -0.146220 0.519942
vn -0.577350 -0.577350 0.577350
vn 0.577350 -0.577350 0.577350
vn 0.841594 -0.146220 0.519942
vn -0.557344 0.150430 0.816541
vn 0.557341 0.150430 0.816543
vn -0.987807 0.151159 0.037264
vn -0.614722 0.770391 -0.169157
vn 0.614718 0.770395 -0.169157
vn 0.987807 0.151159 0.037264
vn -0.577849 0.576093 0.578107
vn 0.577845 0.576095 0.578109
vn -0.987068 0.155356 -0.039516
vn -0.578017 0.576284 -0.577748
vn 0.578013 0.576286 -0.577750
vn 0.987068 0.155356 -0.039516
vn -0.594847 0.779497 0.196319
vn 0.594842 0.779501 0.196320
vn 0.743867 0.442298 -0.501033
vn -0.743871 0.442295 -0.501030
vn -0.743871 0.667032 -0.041531
vn 0.743867 0.667036 -0.041532
vn -0.724985 -0.455823 0.516354
vn -0.724985 -0.687433 0.042801
vn 0.724990 -0.455820 0.516351
vn 0.724989 -0.687429 0.042801
vn 0.743867 0.667036 -0.041532
vn -0.743871 0.501030 0.442295
vn 0.743867 0.501034 0.442298
vn -0.724985 -0.516354 -0.455823
vn -0.724985 -0.687433 0.042801
vn 0.724990 -0.687429 0.042801
vn 0.724989 -0.516351 -0.455820
vn 0.743866 0.501034 0.442298
vn -0.743871 0.041531 0.667032
vn 0.743867 0.041532 0.667036
vn -0.724985 -0.042802 -0.687433
vn -0.724985 -0.516354 -0.455823
vn 0.724989 -0.516351 -0.455820
vn 0.724990 -0.042802 -0.687429
vn 0.743867 0.041531 0.667036
vn -0.743869 -0.442297 0.501031
vn 0.743868 -0.442298 0.501032
vn -0.743871 0.041531 0.667032
vn -0.724985 0.455824 -0.516354
vn 0.724990 -0.042802 -0.687429
vn 0.724990 0.455821 -0.516350
vn 0.724990 -0.042802 -0.687428
vn 0.743867 0.041532 0.667036
vn 0.743868 -0.442298 0.501032
vn -0.743870 -0.442297 0.501031
vn -0.743870 -0.667033 0.041532
vn 0.743868 -0.667035 0.041532
vn -0.724985 0.687433 -0.042801
vn 0.724990 0.455821 -0.516350
vn 0.724990 0.687429 -0.042801
vn 0.743868 -0.442298 0.501032
vn 0.743868 -0.667035 0.041532
vn -0.743870 -0.667033 0.041532
vn -0.743871 -0.501030 -0.442296
vn 0.743867 -0.501033 -0.442299
vn -0.743870 -0.667033 0.041532
vn -0.724985 0.516353 0.455824
vn 0.724990 0.687429 -0.042801
vn 0.724989 0.516350 0.455821
vn 0.743868 -0.667035 0.041532
vn 0.743867 -0.501033 -0.442299
vn -0.743871 -0.501030 -0.442296
vn -0.743871 -0.041531 -0.667032
vn 0.743867 -0.041532 -0.667036
vn -0.724985 0.042802 0.687433
vn -0.724985 0.516353 0.455824
vn 0.724989 0.042802 0.687429
vn 0.743867 -0.041532 -0.667036
vn -0.743871 0.442295 -0.501030
vn 0.743867 0.442298 -0.501033
vn -0.724985 0.042802 0.687433
vn 0.724989 0.042802 0.687429
vn 0.743867 -0.041532 -0.667036
vn 0.724990 -0.455820 0.516351
vn 0.537558 -0.794692 -0.281951
vn 0.615181 0.259820 -0.744343
vn 0.615183 0.743007 0.263611
vn 0.537561 -0.277895 0.796117
vn -0.615184 -0.743006 -0.263613
vn -0.615185 -0.259822 0.744339
vn -0.537562 0.794690 0.281947
vn -0.537562 0.277893 -0.796117
vn 0.614713 0.259992 -0.744669
vn 0.614712 0.743370 0.263687
vn 0.538081 -0.277837 0.795786
vn 0.538087 -0.794392 -0.281788
vn -0.538076 0.277840 -0.795788
vn -0.614710 -0.743370 -0.263690
vn -0.614712 -0.259990 0.744671
vn -0.538082 0.794395 0.281786
vn 0.994711 -0.060377 -0.083094
vn 0.721852 -0.663475 0.196804
vn -0.462422 -0.850052 0.252147
vn -0.994711 -0.060379 -0.083094
vn 0.465505 -0.841350 -0.274656
vn -0.724772 -0.654973 -0.213814
vn 0.995961 -0.056192 0.070036
vn -0.995961 -0.056191 0.070035
vn 0.794464 0.607182 0.012523
vn -0.794465 0.607181 0.012523
vn 0.995961 -0.056192 0.070036
vn -0.994711 -0.060379 -0.083094
vn 0.566946 -0.755929 0.327327
vn -0.000000 -0.755929 0.654654
vn 0.566946 -0.755929 -0.327327
vn -0.000000 -0.755929 -0.654654
vn -0.566947 -0.755929 -0.327327
vn -0.000001 0.000000 -1.000000
vn -0.566947 -0.755929 0.327327
vn -0.866025 0.000000 0.500000
vn -0.566947 -0.755929 -0.327327
vn -0.000000 -0.755929 -0.654654
vn -0.566947 -0.755929 0.327327
vn -0.000000 -0.755929 0.654654
vn 0.566947 -0.755929 0.327327
vn 0.566946 -0.755929 -0.327327
vn -0.866025 0.000000 -0.500000
vn -0.000001 0.000000 1.000000
vn -0.866026 0.000000 0.499999
vn -0.000000 0.000000 1.000000
vn -0.000000 0.000000 -1.000000
vn -0.594847 0.779497 0.196319
vn 0.566468 0.189722 -0.801947
vn 0.538081 -0.277837 0.795786
vn -0.614710 -0.743370 -0.263690
vn -0.840773 -0.140223 -0.522913
vn -0.566472 0.189722 -0.801945
vn 0.566468 0.189722 -0.801947
vn 0.840773 -0.140223 -0.522913
vn -0.577350 -0.577351 -0.577350
vn 0.577350 -0.577350 -0.577350
vn -0.841594 -0.146221 0.519942
vn -0.577350 -0.577351 0.577350
vn 0.577350 -0.577350 0.577350
vn 0.841594 -0.146220 0.519942
vn -0.557344 0.150430 0.816541
vn 0.557341 0.150430 0.816543
vn -0.987807 0.151159 0.037264
vn -0.614723 0.770391 -0.169157
vn 0.614717 0.770395 -0.169157
vn 0.987807 0.151159 0.037264
vn -0.577849 0.576093 0.578107
vn -0.987068 0.155356 -0.039516
vn -0.578017 0.576284 -0.577748
vn 0.578013 0.576286 -0.577750
vn 0.987068 0.155356 -0.039516
vn -0.594847 0.779497 0.196319
vn 0.594842 0.779501 0.196321
vn -0.987068 0.155356 -0.039516
vn 0.557341 0.150430 0.816543
vn -0.566472 0.189722 -0.801945
vn -0.594847 0.779497 0.196319
vn 0.566468 0.189722 -0.801947
vn 0.755929 0.000000 0.654654
vn -0.755929 -0.000000 -0.654654
vn -0.995961 -0.056191 0.070035
vt 0.379827 0.559043
vt 0.457937 0.559043
vt 0.457937 0.690623
vt 0.379827 0.690623
vt 0.536047 0.559043
vt 0.536047 0.690623
vt 0.067388 0.559043
vt 0.145498 0.559043
vt 0.145498 0.690623
vt 0.067388 0.690623
vt 0.224332 0.558681
vt 0.224332 0.690261
vt 0.302441 0.558681
vt 0.302441 0.690261
vt 0.656048 0.697874
vt 0.566710 0.697778
vt 0.578271 0.677805
vt 0.644530 0.677875
vt 0.655971 0.697765
vt 0.566633 0.697765
vt 0.578172 0.677779
vt 0.644432 0.677779
vt 0.748116 0.697189
vt 0.658779 0.697378
vt 0.670276 0.677367
vt 0.736535 0.677227
vt 0.748179 0.697154
vt 0.658843 0.697555
vt 0.670292 0.677517
vt 0.736551 0.677220
vt 0.747899 0.697777
vt 0.658561 0.697776
vt 0.670101 0.677790
vt 0.736360 0.677790
vt 0.655954 0.698033
vt 0.566617 0.697784
vt 0.578212 0.677830
vt 0.644471 0.678015
vt 0.818414 0.034147
vt 0.902573 0.034306
vt 0.902354 0.149977
vt 0.818195 0.149817
vt 0.986732 0.034466
vt 0.986512 0.150137
vt 0.481778 0.033508
vt 0.565937 0.033668
vt 0.565718 0.149338
vt 0.481559 0.149179
vt 0.650096 0.033827
vt 0.649877 0.149498
vt 0.734255 0.033987
vt 0.734036 0.149658
vt 0.087870 0.054385
vt 0.157265 0.054385
vt 0.157265 0.470505
vt 0.087870 0.470505
vt 0.226661 0.054385
vt 0.226661 0.470505
vt 0.018436 0.055502
vt 0.087831 0.055502
vt 0.087831 0.471874
vt 0.018436 0.471874
vt 0.157227 0.055502
vt 0.157227 0.471874
vt 0.226622 0.055502
vt 0.226622 0.471874
vt 0.018475 0.054385
vt 0.018475 0.470505
vt 0.124194 0.255991
vt 0.149321 0.212470
vt 0.099067 0.212470
vt 0.099067 0.241484
vt 0.148178 0.240287
vt 0.097924 0.240287
vt 0.123051 0.196766
vt 0.148178 0.211273
vt 0.084540 0.556367
vt 0.084540 0.404955
vt 0.120804 0.404955
vt 0.120804 0.556367
vt 0.218757 0.984477
vt 0.247574 0.942963
vt 0.247330 0.912855
vt 0.208486 0.976511
vt 0.274007 1.000872
vt 0.273743 0.941507
vt 0.247305 1.000884
vt 0.273498 0.910406
vt 0.300018 0.983154
vt 0.310850 0.975215
vt 0.247330 0.679257
vt 0.273498 0.679257
vt 0.299307 0.983668
vt 0.311936 0.974321
vt 0.274018 1.000872
vt 0.247316 1.000884
vt 0.218685 0.984421
vt 0.208332 0.976389
vt 0.054201 0.459729
vt 0.035481 0.459729
vt 0.035481 0.387267
vt 0.054201 0.387267
vt 0.136711 0.275706
vt 0.108670 0.264274
vt 0.107888 0.124017
vt 0.135800 0.112273
vt 0.054166 0.325597
vt 0.035446 0.325597
vt 0.035446 0.263412
vt 0.054166 0.263412
vt 0.166143 0.314518
vt 0.194336 0.303462
vt 0.191236 0.466869
vt 0.163483 0.454752
vt 0.035481 0.310969
vt 0.054201 0.310969
vt 0.191174 0.467010
vt 0.163430 0.454873
vt 0.166192 0.314641
vt 0.194392 0.303606
vt 0.035446 0.197934
vt 0.054167 0.197934
vt 0.107837 0.123895
vt 0.135740 0.112131
vt 0.136769 0.275563
vt 0.108719 0.264151
vt 0.114061 0.460204
vt 0.095341 0.460204
vt 0.095341 0.387742
vt 0.114061 0.387742
vt 0.135395 0.414697
vt 0.107578 0.402729
vt 0.109485 0.262483
vt 0.137618 0.251276
vt 0.114040 0.327497
vt 0.095320 0.327497
vt 0.095320 0.265312
vt 0.114040 0.265312
vt 0.073630 0.225156
vt 0.045445 0.236229
vt 0.048451 0.072820
vt 0.076210 0.084921
vt 0.095341 0.311444
vt 0.114062 0.311444
vt 0.070925 0.435288
vt 0.042699 0.424318
vt 0.039612 0.284093
vt 0.067328 0.271891
vt 0.095320 0.199834
vt 0.114040 0.199834
vt 0.194544 0.227505
vt 0.166716 0.239446
vt 0.164649 0.076023
vt 0.192771 0.087257
vt 0.064692 0.311444
vt 0.083412 0.311444
vt 0.083412 0.383906
vt 0.064692 0.383906
vt 0.199230 0.386445
vt 0.159426 0.370124
vt 0.158715 0.170869
vt 0.198402 0.154264
vt 0.126430 0.198884
vt 0.145151 0.198884
vt 0.145151 0.261070
vt 0.126430 0.261069
vt 0.043642 0.181537
vt 0.078791 0.167046
vt 0.078448 0.372234
vt 0.043348 0.357626
vt 0.083412 0.460204
vt 0.064691 0.460204
vt 0.078374 0.372412
vt 0.043284 0.357779
vt 0.043705 0.181690
vt 0.078864 0.167225
vt 0.145150 0.326548
vt 0.126430 0.326547
vt 0.158643 0.170696
vt 0.198317 0.154062
vt 0.199313 0.386243
vt 0.159497 0.369950
vt 0.127904 0.189399
vt 0.146624 0.189399
vt 0.146624 0.261861
vt 0.127904 0.261861
vt 0.164707 0.075880
vt 0.192820 0.087134
vt 0.194492 0.227383
vt 0.166655 0.239305
vt 0.064671 0.199834
vt 0.083391 0.199834
vt 0.083391 0.262019
vt 0.064671 0.262019
vt 0.039559 0.283972
vt 0.067266 0.271750
vt 0.070981 0.435144
vt 0.042747 0.424194
vt 0.146624 0.338159
vt 0.127903 0.338159
vt 0.048512 0.072679
vt 0.076263 0.084800
vt 0.073582 0.225033
vt 0.045388 0.236085
vt 0.083391 0.327497
vt 0.064670 0.327497
vt 0.109437 0.262360
vt 0.137561 0.251133
vt 0.135456 0.414556
vt 0.107630 0.402608
vt 0.013344 0.711201
vt 0.013344 0.892143
vt -0.015727 0.892143
vt -0.015727 0.711201
vt 0.254079 0.826249
vt 0.265612 0.826249
vt 0.265612 0.981281
vt 0.254079 0.981281
vt 0.271318 0.719932
vt 0.271318 0.909012
vt 0.256365 0.908991
vt 0.256365 0.719910
vt 0.492545 0.765622
vt 0.492546 0.914213
vt 0.510655 0.914213
vt 0.510654 0.765622
vt 0.013386 0.710858
vt 0.013386 0.891800
vt -0.015684 0.891800
vt -0.015684 0.710858
vt 0.729236 0.843528
vt 0.742520 0.843528
vt 0.742520 0.969915
vt 0.729236 0.969915
vt 0.492560 0.765034
vt 0.492561 0.913625
vt 0.510670 0.913625
vt 0.510669 0.765034
vt 0.510454 0.720723
vt 0.510454 0.881257
vt 0.494834 0.881257
vt 0.494834 0.720723
vt 0.916465 0.323990
vt 0.916465 0.397472
vt 0.718949 0.397471
vt 0.718950 0.323989
vt 0.650678 0.339851
vt 0.718854 0.314177
vt 0.916369 0.314177
vt 0.984479 0.339851
vt 0.718854 0.239982
vt 0.916369 0.239982
vt 0.877468 0.152838
vt 0.877468 0.259237
vt 0.712140 0.259237
vt 0.712140 0.152838
vt 0.712140 0.361521
vt 0.877469 0.259238
vt 0.877468 0.361522
vt 0.038038 0.280525
vt 0.038038 0.258283
vt 0.020454 0.269404
vt 0.039956 0.416274
vt 0.029880 0.138772
vt 0.149321 0.241484
vt 0.124194 0.197963
vt 0.123051 0.254794
vt 0.097924 0.211273
f 1/1/1 2/2/2 3/3/3 4/4/4
f 2/2/2 5/5/5 6/6/6 3/3/3
f 5/7/5 7/8/7 8/9/8 6/10/6
f 7/8/7 9/11/9 10/12/10 8/9/8
f 9/11/9 11/13/11 12/14/12 10/12/10
f 11/13/11 1/1/1 4/4/4 12/14/12
f 4/15/4 3/16/3 13/17/13 14/18/14
f 3/19/3 6/20/6 15/21/15 13/22/13
f 6/23/6 8/24/16 16/25/17 15/26/15
f 8/27/16 10/28/10 17/29/18 16/30/17
f 10/31/10 12/32/12 18/33/19 17/34/18
f 12/35/12 4/36/4 14/37/14 18/38/19
f 14/39/14 13/40/13 19/41/20 20/42/21
f 13/40/13 15/43/15 21/44/22 19/41/20
f 15/45/15 16/46/17 22/47/23 21/48/22
f 16/46/17 17/49/18 23/50/24 22/47/23
f 17/49/18 18/51/19 24/52/25 23/50/24
f 18/51/19 14/39/14 20/42/21 24/52/25
f 25/53/26 26/54/27 27/55/28 28/56/29
f 26/54/27 29/57/30 30/58/31 27/55/28
f 29/59/30 31/60/32 32/61/33 30/62/31
f 31/60/32 33/63/34 34/64/35 32/61/33
f 33/63/34 35/65/36 36/66/37 34/64/35
f 35/67/36 25/53/26 28/56/29 36/68/37
f 25/69/38 33/70/34 29/71/30 26/72/27
f 36/73/37 27/74/28 32/75/39 34/76/35
f 37/77/40 38/78/41 39/79/42 40/80/43
f 41/56/44 37/53/40 40/54/43 42/55/45
f 43/56/46 44/53/47 45/54/48 46/55/49
f 47/77/50 43/78/46 46/79/49 48/80/51
f 49/77/52 50/78/53 51/79/54 52/80/55
f 53/77/56 49/78/52 52/79/55 54/80/57
f 55/77/58 56/78/59 57/79/60 58/80/61
f 59/77/62 55/78/58 58/79/61 60/80/63
f 60/81/63 58/82/61 40/83/43 39/84/42
f 54/85/57 52/86/55 58/82/61 57/87/60
f 52/86/55 46/88/49 40/83/43 58/82/61
f 46/88/49 52/86/55 51/89/54 48/90/51
f 42/91/45 40/83/43 46/88/49 45/92/48
f 50/93/53 49/86/52 43/88/46 47/94/50
f 55/82/58 49/86/52 53/95/56 56/96/59
f 37/83/40 55/82/58 59/97/62 38/98/41
f 37/83/40 43/88/46 49/86/52 55/82/58
f 41/91/44 44/92/47 43/88/46 37/83/40
f 61/99/64 62/100/65 63/101/66 64/102/67
f 62/103/65 65/104/68 66/105/69 63/106/66
f 65/107/68 67/108/70 68/109/71 66/110/69
f 67/111/70 61/112/64 64/113/67 68/114/71
f 64/102/72 63/101/66 69/115/73 70/116/74
f 63/117/66 66/118/69 71/119/75 69/120/73
f 66/110/76 68/109/77 72/121/78 71/122/75
f 68/123/71 64/124/67 70/125/74 72/126/78
f 70/127/79 69/128/73 73/129/80 74/130/81
f 69/131/73 71/132/75 75/133/82 73/134/80
f 71/135/83 72/136/84 76/137/85 75/138/82
f 72/139/78 70/140/74 74/141/81 76/142/85
f 74/130/86 73/129/80 77/143/87 78/144/88
f 73/145/89 75/146/82 79/147/90 77/148/87
f 75/138/82 76/137/91 80/149/92 79/150/90
f 76/151/93 74/152/94 78/153/88 80/154/92
f 78/155/95 77/156/96 81/157/97 82/158/98
f 77/159/87 79/160/90 83/161/99 81/162/97
f 79/163/90 80/164/100 84/165/101 83/166/99
f 80/167/92 78/168/102 82/169/98 84/170/101
f 82/158/103 81/157/104 85/171/105 86/172/106
f 81/173/107 83/174/99 87/175/108 85/176/105
f 83/166/99 84/165/109 88/177/110 87/178/108
f 84/179/101 82/180/111 86/181/106 88/182/110
f 86/183/112 85/184/113 89/185/114 90/186/115
f 85/187/113 87/188/108 91/189/116 89/190/114
f 87/191/117 88/192/110 92/193/118 91/194/116
f 88/195/110 86/196/106 90/197/115 92/198/118
f 90/186/119 89/185/114 62/199/120 61/200/121
f 89/201/114 91/202/116 65/203/68 62/204/120
f 91/194/122 92/193/123 67/205/70 65/206/68
f 92/207/123 90/208/124 61/209/64 67/210/125
f 93/211/126 94/212/127 95/213/128 96/214/129
f 97/215/130 98/216/131 99/217/132 100/218/133
f 96/219/129 95/220/128 99/221/132 98/222/131
f 94/223/127 93/224/126 97/225/130 100/226/133
f 101/227/134 102/228/135 103/229/136 104/230/137
f 105/231/138 106/232/139 107/233/140 108/234/141
f 104/235/137 103/236/136 107/237/140 106/238/139
f 102/239/135 101/240/134 105/241/138 108/242/141
f 109/243/142 110/244/143 111/245/144 112/246/145
f 110/247/143 113/248/146 114/249/147 111/250/144
f 113/248/146 115/251/148 116/252/149 114/249/147
f 115/253/148 117/254/150 118/255/151 116/256/149
f 117/257/150 109/255/142 112/258/145 118/259/151
f 113/260/146 110/261/143 117/262/150 115/263/152
f 111/261/144 114/260/147 118/262/151 112/264/153
f 119/3/154 2/2/2 1/1/1 120/4/155
f 121/6/156 5/5/5 2/2/2 119/3/154
f 122/9/157 7/8/7 5/7/5 121/10/156
f 123/12/158 9/11/9 7/8/159 122/9/157
f 124/14/160 11/13/11 9/11/9 123/12/158
f 120/4/155 1/1/1 11/13/161 124/14/160
f 125/17/162 119/16/154 120/15/155 126/18/163
f 127/21/164 121/20/156 119/19/154 125/22/162
f 128/25/165 122/24/157 121/23/156 127/26/164
f 129/29/166 123/28/158 122/27/157 128/30/165
f 130/33/167 124/32/160 123/31/158 129/34/166
f 126/37/163 120/36/155 124/35/160 130/38/167
f 19/41/168 125/40/162 126/39/163 20/42/21
f 21/44/22 127/43/164 125/40/162 19/41/168
f 22/47/169 128/46/165 127/45/164 21/48/170
f 23/50/24 129/49/166 128/46/165 22/47/171
f 24/52/25 130/51/167 129/49/166 23/50/24
f 20/42/172 126/39/163 130/51/167 24/52/25
f 50/77/53 47/78/50 48/79/51 51/80/54
f 56/77/59 53/78/56 54/79/57 57/80/60
f 38/77/41 59/78/173 60/79/63 39/80/174
f 41/56/44 42/55/45 45/55/48 44/56/47
f 103/229/175 102/228/135 108/228/141 107/229/140
f 101/227/134 104/230/137 106/230/176 105/227/138
f 95/213/128 94/212/127 100/212/133 99/213/132
f 98/216/131 97/215/130 93/215/126 96/216/129
f 131/77/177 132/78/178 133/79/179 134/80/180
f 135/56/181 131/53/177 134/54/180 136/55/182
f 137/56/183 138/53/184 139/54/185 140/55/186
f 141/77/187 137/78/183 140/79/186 142/80/188
f 143/77/189 144/78/190 145/79/191 146/80/192
f 147/77/193 143/78/189 146/79/192 148/80/57
f 149/77/194 150/78/195 151/79/196 152/80/197
f 153/77/198 149/78/194 152/79/197 154/80/199
f 154/81/199 152/82/197 134/83/180 133/84/179
f 148/85/57 146/86/192 152/82/197 151/87/196
f 146/86/192 140/88/186 134/83/180 152/82/197
f 140/88/186 146/86/192 145/89/191 142/90/188
f 136/91/182 134/83/180 140/88/186 139/92/185
f 144/93/190 143/86/189 137/88/183 141/94/187
f 149/82/200 143/86/189 147/95/193 150/96/195
f 131/83/177 149/82/194 153/97/198 132/98/178
f 131/83/177 137/88/183 143/86/189 149/82/194
f 135/91/181 138/92/184 137/88/183 131/83/177
f 144/77/190 141/78/187 142/79/201 145/80/191
f 150/77/195 147/78/193 148/79/57 151/80/196
f 132/77/202 153/78/203 154/79/199 133/80/204
f 135/56/181 136/55/182 139/55/185 138/56/184
f 25/69/205 35/265/36 33/70/34
f 29/71/30 33/70/34 31/266/32
f 36/73/37 28/267/29 27/74/28
f 32/75/206 27/74/28 30/268/31
f 117/262/150 110/261/143 109/264/142
f 118/262/151 114/260/147 116/263/207
