{
  "accessors": [
    {
      "bufferView": 2,
      "componentType": 5126,
      "count": 784,
      "max": [
        8709.84765625,
        8.262499809265137,
        82.0
      ],
      "min": [
        540.652099609375,
        1.8125,
        0.0
      ],
      "type": "VEC3"
    },
    {
      "bufferView": 2,
      "byteOffset": 9408,
      "componentType": 5126,
      "count": 784,
      "max": [
        1.0,
        1.0,
        1.0
      ],
      "min": [
        -1.0,
        -1.0,
        -1.0
      ],
      "type": "VEC3"
    },
    {
      "bufferView": 0,
      "componentType": 5125,
      "count": 1968,
      "type": "SCALAR"
    },
    {
      "bufferView": 2,
      "byteOffset": 18816,
      "componentType": 5126,
      "count": 6344,
      "max": [
        9250.5,
        3170.000244140625,
        987.68701171875
      ],
      "min": [
        0.0,
        0.00019531250291038305,
        0.0
      ],
      "type": "VEC3"
    },
    {
      "bufferView": 2,
      "byteOffset": 94944,
      "componentType": 5126,
      "count": 6344,
      "max": [
        1.0,
        1.0,
        1.0
      ],
      "min": [
        -1.0,
        -1.0,
        -1.0
      ],
      "type": "VEC3"
    },
    {
      "bufferView": 0,
      "byteOffset": 7872,
      "componentType": 5125,
      "count": 13884,
      "type": "SCALAR"
    },
    {
      "bufferView": 2,
      "byteOffset": 171072,
      "componentType": 5126,
      "count": 1736,
      "max": [
        9209.8232421875,
        3170.0,
        974.4375
      ],
      "min": [
        40.677059173583984,
        40.676998138427734,
        0.0
      ],
      "type": "VEC3"
    },
    {
      "bufferView": 0,
      "byteOffset": 63408,
      "componentType": 5125,
      "count": 4312,
      "type": "SCALAR"
    },
    {
      "bufferView": 2,
      "byteOffset": 191904,
      "componentType": 5126,
      "count": 7240,
      "max": [
        9209.8232421875,
        3170.0,
        974.4375
      ],
      "min": [
        40.677059173583984,
        40.676998138427734,
        0.0
      ],
      "type": "VEC3"
    },
    {
      "bufferView": 2,
      "byteOffset": 278784,
      "componentType": 5126,
      "count": 7240,
      "max": [
        1.0,
        1.0,
        1.0
      ],
      "min": [
        -1.0,
        -1.0,
        -1.0
      ],
      "type": "VEC3"
    },
    {
      "bufferView": 0,
      "byteOffset": 80656,
      "componentType": 5125,
      "count": 16740,
      "type": "SCALAR"
    },
    {
      "bufferView": 2,
      "byteOffset": 365664,
      "componentType": 5126,
      "count": 1536,
      "max": [
        8891.4267578125,
        3166.6103515625,
        440.9263000488281
      ],
      "min": [
        359.0738220214844,
        3136.1025390625,
        348.8638000488281
      ],
      "type": "VEC3"
    },
    {
      "bufferView": 2,
      "byteOffset": 384096,
      "componentType": 5126,
      "count": 1536,
      "max": [
        3.5356713759017444e-14,
        1.0,
        0.0
      ],
      "min": [
        -3.5356713759017444e-14,
        -1.0,
        0.0
      ],
      "type": "VEC3"
    },
    {
      "bufferView": 0,
      "byteOffset": 147616,
      "componentType": 5125,
      "count": 2304,
      "type": "SCALAR"
    },
    {
      "bufferView": 2,
      "byteOffset": 402528,
      "componentType": 5126,
      "count": 646,
      "max": [
        9250.5,
        3170.000244140625,
        987.68701171875
      ],
      "min": [
        0.0,
        0.00019531250291038305,
        0.0
      ],
      "type": "VEC3"
    },
    {
      "bufferView": 2,
      "byteOffset": 410280,
      "componentType": 5126,
      "count": 646,
      "max": [
        1.0,
        1.0,
        1.0
      ],
      "min": [
        -1.0,
        -1.0,
        -1.0
      ],
      "type": "VEC3"
    },
    {
      "bufferView": 1,
      "componentType": 5126,
      "count": 646,
      "max": [
        267.30389404296875,
        50.827030181884766
      ],
      "min": [
        -159.3134002685547,
        -249.73440551757813
      ],
      "type": "VEC2"
    },
    {
      "bufferView": 0,
      "byteOffset": 156832,
      "componentType": 5125,
      "count": 1278,
      "type": "SCALAR"
    },
    {
      "bufferView": 2,
      "byteOffset": 418032,
      "componentType": 5126,
      "count": 216,
      "max": [
        9250.5,
        3170.000244140625,
        987.68701171875
      ],
      "min": [
        0.0,
        0.00019531250291038305,
        0.0
      ],
      "type": "VEC3"
    },
    {
      "bufferView": 2,
      "byteOffset": 420624,
      "componentType": 5126,
      "count": 216,
      "max": [
        0.32718873023986816,
        1.0,
        2.4457210260779355e-15
      ],
      "min": [
        -0.32718873023986816,
        -1.0,
        -1.0
      ],
      "type": "VEC3"
    },
    {
      "bufferView": 0,
      "byteOffset": 161944,
      "componentType": 5125,
      "count": 588,
      "type": "SCALAR"
    },
    {
      "bufferView": 2,
      "byteOffset": 423216,
      "componentType": 5126,
      "count": 26,
      "max": [
        9230.1611328125,
        3170.000244140625,
        974.43701171875
      ],
      "min": [
        20.3385009765625,
        3170.000244140625,
        613.75
      ],
      "type": "VEC3"
    },
    {
      "bufferView": 0,
      "byteOffset": 164296,
      "componentType": 5125,
      "count": 48,
      "type": "SCALAR"
    },
    {
      "bufferView": 2,
      "byteOffset": 423528,
      "componentType": 5126,
      "count": 106,
      "max": [
        9250.5,
        3170.000244140625,
        987.68701171875
      ],
      "min": [
        0.0,
        0.00019531250291038305,
        613.75
      ],
      "type": "VEC3"
    },
    {
      "bufferView": 2,
      "byteOffset": 424800,
      "componentType": 5126,
      "count": 106,
      "max": [
        0.33521029353141785,
        1.0,
        1.0
      ],
      "min": [
        -0.33521029353141785,
        -4.310946060909935e-17,
        -1.4634499514320663e-15
      ],
      "type": "VEC3"
    },
    {
      "bufferView": 1,
      "byteOffset": 5168,
      "componentType": 5126,
      "count": 106,
      "max": [
        -228.3199005126953,
        -489.9740905761719
      ],
      "min": [
        -272.3476867675781,
        -545.03662109375
      ],
      "type": "VEC2"
    },
    {
      "bufferView": 0,
      "byteOffset": 164488,
      "componentType": 5125,
      "count": 294,
      "type": "SCALAR"
    },
    {
      "bufferView": 2,
      "byteOffset": 426072,
      "componentType": 5126,
      "count": 42,
      "max": [
        9250.5,
        3170.000244140625,
        987.68701171875
      ],
      "min": [
        0.0,
        0.00019531250291038305,
        613.75
      ],
      "type": "VEC3"
    },
    {
      "bufferView": 2,
      "byteOffset": 426576,
      "componentType": 5126,
      "count": 42,
      "max": [
        0.33521029353141785,
        4.310946060909935e-17,
        -0.9421433210372925
      ],
      "min": [
        -0.33521029353141785,
        -1.869520994034571e-17,
        -1.0
      ],
      "type": "VEC3"
    },
    {
      "bufferView": 0,
      "byteOffset": 165664,
      "componentType": 5125,
      "count": 90,
      "type": "SCALAR"
    },
    {
      "bufferView": 2,
      "byteOffset": 427080,
      "componentType": 5126,
      "count": 3190,
      "max": [
        9209.8232421875,
        3129.323486328125,
        974.4375
      ],
      "min": [
        40.677059173583984,
        40.67695236206055,
        0.0
      ],
      "type": "VEC3"
    },
    {
      "bufferView": 2,
      "byteOffset": 465360,
      "componentType": 5126,
      "count": 3190,
      "max": [
        1.0,
        1.0,
        1.0
      ],
      "min": [
        -1.0,
        -1.0,
        -1.0
      ],
      "type": "VEC3"
    },
    {
      "bufferView": 1,
      "byteOffset": 6016,
      "componentType": 5126,
      "count": 3190,
      "max": [
        38.331241607666016,
        24.48130989074707
      ],
      "min": [
        -64.42894744873047,
        -29.490339279174805
      ],
      "type": "VEC2"
    },
    {
      "bufferView": 0,
      "byteOffset": 166024,
      "componentType": 5125,
      "count": 6486,
      "type": "SCALAR"
    },
    {
      "bufferView": 2,
      "byteOffset": 503640,
      "componentType": 5126,
      "count": 32,
      "max": [
        9209.8232421875,
        3170.000244140625,
        0.0
      ],
      "min": [
        40.67706298828125,
        0.00019531250291038305,
        0.0
      ],
      "type": "VEC3"
    },
    {
      "bufferView": 2,
      "byteOffset": 504024,
      "componentType": 5126,
      "count": 32,
      "max": [
        0.0,
        0.0,
        1.0
      ],
      "min": [
        0.0,
        0.0,
        1.0
      ],
      "type": "VEC3"
    },
    {
      "bufferView": 1,
      "byteOffset": 31536,
      "componentType": 5126,
      "count": 32,
      "max": [
        2.061414957046509,
        -63.23099136352539
      ],
      "min": [
        -78.83746337890625,
        -96.25182342529297
      ],
      "type": "VEC2"
    },
    {
      "bufferView": 0,
      "byteOffset": 191968,
      "componentType": 5125,
      "count": 84,
      "type": "SCALAR"
    },
    {
      "bufferView": 2,
      "byteOffset": 504408,
      "componentType": 5126,
      "count": 2240,
      "max": [
        9250.5,
        3170.000244140625,
        987.68701171875
      ],
      "min": [
        0.0,
        0.00019531250291038305,
        0.0
      ],
      "type": "VEC3"
    },
    {
      "bufferView": 0,
      "byteOffset": 192304,
      "componentType": 5125,
      "count": 6708,
      "type": "SCALAR"
    },
    {
      "bufferView": 2,
      "byteOffset": 531288,
      "componentType": 5126,
      "count": 68,
      "max": [
        9250.5,
        3170.000244140625,
        628.2227172851563
      ],
      "min": [
        0.0,
        0.00019531250291038305,
        0.0
      ],
      "type": "VEC3"
    },
    {
      "bufferView": 0,
      "byteOffset": 219136,
      "componentType": 5125,
      "count": 112,
      "type": "SCALAR"
    }
  ],
  "asset": {
    "extras": {
      "author": "mudroljub (https://sketchfab.com/mudroljub)",
      "license": "CC-BY-4.0 (http://creativecommons.org/licenses/by/4.0/)",
      "source": "https://sketchfab.com/3d-models/component-75-37e3ae31124c4db4bc043dbebd8e4c8e",
      "title": "Component 75"
    },
    "generator": "Sketchfab-13.42.0",
    "version": "2.0"
  },
  "bufferViews": [
    {
      "buffer": 0,
      "byteLength": 219584,
      "name": "floatBufferViews",
      "target": 34963
    },
    {
      "buffer": 0,
      "byteLength": 31792,
      "byteOffset": 219584,
      "byteStride": 8,
      "name": "floatBufferViews",
      "target": 34962
    },
    {
      "buffer": 0,
      "byteLength": 532104,
      "byteOffset": 251376,
      "byteStride": 12,
      "name": "floatBufferViews",
      "target": 34962
    }
  ],
  "buffers": [
    {
      "byteLength": 783480,
      "uri": "scene.bin"
    }
  ],
  "images": [
    {
      "uri": "textures/Brick_Antique_baseColor.jpeg"
    },
    {
      "uri": "textures/Metal_Seamed_baseColor.jpeg"
    },
    {
      "uri": "textures/material_1_baseColor.jpeg"
    },
    {
      "uri": "textures/Concrete_Form_4x8_baseColor.jpeg"
    }
  ],
  "materials": [
    {
      "name": "edge_color000255",
      "pbrMetallicRoughness": {
        "metallicFactor": 0.0,
        "roughnessFactor": 0.6
      }
    },
    {
      "name": "material",
      "pbrMetallicRoughness": {
        "metallicFactor": 0.0,
        "roughnessFactor": 0.6
      }
    },
    {
      "name": "material_0",
      "pbrMetallicRoughness": {
        "baseColorFactor": [
          0.670588,
          0.690196,
          0.8,
          1.0
        ],
        "metallicFactor": 0.0,
        "roughnessFactor": 0.6
      }
    },
    {
      "name": "edge_color138155135255",
      "pbrMetallicRoughness": {
        "metallicFactor": 0.0,
        "roughnessFactor": 0.6
      }
    },
    {
      "name": "material_2",
      "pbrMetallicRoughness": {
        "baseColorFactor": [
          0.541176,
          0.607843,
          0.529412,
          1.0
        ],
        "metallicFactor": 0.0,
        "roughnessFactor": 0.6
      }
    },
    {
      "alphaMode": "BLEND",
      "name": "Gray_Glass",
      "pbrMetallicRoughness": {
        "baseColorFactor": [
          0.501961,
          0.501961,
          0.501961,
          0.501961
        ],
        "metallicFactor": 0.0,
        "roughnessFactor": 0.6
      }
    },
    {
      "name": "edge_color14712394255",
      "pbrMetallicRoughness": {
        "metallicFactor": 0.0,
        "roughnessFactor": 0.6
      }
    },
    {
      "name": "Brick_Antique",
      "pbrMetallicRoughness": {
        "baseColorTexture": {
          "index": 0
        },
        "metallicFactor": 0.0,
        "roughnessFactor": 0.6
      }
    },
    {
      "name": "Color_008",
      "pbrMetallicRoughness": {
        "baseColorFactor": [
          0.117647,
          0.117647,
          0.117647,
          1.0
        ],
        "metallicFactor": 0.0,
        "roughnessFactor": 0.6
      }
    },
    {
      "name": "edge_color118119115255",
      "pbrMetallicRoughness": {
        "metallicFactor": 0.0,
        "roughnessFactor": 0.6
      }
    },
    {
      "name": "Metal_Seamed",
      "pbrMetallicRoughness": {
        "baseColorTexture": {
          "index": 1
        },
        "metallicFactor": 0.0,
        "roughnessFactor": 0.6
      }
    },
    {
      "name": "Color_G20",
      "pbrMetallicRoughness": {
        "baseColorFactor": [
          0.317647,
          0.4,
          0.317647,
          1.0
        ],
        "metallicFactor": 0.0,
        "roughnessFactor": 0.6
      }
    },
    {
      "name": "material_1",
      "pbrMetallicRoughness": {
        "baseColorTexture": {
          "index": 2
        },
        "metallicFactor": 0.0,
        "roughnessFactor": 0.6
      }
    },
    {
      "name": "Concrete_Form_4x8",
      "pbrMetallicRoughness": {
        "baseColorTexture": {
          "index": 3
        },
        "metallicFactor": 0.0,
        "roughnessFactor": 0.6
      }
    }
  ],
  "meshes": [
    {
      "name": "Material2",
      "primitives": [
        {
          "attributes": {
            "NORMAL": 1,
            "POSITION": 0
          },
          "indices": 2,
          "material": 1,
          "mode": 4
        }
      ]
    },
    {
      "name": "Material2",
      "primitives": [
        {
          "attributes": {
            "NORMAL": 4,
            "POSITION": 3
          },
          "indices": 5,
          "material": 2,
          "mode": 4
        }
      ]
    },
    {
      "name": "Material5",
      "primitives": [
        {
          "attributes": {
            "POSITION": 6
          },
          "indices": 7,
          "material": 3,
          "mode": 1
        }
      ]
    },
    {
      "name": "Material3",
      "primitives": [
        {
          "attributes": {
            "NORMAL": 9,
            "POSITION": 8
          },
          "indices": 10,
          "material": 4,
          "mode": 4
        }
      ]
    },
    {
      "name": "Material2",
      "primitives": [
        {
          "attributes": {
            "NORMAL": 12,
            "POSITION": 11
          },
          "indices": 13,
          "material": 5,
          "mode": 4
        }
      ]
    },
    {
      "name": "Material2",
      "primitives": [
        {
          "attributes": {
            "NORMAL": 15,
            "POSITION": 14,
            "TEXCOORD_0": 16
          },
          "indices": 17,
          "material": 7,
          "mode": 4
        }
      ]
    },
    {
      "name": "Material3",
      "primitives": [
        {
          "attributes": {
            "NORMAL": 19,
            "POSITION": 18
          },
          "indices": 20,
          "material": 8,
          "mode": 4
        }
      ]
    },
    {
      "name": "Material6",
      "primitives": [
        {
          "attributes": {
            "POSITION": 21
          },
          "indices": 22,
          "material": 9,
          "mode": 1
        }
      ]
    },
    {
      "name": "Material2",
      "primitives": [
        {
          "attributes": {
            "NORMAL": 24,
            "POSITION": 23,
            "TEXCOORD_0": 25
          },
          "indices": 26,
          "material": 10,
          "mode": 4
        }
      ]
    },
    {
      "name": "Material3",
      "primitives": [
        {
          "attributes": {
            "NORMAL": 28,
            "POSITION": 27
          },
          "indices": 29,
          "material": 11,
          "mode": 4
        }
      ]
    },
    {
      "name": "Material3",
      "primitives": [
        {
          "attributes": {
            "NORMAL": 31,
            "POSITION": 30,
            "TEXCOORD_0": 32
          },
          "indices": 33,
          "material": 12,
          "mode": 4
        }
      ]
    },
    {
      "name": "Material3",
      "primitives": [
        {
          "attributes": {
            "NORMAL": 35,
            "POSITION": 34,
            "TEXCOORD_0": 36
          },
          "indices": 37,
          "material": 13,
          "mode": 4
        }
      ]
    },
    {
      "name": "Material2",
      "primitives": [
        {
          "attributes": {
            "POSITION": 38
          },
          "indices": 39,
          "material": 0,
          "mode": 1
        }
      ]
    },
    {
      "name": "Material2",
      "primitives": [
        {
          "attributes": {
            "POSITION": 40
          },
          "indices": 41,
          "material": 6,
          "mode": 1
        }
      ]
    }
  ],
  "nodes": [
    {
      "children": [
        1
      ],
      "matrix": [
        1.0,
        0.0,
        0.0,
        0.0,
        0.0,
        2.220446049250313e-16,
        -1.0,
        0.0,
        0.0,
        1.0,
        2.220446049250313e-16,
        0.0,
        0.0,
        0.0,
        0.0,
        1.0
      ],
      "name": "Sketchfab_model"
    },
    {
      "children": [
        2,
        3,
        4,
        5,
        6,
        7,
        8,
        9,
        10,
        11,
        12,
        13,
        14,
        15,
        16
      ],
      "name": "Collada visual scene group"
    },
    {
      "mesh": 0,
      "name": "Material2"
    },
    {
      "mesh": 1,
      "name": "Material2"
    },
    {
      "mesh": 2,
      "name": "Material5"
    },
    {
      "mesh": 3,
      "name": "Material3"
    },
    {
      "mesh": 4,
      "name": "Material2"
    },
    {
      "mesh": 5,
      "name": "Material2"
    },
    {
      "mesh": 6,
      "name": "Material3"
    },
    {
      "mesh": 7,
      "name": "Material6"
    },
    {
      "mesh": 8,
      "name": "Material2"
    },
    {
      "mesh": 9,
      "name": "Material3"
    },
    {
      "mesh": 10,
      "name": "Material3"
    },
    {
      "mesh": 11,
      "name": "Material3"
    },
    {
      "mesh": 12,
      "name": "Material2"
    },
    {
      "mesh": 13,
      "name": "Material2"
    },
    {
      "children": [
        17
      ],
      "name": "SketchUp"
    },
    {
      "children": [
        18
      ],
      "matrix": [
        -0.7025624,
        -0.7116222,
        2.775558e-17,
        0.0,
        0.16304,
        -0.1609643,
        0.9734005,
        0.0,
        -0.6926934,
        0.6838745,
        0.2291104,
        0.0,
        -1124.69,
        5199.123,
        1002.01,
        1.0
      ],
      "name": "skp_camera_Last_Saved_SketchUp_View"
    },
    {
      "name": "ID1"
    }
  ],
  "samplers": [
    {
      "magFilter": 9729,
      "minFilter": 9987,
      "wrapS": 10497,
      "wrapT": 10497
    }
  ],
  "scene": 0,
  "scenes": [
    {
      "name": "Sketchfab_Scene",
      "nodes": [
        0
      ]
    }
  ],
  "textures": [
    {
      "sampler": 0,
      "source": 0
    },
    {
      "sampler": 0,
      "source": 1
    },
    {
      "sampler": 0,
      "source": 2
    },
    {
      "sampler": 0,
      "source": 3
    }
  ]
}
