{
  "accessors": [
    {
      "bufferView": 2,
      "componentType": 5126,
      "count": 25623,
      "max": [
        14541.849609375,
        13397.919921875,
        18217.599609375
      ],
      "min": [
        -13482.650390625,
        -13258.3603515625,
        71.7322769165039
      ],
      "type": "VEC3"
    },
    {
      "bufferView": 2,
      "byteOffset": 307476,
      "componentType": 5126,
      "count": 25623,
      "max": [
        1.0,
        1.0,
        1.0
      ],
      "min": [
        -1.0,
        -1.0,
        -1.0
      ],
      "type": "VEC3"
    },
    {
      "bufferView": 0,
      "componentType": 5125,
      "count": 55767,
      "type": "SCALAR"
    },
    {
      "bufferView": 2,
      "byteOffset": 614952,
      "componentType": 5126,
      "count": 21169,
      "max": [
        13689.830078125,
        13397.919921875,
        12586.4697265625
      ],
      "min": [
        -13482.650390625,
        -13258.3603515625,
        71.7322769165039
      ],
      "type": "VEC3"
    },
    {
      "bufferView": 2,
      "byteOffset": 868980,
      "componentType": 5126,
      "count": 21169,
      "max": [
        1.0,
        1.0,
        1.0
      ],
      "min": [
        -1.0,
        -1.0,
        -1.0
      ],
      "type": "VEC3"
    },
    {
      "bufferView": 0,
      "byteOffset": 223068,
      "componentType": 5125,
      "count": 49581,
      "type": "SCALAR"
    },
    {
      "bufferView": 2,
      "byteOffset": 1123008,
      "componentType": 5126,
      "count": 2047,
      "max": [
        8860.3603515625,
        14854.1103515625,
        11067.1103515625
      ],
      "min": [
        -17187.759765625,
        -16228.830078125,
        71.7322769165039
      ],
      "type": "VEC3"
    },
    {
      "bufferView": 2,
      "byteOffset": 1147572,
      "componentType": 5126,
      "count": 2047,
      "max": [
        1.0,
        1.0,
        1.0
      ],
      "min": [
        -1.0,
        -1.0,
        -1.0
      ],
      "type": "VEC3"
    },
    {
      "bufferView": 0,
      "byteOffset": 421392,
      "componentType": 5125,
      "count": 7404,
      "type": "SCALAR"
    },
    {
      "bufferView": 2,
      "byteOffset": 1172136,
      "componentType": 5126,
      "count": 37,
      "max": [
        11125.3798828125,
        1569.9019775390625,
        9619.9677734375
      ],
      "min": [
        -3874.5029296875,
        -8721.0400390625,
        292.4408874511719
      ],
      "type": "VEC3"
    },
    {
      "bufferView": 2,
      "byteOffset": 1172580,
      "componentType": 5126,
      "count": 37,
      "max": [
        0.8850241899490356,
        0.46554508805274963,
        0.996285617351532
      ],
      "min": [
        4.129950538728309e-15,
        -0.7987762093544006,
        0.0
      ],
      "type": "VEC3"
    },
    {
      "bufferView": 1,
      "componentType": 5126,
      "count": 37,
      "max": [
        107.12449645996094,
        71.0887222290039
      ],
      "min": [
        -162.15939331054688,
        -24.483579635620117
      ],
      "type": "VEC2"
    },
    {
      "bufferView": 0,
      "byteOffset": 451008,
      "componentType": 5125,
      "count": 81,
      "type": "SCALAR"
    },
    {
      "bufferView": 2,
      "byteOffset": 1173024,
      "componentType": 5126,
      "count": 105,
      "max": [
        1639.595947265625,
        1620.6180419921875,
        10953.1904296875
      ],
      "min": [
        -1495.051025390625,
        -1621.9310302734375,
        10953.1904296875
      ],
      "type": "VEC3"
    },
    {
      "bufferView": 2,
      "byteOffset": 1174284,
      "componentType": 5126,
      "count": 105,
      "max": [
        1.1013950425679212e-30,
        0.0,
        1.0
      ],
      "min": [
        -1.1610969900529642e-30,
        -5.294742999182824e-31,
        1.0
      ],
      "type": "VEC3"
    },
    {
      "bufferView": 1,
      "byteOffset": 296,
      "componentType": 5126,
      "count": 105,
      "max": [
        62.29378128051758,
        67.5257568359375
      ],
      "min": [
        -68.31648254394531,
        -67.58045196533203
      ],
      "type": "VEC2"
    },
    {
      "bufferView": 0,
      "byteOffset": 451332,
      "componentType": 5125,
      "count": 291,
      "type": "SCALAR"
    },
    {
      "bufferView": 2,
      "byteOffset": 1175544,
      "componentType": 5126,
      "count": 48,
      "max": [
        262.0743103027344,
        266.41949462890625,
        10953.1904296875
      ],
      "min": [
        -280.6986083984375,
        -276.3533935546875,
        10953.1904296875
      ],
      "type": "VEC3"
    },
    {
      "bufferView": 2,
      "byteOffset": 1176120,
      "componentType": 5126,
      "count": 48,
      "max": [
        6.631342064110704e-16,
        1.4095349543805704e-16,
        1.0
      ],
      "min": [
        -6.631342064110704e-16,
        -1.4095349543805704e-16,
        -1.0
      ],
      "type": "VEC3"
    },
    {
      "bufferView": 1,
      "byteOffset": 1136,
      "componentType": 5126,
      "count": 48,
      "max": [
        11.695770263671875,
        11.100810050964355
      ],
      "min": [
        -10.919759750366211,
        -11.514730453491211
      ],
      "type": "VEC2"
    },
    {
      "bufferView": 0,
      "byteOffset": 452496,
      "componentType": 5125,
      "count": 132,
      "type": "SCALAR"
    },
    {
      "bufferView": 2,
      "byteOffset": 1176696,
      "componentType": 5126,
      "count": 390,
      "max": [
        13516.25,
        11771.150390625,
        11022.3203125
      ],
      "min": [
        -13224.98046875,
        -11065.6201171875,
        -1129.843017578125
      ],
      "type": "VEC3"
    },
    {
      "bufferView": 0,
      "byteOffset": 453024,
      "componentType": 5125,
      "count": 430,
      "type": "SCALAR"
    },
    {
      "bufferView": 2,
      "byteOffset": 1181376,
      "componentType": 5126,
      "count": 2,
      "max": [
        1070.5260009765625,
        1829.7879638671875,
        10953.1904296875
      ],
      "min": [
        1052.3199462890625,
        1815.866943359375,
        10953.1904296875
      ],
      "type": "VEC3"
    },
    {
      "bufferView": 0,
      "byteOffset": 454744,
      "componentType": 5125,
      "count": 2,
      "type": "SCALAR"
    }
  ],
  "asset": {
    "extras": {
      "author": "mudroljub (https://sketchfab.com/mudroljub)",
      "license": "CC-BY-4.0 (http://creativecommons.org/licenses/by/4.0/)",
      "source": "https://sketchfab.com/3d-models/castle-minas-tirith-de56ec5dcef74e389481e859c59c5799",
      "title": "Castle Minas Tirith"
    },
    "generator": "Sketchfab-13.42.0",
    "version": "2.0"
  },
  "bufferViews": [
    {
      "buffer": 0,
      "byteLength": 454752,
      "name": "floatBufferViews",
      "target": 34963
    },
    {
      "buffer": 0,
      "byteLength": 1520,
      "byteOffset": 454752,
      "byteStride": 8,
      "name": "floatBufferViews",
      "target": 34962
    },
    {
      "buffer": 0,
      "byteLength": 1181400,
      "byteOffset": 456272,
      "byteStride": 12,
      "name": "floatBufferViews",
      "target": 34962
    }
  ],
  "buffers": [
    {
      "byteLength": 1637672,
      "uri": "scene.bin"
    }
  ],
  "images": [
    {
      "uri": "textures/Stone_Pavers_Flagstone_Gray_baseColor.jpeg"
    },
    {
      "uri": "textures/Vegetation_Grass_Artificial_baseColor.jpeg"
    },
    {
      "uri": "textures/Translucent_Glass_Tinted_baseColor.jpeg"
    }
  ],
  "materials": [
    {
      "name": "material",
      "pbrMetallicRoughness": {
        "metallicFactor": 0.0,
        "roughnessFactor": 0.6
      }
    },
    {
      "name": "Color_000",
      "pbrMetallicRoughness": {
        "metallicFactor": 0.0,
        "roughnessFactor": 0.6
      }
    },
    {
      "name": "Color_005",
      "pbrMetallicRoughness": {
        "baseColorFactor": [
          0.447059,
          0.447059,
          0.447059,
          1.0
        ],
        "metallicFactor": 0.0,
        "roughnessFactor": 0.6
      }
    },
    {
      "name": "Stone_Pavers_Flagstone_Gray",
      "pbrMetallicRoughness": {
        "baseColorTexture": {
          "index": 0
        },
        "metallicFactor": 0.0,
        "roughnessFactor": 0.6
      }
    },
    {
      "name": "Vegetation_Grass_Artificial",
      "pbrMetallicRoughness": {
        "baseColorTexture": {
          "index": 1
        },
        "metallicFactor": 0.0,
        "roughnessFactor": 0.6
      }
    },
    {
      "alphaMode": "BLEND",
      "name": "Translucent_Glass_Tinted",
      "pbrMetallicRoughness": {
        "baseColorFactor": [
          1.0,
          1.0,
          1.0,
          0.48
        ],
        "baseColorTexture": {
          "index": 2
        },
        "metallicFactor": 0.0,
        "roughnessFactor": 0.6
      }
    },
    {
      "name": "edge_color000255",
      "pbrMetallicRoughness": {
        "metallicFactor": 0.0,
        "roughnessFactor": 0.6
      }
    },
    {
      "name": "edge_color255255255255",
      "pbrMetallicRoughness": {
        "metallicFactor": 0.0,
        "roughnessFactor": 0.6
      }
    }
  ],
  "meshes": [
    {
      "name": "Material2",
      "primitives": [
        {
          "attributes": {
            "NORMAL": 1,
            "POSITION": 0
          },
          "indices": 2,
          "material": 0,
          "mode": 4
        }
      ]
    },
    {
      "name": "Material2",
      "primitives": [
        {
          "attributes": {
            "NORMAL": 4,
            "POSITION": 3
          },
          "indices": 5,
          "material": 1,
          "mode": 4
        }
      ]
    },
    {
      "name": "Material3",
      "primitives": [
        {
          "attributes": {
            "NORMAL": 7,
            "POSITION": 6
          },
          "indices": 8,
          "material": 2,
          "mode": 4
        }
      ]
    },
    {
      "name": "Material3",
      "primitives": [
        {
          "attributes": {
            "NORMAL": 10,
            "POSITION": 9,
            "TEXCOORD_0": 11
          },
          "indices": 12,
          "material": 3,
          "mode": 4
        }
      ]
    },
    {
      "name": "Material3",
      "primitives": [
        {
          "attributes": {
            "NORMAL": 14,
            "POSITION": 13,
            "TEXCOORD_0": 15
          },
          "indices": 16,
          "material": 4,
          "mode": 4
        }
      ]
    },
    {
      "name": "Material2",
      "primitives": [
        {
          "attributes": {
            "NORMAL": 18,
            "POSITION": 17,
            "TEXCOORD_0": 19
          },
          "indices": 20,
          "material": 5,
          "mode": 4
        }
      ]
    },
    {
      "name": "Material2",
      "primitives": [
        {
          "attributes": {
            "POSITION": 21
          },
          "indices": 22,
          "material": 6,
          "mode": 1
        }
      ]
    },
    {
      "name": "Material2",
      "primitives": [
        {
          "attributes": {
            "POSITION": 23
          },
          "indices": 24,
          "material": 7,
          "mode": 1
        }
      ]
    }
  ],
  "nodes": [
    {
      "children": [
        1
      ],
      "matrix": [
        1.0,
        0.0,
        0.0,
        0.0,
        0.0,
        2.220446049250313e-16,
        -1.0,
        0.0,
        0.0,
        1.0,
        2.220446049250313e-16,
        0.0,
        0.0,
        0.0,
        0.0,
        1.0
      ],
      "name": "Sketchfab_model"
    },
    {
      "children": [
        2,
        3,
        4,
        5,
        6,
        7,
        8,
        9,
        10
      ],
      "name": "Collada visual scene group"
    },
    {
      "mesh": 0,
      "name": "Material2"
    },
    {
      "mesh": 1,
      "name": "Material2"
    },
    {
      "mesh": 2,
      "name": "Material3"
    },
    {
      "mesh": 3,
      "name": "Material3"
    },
    {
      "mesh": 4,
      "name": "Material3"
    },
    {
      "mesh": 5,
      "name": "Material2"
    },
    {
      "mesh": 6,
      "name": "Material2"
    },
    {
      "mesh": 7,
      "name": "Material2"
    },
    {
      "children": [
        11
      ],
      "name": "SketchUp"
    },
    {
      "children": [
        12
      ],
      "matrix": [
        0.6226192,
        0.782525,
        0.0,
        0.0,
        -0.3464266,
        0.2756358,
        0.896668,
        0.0,
        0.7016651,
        -0.5582827,
        0.4427036,
        0.0,
        34455.55,
        -16581.82,
        23302.25,
        1.0
      ],
      "name": "skp_camera_Last_Saved_SketchUp_View"
    },
    {
      "name": "ID1"
    }
  ],
  "samplers": [
    {
      "magFilter": 9729,
      "minFilter": 9987,
      "wrapS": 10497,
      "wrapT": 10497
    }
  ],
  "scene": 0,
  "scenes": [
    {
      "name": "Sketchfab_Scene",
      "nodes": [
        0
      ]
    }
  ],
  "textures": [
    {
      "sampler": 0,
      "source": 0
    },
    {
      "sampler": 0,
      "source": 1
    },
    {
      "sampler": 0,
      "source": 2
    }
  ]
}
