{
  "accessors": [
    {
      "bufferView": 1,
      "componentType": 5126,
      "count": 6442,
      "max": [
        4976.2958984375,
        1363.21044921875,
        3665.840087890625
      ],
      "min": [
        -4976.2958984375,
        -1909.3330078125,
        -1.713567598926602e-08
      ],
      "type": "VEC3"
    },
    {
      "bufferView": 1,
      "byteOffset": 77304,
      "componentType": 5126,
      "count": 6442,
      "max": [
        1.0,
        1.0,
        1.0
      ],
      "min": [
        -1.0,
        -1.0,
        -1.0
      ],
      "type": "VEC3"
    },
    {
      "bufferView": 0,
      "componentType": 5125,
      "count": 18060,
      "type": "SCALAR"
    },
    {
      "bufferView": 1,
      "byteOffset": 154608,
      "componentType": 5126,
      "count": 8656,
      "max": [
        3754.617431640625,
        359.2099914550781,
        3665.840087890625
      ],
      "min": [
        -3754.617431640625,
        -1909.3330078125,
        -1.1954929828643799
      ],
      "type": "VEC3"
    },
    {
      "bufferView": 0,
      "byteOffset": 72240,
      "componentType": 5125,
      "count": 29448,
      "type": "SCALAR"
    },
    {
      "bufferView": 1,
      "byteOffset": 258480,
      "componentType": 5126,
      "count": 65532,
      "max": [
        3754.617431640625,
        1277.7950439453125,
        3665.840087890625
      ],
      "min": [
        -3754.617431640625,
        -1909.3330078125,
        -1.1954929828643799
      ],
      "type": "VEC3"
    },
    {
      "bufferView": 1,
      "byteOffset": 1044864,
      "componentType": 5126,
      "count": 65532,
      "max": [
        1.0,
        1.0,
        1.0
      ],
      "min": [
        -1.0,
        -1.0,
        -1.0
      ],
      "type": "VEC3"
    },
    {
      "bufferView": 0,
      "byteOffset": 190032,
      "componentType": 5125,
      "count": 124392,
      "type": "SCALAR"
    },
    {
      "bufferView": 1,
      "byteOffset": 1831248,
      "componentType": 5126,
      "count": 12892,
      "max": [
        3281.0068359375,
        261.2497863769531,
        1587.4881591796875
      ],
      "min": [
        -3528.875,
        -1242.7235107421875,
        -1.1954929828643799
      ],
      "type": "VEC3"
    },
    {
      "bufferView": 1,
      "byteOffset": 1985952,
      "componentType": 5126,
      "count": 12892,
      "max": [
        1.0,
        1.0,
        1.0
      ],
      "min": [
        -1.0,
        -1.0,
        -1.0
      ],
      "type": "VEC3"
    },
    {
      "bufferView": 0,
      "byteOffset": 687600,
      "componentType": 5125,
      "count": 32394,
      "type": "SCALAR"
    },
    {
      "bufferView": 1,
      "byteOffset": 2140656,
      "componentType": 5126,
      "count": 96,
      "max": [
        3645.4365234375,
        -1227.707763671875,
        2980.05908203125
      ],
      "min": [
        -3645.4365234375,
        -1697.6524658203125,
        0.0
      ],
      "type": "VEC3"
    },
    {
      "bufferView": 0,
      "byteOffset": 817176,
      "componentType": 5125,
      "count": 312,
      "type": "SCALAR"
    },
    {
      "bufferView": 1,
      "byteOffset": 2141808,
      "componentType": 5126,
      "count": 596,
      "max": [
        3645.4365234375,
        206.99981689453125,
        2980.05908203125
      ],
      "min": [
        -3645.4365234375,
        -1697.6524658203125,
        -1.713567598926602e-08
      ],
      "type": "VEC3"
    },
    {
      "bufferView": 1,
      "byteOffset": 2148960,
      "componentType": 5126,
      "count": 596,
      "max": [
        0.999657392501831,
        1.0,
        1.0
      ],
      "min": [
        -0.999657392501831,
        -1.0,
        -1.0
      ],
      "type": "VEC3"
    },
    {
      "bufferView": 0,
      "byteOffset": 818424,
      "componentType": 5125,
      "count": 1104,
      "type": "SCALAR"
    },
    {
      "bufferView": 1,
      "byteOffset": 2156112,
      "componentType": 5126,
      "count": 14516,
      "max": [
        4976.2958984375,
        1363.21044921875,
        1973.77197265625
      ],
      "min": [
        -4976.2958984375,
        -1756.78955078125,
        -1.713567598926602e-08
      ],
      "type": "VEC3"
    },
    {
      "bufferView": 0,
      "byteOffset": 822840,
      "componentType": 5125,
      "count": 34804,
      "type": "SCALAR"
    },
    {
      "bufferView": 1,
      "byteOffset": 2330304,
      "componentType": 5126,
      "count": 306,
      "max": [
        3475.716796875,
        1277.7950439453125,
        1973.77197265625
      ],
      "min": [
        -3475.716796875,
        -1241.9578857421875,
        -1.713567598926602e-08
      ],
      "type": "VEC3"
    },
    {
      "bufferView": 1,
      "byteOffset": 2333976,
      "componentType": 5126,
      "count": 306,
      "max": [
        1.0,
        1.0,
        1.0
      ],
      "min": [
        -1.0,
        -1.0,
        -1.0
      ],
      "type": "VEC3"
    },
    {
      "bufferView": 0,
      "byteOffset": 962056,
      "componentType": 5125,
      "count": 606,
      "type": "SCALAR"
    },
    {
      "bufferView": 1,
      "byteOffset": 2337648,
      "componentType": 5126,
      "count": 140,
      "max": [
        3276.054931640625,
        1277.7950439453125,
        1587.48828125
      ],
      "min": [
        -3276.054931640625,
        -1241.9578857421875,
        -1.713567598926602e-08
      ],
      "type": "VEC3"
    },
    {
      "bufferView": 1,
      "byteOffset": 2339328,
      "componentType": 5126,
      "count": 140,
      "max": [
        0.999657392501831,
        0.0,
        1.0
      ],
      "min": [
        -0.999657392501831,
        -1.0,
        -1.0
      ],
      "type": "VEC3"
    },
    {
      "bufferView": 0,
      "byteOffset": 964480,
      "componentType": 5125,
      "count": 300,
      "type": "SCALAR"
    },
    {
      "bufferView": 1,
      "byteOffset": 2341008,
      "componentType": 5126,
      "count": 136,
      "max": [
        3475.716796875,
        206.99981689453125,
        1700.48828125
      ],
      "min": [
        -3475.716796875,
        -1241.9578857421875,
        -1.713567598926602e-08
      ],
      "type": "VEC3"
    },
    {
      "bufferView": 1,
      "byteOffset": 2342640,
      "componentType": 5126,
      "count": 136,
      "max": [
        1.0,
        0.0,
        1.0
      ],
      "min": [
        -1.0,
        -0.999657392501831,
        0.0
      ],
      "type": "VEC3"
    },
    {
      "bufferView": 0,
      "byteOffset": 965680,
      "componentType": 5125,
      "count": 312,
      "type": "SCALAR"
    },
    {
      "bufferView": 1,
      "byteOffset": 2344272,
      "componentType": 5126,
      "count": 1326,
      "max": [
        4976.2958984375,
        1363.21044921875,
        1697.654541015625
      ],
      "min": [
        -4976.2958984375,
        -1756.78955078125,
        5.499491214752197
      ],
      "type": "VEC3"
    },
    {
      "bufferView": 1,
      "byteOffset": 2360184,
      "componentType": 5126,
      "count": 1326,
      "max": [
        0.9692173004150391,
        0.951704204082489,
        1.0
      ],
      "min": [
        -0.9692173004150391,
        -0.9383820295333862,
        -0.7307915687561035
      ],
      "type": "VEC3"
    },
    {
      "bufferView": 0,
      "byteOffset": 966928,
      "componentType": 5125,
      "count": 7272,
      "type": "SCALAR"
    }
  ],
  "asset": {
    "extras": {
      "author": "mudroljub (https://sketchfab.com/mudroljub)",
      "license": "CC-BY-4.0 (http://creativecommons.org/licenses/by/4.0/)",
      "source": "https://sketchfab.com/3d-models/the-black-gate-of-mordor-9baebabacaa8428a89d9f0a4deed0fd6",
      "title": "The Black Gate of Mordor"
    },
    "generator": "Sketchfab-13.42.0",
    "version": "2.0"
  },
  "bufferViews": [
    {
      "buffer": 0,
      "byteLength": 996016,
      "name": "floatBufferViews",
      "target": 34963
    },
    {
      "buffer": 0,
      "byteLength": 2376096,
      "byteOffset": 996016,
      "byteStride": 12,
      "name": "floatBufferViews",
      "target": 34962
    }
  ],
  "buffers": [
    {
      "byteLength": 3372112,
      "uri": "scene.bin"
    }
  ],
  "materials": [
    {
      "name": "material",
      "pbrMetallicRoughness": {
        "baseColorFactor": [
          0.670588,
          0.690196,
          0.8,
          1.0
        ],
        "metallicFactor": 0.0,
        "roughnessFactor": 0.6
      }
    },
    {
      "name": "edge_color738284255",
      "pbrMetallicRoughness": {
        "metallicFactor": 0.0,
        "roughnessFactor": 0.6
      }
    },
    {
      "name": "material_2",
      "pbrMetallicRoughness": {
        "baseColorFactor": [
          0.286274,
          0.321569,
          0.329412,
          1.0
        ],
        "metallicFactor": 0.0,
        "roughnessFactor": 0.6
      }
    },
    {
      "name": "edge_color128128128255",
      "pbrMetallicRoughness": {
        "metallicFactor": 0.0,
        "roughnessFactor": 0.6
      }
    },
    {
      "name": "0133_Gray",
      "pbrMetallicRoughness": {
        "baseColorFactor": [
          0.501961,
          0.501961,
          0.501961,
          1.0
        ],
        "metallicFactor": 0.0,
        "roughnessFactor": 0.6
      }
    },
    {
      "name": "edge_color000255",
      "pbrMetallicRoughness": {
        "metallicFactor": 0.0,
        "roughnessFactor": 0.6
      }
    },
    {
      "name": "material_0",
      "pbrMetallicRoughness": {
        "metallicFactor": 0.0,
        "roughnessFactor": 0.6
      }
    },
    {
      "name": "0132_LightGray",
      "pbrMetallicRoughness": {
        "baseColorFactor": [
          0.662745,
          0.662745,
          0.662745,
          1.0
        ],
        "metallicFactor": 0.0,
        "roughnessFactor": 0.6
      }
    },
    {
      "name": "0131_Silver",
      "pbrMetallicRoughness": {
        "baseColorFactor": [
          0.752941,
          0.752941,
          0.752941,
          1.0
        ],
        "metallicFactor": 0.0,
        "roughnessFactor": 0.6
      }
    },
    {
      "name": "material_3",
      "pbrMetallicRoughness": {
        "baseColorFactor": [
          0.447059,
          0.160784,
          0.160784,
          1.0
        ],
        "metallicFactor": 0.0,
        "roughnessFactor": 0.6
      }
    }
  ],
  "meshes": [
    {
      "name": "Material3",
      "primitives": [
        {
          "attributes": {
            "NORMAL": 1,
            "POSITION": 0
          },
          "indices": 2,
          "material": 0,
          "mode": 4
        }
      ]
    },
    {
      "name": "Material3",
      "primitives": [
        {
          "attributes": {
            "POSITION": 3
          },
          "indices": 4,
          "material": 1,
          "mode": 1
        }
      ]
    },
    {
      "name": "Material2",
      "primitives": [
        {
          "attributes": {
            "NORMAL": 6,
            "POSITION": 5
          },
          "indices": 7,
          "material": 2,
          "mode": 4
        }
      ]
    },
    {
      "name": "Material2",
      "primitives": [
        {
          "attributes": {
            "NORMAL": 9,
            "POSITION": 8
          },
          "indices": 10,
          "material": 2,
          "mode": 4
        }
      ]
    },
    {
      "name": "Material4",
      "primitives": [
        {
          "attributes": {
            "POSITION": 11
          },
          "indices": 12,
          "material": 3,
          "mode": 1
        }
      ]
    },
    {
      "name": "Material3",
      "primitives": [
        {
          "attributes": {
            "NORMAL": 14,
            "POSITION": 13
          },
          "indices": 15,
          "material": 4,
          "mode": 4
        }
      ]
    },
    {
      "name": "Material4",
      "primitives": [
        {
          "attributes": {
            "POSITION": 16
          },
          "indices": 17,
          "material": 5,
          "mode": 1
        }
      ]
    },
    {
      "name": "Material3",
      "primitives": [
        {
          "attributes": {
            "NORMAL": 19,
            "POSITION": 18
          },
          "indices": 20,
          "material": 6,
          "mode": 4
        }
      ]
    },
    {
      "name": "Material3",
      "primitives": [
        {
          "attributes": {
            "NORMAL": 22,
            "POSITION": 21
          },
          "indices": 23,
          "material": 7,
          "mode": 4
        }
      ]
    },
    {
      "name": "Material3",
      "primitives": [
        {
          "attributes": {
            "NORMAL": 25,
            "POSITION": 24
          },
          "indices": 26,
          "material": 8,
          "mode": 4
        }
      ]
    },
    {
      "name": "Material3",
      "primitives": [
        {
          "attributes": {
            "NORMAL": 28,
            "POSITION": 27
          },
          "indices": 29,
          "material": 9,
          "mode": 4
        }
      ]
    }
  ],
  "nodes": [
    {
      "children": [
        1
      ],
      "matrix": [
        1.0,
        0.0,
        0.0,
        0.0,
        0.0,
        2.220446049250313e-16,
        -1.0,
        0.0,
        0.0,
        1.0,
        2.220446049250313e-16,
        0.0,
        0.0,
        0.0,
        0.0,
        1.0
      ],
      "name": "Sketchfab_model"
    },
    {
      "children": [
        2,
        3,
        4,
        5,
        6,
        7,
        8,
        9,
        10,
        11,
        12,
        13
      ],
      "name": "Collada visual scene group"
    },
    {
      "mesh": 0,
      "name": "Material3"
    },
    {
      "mesh": 1,
      "name": "Material3"
    },
    {
      "mesh": 2,
      "name": "Material2"
    },
    {
      "mesh": 3,
      "name": "Material2"
    },
    {
      "mesh": 4,
      "name": "Material4"
    },
    {
      "mesh": 5,
      "name": "Material3"
    },
    {
      "mesh": 6,
      "name": "Material4"
    },
    {
      "mesh": 7,
      "name": "Material3"
    },
    {
      "mesh": 8,
      "name": "Material3"
    },
    {
      "mesh": 9,
      "name": "Material3"
    },
    {
      "mesh": 10,
      "name": "Material3"
    },
    {
      "children": [
        14
      ],
      "name": "SketchUp"
    },
    {
      "children": [
        15
      ],
      "matrix": [
        0.7280276,
        -0.6855479,
        0.0,
        0.0,
        -0.02203275,
        -0.023398,
        0.9994834,
        0.0,
        -0.6851937,
        -0.7276515,
        -0.0321389,
        0.0,
        -3538.506,
        -3848.341,
        390.7824,
        1.0
      ],
      "name": "skp_camera_Last_Saved_SketchUp_View"
    },
    {
      "name": "ID1"
    }
  ],
  "scene": 0,
  "scenes": [
    {
      "name": "Sketchfab_Scene",
      "nodes": [
        0
      ]
    }
  ]
}
