mtllib money.mtl
o money
v -0.027707 0.598630 -0.044568
v -0.026689 0.235278 -0.043635
v -0.085858 0.235278 -0.186483
v -0.086876 0.598630 -0.187416
v -0.229724 -0.326829 -0.246585
v -0.229724 0.598630 -0.246585
v -0.086876 -0.326829 -0.187416
v -0.086876 -0.326829 0.098279
v -0.086876 0.598630 0.098279
v -0.229724 0.598630 0.157449
v -0.229724 -0.326829 0.157449
v -0.372571 0.598630 0.098279
v -0.372571 -0.326829 0.098279
v -0.431741 0.598630 -0.044568
v -0.431741 -0.326829 -0.044568
v -0.372571 0.598630 -0.187416
v -0.372571 -0.326829 -0.187416
v -0.027707 -0.326829 -0.044568
v 0.116159 -0.326829 -0.388500
v 0.116159 0.235278 -0.388500
v 0.259007 0.235278 -0.329330
v 0.259007 -0.326829 -0.329330
v 0.318176 0.235278 -0.186483
v 0.318176 -0.326829 -0.186483
v 0.259007 0.235278 -0.043635
v 0.259007 -0.326829 -0.043635
v 0.116159 0.235278 0.015535
v 0.113791 0.024019 0.015622
v 0.113791 -0.326829 0.015622
v -0.026689 0.235278 -0.329330
v -0.026689 -0.326829 -0.329330
v -0.029057 -0.326829 0.074792
v -0.029057 0.024019 0.074792
v 0.256638 -0.326829 0.074792
v 0.256638 0.024019 0.074792
v 0.315808 0.024019 0.217639
v 0.315808 -0.326829 0.217639
v 0.256638 0.024019 0.360487
v 0.256638 -0.326829 0.360487
v 0.113791 0.024019 0.419657
v 0.113791 -0.326829 0.419657
v -0.029057 0.024019 0.360487
v -0.029057 -0.326829 0.360487
v -0.088226 0.024019 0.217639
v -0.088226 -0.326829 0.217639
vt 0.7973 0.0062
vt 0.7010 0.1924
vt 0.7002 0.0063
vt 0.6030 0.0063
vt 0.6030 0.4804
vt 0.1171 0.0062
vt 0.2143 0.4803
vt 0.1171 0.4803
vt 0.2143 0.0062
vt 0.3114 0.4803
vt 0.3114 0.0062
vt 0.4086 0.4803
vt 0.7259 0.5403
vt 0.7259 0.4336
vt 0.9080 0.3582
vt 0.5058 0.0062
vt 0.5058 0.4803
vt 0.4086 0.0062
vt 0.7259 0.5403
vt 0.8013 0.3581
vt 0.9835 0.4336
vt 0.5079 0.7901
vt 0.4108 0.5022
vt 0.5079 0.5022
vt 0.4108 0.7901
vt 0.3136 0.5022
vt 0.3136 0.7901
vt 0.2164 0.5022
vt 0.1178 0.6819
vt 0.1178 0.5022
vt 0.7020 0.5022
vt 0.6051 0.7902
vt 0.6051 0.5022
vt 0.8014 0.6157
vt 0.8014 0.3581
vt 0.9081 0.3581
vt 0.0211 0.5022
vt 0.9096 0.6163
vt 0.7271 0.5400
vt 0.8029 0.3587
vt 0.6986 0.8065
vt 0.7958 0.9862
vt 0.6986 0.9862
vt 0.1155 0.8065
vt 0.2127 0.9862
vt 0.1155 0.9862
vt 0.2127 0.8065
vt 0.3099 0.9862
vt 0.3099 0.8065
vt 0.4071 0.9862
vt 0.4071 0.8065
vt 0.5042 0.9862
vt 0.6014 0.8065
vt 0.6014 0.9862
vt 0.9080 0.6157
vt 0.7259 0.4335
vt 0.9080 0.3581
vt 0.8013 0.6157
vt 0.8013 0.3581
vt 0.9080 0.3581
vt 0.0183 0.8065
vt 0.0202 0.1924
vt 0.7981 0.1924
vt 0.7001 0.4804
vt 0.9835 0.4336
vt 0.9835 0.5403
vt 0.9080 0.6158
vt 0.8013 0.6158
vt 0.8013 0.3582
vt 0.9835 0.5403
vt 0.9080 0.6157
vt 0.8013 0.6157
vt 0.7259 0.4336
vt 0.9080 0.3581
vt 0.2164 0.7901
vt 0.1192 0.7901
vt 0.7023 0.7902
vt 0.9835 0.4336
vt 0.9835 0.5403
vt 0.9081 0.6157
vt 0.7259 0.5403
vt 0.7259 0.4336
vt 0.0220 0.7902
vt 0.9096 0.3587
vt 0.9851 0.4342
vt 0.9851 0.5409
vt 0.8014 0.6158
vt 0.7271 0.4333
vt 0.7958 0.8065
vt 0.5042 0.8065
vt 0.8013 0.3581
vt 0.9835 0.4335
vt 0.9835 0.5402
vt 0.8013 0.6157
vt 0.7259 0.5402
vt 0.9835 0.4336
vt 0.9835 0.5403
vt 0.9080 0.6157
vt 0.7259 0.5403
vt 0.7259 0.4336
vt 0.0183 0.9862
vt 0.0199 0.4803
vt 0.0199 0.0062
vn 1.0000 0.0028 -0.0006
vn 0.2834 0.0014 -0.9590
vn 0.7065 0.0002 -0.7078
vn 0.0004 -0.0005 -1.0000
vn 0.0003 0.0004 -1.0000
vn 0.7063 0.0014 0.7079
vn -0.0000 -0.0000 1.0000
vn 0.7066 -0.0010 0.7076
vn -0.7071 -0.0000 0.7071
vn -1.0000 -0.0000 0.0000
vn -0.0000 1.0000 0.0000
vn -0.7071 0.0000 -0.7071
vn 0.0000 -1.0000 -0.0000
vn -0.0000 0.0000 -1.0000
vn 0.7071 0.0000 -0.7071
vn 1.0000 -0.0000 -0.0000
vn 0.7052 -0.0000 0.7090
vn -0.0066 -0.0002 1.0000
vn 0.3778 -0.0000 0.9259
vn -0.3790 0.0009 -0.9254
vn -0.7066 0.0010 -0.7076
vn -0.7041 0.0000 -0.7101
vn -0.3914 -0.0000 0.9202
vn 0.3790 -0.0018 0.9254
vn -0.3827 0.0000 -0.9239
vn 0.7071 -0.0000 0.7071
vn 0.3827 0.0000 -0.9239
vn 0.8744 0.0017 0.4852
vn 0.7064 -0.0013 0.7079
vn 0.0027 0.0004 1.0000
usemtl money_material
s 1
f 1/1/1 3/2/2 4/3/3
f 6/4/4 3/2/2 5/5/5
f 9/6/6 11/7/7 8/8/8
f 10/9/7 13/10/9 11/7/7
f 12/11/9 15/12/10 13/10/9
f 12/13/11 10/14/11 1/15/11
f 16/16/12 5/5/5 17/17/12
f 14/18/10 17/17/12 15/12/10
f 8/19/13 13/20/13 17/21/13
f 20/22/14 22/23/15 19/24/14
f 21/25/15 24/26/16 22/23/15
f 23/27/16 26/28/17 24/26/16
f 28/29/18 29/30/19 26/28/17
f 7/31/20 30/32/21 31/33/22
f 3/34/11 25/35/11 23/36/11
f 30/32/21 19/24/14 31/33/22
f 29/30/23 28/29/18 18/37/24
f 26/38/13 18/39/13 31/40/13
f 33/41/12 29/42/25 32/43/12
f 35/44/15 37/45/16 34/46/15
f 36/47/16 39/48/26 37/45/16
f 38/49/26 41/50/7 39/48/26
f 40/51/7 43/52/9 41/50/7
f 43/52/9 44/53/10 45/54/10
f 44/55/11 38/56/11 35/57/11
f 39/58/13 45/59/13 32/60/13
f 44/53/10 32/43/12 45/54/10
f 34/46/15 28/61/27 35/44/15
f 2/62/28 9/6/6 8/8/8
f 1/1/1 2/63/28 3/2/2
f 7/64/20 5/5/5 3/2/2
f 6/4/4 4/3/3 3/2/2
f 9/6/6 10/9/7 11/7/7
f 10/9/7 12/11/9 13/10/9
f 12/11/9 14/18/10 15/12/10
f 1/15/11 4/65/11 6/66/11
f 6/66/11 16/67/11 14/68/11
f 14/68/11 12/13/11 6/66/11
f 10/14/11 9/69/11 1/15/11
f 1/15/11 6/66/11 12/13/11
f 16/16/12 6/4/4 5/5/5
f 14/18/10 16/16/12 17/17/12
f 17/21/13 5/70/13 7/71/13
f 7/71/13 18/72/13 17/21/13
f 8/19/13 11/73/13 13/20/13
f 13/20/13 15/74/13 17/21/13
f 17/21/13 18/72/13 8/19/13
f 20/22/14 21/25/15 22/23/15
f 21/25/15 23/27/16 24/26/16
f 23/27/16 25/75/29 26/28/17
f 26/28/17 25/75/29 28/29/18
f 27/76/30 28/29/18 25/75/29
f 7/31/20 3/77/2 30/32/21
f 23/36/11 21/78/11 20/79/11
f 20/79/11 30/80/11 23/36/11
f 3/34/11 2/81/11 27/82/11
f 27/82/11 25/35/11 3/34/11
f 23/36/11 30/80/11 3/34/11
f 30/32/21 20/22/14 19/24/14
f 2/83/28 18/37/24 28/29/18
f 28/29/18 27/76/30 2/83/28
f 31/40/13 19/84/13 22/85/13
f 22/85/13 24/86/13 31/40/13
f 26/38/13 29/87/13 18/39/13
f 18/39/13 7/88/13 31/40/13
f 31/40/13 24/86/13 26/38/13
f 33/41/12 28/89/25 29/42/25
f 35/44/15 36/47/16 37/45/16
f 36/47/16 38/49/26 39/48/26
f 38/49/26 40/51/7 41/50/7
f 40/51/7 42/90/9 43/52/9
f 43/52/9 42/90/9 44/53/10
f 36/91/11 35/57/11 38/56/11
f 28/92/11 33/93/11 44/55/11
f 44/55/11 42/94/11 40/95/11
f 40/95/11 38/56/11 44/55/11
f 35/57/11 28/92/11 44/55/11
f 32/60/13 29/96/13 34/97/13
f 34/97/13 37/98/13 39/58/13
f 39/58/13 41/99/13 43/100/13
f 43/100/13 45/59/13 39/58/13
f 32/60/13 34/97/13 39/58/13
f 44/53/10 33/41/12 32/43/12
f 34/46/15 29/101/27 28/61/27
f 8/8/8 18/102/24 2/62/28
f 2/62/28 1/103/1 9/6/6
