{
  "accessors": [
    {
      "bufferView": 2,
      "componentType": 5126,
      "count": 4371,
      "max": [
        8.359029769897461,
        7.0337300300598145,
        21.434490203857422
      ],
      "min": [
        -10.649230003356934,
        -6.092599868774414,
        0.0
      ],
      "type": "VEC3"
    },
    {
      "bufferView": 2,
      "byteOffset": 52452,
      "componentType": 5126,
      "count": 4371,
      "max": [
        1.0,
        1.0,
        1.0
      ],
      "min": [
        -1.0,
        -1.0,
        -1.0
      ],
      "type": "VEC3"
    },
    {
      "bufferView": 1,
      "componentType": 5126,
      "count": 4371,
      "max": [
        0.9952200055122375,
        0.9982799887657166
      ],
      "min": [
        0.001230000052601099,
        0.0030499999411404133
      ],
      "type": "VEC2"
    },
    {
      "bufferView": 0,
      "componentType": 5125,
      "count": 9312,
      "type": "SCALAR"
    }
  ],
  "asset": {
    "extras": {
      "author": "VitSh (https://sketchfab.com/VitSh)",
      "license": "CC-BY-4.0 (http://creativecommons.org/licenses/by/4.0/)",
      "source": "https://sketchfab.com/3d-models/castle-d9e2a603c73a492b8a5619ba1f790e06",
      "title": "Castle"
    },
    "generator": "Sketchfab-12.65.0",
    "version": "2.0"
  },
  "bufferViews": [
    {
      "buffer": 0,
      "byteLength": 37248,
      "name": "floatBufferViews",
      "target": 34963
    },
    {
      "buffer": 0,
      "byteLength": 34968,
      "byteOffset": 37248,
      "byteStride": 8,
      "name": "floatBufferViews",
      "target": 34962
    },
    {
      "buffer": 0,
      "byteLength": 104904,
      "byteOffset": 72216,
      "byteStride": 12,
      "name": "floatBufferViews",
      "target": 34962
    }
  ],
  "buffers": [
    {
      "byteLength": 177120,
      "uri": "scene.bin"
    }
  ],
  "images": [
    {
      "uri": "textures/castle_mat_baseColor.png"
    }
  ],
  "materials": [
    {
      "doubleSided": true,
      "name": "castle_mat",
      "pbrMetallicRoughness": {
        "baseColorTexture": {
          "index": 0
        },
        "metallicFactor": 0.0858895706,
        "roughnessFactor": 0.5582822086
      }
    }
  ],
  "meshes": [
    {
      "name": "castle_0",
      "primitives": [
        {
          "attributes": {
            "NORMAL": 1,
            "POSITION": 0,
            "TEXCOORD_0": 2
          },
          "indices": 3,
          "material": 0,
          "mode": 4
        }
      ]
    }
  ],
  "nodes": [
    {
      "children": [
        1
      ],
      "matrix": [
        0.8333333134651184,
        0.0,
        0.0,
        0.0,
        0.0,
        1.850371663592295e-16,
        -0.8333333134651184,
        0.0,
        0.0,
        0.8333333134651184,
        1.850371663592295e-16,
        0.0,
        0.0,
        0.0,
        0.0,
        1.0
      ],
      "name": "Sketchfab_model"
    },
    {
      "children": [
        2
      ],
      "name": "Root"
    },
    {
      "children": [
        3
      ],
      "matrix": [
        -1.31934,
        -0.0,
        0.0,
        0.0,
        0.0,
        -1.31934,
        0.0,
        0.0,
        0.0,
        0.0,
        1.31934,
        0.0,
        -0.7264200000000001,
        -5.71885,
        16.966639999999995,
        1.0
      ],
      "name": "castle"
    },
    {
      "mesh": 0,
      "name": "castle_0"
    }
  ],
  "samplers": [
    {
      "magFilter": 9729,
      "minFilter": 9987,
      "wrapS": 10497,
      "wrapT": 10497
    }
  ],
  "scene": 0,
  "scenes": [
    {
      "name": "Sketchfab_Scene",
      "nodes": [
        0
      ]
    }
  ],
  "textures": [
    {
      "sampler": 0,
      "source": 0
    }
  ]
}
