{
  "accessors": [
    {
      "bufferView": 1,
      "componentType": 5126,
      "count": 7392,
      "max": [
        256.4599914550781,
        85.49506378173828,
        82.60765075683594
      ],
      "min": [
        20.393699645996094,
        0.0,
        0.0
      ],
      "type": "VEC3"
    },
    {
      "bufferView": 1,
      "byteOffset": 88704,
      "componentType": 5126,
      "count": 7392,
      "max": [
        1.0,
        1.0,
        1.0
      ],
      "min": [
        -1.0,
        -1.0,
        -1.0
      ],
      "type": "VEC3"
    },
    {
      "bufferView": 0,
      "componentType": 5125,
      "count": 13134,
      "type": "SCALAR"
    },
    {
      "bufferView": 1,
      "byteOffset": 177408,
      "componentType": 5126,
      "count": 1035,
      "max": [
        256.4599914550781,
        85.49506378173828,
        82.60765075683594
      ],
      "min": [
        20.393699645996094,
        0.0,
        0.0
      ],
      "type": "VEC3"
    },
    {
      "bufferView": 0,
      "byteOffset": 52536,
      "componentType": 5125,
      "count": 3524,
      "type": "SCALAR"
    }
  ],
  "asset": {
    "extras": {
      "author": "mudroljub (https://sketchfab.com/mudroljub)",
      "license": "CC-BY-4.0 (http://creativecommons.org/licenses/by/4.0/)",
      "source": "https://sketchfab.com/3d-models/armoured-car-233-e10f3563bf174aa0a80385e9840bca7b",
      "title": "Armoured car 233"
    },
    "generator": "Sketchfab-13.42.0",
    "version": "2.0"
  },
  "bufferViews": [
    {
      "buffer": 0,
      "byteLength": 66632,
      "name": "floatBufferViews",
      "target": 34963
    },
    {
      "buffer": 0,
      "byteLength": 189828,
      "byteOffset": 66632,
      "byteStride": 12,
      "name": "floatBufferViews",
      "target": 34962
    }
  ],
  "buffers": [
    {
      "byteLength": 256460,
      "uri": "scene.bin"
    }
  ],
  "materials": [
    {
      "name": "edge_color170170170255",
      "pbrMetallicRoughness": {
        "metallicFactor": 0.0,
        "roughnessFactor": 0.6
      }
    },
    {
      "name": "Color_003",
      "pbrMetallicRoughness": {
        "baseColorFactor": [
          0.666667,
          0.666667,
          0.666667,
          1.0
        ],
        "metallicFactor": 0.0,
        "roughnessFactor": 0.6
      }
    }
  ],
  "meshes": [
    {
      "name": "Material2",
      "primitives": [
        {
          "attributes": {
            "NORMAL": 1,
            "POSITION": 0
          },
          "indices": 2,
          "material": 1,
          "mode": 4
        }
      ]
    },
    {
      "name": "Material2",
      "primitives": [
        {
          "attributes": {
            "POSITION": 3
          },
          "indices": 4,
          "material": 0,
          "mode": 1
        }
      ]
    }
  ],
  "nodes": [
    {
      "children": [
        1
      ],
      "matrix": [
        1.0,
        0.0,
        0.0,
        0.0,
        0.0,
        2.220446049250313e-16,
        -1.0,
        0.0,
        0.0,
        1.0,
        2.220446049250313e-16,
        0.0,
        0.0,
        0.0,
        0.0,
        1.0
      ],
      "name": "Sketchfab_model"
    },
    {
      "children": [
        2,
        3,
        4
      ],
      "name": "Collada visual scene group"
    },
    {
      "mesh": 0,
      "name": "Material2"
    },
    {
      "mesh": 1,
      "name": "Material2"
    },
    {
      "children": [
        5
      ],
      "name": "SketchUp"
    },
    {
      "children": [
        6
      ],
      "matrix": [
        0.6752325,
        -0.7376049,
        -2.775558e-17,
        0.0,
        0.2611564,
        0.2390728,
        0.9352227,
        0.0,
        -0.6898249,
        -0.6314928,
        0.35406,
        0.0,
        -46.83331,
        -96.12949,
        110.3309,
        1.0
      ],
      "name": "skp_camera_Last_Saved_SketchUp_View"
    },
    {
      "name": "ID1"
    }
  ],
  "scene": 0,
  "scenes": [
    {
      "name": "Sketchfab_Scene",
      "nodes": [
        0
      ]
    }
  ]
}
