{
  "accessors": [
    {
      "bufferView": 2,
      "componentType": 5126,
      "count": 72,
      "max": [
        27.043615341186523,
        85.34696960449219,
        5.473504066467285
      ],
      "min": [
        25.211366653442383,
        72.32384490966797,
        4.521692276000977
      ],
      "type": "VEC3"
    },
    {
      "bufferView": 2,
      "byteOffset": 864,
      "componentType": 5126,
      "count": 72,
      "max": [
        0.9960411190986633,
        1.0,
        0.9987687468528748
      ],
      "min": [
        -0.9960411190986633,
        -1.3812437521867893e-13,
        -0.9987687468528748
      ],
      "type": "VEC3"
    },
    {
      "bufferView": 0,
      "componentType": 5125,
      "count": 210,
      "type": "SCALAR"
    },
    {
      "bufferView": 2,
      "byteOffset": 1728,
      "componentType": 5126,
      "count": 1032,
      "max": [
        27.41530990600586,
        85.34696960449219,
        5.5677947998046875
      ],
      "min": [
        24.7182559967041,
        59.25813293457031,
        4.459549903869629
      ],
      "type": "VEC3"
    },
    {
      "bufferView": 2,
      "byteOffset": 14112,
      "componentType": 5126,
      "count": 1032,
      "max": [
        0.9960411190986633,
        1.0,
        0.9995059370994568
      ],
      "min": [
        -0.9960411190986633,
        -1.0,
        -0.9995059370994568
      ],
      "type": "VEC3"
    },
    {
      "bufferView": 0,
      "byteOffset": 840,
      "componentType": 5125,
      "count": 3006,
      "type": "SCALAR"
    },
    {
      "bufferView": 2,
      "byteOffset": 26496,
      "componentType": 5126,
      "count": 144,
      "max": [
        27.043615341186523,
        72.32384490966797,
        5.473504066467285
      ],
      "min": [
        25.211366653442383,
        60.9757194519043,
        4.521692276000977
      ],
      "type": "VEC3"
    },
    {
      "bufferView": 2,
      "byteOffset": 28224,
      "componentType": 5126,
      "count": 144,
      "max": [
        0.9934905767440796,
        1.4047530499938787e-13,
        0.9995059370994568
      ],
      "min": [
        -0.9934905767440796,
        -1.0,
        -0.9995059370994568
      ],
      "type": "VEC3"
    },
    {
      "bufferView": 1,
      "componentType": 5126,
      "count": 144,
      "max": [
        8.83849811553955,
        4.048626899719238
      ],
      "min": [
        -8.847580909729004,
        -0.22265580296516418
      ],
      "type": "VEC2"
    },
    {
      "bufferView": 0,
      "byteOffset": 12864,
      "componentType": 5125,
      "count": 288,
      "type": "SCALAR"
    },
    {
      "bufferView": 2,
      "byteOffset": 29952,
      "componentType": 5126,
      "count": 60,
      "max": [
        30.622520446777344,
        61.58292770385742,
        5.992588996887207
      ],
      "min": [
        21.775035858154297,
        52.07730484008789,
        4.888152599334717
      ],
      "type": "VEC3"
    },
    {
      "bufferView": 2,
      "byteOffset": 30672,
      "componentType": 5126,
      "count": 60,
      "max": [
        0.24581961333751678,
        4.8403443660962817e-14,
        0.9999097585678101
      ],
      "min": [
        -0.24581961333751678,
        -4.8403443660962817e-14,
        -0.9999097585678101
      ],
      "type": "VEC3"
    },
    {
      "bufferView": 0,
      "byteOffset": 14016,
      "componentType": 5125,
      "count": 156,
      "type": "SCALAR"
    },
    {
      "bufferView": 2,
      "byteOffset": 31392,
      "componentType": 5126,
      "count": 48,
      "max": [
        9.667216300964355,
        37.69804000854492,
        37.67965316772461
      ],
      "min": [
        -10.134262084960938,
        17.89655113220215,
        37.67965316772461
      ],
      "type": "VEC3"
    },
    {
      "bufferView": 2,
      "byteOffset": 31968,
      "componentType": 5126,
      "count": 48,
      "max": [
        -1.7168171400892313e-31,
        0.0,
        1.0
      ],
      "min": [
        -1.7168171400892313e-31,
        0.0,
        1.0
      ],
      "type": "VEC3"
    },
    {
      "bufferView": 0,
      "byteOffset": 14640,
      "componentType": 5125,
      "count": 144,
      "type": "SCALAR"
    },
    {
      "bufferView": 2,
      "byteOffset": 32544,
      "componentType": 5126,
      "count": 13510,
      "max": [
        35.52899932861328,
        96.17684173583984,
        37.67965316772461
      ],
      "min": [
        -35.52899932861328,
        -88.18711853027344,
        -33.100215911865234
      ],
      "type": "VEC3"
    },
    {
      "bufferView": 2,
      "byteOffset": 194664,
      "componentType": 5126,
      "count": 13510,
      "max": [
        1.0,
        1.0,
        1.0
      ],
      "min": [
        -1.0,
        -1.0,
        -1.0
      ],
      "type": "VEC3"
    },
    {
      "bufferView": 0,
      "byteOffset": 15216,
      "componentType": 5125,
      "count": 38964,
      "type": "SCALAR"
    },
    {
      "bufferView": 2,
      "byteOffset": 356784,
      "componentType": 5126,
      "count": 3858,
      "max": [
        34.86415481567383,
        88.77311706542969,
        31.534181594848633
      ],
      "min": [
        -34.86415481567383,
        -96.17682647705078,
        -37.679664611816406
      ],
      "type": "VEC3"
    },
    {
      "bufferView": 2,
      "byteOffset": 403080,
      "componentType": 5126,
      "count": 3858,
      "max": [
        1.0,
        1.0,
        1.0
      ],
      "min": [
        -1.0,
        -1.0,
        -1.0
      ],
      "type": "VEC3"
    },
    {
      "bufferView": 0,
      "byteOffset": 171072,
      "componentType": 5125,
      "count": 11538,
      "type": "SCALAR"
    },
    {
      "bufferView": 2,
      "byteOffset": 449376,
      "componentType": 5126,
      "count": 336,
      "max": [
        20.38871192932129,
        9.553215026855469,
        31.534181594848633
      ],
      "min": [
        -20.38871192932129,
        -18.419010162353516,
        -10.077030181884766
      ],
      "type": "VEC3"
    },
    {
      "bufferView": 2,
      "byteOffset": 453408,
      "componentType": 5126,
      "count": 336,
      "max": [
        1.0,
        0.1304081380367279,
        1.0
      ],
      "min": [
        -1.0,
        -0.1304081380367279,
        -1.0
      ],
      "type": "VEC3"
    },
    {
      "bufferView": 0,
      "byteOffset": 217224,
      "componentType": 5125,
      "count": 912,
      "type": "SCALAR"
    },
    {
      "bufferView": 2,
      "byteOffset": 457440,
      "componentType": 5126,
      "count": 4,
      "max": [
        0.033408500254154205,
        -87.93830108642578,
        -23.364490509033203
      ],
      "min": [
        -0.033408500254154205,
        -87.94564819335938,
        -23.364490509033203
      ],
      "type": "VEC3"
    },
    {
      "bufferView": 0,
      "byteOffset": 220872,
      "componentType": 5125,
      "count": 4,
      "type": "SCALAR"
    },
    {
      "bufferView": 2,
      "byteOffset": 457488,
      "componentType": 5126,
      "count": 768,
      "max": [
        13.556126594543457,
        67.40579986572266,
        21.83307456970215
      ],
      "min": [
        -13.556126594543457,
        56.28445053100586,
        8.28710651397705
      ],
      "type": "VEC3"
    },
    {
      "bufferView": 2,
      "byteOffset": 466704,
      "componentType": 5126,
      "count": 768,
      "max": [
        1.0,
        0.9990482926368713,
        0.9990482926368713
      ],
      "min": [
        -1.0,
        -0.9990482926368713,
        -0.9990482926368713
      ],
      "type": "VEC3"
    },
    {
      "bufferView": 0,
      "byteOffset": 220888,
      "componentType": 5125,
      "count": 2304,
      "type": "SCALAR"
    },
    {
      "bufferView": 2,
      "byteOffset": 475920,
      "componentType": 5126,
      "count": 48,
      "max": [
        13.231658935546875,
        49.465171813964844,
        21.830978393554688
      ],
      "min": [
        -13.231658935546875,
        48.92216110229492,
        9.393952369689941
      ],
      "type": "VEC3"
    },
    {
      "bufferView": 2,
      "byteOffset": 476496,
      "componentType": 5126,
      "count": 48,
      "max": [
        0.0,
        -0.9990482926368713,
        0.043619390577077866
      ],
      "min": [
        0.0,
        -0.9990482926368713,
        0.043619390577077866
      ],
      "type": "VEC3"
    },
    {
      "bufferView": 0,
      "byteOffset": 230104,
      "componentType": 5125,
      "count": 132,
      "type": "SCALAR"
    },
    {
      "bufferView": 2,
      "byteOffset": 477072,
      "componentType": 5126,
      "count": 528,
      "max": [
        10.080984115600586,
        65.41736602783203,
        24.362911224365234
      ],
      "min": [
        -10.080984115600586,
        59.23720932006836,
        20.14592170715332
      ],
      "type": "VEC3"
    },
    {
      "bufferView": 2,
      "byteOffset": 483408,
      "componentType": 5126,
      "count": 528,
      "max": [
        1.0,
        0.9990482926368713,
        0.9990482926368713
      ],
      "min": [
        -1.0,
        -0.9990482926368713,
        -0.9990482926368713
      ],
      "type": "VEC3"
    },
    {
      "bufferView": 0,
      "byteOffset": 230632,
      "componentType": 5125,
      "count": 1548,
      "type": "SCALAR"
    }
  ],
  "asset": {
    "extras": {
      "author": "mudroljub (https://sketchfab.com/mudroljub)",
      "license": "CC-BY-4.0 (http://creativecommons.org/licenses/by/4.0/)",
      "source": "https://sketchfab.com/3d-models/armored-car-german-a6fe59770c15424ca82058e90e16dc62",
      "title": "Armored-car-german"
    },
    "generator": "Sketchfab-13.42.0",
    "version": "2.0"
  },
  "bufferViews": [
    {
      "buffer": 0,
      "byteLength": 236824,
      "name": "floatBufferViews",
      "target": 34963
    },
    {
      "buffer": 0,
      "byteLength": 1152,
      "byteOffset": 236824,
      "byteStride": 8,
      "name": "floatBufferViews",
      "target": 34962
    },
    {
      "buffer": 0,
      "byteLength": 489744,
      "byteOffset": 237976,
      "byteStride": 12,
      "name": "floatBufferViews",
      "target": 34962
    }
  ],
  "buffers": [
    {
      "byteLength": 727720,
      "uri": "scene.bin"
    }
  ],
  "images": [
    {
      "uri": "textures/Wood_Cherry_Original_baseColor.jpeg"
    }
  ],
  "materials": [
    {
      "name": "0137_Black",
      "pbrMetallicRoughness": {
        "baseColorFactor": [
          0.0,
          0.0,
          0.0,
          1.0
        ],
        "metallicFactor": 0.0,
        "roughnessFactor": 0.6
      }
    },
    {
      "name": "Color_D09",
      "pbrMetallicRoughness": {
        "baseColorFactor": [
          0.8,
          0.717647,
          0.478431,
          1.0
        ],
        "metallicFactor": 0.0,
        "roughnessFactor": 0.6
      }
    },
    {
      "name": "Wood_Cherry_Original",
      "pbrMetallicRoughness": {
        "baseColorTexture": {
          "index": 0
        },
        "metallicFactor": 0.0,
        "roughnessFactor": 0.6
      }
    },
    {
      "name": "Color_006_1",
      "pbrMetallicRoughness": {
        "baseColorFactor": [
          0.337255,
          0.337255,
          0.337255,
          1.0
        ],
        "metallicFactor": 0.0,
        "roughnessFactor": 0.6
      }
    },
    {
      "name": "Color_000",
      "pbrMetallicRoughness": {
        "metallicFactor": 0.0,
        "roughnessFactor": 0.6
      }
    },
    {
      "name": "Color_007",
      "pbrMetallicRoughness": {
        "baseColorFactor": [
          0.227451,
          0.227451,
          0.227451,
          1.0
        ],
        "metallicFactor": 0.0,
        "roughnessFactor": 0.6
      }
    },
    {
      "name": "Color_008",
      "pbrMetallicRoughness": {
        "baseColorFactor": [
          0.117647,
          0.117647,
          0.117647,
          1.0
        ],
        "metallicFactor": 0.0,
        "roughnessFactor": 0.6
      }
    },
    {
      "name": "Color_009",
      "pbrMetallicRoughness": {
        "baseColorFactor": [
          0.0,
          0.0,
          0.0,
          1.0
        ],
        "metallicFactor": 0.0,
        "roughnessFactor": 0.6
      }
    },
    {
      "name": "edge_color585858255",
      "pbrMetallicRoughness": {
        "metallicFactor": 0.0,
        "roughnessFactor": 0.6
      }
    },
    {
      "name": "Color_006",
      "pbrMetallicRoughness": {
        "baseColorFactor": [
          0.337255,
          0.337255,
          0.337255,
          1.0
        ],
        "metallicFactor": 0.0,
        "roughnessFactor": 0.6
      }
    },
    {
      "name": "Color_D01",
      "pbrMetallicRoughness": {
        "baseColorFactor": [
          1.0,
          0.74902,
          0.0,
          1.0
        ],
        "metallicFactor": 0.0,
        "roughnessFactor": 0.6
      }
    },
    {
      "name": "Color_002",
      "pbrMetallicRoughness": {
        "baseColorFactor": [
          0.776471,
          0.776471,
          0.776471,
          1.0
        ],
        "metallicFactor": 0.0,
        "roughnessFactor": 0.6
      }
    }
  ],
  "meshes": [
    {
      "name": "Material3",
      "primitives": [
        {
          "attributes": {
            "NORMAL": 1,
            "POSITION": 0
          },
          "indices": 2,
          "material": 0,
          "mode": 4
        }
      ]
    },
    {
      "name": "Material2",
      "primitives": [
        {
          "attributes": {
            "NORMAL": 4,
            "POSITION": 3
          },
          "indices": 5,
          "material": 1,
          "mode": 4
        }
      ]
    },
    {
      "name": "Material3",
      "primitives": [
        {
          "attributes": {
            "NORMAL": 7,
            "POSITION": 6,
            "TEXCOORD_0": 8
          },
          "indices": 9,
          "material": 2,
          "mode": 4
        }
      ]
    },
    {
      "name": "Material2",
      "primitives": [
        {
          "attributes": {
            "NORMAL": 11,
            "POSITION": 10
          },
          "indices": 12,
          "material": 3,
          "mode": 4
        }
      ]
    },
    {
      "name": "Material3",
      "primitives": [
        {
          "attributes": {
            "NORMAL": 14,
            "POSITION": 13
          },
          "indices": 15,
          "material": 4,
          "mode": 4
        }
      ]
    },
    {
      "name": "Material2",
      "primitives": [
        {
          "attributes": {
            "NORMAL": 17,
            "POSITION": 16
          },
          "indices": 18,
          "material": 5,
          "mode": 4
        }
      ]
    },
    {
      "name": "Material2",
      "primitives": [
        {
          "attributes": {
            "NORMAL": 20,
            "POSITION": 19
          },
          "indices": 21,
          "material": 6,
          "mode": 4
        }
      ]
    },
    {
      "name": "Material2",
      "primitives": [
        {
          "attributes": {
            "NORMAL": 23,
            "POSITION": 22
          },
          "indices": 24,
          "material": 7,
          "mode": 4
        }
      ]
    },
    {
      "name": "Material2",
      "primitives": [
        {
          "attributes": {
            "POSITION": 25
          },
          "indices": 26,
          "material": 8,
          "mode": 1
        }
      ]
    },
    {
      "name": "Material2",
      "primitives": [
        {
          "attributes": {
            "NORMAL": 28,
            "POSITION": 27
          },
          "indices": 29,
          "material": 9,
          "mode": 4
        }
      ]
    },
    {
      "name": "Material2",
      "primitives": [
        {
          "attributes": {
            "NORMAL": 31,
            "POSITION": 30
          },
          "indices": 32,
          "material": 10,
          "mode": 4
        }
      ]
    },
    {
      "name": "Material2",
      "primitives": [
        {
          "attributes": {
            "NORMAL": 34,
            "POSITION": 33
          },
          "indices": 35,
          "material": 11,
          "mode": 4
        }
      ]
    }
  ],
  "nodes": [
    {
      "children": [
        1
      ],
      "matrix": [
        1.0,
        0.0,
        0.0,
        0.0,
        0.0,
        2.220446049250313e-16,
        -1.0,
        0.0,
        0.0,
        1.0,
        2.220446049250313e-16,
        0.0,
        0.0,
        0.0,
        0.0,
        1.0
      ],
      "name": "Sketchfab_model"
    },
    {
      "children": [
        2,
        3,
        4,
        5,
        6,
        7,
        8,
        9,
        10,
        11,
        12,
        13
      ],
      "name": "Collada visual scene group"
    },
    {
      "mesh": 0,
      "name": "Material3"
    },
    {
      "mesh": 1,
      "name": "Material2"
    },
    {
      "mesh": 2,
      "name": "Material3"
    },
    {
      "mesh": 3,
      "name": "Material2"
    },
    {
      "mesh": 4,
      "name": "Material3"
    },
    {
      "mesh": 5,
      "name": "Material2"
    },
    {
      "mesh": 6,
      "name": "Material2"
    },
    {
      "mesh": 7,
      "name": "Material2"
    },
    {
      "mesh": 8,
      "name": "Material2"
    },
    {
      "mesh": 9,
      "name": "Material2"
    },
    {
      "mesh": 10,
      "name": "Material2"
    },
    {
      "mesh": 11,
      "name": "Material2"
    }
  ],
  "samplers": [
    {
      "magFilter": 9729,
      "minFilter": 9987,
      "wrapS": 10497,
      "wrapT": 10497
    }
  ],
  "scene": 0,
  "scenes": [
    {
      "name": "Sketchfab_Scene",
      "nodes": [
        0
      ]
    }
  ],
  "textures": [
    {
      "sampler": 0,
      "source": 0
    }
  ]
}
