{
  "accessors": [
    {
      "bufferView": 2,
      "componentType": 5126,
      "count": 1315,
      "max": [
        60.64960861206055,
        131.4799346923828,
        121.01660919189453
      ],
      "min": [
        -60.649600982666016,
        -184.07862854003906,
        4.724979877471924
      ],
      "type": "VEC3"
    },
    {
      "bufferView": 2,
      "byteOffset": 15780,
      "componentType": 5126,
      "count": 1315,
      "max": [
        1.0,
        1.0,
        1.0
      ],
      "min": [
        -1.0,
        -1.0,
        -1.0
      ],
      "type": "VEC3"
    },
    {
      "bufferView": 0,
      "componentType": 5125,
      "count": 3561,
      "type": "SCALAR"
    },
    {
      "bufferView": 2,
      "byteOffset": 31560,
      "componentType": 5126,
      "count": 3680,
      "max": [
        60.64960861206055,
        135.49794006347656,
        121.01660919189453
      ],
      "min": [
        -60.649600982666016,
        -187.26759338378906,
        1.7210290431976318
      ],
      "type": "VEC3"
    },
    {
      "bufferView": 2,
      "byteOffset": 75720,
      "componentType": 5126,
      "count": 3680,
      "max": [
        1.0,
        1.0,
        1.0
      ],
      "min": [
        -1.0,
        -1.0,
        -1.0
      ],
      "type": "VEC3"
    },
    {
      "bufferView": 0,
      "byteOffset": 14244,
      "componentType": 5125,
      "count": 10158,
      "type": "SCALAR"
    },
    {
      "bufferView": 2,
      "byteOffset": 119880,
      "componentType": 5126,
      "count": 2413,
      "max": [
        60.64960861206055,
        135.49794006347656,
        121.01660919189453
      ],
      "min": [
        -60.649600982666016,
        -187.26759338378906,
        1.7210290431976318
      ],
      "type": "VEC3"
    },
    {
      "bufferView": 2,
      "byteOffset": 148836,
      "componentType": 5126,
      "count": 2413,
      "max": [
        1.0,
        1.0,
        1.0
      ],
      "min": [
        -1.0,
        -1.0,
        -1.0
      ],
      "type": "VEC3"
    },
    {
      "bufferView": 1,
      "componentType": 5126,
      "count": 2413,
      "max": [
        0.9907215237617493,
        1.3896139860153198
      ],
      "min": [
        0.005056843161582947,
        0.01492265984416008
      ],
      "type": "VEC2"
    },
    {
      "bufferView": 0,
      "byteOffset": 54876,
      "componentType": 5125,
      "count": 6597,
      "type": "SCALAR"
    },
    {
      "bufferView": 2,
      "byteOffset": 177792,
      "componentType": 5126,
      "count": 258,
      "max": [
        59.004268646240234,
        132.95724487304688,
        97.83734893798828
      ],
      "min": [
        -59.004268646240234,
        -98.64614868164063,
        1.7210290431976318
      ],
      "type": "VEC3"
    },
    {
      "bufferView": 0,
      "byteOffset": 81264,
      "componentType": 5125,
      "count": 740,
      "type": "SCALAR"
    },
    {
      "bufferView": 2,
      "byteOffset": 180888,
      "componentType": 5126,
      "count": 1447,
      "max": [
        60.64960861206055,
        135.49794006347656,
        121.01660919189453
      ],
      "min": [
        -60.649600982666016,
        -187.26759338378906,
        4.724979877471924
      ],
      "type": "VEC3"
    },
    {
      "bufferView": 0,
      "byteOffset": 84224,
      "componentType": 5125,
      "count": 4376,
      "type": "SCALAR"
    }
  ],
  "asset": {
    "extras": {
      "author": "mudroljub (https://sketchfab.com/mudroljub)",
      "license": "CC-BY-4.0 (http://creativecommons.org/licenses/by/4.0/)",
      "source": "https://sketchfab.com/3d-models/t-34-3aa9cae355484d6f81abff4a8ca2a0bf",
      "title": "T-34"
    },
    "generator": "Sketchfab-13.42.0",
    "version": "2.0"
  },
  "bufferViews": [
    {
      "buffer": 0,
      "byteLength": 101728,
      "name": "floatBufferViews",
      "target": 34963
    },
    {
      "buffer": 0,
      "byteLength": 19304,
      "byteOffset": 101728,
      "byteStride": 8,
      "name": "floatBufferViews",
      "target": 34962
    },
    {
      "buffer": 0,
      "byteLength": 198252,
      "byteOffset": 121032,
      "byteStride": 12,
      "name": "floatBufferViews",
      "target": 34962
    }
  ],
  "buffers": [
    {
      "byteLength": 319284,
      "uri": "scene.bin"
    }
  ],
  "images": [
    {
      "uri": "textures/t-34-85_baseColor.png"
    }
  ],
  "materials": [
    {
      "name": "edge_color000255",
      "pbrMetallicRoughness": {
        "metallicFactor": 0.0,
        "roughnessFactor": 0.6
      }
    },
    {
      "name": "material",
      "pbrMetallicRoughness": {
        "metallicFactor": 0.0,
        "roughnessFactor": 0.6
      }
    },
    {
      "name": "material_0",
      "pbrMetallicRoughness": {
        "baseColorFactor": [
          0.643137,
          0.698039,
          0.733333,
          1.0
        ],
        "metallicFactor": 0.0,
        "roughnessFactor": 0.6
      }
    },
    {
      "name": "t-34-85",
      "pbrMetallicRoughness": {
        "baseColorTexture": {
          "index": 0
        },
        "metallicFactor": 0.0,
        "roughnessFactor": 0.6
      }
    },
    {
      "name": "edge_color215215215255",
      "pbrMetallicRoughness": {
        "metallicFactor": 0.0,
        "roughnessFactor": 0.6
      }
    }
  ],
  "meshes": [
    {
      "name": "Material2",
      "primitives": [
        {
          "attributes": {
            "NORMAL": 1,
            "POSITION": 0
          },
          "indices": 2,
          "material": 1,
          "mode": 4
        }
      ]
    },
    {
      "name": "Material2",
      "primitives": [
        {
          "attributes": {
            "NORMAL": 4,
            "POSITION": 3
          },
          "indices": 5,
          "material": 2,
          "mode": 4
        }
      ]
    },
    {
      "name": "Material3",
      "primitives": [
        {
          "attributes": {
            "NORMAL": 7,
            "POSITION": 6,
            "TEXCOORD_0": 8
          },
          "indices": 9,
          "material": 3,
          "mode": 4
        }
      ]
    },
    {
      "name": "Material5",
      "primitives": [
        {
          "attributes": {
            "POSITION": 10
          },
          "indices": 11,
          "material": 4,
          "mode": 1
        }
      ]
    },
    {
      "name": "Material2",
      "primitives": [
        {
          "attributes": {
            "POSITION": 12
          },
          "indices": 13,
          "material": 0,
          "mode": 1
        }
      ]
    }
  ],
  "nodes": [
    {
      "children": [
        1
      ],
      "matrix": [
        1.0,
        0.0,
        0.0,
        0.0,
        0.0,
        2.220446049250313e-16,
        -1.0,
        0.0,
        0.0,
        1.0,
        2.220446049250313e-16,
        0.0,
        0.0,
        0.0,
        0.0,
        1.0
      ],
      "name": "Sketchfab_model"
    },
    {
      "children": [
        2,
        3,
        4,
        5,
        6,
        7
      ],
      "name": "Collada visual scene group"
    },
    {
      "mesh": 0,
      "name": "Material2"
    },
    {
      "mesh": 1,
      "name": "Material2"
    },
    {
      "mesh": 2,
      "name": "Material3"
    },
    {
      "mesh": 3,
      "name": "Material5"
    },
    {
      "mesh": 4,
      "name": "Material2"
    },
    {
      "children": [
        8
      ],
      "name": "SketchUp"
    },
    {
      "children": [
        9
      ],
      "matrix": [
        0.3191974,
        -0.9476883,
        8.326673e-17,
        0.0,
        0.2051558,
        0.06909994,
        0.976287,
        0.0,
        -0.9252157,
        -0.3116282,
        0.2164803,
        0.0,
        -334.9876,
        -137.9977,
        122.7267,
        1.0
      ],
      "name": "skp_camera_Last_Saved_SketchUp_View"
    },
    {
      "name": "ID1"
    }
  ],
  "samplers": [
    {
      "magFilter": 9729,
      "minFilter": 9987,
      "wrapS": 10497,
      "wrapT": 10497
    }
  ],
  "scene": 0,
  "scenes": [
    {
      "name": "Sketchfab_Scene",
      "nodes": [
        0
      ]
    }
  ],
  "textures": [
    {
      "sampler": 0,
      "source": 0
    }
  ]
}
