{
  "accessors": [
    {
      "bufferView": 1,
      "componentType": 5126,
      "count": 27962,
      "max": [
        467.938720703125,
        673.797119140625,
        354.3306884765625
      ],
      "min": [
        -151.98252868652344,
        19.3129940032959,
        -9.033207675201993e-07
      ],
      "type": "VEC3"
    },
    {
      "bufferView": 1,
      "byteOffset": 335544,
      "componentType": 5126,
      "count": 27962,
      "max": [
        1.0,
        1.0,
        1.0
      ],
      "min": [
        -1.0,
        -1.0,
        -1.0
      ],
      "type": "VEC3"
    },
    {
      "bufferView": 0,
      "componentType": 5125,
      "count": 61800,
      "type": "SCALAR"
    },
    {
      "bufferView": 1,
      "byteOffset": 671088,
      "componentType": 5126,
      "count": 2384,
      "max": [
        365.54840087890625,
        581.7392578125,
        472.4408874511719
      ],
      "min": [
        -49.592201232910156,
        111.37081909179688,
        -4.618531035047169e-13
      ],
      "type": "VEC3"
    },
    {
      "bufferView": 1,
      "byteOffset": 699696,
      "componentType": 5126,
      "count": 2384,
      "max": [
        1.0,
        1.0,
        1.0
      ],
      "min": [
        -1.0,
        -1.0,
        -1.0
      ],
      "type": "VEC3"
    },
    {
      "bufferView": 0,
      "byteOffset": 247200,
      "componentType": 5125,
      "count": 3756,
      "type": "SCALAR"
    },
    {
      "bufferView": 1,
      "byteOffset": 728304,
      "componentType": 5126,
      "count": 2384,
      "max": [
        365.54840087890625,
        581.7392578125,
        472.4408874511719
      ],
      "min": [
        -49.592201232910156,
        111.37081909179688,
        -4.618531035047169e-13
      ],
      "type": "VEC3"
    },
    {
      "bufferView": 1,
      "byteOffset": 756912,
      "componentType": 5126,
      "count": 2384,
      "max": [
        1.0,
        1.0,
        1.0
      ],
      "min": [
        -1.0,
        -1.0,
        -1.0
      ],
      "type": "VEC3"
    },
    {
      "bufferView": 0,
      "byteOffset": 262224,
      "componentType": 5125,
      "count": 3756,
      "type": "SCALAR"
    },
    {
      "bufferView": 1,
      "byteOffset": 785520,
      "componentType": 5126,
      "count": 4740,
      "max": [
        467.9103698730469,
        673.7970581054688,
        472.4408874511719
      ],
      "min": [
        -151.9824981689453,
        19.312999725341797,
        -1.0546290403479208e-12
      ],
      "type": "VEC3"
    },
    {
      "bufferView": 0,
      "byteOffset": 277248,
      "componentType": 5125,
      "count": 12396,
      "type": "SCALAR"
    },
    {
      "bufferView": 1,
      "byteOffset": 842400,
      "componentType": 5126,
      "count": 5828,
      "max": [
        467.938720703125,
        673.797119140625,
        354.3306884765625
      ],
      "min": [
        -151.98252868652344,
        19.3129940032959,
        -9.033207675201993e-07
      ],
      "type": "VEC3"
    },
    {
      "bufferView": 0,
      "byteOffset": 326832,
      "componentType": 5125,
      "count": 17746,
      "type": "SCALAR"
    }
  ],
  "asset": {
    "extras": {
      "author": "mudroljub (https://sketchfab.com/mudroljub)",
      "license": "CC-BY-4.0 (http://creativecommons.org/licenses/by/4.0/)",
      "source": "https://sketchfab.com/3d-models/dwarven-fort-01a7dc1624c44f80be3ecc190ab8bdd1",
      "title": "Dwarven Fort"
    },
    "generator": "Sketchfab-13.42.0",
    "version": "2.0"
  },
  "bufferViews": [
    {
      "buffer": 0,
      "byteLength": 397816,
      "name": "floatBufferViews",
      "target": 34963
    },
    {
      "buffer": 0,
      "byteLength": 912336,
      "byteOffset": 397816,
      "byteStride": 12,
      "name": "floatBufferViews",
      "target": 34962
    }
  ],
  "buffers": [
    {
      "byteLength": 1310152,
      "uri": "scene.bin"
    }
  ],
  "materials": [
    {
      "name": "edge_color000255",
      "pbrMetallicRoughness": {
        "metallicFactor": 0.0,
        "roughnessFactor": 0.6
      }
    },
    {
      "name": "edge_color255255255255",
      "pbrMetallicRoughness": {
        "metallicFactor": 0.0,
        "roughnessFactor": 0.6
      }
    },
    {
      "name": "Color_000",
      "pbrMetallicRoughness": {
        "metallicFactor": 0.0,
        "roughnessFactor": 0.6
      }
    },
    {
      "name": "material_0",
      "pbrMetallicRoughness": {
        "baseColorFactor": [
          0.670588,
          0.690196,
          0.8,
          1.0
        ],
        "metallicFactor": 0.0,
        "roughnessFactor": 0.6
      }
    },
    {
      "name": "material",
      "pbrMetallicRoughness": {
        "metallicFactor": 0.0,
        "roughnessFactor": 0.6
      }
    }
  ],
  "meshes": [
    {
      "name": "Material2",
      "primitives": [
        {
          "attributes": {
            "NORMAL": 1,
            "POSITION": 0
          },
          "indices": 2,
          "material": 2,
          "mode": 4
        }
      ]
    },
    {
      "name": "Material3",
      "primitives": [
        {
          "attributes": {
            "NORMAL": 4,
            "POSITION": 3
          },
          "indices": 5,
          "material": 3,
          "mode": 4
        }
      ]
    },
    {
      "name": "Material2",
      "primitives": [
        {
          "attributes": {
            "NORMAL": 7,
            "POSITION": 6
          },
          "indices": 8,
          "material": 4,
          "mode": 4
        }
      ]
    },
    {
      "name": "Material4",
      "primitives": [
        {
          "attributes": {
            "POSITION": 9
          },
          "indices": 10,
          "material": 0,
          "mode": 1
        }
      ]
    },
    {
      "name": "Material2",
      "primitives": [
        {
          "attributes": {
            "POSITION": 11
          },
          "indices": 12,
          "material": 1,
          "mode": 1
        }
      ]
    }
  ],
  "nodes": [
    {
      "children": [
        1
      ],
      "matrix": [
        1.0,
        0.0,
        0.0,
        0.0,
        0.0,
        2.220446049250313e-16,
        -1.0,
        0.0,
        0.0,
        1.0,
        2.220446049250313e-16,
        0.0,
        0.0,
        0.0,
        0.0,
        1.0
      ],
      "name": "Sketchfab_model"
    },
    {
      "children": [
        2,
        3,
        4,
        5,
        6,
        7
      ],
      "name": "Collada visual scene group"
    },
    {
      "mesh": 0,
      "name": "Material2"
    },
    {
      "mesh": 1,
      "name": "Material3"
    },
    {
      "mesh": 2,
      "name": "Material2"
    },
    {
      "mesh": 3,
      "name": "Material4"
    },
    {
      "mesh": 4,
      "name": "Material2"
    },
    {
      "children": [
        8
      ],
      "name": "SketchUp"
    },
    {
      "children": [
        9
      ],
      "matrix": [
        -0.01877359,
        0.9998237,
        -1.908196e-17,
        0.0,
        -0.4712254,
        -0.008848153,
        0.8819684,
        0.0,
        0.881813,
        0.01655772,
        0.4713084,
        0.0,
        1146.618,
        362.5546,
        671.8065,
        1.0
      ],
      "name": "skp_camera_Last_Saved_SketchUp_View"
    },
    {
      "name": "ID1"
    }
  ],
  "scene": 0,
  "scenes": [
    {
      "name": "Sketchfab_Scene",
      "nodes": [
        0
      ]
    }
  ]
}
