{
  "accessors": [
    {
      "bufferView": 2,
      "componentType": 5126,
      "count": 1951,
      "max": [
        69.49635314941406,
        171.07530212402344,
        82.67716979980469
      ],
      "min": [
        0.9268782138824463,
        3.7900660037994385,
        3.5852200984954834
      ],
      "type": "VEC3"
    },
    {
      "bufferView": 2,
      "byteOffset": 23412,
      "componentType": 5126,
      "count": 1951,
      "max": [
        1.0,
        1.0,
        1.0
      ],
      "min": [
        -1.0,
        -1.0,
        -1.0
      ],
      "type": "VEC3"
    },
    {
      "bufferView": 0,
      "componentType": 5125,
      "count": 5490,
      "type": "SCALAR"
    },
    {
      "bufferView": 2,
      "byteOffset": 46824,
      "componentType": 5126,
      "count": 3227,
      "max": [
        66.14173126220703,
        133.58169555664063,
        39.529850006103516
      ],
      "min": [
        3.1496059894561768,
        2.2152628898620605,
        2.0104169845581055
      ],
      "type": "VEC3"
    },
    {
      "bufferView": 2,
      "byteOffset": 85548,
      "componentType": 5126,
      "count": 3227,
      "max": [
        1.0,
        1.0,
        1.0
      ],
      "min": [
        -1.0,
        -1.0,
        -1.0
      ],
      "type": "VEC3"
    },
    {
      "bufferView": 0,
      "byteOffset": 21960,
      "componentType": 5125,
      "count": 8907,
      "type": "SCALAR"
    },
    {
      "bufferView": 2,
      "byteOffset": 124272,
      "componentType": 5126,
      "count": 104,
      "max": [
        66.14173126220703,
        125.8488998413086,
        44.73672866821289
      ],
      "min": [
        3.1496059894561768,
        12.687700271606445,
        2.0104169845581055
      ],
      "type": "VEC3"
    },
    {
      "bufferView": 0,
      "byteOffset": 57588,
      "componentType": 5125,
      "count": 200,
      "type": "SCALAR"
    },
    {
      "bufferView": 2,
      "byteOffset": 125520,
      "componentType": 5126,
      "count": 6066,
      "max": [
        69.49635314941406,
        133.58169555664063,
        82.67716979980469
      ],
      "min": [
        0.9268782138824463,
        2.2152628898620605,
        2.0104169845581055
      ],
      "type": "VEC3"
    },
    {
      "bufferView": 2,
      "byteOffset": 198312,
      "componentType": 5126,
      "count": 6066,
      "max": [
        1.0,
        1.0,
        1.0
      ],
      "min": [
        -1.0,
        -1.0,
        -1.0
      ],
      "type": "VEC3"
    },
    {
      "bufferView": 0,
      "byteOffset": 58388,
      "componentType": 5125,
      "count": 16593,
      "type": "SCALAR"
    },
    {
      "bufferView": 2,
      "byteOffset": 271104,
      "componentType": 5126,
      "count": 36,
      "max": [
        43.40005111694336,
        124.87310028076172,
        82.67716979980469
      ],
      "min": [
        0.996463418006897,
        33.396888732910156,
        35.112579345703125
      ],
      "type": "VEC3"
    },
    {
      "bufferView": 0,
      "byteOffset": 124760,
      "componentType": 5125,
      "count": 50,
      "type": "SCALAR"
    },
    {
      "bufferView": 2,
      "byteOffset": 271536,
      "componentType": 5126,
      "count": 3503,
      "max": [
        69.60662841796875,
        171.1436004638672,
        82.67716979980469
      ],
      "min": [
        0.887276291847229,
        11.023619651794434,
        11.36874008178711
      ],
      "type": "VEC3"
    },
    {
      "bufferView": 2,
      "byteOffset": 313572,
      "componentType": 5126,
      "count": 3503,
      "max": [
        1.0,
        1.0,
        1.0
      ],
      "min": [
        -1.0,
        -1.0,
        -1.0
      ],
      "type": "VEC3"
    },
    {
      "bufferView": 0,
      "byteOffset": 124960,
      "componentType": 5125,
      "count": 9168,
      "type": "SCALAR"
    },
    {
      "bufferView": 2,
      "byteOffset": 355608,
      "componentType": 5126,
      "count": 416,
      "max": [
        60.23622131347656,
        63.554931640625,
        65.7506103515625
      ],
      "min": [
        9.0551176071167,
        12.687700271606445,
        19.184219360351563
      ],
      "type": "VEC3"
    },
    {
      "bufferView": 2,
      "byteOffset": 360600,
      "componentType": 5126,
      "count": 416,
      "max": [
        0.899429202079773,
        1.0,
        1.0
      ],
      "min": [
        -0.899429202079773,
        -1.0,
        -1.0
      ],
      "type": "VEC3"
    },
    {
      "bufferView": 0,
      "byteOffset": 161632,
      "componentType": 5125,
      "count": 1242,
      "type": "SCALAR"
    },
    {
      "bufferView": 2,
      "byteOffset": 365592,
      "componentType": 5126,
      "count": 96,
      "max": [
        60.23622131347656,
        19.3806095123291,
        25.877140045166016
      ],
      "min": [
        9.0551176071167,
        12.687700271606445,
        19.184219360351563
      ],
      "type": "VEC3"
    },
    {
      "bufferView": 2,
      "byteOffset": 366744,
      "componentType": 5126,
      "count": 96,
      "max": [
        1.1662469862703715e-19,
        1.0,
        1.0
      ],
      "min": [
        -1.7710629678523336e-19,
        -1.0,
        -1.0
      ],
      "type": "VEC3"
    },
    {
      "bufferView": 1,
      "componentType": 5126,
      "count": 96,
      "max": [
        0.3493151068687439,
        0.3395443856716156
      ],
      "min": [
        -0.3493151068687439,
        -0.1619907021522522
      ],
      "type": "VEC2"
    },
    {
      "bufferView": 0,
      "byteOffset": 166600,
      "componentType": 5125,
      "count": 144,
      "type": "SCALAR"
    },
    {
      "bufferView": 2,
      "byteOffset": 367896,
      "componentType": 5126,
      "count": 4,
      "max": [
        22.943889617919922,
        50.160179138183594,
        64.14618682861328
      ],
      "min": [
        22.102319717407227,
        48.430301666259766,
        63.34397888183594
      ],
      "type": "VEC3"
    },
    {
      "bufferView": 2,
      "byteOffset": 367944,
      "componentType": 5126,
      "count": 4,
      "max": [
        0.8992351293563843,
        -0.43746569752693176,
        1.9921530516799762e-13
      ],
      "min": [
        0.8992351293563843,
        -0.43746569752693176,
        1.9921530516799762e-13
      ],
      "type": "VEC3"
    },
    {
      "bufferView": 0,
      "byteOffset": 167176,
      "componentType": 5125,
      "count": 6,
      "type": "SCALAR"
    },
    {
      "bufferView": 2,
      "byteOffset": 367992,
      "componentType": 5126,
      "count": 3203,
      "max": [
        69.60662841796875,
        171.1436004638672,
        82.67716979980469
      ],
      "min": [
        0.887276291847229,
        2.2152628898620605,
        2.0104169845581055
      ],
      "type": "VEC3"
    },
    {
      "bufferView": 0,
      "byteOffset": 167200,
      "componentType": 5125,
      "count": 10014,
      "type": "SCALAR"
    }
  ],
  "asset": {
    "extras": {
      "author": "mudroljub (https://sketchfab.com/mudroljub)",
      "license": "CC-BY-4.0 (http://creativecommons.org/licenses/by/4.0/)",
      "source": "https://sketchfab.com/3d-models/ms137mmgsr-cb07bb5ca55141b2bbf8b0d0c512a03a",
      "title": "Ms1+37mm+gsr"
    },
    "generator": "Sketchfab-13.42.0",
    "version": "2.0"
  },
  "bufferViews": [
    {
      "buffer": 0,
      "byteLength": 207256,
      "name": "floatBufferViews",
      "target": 34963
    },
    {
      "buffer": 0,
      "byteLength": 768,
      "byteOffset": 207256,
      "byteStride": 8,
      "name": "floatBufferViews",
      "target": 34962
    },
    {
      "buffer": 0,
      "byteLength": 406428,
      "byteOffset": 208024,
      "byteStride": 12,
      "name": "floatBufferViews",
      "target": 34962
    }
  ],
  "buffers": [
    {
      "byteLength": 614452,
      "uri": "scene.bin"
    }
  ],
  "images": [
    {
      "uri": "textures/material_3_baseColor.jpeg"
    }
  ],
  "materials": [
    {
      "name": "material",
      "pbrMetallicRoughness": {
        "metallicFactor": 0.0,
        "roughnessFactor": 0.6
      }
    },
    {
      "name": "Charcoal",
      "pbrMetallicRoughness": {
        "baseColorFactor": [
          0.137255,
          0.137255,
          0.137255,
          1.0
        ],
        "metallicFactor": 0.0,
        "roughnessFactor": 0.6
      }
    },
    {
      "name": "edge_color353535255",
      "pbrMetallicRoughness": {
        "metallicFactor": 0.0,
        "roughnessFactor": 0.6
      }
    },
    {
      "name": "material_0",
      "pbrMetallicRoughness": {
        "baseColorFactor": [
          0.643137,
          0.698039,
          0.733333,
          1.0
        ],
        "metallicFactor": 0.0,
        "roughnessFactor": 0.6
      }
    },
    {
      "name": "edge_color000255",
      "pbrMetallicRoughness": {
        "metallicFactor": 0.0,
        "roughnessFactor": 0.6
      }
    },
    {
      "name": "edge_color511020255",
      "pbrMetallicRoughness": {
        "metallicFactor": 0.0,
        "roughnessFactor": 0.6
      }
    },
    {
      "name": "Color_F16",
      "pbrMetallicRoughness": {
        "baseColorFactor": [
          0.2,
          0.4,
          0.0,
          1.0
        ],
        "metallicFactor": 0.0,
        "roughnessFactor": 0.6
      }
    },
    {
      "name": "Color_008",
      "pbrMetallicRoughness": {
        "baseColorFactor": [
          0.117647,
          0.117647,
          0.117647,
          1.0
        ],
        "metallicFactor": 0.0,
        "roughnessFactor": 0.6
      }
    },
    {
      "name": "material_3",
      "pbrMetallicRoughness": {
        "baseColorTexture": {
          "index": 0
        },
        "metallicFactor": 0.0,
        "roughnessFactor": 0.6
      }
    },
    {
      "name": "Color_007",
      "pbrMetallicRoughness": {
        "baseColorFactor": [
          0.227451,
          0.227451,
          0.227451,
          1.0
        ],
        "metallicFactor": 0.0,
        "roughnessFactor": 0.6
      }
    }
  ],
  "meshes": [
    {
      "name": "Material2",
      "primitives": [
        {
          "attributes": {
            "NORMAL": 1,
            "POSITION": 0
          },
          "indices": 2,
          "material": 0,
          "mode": 4
        }
      ]
    },
    {
      "name": "Material3",
      "primitives": [
        {
          "attributes": {
            "NORMAL": 4,
            "POSITION": 3
          },
          "indices": 5,
          "material": 1,
          "mode": 4
        }
      ]
    },
    {
      "name": "Material4",
      "primitives": [
        {
          "attributes": {
            "POSITION": 6
          },
          "indices": 7,
          "material": 2,
          "mode": 1
        }
      ]
    },
    {
      "name": "Material3",
      "primitives": [
        {
          "attributes": {
            "NORMAL": 9,
            "POSITION": 8
          },
          "indices": 10,
          "material": 3,
          "mode": 4
        }
      ]
    },
    {
      "name": "Material4",
      "primitives": [
        {
          "attributes": {
            "POSITION": 11
          },
          "indices": 12,
          "material": 5,
          "mode": 1
        }
      ]
    },
    {
      "name": "Material3",
      "primitives": [
        {
          "attributes": {
            "NORMAL": 14,
            "POSITION": 13
          },
          "indices": 15,
          "material": 6,
          "mode": 4
        }
      ]
    },
    {
      "name": "Material3",
      "primitives": [
        {
          "attributes": {
            "NORMAL": 17,
            "POSITION": 16
          },
          "indices": 18,
          "material": 7,
          "mode": 4
        }
      ]
    },
    {
      "name": "Material3",
      "primitives": [
        {
          "attributes": {
            "NORMAL": 20,
            "POSITION": 19,
            "TEXCOORD_0": 21
          },
          "indices": 22,
          "material": 8,
          "mode": 4
        }
      ]
    },
    {
      "name": "Material3",
      "primitives": [
        {
          "attributes": {
            "NORMAL": 24,
            "POSITION": 23
          },
          "indices": 25,
          "material": 9,
          "mode": 4
        }
      ]
    },
    {
      "name": "Material2",
      "primitives": [
        {
          "attributes": {
            "POSITION": 26
          },
          "indices": 27,
          "material": 4,
          "mode": 1
        }
      ]
    }
  ],
  "nodes": [
    {
      "children": [
        1
      ],
      "matrix": [
        1.0,
        0.0,
        0.0,
        0.0,
        0.0,
        2.220446049250313e-16,
        -1.0,
        0.0,
        0.0,
        1.0,
        2.220446049250313e-16,
        0.0,
        0.0,
        0.0,
        0.0,
        1.0
      ],
      "name": "Sketchfab_model"
    },
    {
      "children": [
        2,
        3,
        4,
        5,
        6,
        7,
        8,
        9,
        10,
        11,
        12
      ],
      "name": "Collada visual scene group"
    },
    {
      "mesh": 0,
      "name": "Material2"
    },
    {
      "mesh": 1,
      "name": "Material3"
    },
    {
      "mesh": 2,
      "name": "Material4"
    },
    {
      "mesh": 3,
      "name": "Material3"
    },
    {
      "mesh": 4,
      "name": "Material4"
    },
    {
      "mesh": 5,
      "name": "Material3"
    },
    {
      "mesh": 6,
      "name": "Material3"
    },
    {
      "mesh": 7,
      "name": "Material3"
    },
    {
      "mesh": 8,
      "name": "Material3"
    },
    {
      "mesh": 9,
      "name": "Material2"
    },
    {
      "children": [
        13
      ],
      "name": "SketchUp"
    },
    {
      "children": [
        14
      ],
      "matrix": [
        0.6901548,
        0.7236618,
        2.775558e-17,
        0.0,
        -0.2848976,
        0.2717063,
        0.9192438,
        0.0,
        0.6652216,
        -0.6344205,
        0.3936889,
        0.0,
        165.7831,
        -57.27213,
        106.265,
        1.0
      ],
      "name": "skp_camera_Last_Saved_SketchUp_View"
    },
    {
      "name": "ID1"
    }
  ],
  "samplers": [
    {
      "magFilter": 9729,
      "minFilter": 9987,
      "wrapS": 10497,
      "wrapT": 10497
    }
  ],
  "scene": 0,
  "scenes": [
    {
      "name": "Sketchfab_Scene",
      "nodes": [
        0
      ]
    }
  ],
  "textures": [
    {
      "sampler": 0,
      "source": 0
    }
  ]
}
