{
  "accessors": [
    {
      "bufferView": 1,
      "componentType": 5126,
      "count": 1691,
      "max": [
        96.40653991699219,
        32.7335090637207,
        49.83673858642578
      ],
      "min": [
        22.189279556274414,
        17.286510467529297,
        30.5946102142334
      ],
      "type": "VEC3"
    },
    {
      "bufferView": 1,
      "byteOffset": 20292,
      "componentType": 5126,
      "count": 1691,
      "max": [
        1.0,
        1.0,
        1.0
      ],
      "min": [
        -0.9468877911567688,
        -1.0,
        -1.0
      ],
      "type": "VEC3"
    },
    {
      "bufferView": 0,
      "componentType": 5125,
      "count": 2415,
      "type": "SCALAR"
    },
    {
      "bufferView": 1,
      "byteOffset": 40584,
      "componentType": 5126,
      "count": 36821,
      "max": [
        156.7430419921875,
        50.73875045776367,
        54.96739959716797
      ],
      "min": [
        27.446130752563477,
        -10.034090042114258,
        0.16352927684783936
      ],
      "type": "VEC3"
    },
    {
      "bufferView": 1,
      "byteOffset": 482436,
      "componentType": 5126,
      "count": 36821,
      "max": [
        1.0,
        1.0,
        1.0
      ],
      "min": [
        -1.0,
        -1.0,
        -1.0
      ],
      "type": "VEC3"
    },
    {
      "bufferView": 0,
      "byteOffset": 9660,
      "componentType": 5125,
      "count": 51771,
      "type": "SCALAR"
    },
    {
      "bufferView": 1,
      "byteOffset": 924288,
      "componentType": 5126,
      "count": 652,
      "max": [
        107.77269744873047,
        22.87830924987793,
        51.87015914916992
      ],
      "min": [
        67.30274200439453,
        18.404869079589844,
        45.048431396484375
      ],
      "type": "VEC3"
    },
    {
      "bufferView": 1,
      "byteOffset": 932112,
      "componentType": 5126,
      "count": 652,
      "max": [
        0.9469575881958008,
        1.0,
        0.9468796253204346
      ],
      "min": [
        -0.9469088912010193,
        -1.0,
        -0.9468809962272644
      ],
      "type": "VEC3"
    },
    {
      "bufferView": 0,
      "byteOffset": 216744,
      "componentType": 5125,
      "count": 678,
      "type": "SCALAR"
    },
    {
      "bufferView": 1,
      "byteOffset": 939936,
      "componentType": 5126,
      "count": 985,
      "max": [
        96.40653991699219,
        32.7335090637207,
        49.83673858642578
      ],
      "min": [
        22.189279556274414,
        8.458832740783691,
        30.5946102142334
      ],
      "type": "VEC3"
    },
    {
      "bufferView": 1,
      "byteOffset": 951756,
      "componentType": 5126,
      "count": 985,
      "max": [
        0.9468885660171509,
        1.0,
        1.0
      ],
      "min": [
        -1.0,
        -0.9251915216445923,
        -0.9337033629417419
      ],
      "type": "VEC3"
    },
    {
      "bufferView": 0,
      "byteOffset": 219456,
      "componentType": 5125,
      "count": 1125,
      "type": "SCALAR"
    },
    {
      "bufferView": 1,
      "byteOffset": 963576,
      "componentType": 5126,
      "count": 48,
      "max": [
        107.77269744873047,
        20.873220443725586,
        51.78112030029297
      ],
      "min": [
        97.09488677978516,
        20.127649307250977,
        47.5300407409668
      ],
      "type": "VEC3"
    },
    {
      "bufferView": 1,
      "byteOffset": 964152,
      "componentType": 5126,
      "count": 48,
      "max": [
        0.32159656286239624,
        1.0,
        0.9468787908554077
      ],
      "min": [
        -0.32159680128097534,
        -1.0,
        -0.9468787312507629
      ],
      "type": "VEC3"
    },
    {
      "bufferView": 0,
      "byteOffset": 223956,
      "componentType": 5125,
      "count": 144,
      "type": "SCALAR"
    },
    {
      "bufferView": 1,
      "byteOffset": 964728,
      "componentType": 5126,
      "count": 234,
      "max": [
        83.04026794433594,
        22.87830924987793,
        54.96739959716797
      ],
      "min": [
        57.36814880371094,
        18.404869079589844,
        43.402488708496094
      ],
      "type": "VEC3"
    },
    {
      "bufferView": 1,
      "byteOffset": 967536,
      "componentType": 5126,
      "count": 234,
      "max": [
        0.32159411907196045,
        1.0,
        0.9468790292739868
      ],
      "min": [
        -0.9468804001808167,
        -1.0,
        -0.9468789100646973
      ],
      "type": "VEC3"
    },
    {
      "bufferView": 0,
      "byteOffset": 224532,
      "componentType": 5125,
      "count": 642,
      "type": "SCALAR"
    },
    {
      "bufferView": 1,
      "byteOffset": 970344,
      "componentType": 5126,
      "count": 966,
      "max": [
        36.590938568115234,
        30.340709686279297,
        36.448699951171875
      ],
      "min": [
        19.859460830688477,
        4.750147819519043,
        31.771909713745117
      ],
      "type": "VEC3"
    },
    {
      "bufferView": 1,
      "byteOffset": 981936,
      "componentType": 5126,
      "count": 966,
      "max": [
        0.7104057669639587,
        1.0,
        1.0
      ],
      "min": [
        -0.9405478239059448,
        -1.0,
        -1.0
      ],
      "type": "VEC3"
    },
    {
      "bufferView": 0,
      "byteOffset": 227100,
      "componentType": 5125,
      "count": 1839,
      "type": "SCALAR"
    },
    {
      "bufferView": 1,
      "byteOffset": 993528,
      "componentType": 5126,
      "count": 134,
      "max": [
        33.60662841796875,
        30.510650634765625,
        34.45682907104492
      ],
      "min": [
        25.732580184936523,
        23.95022964477539,
        32.377811431884766
      ],
      "type": "VEC3"
    },
    {
      "bufferView": 1,
      "byteOffset": 995136,
      "componentType": 5126,
      "count": 134,
      "max": [
        0.7104060053825378,
        0.99144446849823,
        0.9914452433586121
      ],
      "min": [
        -0.2720543444156647,
        -0.9914445281028748,
        -1.0
      ],
      "type": "VEC3"
    },
    {
      "bufferView": 0,
      "byteOffset": 234456,
      "componentType": 5125,
      "count": 240,
      "type": "SCALAR"
    },
    {
      "bufferView": 1,
      "byteOffset": 996744,
      "componentType": 5126,
      "count": 19131,
      "max": [
        156.7430419921875,
        50.73875045776367,
        41.78910446166992
      ],
      "min": [
        27.446130752563477,
        -10.034090042114258,
        -0.588887095451355
      ],
      "type": "VEC3"
    },
    {
      "bufferView": 1,
      "byteOffset": 1226316,
      "componentType": 5126,
      "count": 19131,
      "max": [
        1.0,
        1.0,
        1.0
      ],
      "min": [
        -1.0,
        -1.0,
        -1.0
      ],
      "type": "VEC3"
    },
    {
      "bufferView": 0,
      "byteOffset": 235416,
      "componentType": 5125,
      "count": 46635,
      "type": "SCALAR"
    },
    {
      "bufferView": 1,
      "byteOffset": 1455888,
      "componentType": 5126,
      "count": 898,
      "max": [
        144.60963439941406,
        42.95956039428711,
        30.03246307373047
      ],
      "min": [
        30.606643676757813,
        -2.254897117614746,
        17.31605339050293
      ],
      "type": "VEC3"
    },
    {
      "bufferView": 1,
      "byteOffset": 1466664,
      "componentType": 5126,
      "count": 898,
      "max": [
        0.9405803680419922,
        0.9890671372413635,
        0.15484806895256042
      ],
      "min": [
        -0.9404971599578857,
        -0.9890615940093994,
        0.14746633172035217
      ],
      "type": "VEC3"
    },
    {
      "bufferView": 0,
      "byteOffset": 421956,
      "componentType": 5125,
      "count": 900,
      "type": "SCALAR"
    },
    {
      "bufferView": 1,
      "byteOffset": 1477440,
      "componentType": 5126,
      "count": 5006,
      "max": [
        144.67092895507813,
        43.03777313232422,
        33.536434173583984
      ],
      "min": [
        30.508480072021484,
        -2.333104133605957,
        16.94330406188965
      ],
      "type": "VEC3"
    },
    {
      "bufferView": 1,
      "byteOffset": 1537512,
      "componentType": 5126,
      "count": 5006,
      "max": [
        0.9406399726867676,
        0.9890908598899841,
        0.1548321694135666
      ],
      "min": [
        -0.9406124949455261,
        -0.989059567451477,
        0.057513605803251266
      ],
      "type": "VEC3"
    },
    {
      "bufferView": 0,
      "byteOffset": 425556,
      "componentType": 5125,
      "count": 5532,
      "type": "SCALAR"
    }
  ],
  "asset": {
    "extras": {
      "author": "mudroljub (https://sketchfab.com/mudroljub)",
      "license": "CC-BY-4.0 (http://creativecommons.org/licenses/by/4.0/)",
      "source": "https://sketchfab.com/3d-models/tank-a7v-3e2eb53d58fd4bd5b8269e7db7cc39f6",
      "title": "Tank A7V"
    },
    "generator": "Sketchfab-13.42.0",
    "version": "2.0"
  },
  "bufferViews": [
    {
      "buffer": 0,
      "byteLength": 447684,
      "name": "floatBufferViews",
      "target": 34963
    },
    {
      "buffer": 0,
      "byteLength": 1597584,
      "byteOffset": 447684,
      "byteStride": 12,
      "name": "floatBufferViews",
      "target": 34962
    }
  ],
  "buffers": [
    {
      "byteLength": 2045268,
      "uri": "scene.bin"
    }
  ],
  "materials": [
    {
      "name": "material_0",
      "pbrMetallicRoughness": {
        "baseColorFactor": [
          0.670588,
          0.690196,
          0.8,
          1.0
        ],
        "metallicFactor": 0.0,
        "roughnessFactor": 0.6
      }
    },
    {
      "name": "Color_E25",
      "pbrMetallicRoughness": {
        "baseColorFactor": [
          0.2,
          0.2,
          0.156863,
          1.0
        ],
        "metallicFactor": 0.0,
        "roughnessFactor": 0.6
      }
    },
    {
      "name": "Color_E21",
      "pbrMetallicRoughness": {
        "baseColorFactor": [
          0.2,
          0.2,
          0.0,
          1.0
        ],
        "metallicFactor": 0.0,
        "roughnessFactor": 0.6
      }
    },
    {
      "name": "Color_H21",
      "pbrMetallicRoughness": {
        "baseColorFactor": [
          0.0,
          0.2,
          0.2,
          1.0
        ],
        "metallicFactor": 0.0,
        "roughnessFactor": 0.6
      }
    },
    {
      "name": "Color_E17",
      "pbrMetallicRoughness": {
        "baseColorFactor": [
          0.4,
          0.4,
          0.0784314,
          1.0
        ],
        "metallicFactor": 0.0,
        "roughnessFactor": 0.6
      }
    },
    {
      "name": "Color_E16",
      "pbrMetallicRoughness": {
        "baseColorFactor": [
          0.4,
          0.4,
          0.0,
          1.0
        ],
        "metallicFactor": 0.0,
        "roughnessFactor": 0.6
      }
    },
    {
      "name": "Color_E22",
      "pbrMetallicRoughness": {
        "baseColorFactor": [
          0.2,
          0.2,
          0.0392157,
          1.0
        ],
        "metallicFactor": 0.0,
        "roughnessFactor": 0.6
      }
    },
    {
      "name": "Color_F21",
      "pbrMetallicRoughness": {
        "baseColorFactor": [
          0.0980392,
          0.2,
          0.0,
          1.0
        ],
        "metallicFactor": 0.0,
        "roughnessFactor": 0.6
      }
    },
    {
      "name": "Color_A25",
      "pbrMetallicRoughness": {
        "baseColorFactor": [
          0.2,
          0.156863,
          0.156863,
          1.0
        ],
        "metallicFactor": 0.0,
        "roughnessFactor": 0.6
      }
    },
    {
      "name": "Color_008",
      "pbrMetallicRoughness": {
        "baseColorFactor": [
          0.117647,
          0.117647,
          0.117647,
          1.0
        ],
        "metallicFactor": 0.0,
        "roughnessFactor": 0.6
      }
    },
    {
      "name": "Color_001",
      "pbrMetallicRoughness": {
        "baseColorFactor": [
          0.886274,
          0.886274,
          0.886274,
          1.0
        ],
        "metallicFactor": 0.0,
        "roughnessFactor": 0.6
      }
    }
  ],
  "meshes": [
    {
      "name": "Object_0",
      "primitives": [
        {
          "attributes": {
            "NORMAL": 1,
            "POSITION": 0
          },
          "indices": 2,
          "material": 0,
          "mode": 4
        }
      ]
    },
    {
      "name": "Object_1",
      "primitives": [
        {
          "attributes": {
            "NORMAL": 4,
            "POSITION": 3
          },
          "indices": 5,
          "material": 1,
          "mode": 4
        }
      ]
    },
    {
      "name": "Object_2",
      "primitives": [
        {
          "attributes": {
            "NORMAL": 7,
            "POSITION": 6
          },
          "indices": 8,
          "material": 2,
          "mode": 4
        }
      ]
    },
    {
      "name": "Object_3",
      "primitives": [
        {
          "attributes": {
            "NORMAL": 10,
            "POSITION": 9
          },
          "indices": 11,
          "material": 3,
          "mode": 4
        }
      ]
    },
    {
      "name": "Object_4",
      "primitives": [
        {
          "attributes": {
            "NORMAL": 13,
            "POSITION": 12
          },
          "indices": 14,
          "material": 4,
          "mode": 4
        }
      ]
    },
    {
      "name": "Object_5",
      "primitives": [
        {
          "attributes": {
            "NORMAL": 16,
            "POSITION": 15
          },
          "indices": 17,
          "material": 5,
          "mode": 4
        }
      ]
    },
    {
      "name": "Object_6",
      "primitives": [
        {
          "attributes": {
            "NORMAL": 19,
            "POSITION": 18
          },
          "indices": 20,
          "material": 6,
          "mode": 4
        }
      ]
    },
    {
      "name": "Object_7",
      "primitives": [
        {
          "attributes": {
            "NORMAL": 22,
            "POSITION": 21
          },
          "indices": 23,
          "material": 7,
          "mode": 4
        }
      ]
    },
    {
      "name": "Object_8",
      "primitives": [
        {
          "attributes": {
            "NORMAL": 25,
            "POSITION": 24
          },
          "indices": 26,
          "material": 8,
          "mode": 4
        }
      ]
    },
    {
      "name": "Object_9",
      "primitives": [
        {
          "attributes": {
            "NORMAL": 28,
            "POSITION": 27
          },
          "indices": 29,
          "material": 9,
          "mode": 4
        }
      ]
    },
    {
      "name": "Object_10",
      "primitives": [
        {
          "attributes": {
            "NORMAL": 31,
            "POSITION": 30
          },
          "indices": 32,
          "material": 10,
          "mode": 4
        }
      ]
    }
  ],
  "nodes": [
    {
      "children": [
        1
      ],
      "matrix": [
        1.0,
        0.0,
        0.0,
        0.0,
        0.0,
        2.220446049250313e-16,
        -1.0,
        0.0,
        0.0,
        1.0,
        2.220446049250313e-16,
        0.0,
        0.0,
        0.0,
        0.0,
        1.0
      ],
      "name": "Sketchfab_model"
    },
    {
      "children": [
        2
      ],
      "name": "root"
    },
    {
      "children": [
        3
      ],
      "matrix": [
        1.0,
        0.0,
        0.0,
        0.0,
        0.0,
        2.220446049250313e-16,
        1.0,
        0.0,
        0.0,
        -1.0,
        2.220446049250313e-16,
        0.0,
        0.0,
        0.0,
        0.0,
        1.0
      ],
      "name": "GLTF_SceneRootNode"
    },
    {
      "children": [
        4
      ],
      "matrix": [
        1.0,
        0.0,
        -0.0,
        0.0,
        -0.0,
        -1.685873969314855e-07,
        -0.9999999999999858,
        0.0,
        0.0,
        0.9999999999999858,
        -1.685873969314855e-07,
        0.0,
        0.0,
        0.0,
        0.0,
        1.0
      ],
      "name": "Sketchfab_model_24"
    },
    {
      "children": [
        5,
        7,
        9,
        11,
        13,
        15,
        17,
        19,
        21,
        23,
        25
      ],
      "name": "Collada visual scene group_23"
    },
    {
      "children": [
        6
      ],
      "name": "Material2.001_0"
    },
    {
      "mesh": 0,
      "name": "Object_6"
    },
    {
      "children": [
        8
      ],
      "name": "Material2.002_1"
    },
    {
      "mesh": 1,
      "name": "Object_8"
    },
    {
      "children": [
        10
      ],
      "name": "Material3.001_4"
    },
    {
      "mesh": 2,
      "name": "Object_10"
    },
    {
      "children": [
        12
      ],
      "name": "Material3.002_5"
    },
    {
      "mesh": 3,
      "name": "Object_12"
    },
    {
      "children": [
        14
      ],
      "name": "Material3.003_6"
    },
    {
      "mesh": 4,
      "name": "Object_14"
    },
    {
      "children": [
        16
      ],
      "name": "Material3.004_7"
    },
    {
      "mesh": 5,
      "name": "Object_16"
    },
    {
      "children": [
        18
      ],
      "name": "Material3.005_8"
    },
    {
      "mesh": 6,
      "name": "Object_18"
    },
    {
      "children": [
        20
      ],
      "name": "Material3.006_9"
    },
    {
      "mesh": 7,
      "name": "Object_20"
    },
    {
      "children": [
        22
      ],
      "name": "Material3.007_10"
    },
    {
      "mesh": 8,
      "name": "Object_22"
    },
    {
      "children": [
        24
      ],
      "name": "Material3.008_11"
    },
    {
      "mesh": 9,
      "name": "Object_24"
    },
    {
      "children": [
        26
      ],
      "name": "Material3.009_12"
    },
    {
      "mesh": 10,
      "name": "Object_26"
    }
  ],
  "scene": 0,
  "scenes": [
    {
      "name": "Sketchfab_Scene",
      "nodes": [
        0
      ]
    }
  ]
}
