{
  "accessors": [
    {
      "bufferView": 2,
      "componentType": 5126,
      "count": 7097,
      "max": [
        22.920711517333984,
        22.920711517333984,
        32.55974578857422
      ],
      "min": [
        -22.920734405517578,
        -22.920734405517578,
        -2.9999990463256836
      ],
      "type": "VEC3"
    },
    {
      "bufferView": 2,
      "byteOffset": 85164,
      "componentType": 5126,
      "count": 7097,
      "max": [
        1.0,
        1.0,
        1.0
      ],
      "min": [
        -1.0,
        -1.0,
        -1.0
      ],
      "type": "VEC3"
    },
    {
      "bufferView": 0,
      "componentType": 5125,
      "count": 20544,
      "type": "SCALAR"
    },
    {
      "bufferView": 2,
      "byteOffset": 170328,
      "componentType": 5126,
      "count": 7948,
      "max": [
        17.372407913208008,
        16.81902313232422,
        32.55974578857422
      ],
      "min": [
        -17.37240982055664,
        -16.85042953491211,
        -0.08521799743175507
      ],
      "type": "VEC3"
    },
    {
      "bufferView": 2,
      "byteOffset": 265704,
      "componentType": 5126,
      "count": 7948,
      "max": [
        1.0,
        1.0,
        1.0
      ],
      "min": [
        -1.0,
        -1.0,
        -1.0
      ],
      "type": "VEC3"
    },
    {
      "bufferView": 0,
      "byteOffset": 82176,
      "componentType": 5125,
      "count": 18288,
      "type": "SCALAR"
    },
    {
      "bufferView": 2,
      "byteOffset": 361080,
      "componentType": 5126,
      "count": 2208,
      "max": [
        14.483884811401367,
        14.482515335083008,
        14.723615646362305
      ],
      "min": [
        -13.101607322692871,
        -14.48251724243164,
        -0.08521799743175507
      ],
      "type": "VEC3"
    },
    {
      "bufferView": 2,
      "byteOffset": 387576,
      "componentType": 5126,
      "count": 2208,
      "max": [
        1.0,
        1.0,
        1.0
      ],
      "min": [
        -1.0,
        -1.0,
        -1.0
      ],
      "type": "VEC3"
    },
    {
      "bufferView": 0,
      "byteOffset": 155328,
      "componentType": 5125,
      "count": 5550,
      "type": "SCALAR"
    },
    {
      "bufferView": 2,
      "byteOffset": 414072,
      "componentType": 5126,
      "count": 8984,
      "max": [
        17.372407913208008,
        17.098758697509766,
        28.720930099487305
      ],
      "min": [
        -17.37240982055664,
        -17.31902313232422,
        -1.1132019758224487
      ],
      "type": "VEC3"
    },
    {
      "bufferView": 2,
      "byteOffset": 521880,
      "componentType": 5126,
      "count": 8984,
      "max": [
        1.0,
        1.0,
        1.0
      ],
      "min": [
        -1.0,
        -1.0,
        -1.0
      ],
      "type": "VEC3"
    },
    {
      "bufferView": 1,
      "componentType": 5126,
      "count": 8984,
      "max": [
        4.364439010620117,
        2.37631893157959
      ],
      "min": [
        0.0,
        -1.6910040378570557
      ],
      "type": "VEC2"
    },
    {
      "bufferView": 0,
      "byteOffset": 177528,
      "componentType": 5125,
      "count": 30408,
      "type": "SCALAR"
    }
  ],
  "asset": {
    "extras": {
      "author": "Karthik Naidu (https://sketchfab.com/Karthik_TS)",
      "license": "CC-BY-4.0 (http://creativecommons.org/licenses/by/4.0/)",
      "source": "https://sketchfab.com/3d-models/castle-modeling-done-with-spacedraw-mobile-b2cb767d75ae434aaa74f5b9c1ce1e5f",
      "title": "Castle modeling done with Spacedraw mobile"
    },
    "generator": "Sketchfab-12.67.0",
    "version": "2.0"
  },
  "bufferViews": [
    {
      "buffer": 0,
      "byteLength": 299160,
      "name": "floatBufferViews",
      "target": 34963
    },
    {
      "buffer": 0,
      "byteLength": 71872,
      "byteOffset": 299160,
      "byteStride": 8,
      "name": "floatBufferViews",
      "target": 34962
    },
    {
      "buffer": 0,
      "byteLength": 629688,
      "byteOffset": 371032,
      "byteStride": 12,
      "name": "floatBufferViews",
      "target": 34962
    }
  ],
  "buffers": [
    {
      "byteLength": 1000720,
      "uri": "scene.bin"
    }
  ],
  "materials": [
    {
      "doubleSided": true,
      "name": "standard",
      "pbrMetallicRoughness": {
        "metallicFactor": 0.0,
        "roughnessFactor": 0.6
      }
    }
  ],
  "meshes": [
    {
      "name": "Object_0",
      "primitives": [
        {
          "attributes": {
            "NORMAL": 1,
            "POSITION": 0
          },
          "indices": 2,
          "material": 0,
          "mode": 4
        }
      ]
    },
    {
      "name": "Object_1",
      "primitives": [
        {
          "attributes": {
            "NORMAL": 4,
            "POSITION": 3
          },
          "indices": 5,
          "material": 0,
          "mode": 4
        }
      ]
    },
    {
      "name": "Object_2",
      "primitives": [
        {
          "attributes": {
            "NORMAL": 7,
            "POSITION": 6
          },
          "indices": 8,
          "material": 0,
          "mode": 4
        }
      ]
    },
    {
      "name": "Object_3",
      "primitives": [
        {
          "attributes": {
            "NORMAL": 10,
            "POSITION": 9,
            "TEXCOORD_0": 11
          },
          "indices": 12,
          "material": 0,
          "mode": 4
        }
      ]
    }
  ],
  "nodes": [
    {
      "children": [
        1
      ],
      "matrix": [
        1.0,
        0.0,
        0.0,
        0.0,
        0.0,
        2.220446049250313e-16,
        -1.0,
        0.0,
        0.0,
        1.0,
        2.220446049250313e-16,
        0.0,
        0.0,
        0.0,
        0.0,
        1.0
      ],
      "name": "Sketchfab_model"
    },
    {
      "children": [
        2,
        3,
        4,
        5
      ],
      "name": "Castle.obj.cleaner.materialmerger.gles"
    },
    {
      "mesh": 0,
      "name": "Object_2"
    },
    {
      "mesh": 1,
      "name": "Object_3"
    },
    {
      "mesh": 2,
      "name": "Object_4"
    },
    {
      "mesh": 3,
      "name": "Object_5"
    }
  ],
  "scene": 0,
  "scenes": [
    {
      "name": "Sketchfab_Scene",
      "nodes": [
        0
      ]
    }
  ]
}
