{
  "accessors": [
    {
      "bufferView": 2,
      "componentType": 5126,
      "count": 1569,
      "max": [
        679.7360229492188,
        81.55277252197266,
        67.71653747558594
      ],
      "min": [
        505.7203063964844,
        0.0,
        0.0
      ],
      "type": "VEC3"
    },
    {
      "bufferView": 2,
      "byteOffset": 18828,
      "componentType": 5126,
      "count": 1569,
      "max": [
        1.0,
        1.0,
        1.0
      ],
      "min": [
        -1.0,
        -1.0,
        -1.0
      ],
      "type": "VEC3"
    },
    {
      "bufferView": 0,
      "componentType": 5125,
      "count": 3024,
      "type": "SCALAR"
    },
    {
      "bufferView": 2,
      "byteOffset": 37656,
      "componentType": 5126,
      "count": 186,
      "max": [
        679.7360229492188,
        78.048828125,
        67.71653747558594
      ],
      "min": [
        505.7203063964844,
        3.503937005996704,
        11.456689834594727
      ],
      "type": "VEC3"
    },
    {
      "bufferView": 2,
      "byteOffset": 39888,
      "componentType": 5126,
      "count": 186,
      "max": [
        1.0,
        1.0,
        1.0
      ],
      "min": [
        -2.2013769553274546e-16,
        -1.0,
        -1.0
      ],
      "type": "VEC3"
    },
    {
      "bufferView": 0,
      "byteOffset": 12096,
      "componentType": 5125,
      "count": 402,
      "type": "SCALAR"
    },
    {
      "bufferView": 2,
      "byteOffset": 42120,
      "componentType": 5126,
      "count": 6,
      "max": [
        538.8469848632813,
        40.776390075683594,
        38.33481979370117
      ],
      "min": [
        516.6626586914063,
        13.315759658813477,
        33.087318420410156
      ],
      "type": "VEC3"
    },
    {
      "bufferView": 2,
      "byteOffset": 42192,
      "componentType": 5126,
      "count": 6,
      "max": [
        -0.23018880188465118,
        1.584581989166756e-16,
        0.9731460213661194
      ],
      "min": [
        -0.23018880188465118,
        1.584581989166756e-16,
        0.9731460213661194
      ],
      "type": "VEC3"
    },
    {
      "bufferView": 1,
      "componentType": 5126,
      "count": 6,
      "max": [
        1.0,
        1.0
      ],
      "min": [
        0.0,
        0.0
      ],
      "type": "VEC2"
    },
    {
      "bufferView": 0,
      "byteOffset": 13704,
      "componentType": 5125,
      "count": 12,
      "type": "SCALAR"
    },
    {
      "bufferView": 2,
      "byteOffset": 42264,
      "componentType": 5126,
      "count": 284,
      "max": [
        671.0726928710938,
        81.55277252197266,
        46.22166061401367
      ],
      "min": [
        505.7203063964844,
        0.0,
        0.0
      ],
      "type": "VEC3"
    },
    {
      "bufferView": 2,
      "byteOffset": 45672,
      "componentType": 5126,
      "count": 284,
      "max": [
        0.3186795115470886,
        1.0,
        1.0
      ],
      "min": [
        -0.9422891736030579,
        -1.0,
        -1.0
      ],
      "type": "VEC3"
    },
    {
      "bufferView": 1,
      "byteOffset": 48,
      "componentType": 5126,
      "count": 284,
      "max": [
        54.06338882446289,
        60.82672119140625
      ],
      "min": [
        -53.92021179199219,
        -59.72011947631836
      ],
      "type": "VEC2"
    },
    {
      "bufferView": 0,
      "byteOffset": 13752,
      "componentType": 5125,
      "count": 606,
      "type": "SCALAR"
    },
    {
      "bufferView": 2,
      "byteOffset": 49080,
      "componentType": 5126,
      "count": 6,
      "max": [
        538.8469848632813,
        68.23700714111328,
        38.33481979370117
      ],
      "min": [
        516.6626586914063,
        40.776390075683594,
        33.087318420410156
      ],
      "type": "VEC3"
    },
    {
      "bufferView": 2,
      "byteOffset": 49152,
      "componentType": 5126,
      "count": 6,
      "max": [
        -0.23018880188465118,
        1.7364729960595812e-16,
        0.9731460213661194
      ],
      "min": [
        -0.23018880188465118,
        1.7364729960595812e-16,
        0.9731460213661194
      ],
      "type": "VEC3"
    },
    {
      "bufferView": 1,
      "byteOffset": 2320,
      "componentType": 5126,
      "count": 6,
      "max": [
        1.0,
        1.0
      ],
      "min": [
        0.0,
        0.0
      ],
      "type": "VEC2"
    },
    {
      "bufferView": 0,
      "byteOffset": 16176,
      "componentType": 5125,
      "count": 12,
      "type": "SCALAR"
    },
    {
      "bufferView": 2,
      "byteOffset": 49224,
      "componentType": 5126,
      "count": 1863,
      "max": [
        679.7360229492188,
        81.55277252197266,
        67.71653747558594
      ],
      "min": [
        505.7203063964844,
        0.0,
        0.0
      ],
      "type": "VEC3"
    },
    {
      "bufferView": 2,
      "byteOffset": 71580,
      "componentType": 5126,
      "count": 1863,
      "max": [
        1.0,
        1.0,
        1.0
      ],
      "min": [
        -1.0,
        -1.0,
        -1.0
      ],
      "type": "VEC3"
    },
    {
      "bufferView": 1,
      "byteOffset": 2368,
      "componentType": 5126,
      "count": 1863,
      "max": [
        0.9406042098999023,
        2.9634718894958496
      ],
      "min": [
        -3.917588949203491,
        -2.9780499935150146
      ],
      "type": "VEC2"
    },
    {
      "bufferView": 0,
      "byteOffset": 16224,
      "componentType": 5125,
      "count": 3702,
      "type": "SCALAR"
    },
    {
      "bufferView": 2,
      "byteOffset": 93936,
      "componentType": 5126,
      "count": 659,
      "max": [
        679.7360229492188,
        81.55277252197266,
        67.71653747558594
      ],
      "min": [
        505.7203063964844,
        0.0,
        0.0
      ],
      "type": "VEC3"
    },
    {
      "bufferView": 0,
      "byteOffset": 31032,
      "componentType": 5125,
      "count": 2102,
      "type": "SCALAR"
    }
  ],
  "asset": {
    "extras": {
      "author": "mudroljub (https://sketchfab.com/mudroljub)",
      "license": "CC-BY-4.0 (http://creativecommons.org/licenses/by/4.0/)",
      "source": "https://sketchfab.com/3d-models/panzer-i-9653826a196d4448a00d25c33a7f43a2",
      "title": "Panzer I"
    },
    "generator": "Sketchfab-13.42.0",
    "version": "2.0"
  },
  "bufferViews": [
    {
      "buffer": 0,
      "byteLength": 39440,
      "name": "floatBufferViews",
      "target": 34963
    },
    {
      "buffer": 0,
      "byteLength": 17272,
      "byteOffset": 39440,
      "byteStride": 8,
      "name": "floatBufferViews",
      "target": 34962
    },
    {
      "buffer": 0,
      "byteLength": 101844,
      "byteOffset": 56712,
      "byteStride": 12,
      "name": "floatBufferViews",
      "target": 34962
    }
  ],
  "buffers": [
    {
      "byteLength": 158556,
      "uri": "scene.bin"
    }
  ],
  "images": [
    {
      "uri": "textures/Pz.Kpfw.I_Ausf.A__LIMITED_to_500px__1_baseColor.jpeg"
    },
    {
      "uri": "textures/Pz.Kpfw.I_Ausf.A__LIMITED_to_500px__2_baseColor.jpeg"
    },
    {
      "uri": "textures/Pz.Kpfw.I_Ausf.A__LIMITED_to_500px_baseColor.jpeg"
    }
  ],
  "materials": [
    {
      "name": "edge_color000255",
      "pbrMetallicRoughness": {
        "metallicFactor": 0.0,
        "roughnessFactor": 0.6
      }
    },
    {
      "name": "material",
      "pbrMetallicRoughness": {
        "baseColorFactor": [
          0.694118,
          0.717647,
          0.745098,
          1.0
        ],
        "metallicFactor": 0.0,
        "roughnessFactor": 0.6
      }
    },
    {
      "name": "material_0",
      "pbrMetallicRoughness": {
        "metallicFactor": 0.0,
        "roughnessFactor": 0.6
      }
    },
    {
      "name": "Pz.Kpfw.I_Ausf.A__LIMITED_to_500px__1",
      "pbrMetallicRoughness": {
        "baseColorTexture": {
          "index": 0
        },
        "metallicFactor": 0.0,
        "roughnessFactor": 0.6
      }
    },
    {
      "name": "Pz.Kpfw.I_Ausf",
      "pbrMetallicRoughness": {
        "metallicFactor": 0.0,
        "roughnessFactor": 0.6
      }
    },
    {
      "name": "Pz.Kpfw.I_Ausf.A__LIMITED_to_500px__2",
      "pbrMetallicRoughness": {
        "baseColorTexture": {
          "index": 1
        },
        "metallicFactor": 0.0,
        "roughnessFactor": 0.6
      }
    },
    {
      "name": "Pz.Kpfw.I_Ausf.A__LIMITED_to_500px",
      "pbrMetallicRoughness": {
        "baseColorTexture": {
          "index": 2
        },
        "metallicFactor": 0.0,
        "roughnessFactor": 0.6
      }
    }
  ],
  "meshes": [
    {
      "name": "Material3",
      "primitives": [
        {
          "attributes": {
            "NORMAL": 1,
            "POSITION": 0
          },
          "indices": 2,
          "material": 1,
          "mode": 4
        }
      ]
    },
    {
      "name": "Material3",
      "primitives": [
        {
          "attributes": {
            "NORMAL": 4,
            "POSITION": 3
          },
          "indices": 5,
          "material": 2,
          "mode": 4
        }
      ]
    },
    {
      "name": "Material5",
      "primitives": [
        {
          "attributes": {
            "NORMAL": 7,
            "POSITION": 6,
            "TEXCOORD_0": 8
          },
          "indices": 9,
          "material": 3,
          "mode": 4
        }
      ]
    },
    {
      "name": "Material3",
      "primitives": [
        {
          "attributes": {
            "NORMAL": 11,
            "POSITION": 10,
            "TEXCOORD_0": 12
          },
          "indices": 13,
          "material": 4,
          "mode": 4
        }
      ]
    },
    {
      "name": "Material6",
      "primitives": [
        {
          "attributes": {
            "NORMAL": 15,
            "POSITION": 14,
            "TEXCOORD_0": 16
          },
          "indices": 17,
          "material": 5,
          "mode": 4
        }
      ]
    },
    {
      "name": "Material2",
      "primitives": [
        {
          "attributes": {
            "NORMAL": 19,
            "POSITION": 18,
            "TEXCOORD_0": 20
          },
          "indices": 21,
          "material": 6,
          "mode": 4
        }
      ]
    },
    {
      "name": "Material2",
      "primitives": [
        {
          "attributes": {
            "POSITION": 22
          },
          "indices": 23,
          "material": 0,
          "mode": 1
        }
      ]
    }
  ],
  "nodes": [
    {
      "children": [
        1
      ],
      "matrix": [
        1.0,
        0.0,
        0.0,
        0.0,
        0.0,
        2.220446049250313e-16,
        -1.0,
        0.0,
        0.0,
        1.0,
        2.220446049250313e-16,
        0.0,
        0.0,
        0.0,
        0.0,
        1.0
      ],
      "name": "Sketchfab_model"
    },
    {
      "children": [
        2,
        3,
        4,
        5,
        6,
        7,
        8,
        9
      ],
      "name": "Collada visual scene group"
    },
    {
      "mesh": 0,
      "name": "Material3"
    },
    {
      "mesh": 1,
      "name": "Material3"
    },
    {
      "mesh": 2,
      "name": "Material5"
    },
    {
      "mesh": 3,
      "name": "Material3"
    },
    {
      "mesh": 4,
      "name": "Material6"
    },
    {
      "mesh": 5,
      "name": "Material2"
    },
    {
      "mesh": 6,
      "name": "Material2"
    },
    {
      "children": [
        10
      ],
      "name": "SketchUp"
    },
    {
      "children": [
        11
      ],
      "matrix": [
        0.8870795,
        -0.4616166,
        0.0,
        0.0,
        0.158619,
        0.3048149,
        0.9391102,
        0.0,
        -0.4335088,
        -0.8330654,
        0.3436162,
        0.0,
        476.7464,
        -171.9094,
        112.6344,
        1.0
      ],
      "name": "skp_camera_Last_Saved_SketchUp_View"
    },
    {
      "name": "ID1"
    }
  ],
  "samplers": [
    {
      "magFilter": 9729,
      "minFilter": 9987,
      "wrapS": 10497,
      "wrapT": 10497
    }
  ],
  "scene": 0,
  "scenes": [
    {
      "name": "Sketchfab_Scene",
      "nodes": [
        0
      ]
    }
  ],
  "textures": [
    {
      "sampler": 0,
      "source": 0
    },
    {
      "sampler": 0,
      "source": 1
    },
    {
      "sampler": 0,
      "source": 2
    }
  ]
}
