{
  "accessors": [
    {
      "bufferView": 2,
      "componentType": 5126,
      "count": 194,
      "max": [
        329.5864562988281,
        -3659.7890625,
        2486.549072265625
      ],
      "min": [
        -1170.8446044921875,
        -5478.07373046875,
        1729.65869140625
      ],
      "type": "VEC3"
    },
    {
      "bufferView": 2,
      "byteOffset": 2328,
      "componentType": 5126,
      "count": 194,
      "max": [
        0.9727833867073059,
        0.041109003126621246,
        0.9999465346336365
      ],
      "min": [
        -0.9727833271026611,
        -0.2564810514450073,
        0.23106469213962555
      ],
      "type": "VEC3"
    },
    {
      "bufferView": 1,
      "componentType": 5126,
      "count": 194,
      "max": [
        295.36090087890625,
        357.92987060546875
      ],
      "min": [
        -295.3600158691406,
        -357.93011474609375
      ],
      "type": "VEC2"
    },
    {
      "bufferView": 0,
      "componentType": 5125,
      "count": 588,
      "type": "SCALAR"
    },
    {
      "bufferView": 2,
      "byteOffset": 4656,
      "componentType": 5126,
      "count": 728,
      "max": [
        322.7004089355469,
        -3688.82080078125,
        2486.549072265625
      ],
      "min": [
        -1163.95849609375,
        -7088.88037109375,
        1633.041748046875
      ],
      "type": "VEC3"
    },
    {
      "bufferView": 2,
      "byteOffset": 13392,
      "componentType": 5126,
      "count": 728,
      "max": [
        0.9667867422103882,
        0.49212267994880676,
        0.97239089012146
      ],
      "min": [
        -0.9667866826057434,
        -0.23724351823329926,
        -0.9291518926620483
      ],
      "type": "VEC3"
    },
    {
      "bufferView": 1,
      "byteOffset": 1552,
      "componentType": 5126,
      "count": 728,
      "max": [
        1.0,
        0.8422038555145264
      ],
      "min": [
        2.9802322387695313e-08,
        -5.960464477539063e-08
      ],
      "type": "VEC2"
    },
    {
      "bufferView": 0,
      "byteOffset": 2352,
      "componentType": 5125,
      "count": 744,
      "type": "SCALAR"
    },
    {
      "bufferView": 2,
      "byteOffset": 22128,
      "componentType": 5126,
      "count": 7882,
      "max": [
        6434.75341796875,
        10488.275390625,
        4994.083984375
      ],
      "min": [
        -7276.00537109375,
        -14390.173828125,
        -232.25186157226563
      ],
      "type": "VEC3"
    },
    {
      "bufferView": 2,
      "byteOffset": 116712,
      "componentType": 5126,
      "count": 7882,
      "max": [
        1.0,
        1.0,
        0.9999958872795105
      ],
      "min": [
        -1.0,
        -1.0,
        -1.0
      ],
      "type": "VEC3"
    },
    {
      "bufferView": 1,
      "byteOffset": 7376,
      "componentType": 5126,
      "count": 7882,
      "max": [
        12.911150932312012,
        9.34454345703125
      ],
      "min": [
        -4.293334484100342,
        -4.29332160949707
      ],
      "type": "VEC2"
    },
    {
      "bufferView": 0,
      "byteOffset": 5328,
      "componentType": 5125,
      "count": 16959,
      "type": "SCALAR"
    },
    {
      "bufferView": 2,
      "byteOffset": 211296,
      "componentType": 5126,
      "count": 3288,
      "max": [
        6434.75341796875,
        10488.275390625,
        4994.083984375
      ],
      "min": [
        -7276.00537109375,
        -14390.173828125,
        -176.53558349609375
      ],
      "type": "VEC3"
    },
    {
      "bufferView": 2,
      "byteOffset": 250752,
      "componentType": 5126,
      "count": 3288,
      "max": [
        1.0,
        1.0,
        1.0
      ],
      "min": [
        -1.0,
        -1.0,
        -1.0
      ],
      "type": "VEC3"
    },
    {
      "bufferView": 1,
      "byteOffset": 70432,
      "componentType": 5126,
      "count": 3288,
      "max": [
        12.911150932312012,
        12.901749610900879
      ],
      "min": [
        -4.293322563171387,
        -1.4505236148834229
      ],
      "type": "VEC2"
    },
    {
      "bufferView": 0,
      "byteOffset": 73164,
      "componentType": 5125,
      "count": 5196,
      "type": "SCALAR"
    },
    {
      "bufferView": 2,
      "byteOffset": 290208,
      "componentType": 5126,
      "count": 1213,
      "max": [
        497.8767395019531,
        910.914306640625,
        305.3493347167969
      ],
      "min": [
        -1339.1300048828125,
        522.681640625,
        -632.85400390625
      ],
      "type": "VEC3"
    },
    {
      "bufferView": 2,
      "byteOffset": 304764,
      "componentType": 5126,
      "count": 1213,
      "max": [
        1.0,
        0.989080011844635,
        0.9999803900718689
      ],
      "min": [
        -1.0,
        -0.9400270581245422,
        -0.9400390386581421
      ],
      "type": "VEC3"
    },
    {
      "bufferView": 1,
      "byteOffset": 96736,
      "componentType": 5126,
      "count": 1213,
      "max": [
        0.5271801948547363,
        1.0
      ],
      "min": [
        0.0,
        0.0
      ],
      "type": "VEC2"
    },
    {
      "bufferView": 0,
      "byteOffset": 93948,
      "componentType": 5125,
      "count": 2088,
      "type": "SCALAR"
    },
    {
      "bufferView": 2,
      "byteOffset": 319320,
      "componentType": 5126,
      "count": 1353,
      "max": [
        3367.906982421875,
        2628.044189453125,
        115.99112701416016
      ],
      "min": [
        -4209.16455078125,
        -9277.54296875,
        -1808.4627685546875
      ],
      "type": "VEC3"
    },
    {
      "bufferView": 2,
      "byteOffset": 335556,
      "componentType": 5126,
      "count": 1353,
      "max": [
        1.0,
        0.9997347593307495,
        0.9990492463111877
      ],
      "min": [
        -1.0,
        -0.9997345805168152,
        -0.9990492463111877
      ],
      "type": "VEC3"
    },
    {
      "bufferView": 1,
      "byteOffset": 106440,
      "componentType": 5126,
      "count": 1353,
      "max": [
        1579.30078125,
        243.28836059570313
      ],
      "min": [
        -1579.302001953125,
        -242.84878540039063
      ],
      "type": "VEC2"
    },
    {
      "bufferView": 0,
      "byteOffset": 102300,
      "componentType": 5125,
      "count": 2022,
      "type": "SCALAR"
    },
    {
      "bufferView": 2,
      "byteOffset": 351792,
      "componentType": 5126,
      "count": 439,
      "max": [
        3323.536376953125,
        2628.044189453125,
        115.99112701416016
      ],
      "min": [
        -4164.7939453125,
        -9277.54296875,
        -1808.4627685546875
      ],
      "type": "VEC3"
    },
    {
      "bufferView": 2,
      "byteOffset": 357060,
      "componentType": 5126,
      "count": 439,
      "max": [
        0.9999907612800598,
        0.6454710364341736,
        0.9699995517730713
      ],
      "min": [
        -0.9985055923461914,
        -0.8910485506057739,
        -0.9699992537498474
      ],
      "type": "VEC3"
    },
    {
      "bufferView": 1,
      "byteOffset": 117264,
      "componentType": 5126,
      "count": 439,
      "max": [
        1561.83203125,
        243.28836059570313
      ],
      "min": [
        -1561.833251953125,
        -242.54794311523438
      ],
      "type": "VEC2"
    },
    {
      "bufferView": 0,
      "byteOffset": 110388,
      "componentType": 5125,
      "count": 714,
      "type": "SCALAR"
    },
    {
      "bufferView": 2,
      "byteOffset": 362328,
      "componentType": 5126,
      "count": 841,
      "max": [
        476.6658630371094,
        11047.13671875,
        1015.5816650390625
      ],
      "min": [
        -1306.8978271484375,
        9929.42578125,
        187.41763305664063
      ],
      "type": "VEC3"
    },
    {
      "bufferView": 2,
      "byteOffset": 372420,
      "componentType": 5126,
      "count": 841,
      "max": [
        0.987688422203064,
        1.0,
        0.987688422203064
      ],
      "min": [
        -1.0,
        -1.0,
        -0.9876884818077087
      ],
      "type": "VEC3"
    },
    {
      "bufferView": 1,
      "byteOffset": 120776,
      "componentType": 5126,
      "count": 841,
      "max": [
        0.9910573959350586,
        0.5
      ],
      "min": [
        0.0,
        0.0
      ],
      "type": "VEC2"
    },
    {
      "bufferView": 0,
      "byteOffset": 113244,
      "componentType": 5125,
      "count": 960,
      "type": "SCALAR"
    },
    {
      "bufferView": 2,
      "byteOffset": 382512,
      "componentType": 5126,
      "count": 1088,
      "max": [
        249.92221069335938,
        7504.74609375,
        -58.895233154296875
      ],
      "min": [
        -1091.1990966796875,
        -5562.15380859375,
        -1400.5892333984375
      ],
      "type": "VEC3"
    },
    {
      "bufferView": 2,
      "byteOffset": 395568,
      "componentType": 5126,
      "count": 1088,
      "max": [
        1.0,
        1.0,
        1.0
      ],
      "min": [
        -1.0,
        -1.0,
        -1.0
      ],
      "type": "VEC3"
    },
    {
      "bufferView": 1,
      "byteOffset": 127504,
      "componentType": 5126,
      "count": 1088,
      "max": [
        0.6724396347999573,
        1301.0906982421875
      ],
      "min": [
        -164.04176330566406,
        -0.18824124336242676
      ],
      "type": "VEC2"
    },
    {
      "bufferView": 0,
      "byteOffset": 117084,
      "componentType": 5125,
      "count": 2088,
      "type": "SCALAR"
    },
    {
      "bufferView": 2,
      "byteOffset": 408624,
      "componentType": 5126,
      "count": 142,
      "max": [
        -313.4232177734375,
        -6598.50732421875,
        -1308.24755859375
      ],
      "min": [
        -527.8388061523438,
        -7446.00537109375,
        -2155.745361328125
      ],
      "type": "VEC3"
    },
    {
      "bufferView": 2,
      "byteOffset": 410328,
      "componentType": 5126,
      "count": 142,
      "max": [
        1.0,
        0.971574068069458,
        0.9715738892555237
      ],
      "min": [
        -1.0,
        -0.975443959236145,
        -0.9715744853019714
      ],
      "type": "VEC3"
    },
    {
      "bufferView": 1,
      "byteOffset": 136208,
      "componentType": 5126,
      "count": 142,
      "max": [
        1.0,
        1.0
      ],
      "min": [
        2.9802322387695313e-08,
        0.0
      ],
      "type": "VEC2"
    },
    {
      "bufferView": 0,
      "byteOffset": 125436,
      "componentType": 5125,
      "count": 600,
      "type": "SCALAR"
    },
    {
      "bufferView": 2,
      "byteOffset": 412032,
      "componentType": 5126,
      "count": 459,
      "max": [
        -169.1708221435547,
        -6775.06787109375,
        466.4075622558594
      ],
      "min": [
        -672.0911865234375,
        -7810.72021484375,
        -1785.9940185546875
      ],
      "type": "VEC3"
    },
    {
      "bufferView": 2,
      "byteOffset": 417540,
      "componentType": 5126,
      "count": 459,
      "max": [
        1.0,
        1.0,
        1.0
      ],
      "min": [
        -1.0,
        -1.0,
        -1.0
      ],
      "type": "VEC3"
    },
    {
      "bufferView": 1,
      "byteOffset": 137344,
      "componentType": 5126,
      "count": 459,
      "max": [
        99.00000762939453,
        197.282958984375
      ],
      "min": [
        -99.00013732910156,
        -210.45455932617188
      ],
      "type": "VEC2"
    },
    {
      "bufferView": 0,
      "byteOffset": 127836,
      "componentType": 5125,
      "count": 1092,
      "type": "SCALAR"
    },
    {
      "bufferView": 2,
      "byteOffset": 423048,
      "componentType": 5126,
      "count": 624,
      "max": [
        2804.648681640625,
        2603.4423828125,
        300.37994384765625
      ],
      "min": [
        -3645.74072265625,
        1758.8172607421875,
        -1633.5906982421875
      ],
      "type": "VEC3"
    },
    {
      "bufferView": 2,
      "byteOffset": 430536,
      "componentType": 5126,
      "count": 624,
      "max": [
        1.0,
        1.0,
        1.0
      ],
      "min": [
        -1.0,
        -1.0,
        -1.0
      ],
      "type": "VEC3"
    },
    {
      "bufferView": 1,
      "byteOffset": 141016,
      "componentType": 5126,
      "count": 624,
      "max": [
        303.26666259765625,
        203.49449157714844
      ],
      "min": [
        -303.2667236328125,
        -166.02378845214844
      ],
      "type": "VEC2"
    },
    {
      "bufferView": 0,
      "byteOffset": 132204,
      "componentType": 5125,
      "count": 1488,
      "type": "SCALAR"
    },
    {
      "bufferView": 2,
      "byteOffset": 438024,
      "componentType": 5126,
      "count": 284,
      "max": [
        2987.03076171875,
        2518.0498046875,
        -1020.54296875
      ],
      "min": [
        -3830.19873046875,
        1383.57177734375,
        -2155.016845703125
      ],
      "type": "VEC3"
    },
    {
      "bufferView": 2,
      "byteOffset": 441432,
      "componentType": 5126,
      "count": 284,
      "max": [
        1.0,
        0.9715747237205505,
        0.9715745449066162
      ],
      "min": [
        -1.0,
        -0.9754453301429749,
        -0.9715745449066162
      ],
      "type": "VEC3"
    },
    {
      "bufferView": 1,
      "byteOffset": 146008,
      "componentType": 5126,
      "count": 284,
      "max": [
        1.0000001192092896,
        1.0
      ],
      "min": [
        0.0,
        -3.814697265625e-06
      ],
      "type": "VEC2"
    },
    {
      "bufferView": 0,
      "byteOffset": 138156,
      "componentType": 5125,
      "count": 1200,
      "type": "SCALAR"
    }
  ],
  "asset": {
    "extras": {
      "author": "mudroljub (https://sketchfab.com/mudroljub)",
      "license": "CC-BY-4.0 (http://creativecommons.org/licenses/by/4.0/)",
      "source": "https://sketchfab.com/3d-models/f5-lowpoly-9642d3345ce14d918aaf0bf3af526bc4",
      "title": "F5 lowpoly"
    },
    "generator": "Sketchfab-13.42.0",
    "version": "2.0"
  },
  "bufferViews": [
    {
      "buffer": 0,
      "byteLength": 142956,
      "name": "floatBufferViews",
      "target": 34963
    },
    {
      "buffer": 0,
      "byteLength": 148280,
      "byteOffset": 142956,
      "byteStride": 8,
      "name": "floatBufferViews",
      "target": 34962
    },
    {
      "buffer": 0,
      "byteLength": 444840,
      "byteOffset": 291236,
      "byteStride": 12,
      "name": "floatBufferViews",
      "target": 34962
    }
  ],
  "buffers": [
    {
      "byteLength": 736076,
      "uri": "scene.bin"
    }
  ],
  "images": [
    {
      "uri": "textures/f5-chr1_baseColor.jpeg"
    }
  ],
  "materials": [
    {
      "doubleSided": true,
      "name": "f5-fuse",
      "pbrMetallicRoughness": {
        "baseColorFactor": [
          0.796078,
          0.823529,
          0.854902,
          1.0
        ],
        "metallicFactor": 0.0,
        "roughnessFactor": 0.6
      }
    },
    {
      "doubleSided": true,
      "name": "f5-chr1",
      "pbrMetallicRoughness": {
        "baseColorTexture": {
          "index": 0
        },
        "metallicFactor": 0.0,
        "roughnessFactor": 0.6
      }
    },
    {
      "doubleSided": true,
      "name": "f5-coope",
      "pbrMetallicRoughness": {
        "baseColorTexture": {
          "index": 0
        },
        "metallicFactor": 0.0,
        "roughnessFactor": 0.6
      }
    },
    {
      "doubleSided": true,
      "name": "f5-lblue",
      "pbrMetallicRoughness": {
        "baseColorFactor": [
          0.772549,
          0.819608,
          0.882353,
          1.0
        ],
        "metallicFactor": 0.0,
        "roughnessFactor": 0.6
      }
    },
    {
      "doubleSided": true,
      "name": "f5-wht1",
      "pbrMetallicRoughness": {
        "metallicFactor": 0.0,
        "roughnessFactor": 0.6
      }
    },
    {
      "doubleSided": true,
      "name": "f5-engin",
      "pbrMetallicRoughness": {
        "baseColorTexture": {
          "index": 0
        },
        "metallicFactor": 0.0,
        "roughnessFactor": 0.6
      }
    },
    {
      "alphaMode": "BLEND",
      "doubleSided": true,
      "name": "f5-gls",
      "pbrMetallicRoughness": {
        "baseColorFactor": [
          1.0,
          1.0,
          1.0,
          0.5
        ],
        "baseColorTexture": {
          "index": 0
        },
        "metallicFactor": 0.0,
        "roughnessFactor": 0.6
      }
    },
    {
      "doubleSided": true,
      "name": "f5-lblue1",
      "pbrMetallicRoughness": {
        "baseColorTexture": {
          "index": 0
        },
        "metallicFactor": 0.0,
        "roughnessFactor": 0.6
      }
    },
    {
      "doubleSided": true,
      "name": "f5-whl1",
      "pbrMetallicRoughness": {
        "baseColorFactor": [
          0.698039,
          0.698039,
          0.698039,
          1.0
        ],
        "metallicFactor": 0.0,
        "roughnessFactor": 0.6
      }
    },
    {
      "doubleSided": true,
      "name": "f5-engin1",
      "pbrMetallicRoughness": {
        "baseColorTexture": {
          "index": 0
        },
        "metallicFactor": 0.0,
        "roughnessFactor": 0.6
      }
    },
    {
      "doubleSided": true,
      "name": "f5-chr2",
      "pbrMetallicRoughness": {
        "baseColorTexture": {
          "index": 0
        },
        "metallicFactor": 0.0,
        "roughnessFactor": 0.6
      }
    },
    {
      "doubleSided": true,
      "name": "f5-whl2",
      "pbrMetallicRoughness": {
        "baseColorFactor": [
          0.698039,
          0.698039,
          0.698039,
          1.0
        ],
        "metallicFactor": 0.0,
        "roughnessFactor": 0.6
      }
    }
  ],
  "meshes": [
    {
      "name": "Object_0",
      "primitives": [
        {
          "attributes": {
            "NORMAL": 1,
            "POSITION": 0,
            "TEXCOORD_0": 2
          },
          "indices": 3,
          "material": 2,
          "mode": 4
        }
      ]
    },
    {
      "name": "Object_1",
      "primitives": [
        {
          "attributes": {
            "NORMAL": 5,
            "POSITION": 4,
            "TEXCOORD_0": 6
          },
          "indices": 7,
          "material": 6,
          "mode": 4
        }
      ]
    },
    {
      "name": "Object_2",
      "primitives": [
        {
          "attributes": {
            "NORMAL": 9,
            "POSITION": 8,
            "TEXCOORD_0": 10
          },
          "indices": 11,
          "material": 0,
          "mode": 4
        }
      ]
    },
    {
      "name": "Object_3",
      "primitives": [
        {
          "attributes": {
            "NORMAL": 13,
            "POSITION": 12,
            "TEXCOORD_0": 14
          },
          "indices": 15,
          "material": 0,
          "mode": 4
        }
      ]
    },
    {
      "name": "Object_4",
      "primitives": [
        {
          "attributes": {
            "NORMAL": 17,
            "POSITION": 16,
            "TEXCOORD_0": 18
          },
          "indices": 19,
          "material": 1,
          "mode": 4
        }
      ]
    },
    {
      "name": "Object_5",
      "primitives": [
        {
          "attributes": {
            "NORMAL": 21,
            "POSITION": 20,
            "TEXCOORD_0": 22
          },
          "indices": 23,
          "material": 3,
          "mode": 4
        }
      ]
    },
    {
      "name": "Object_6",
      "primitives": [
        {
          "attributes": {
            "NORMAL": 25,
            "POSITION": 24,
            "TEXCOORD_0": 26
          },
          "indices": 27,
          "material": 4,
          "mode": 4
        }
      ]
    },
    {
      "name": "Object_7",
      "primitives": [
        {
          "attributes": {
            "NORMAL": 29,
            "POSITION": 28,
            "TEXCOORD_0": 30
          },
          "indices": 31,
          "material": 5,
          "mode": 4
        }
      ]
    },
    {
      "name": "Object_8",
      "primitives": [
        {
          "attributes": {
            "NORMAL": 33,
            "POSITION": 32,
            "TEXCOORD_0": 34
          },
          "indices": 35,
          "material": 7,
          "mode": 4
        }
      ]
    },
    {
      "name": "Object_9",
      "primitives": [
        {
          "attributes": {
            "NORMAL": 37,
            "POSITION": 36,
            "TEXCOORD_0": 38
          },
          "indices": 39,
          "material": 8,
          "mode": 4
        }
      ]
    },
    {
      "name": "Object_10",
      "primitives": [
        {
          "attributes": {
            "NORMAL": 41,
            "POSITION": 40,
            "TEXCOORD_0": 42
          },
          "indices": 43,
          "material": 9,
          "mode": 4
        }
      ]
    },
    {
      "name": "Object_11",
      "primitives": [
        {
          "attributes": {
            "NORMAL": 45,
            "POSITION": 44,
            "TEXCOORD_0": 46
          },
          "indices": 47,
          "material": 10,
          "mode": 4
        }
      ]
    },
    {
      "name": "Object_12",
      "primitives": [
        {
          "attributes": {
            "NORMAL": 49,
            "POSITION": 48,
            "TEXCOORD_0": 50
          },
          "indices": 51,
          "material": 11,
          "mode": 4
        }
      ]
    }
  ],
  "nodes": [
    {
      "children": [
        1
      ],
      "matrix": [
        1.0,
        0.0,
        0.0,
        0.0,
        0.0,
        2.220446049250313e-16,
        -1.0,
        0.0,
        0.0,
        1.0,
        2.220446049250313e-16,
        0.0,
        0.0,
        0.0,
        0.0,
        1.0
      ],
      "name": "Sketchfab_model"
    },
    {
      "children": [
        2
      ],
      "matrix": [
        1.0,
        0.0,
        0.0,
        0.0,
        0.0,
        1.0,
        0.0,
        0.0,
        0.0,
        0.0,
        1.0,
        0.0,
        -420.6253967285156,
        3431.29931640625,
        206.38320922851563,
        1.0
      ],
      "name": "f5-lftw"
    },
    {
      "children": [
        3,
        4,
        5,
        6,
        7,
        8,
        9,
        10,
        11,
        12,
        13,
        14,
        15
      ],
      "matrix": [
        1.0,
        0.0,
        0.0,
        0.0,
        0.0,
        1.0,
        0.0,
        0.0,
        0.0,
        0.0,
        1.0,
        0.0,
        420.6253967285156,
        -3431.29931640625,
        -206.38320922851563,
        1.0
      ],
      "name": "3DSMeshMatrix"
    },
    {
      "mesh": 0,
      "name": "Object_3"
    },
    {
      "mesh": 1,
      "name": "Object_4"
    },
    {
      "mesh": 2,
      "name": "Object_5"
    },
    {
      "mesh": 3,
      "name": "Object_6"
    },
    {
      "mesh": 4,
      "name": "Object_7"
    },
    {
      "mesh": 5,
      "name": "Object_8"
    },
    {
      "mesh": 6,
      "name": "Object_9"
    },
    {
      "mesh": 7,
      "name": "Object_10"
    },
    {
      "mesh": 8,
      "name": "Object_11"
    },
    {
      "mesh": 9,
      "name": "Object_12"
    },
    {
      "mesh": 10,
      "name": "Object_13"
    },
    {
      "mesh": 11,
      "name": "Object_14"
    },
    {
      "mesh": 12,
      "name": "Object_15"
    }
  ],
  "samplers": [
    {
      "magFilter": 9729,
      "minFilter": 9987,
      "wrapS": 33071,
      "wrapT": 33071
    }
  ],
  "scene": 0,
  "scenes": [
    {
      "name": "Sketchfab_Scene",
      "nodes": [
        0
      ]
    }
  ],
  "textures": [
    {
      "sampler": 0,
      "source": 0
    }
  ]
}
