{
  "accessors": [
    {
      "bufferView": 1,
      "componentType": 5126,
      "count": 5120,
      "max": [
        339.9573059082031,
        67.59326171875,
        103.11940002441406
      ],
      "min": [
        212.8885955810547,
        -183.3424072265625,
        1.254207968711853
      ],
      "type": "VEC3"
    },
    {
      "bufferView": 1,
      "byteOffset": 61440,
      "componentType": 5126,
      "count": 5120,
      "max": [
        1.0,
        1.0,
        1.0
      ],
      "min": [
        -1.0,
        -1.0,
        -1.0
      ],
      "type": "VEC3"
    },
    {
      "bufferView": 0,
      "componentType": 5125,
      "count": 14823,
      "type": "SCALAR"
    },
    {
      "bufferView": 1,
      "byteOffset": 122880,
      "componentType": 5126,
      "count": 1420,
      "max": [
        322.2318115234375,
        68.31453704833984,
        98.0595703125
      ],
      "min": [
        230.61410522460938,
        -178.44329833984375,
        0.04036334156990051
      ],
      "type": "VEC3"
    },
    {
      "bufferView": 1,
      "byteOffset": 139920,
      "componentType": 5126,
      "count": 1420,
      "max": [
        1.0,
        1.0,
        1.0
      ],
      "min": [
        -1.0,
        -1.0,
        -1.0
      ],
      "type": "VEC3"
    },
    {
      "bufferView": 0,
      "byteOffset": 59292,
      "componentType": 5125,
      "count": 2640,
      "type": "SCALAR"
    },
    {
      "bufferView": 1,
      "byteOffset": 156960,
      "componentType": 5126,
      "count": 7997,
      "max": [
        345.9648132324219,
        68.31453704833984,
        103.11940002441406
      ],
      "min": [
        206.88099670410156,
        -183.3424072265625,
        0.04036334156990051
      ],
      "type": "VEC3"
    },
    {
      "bufferView": 1,
      "byteOffset": 252924,
      "componentType": 5126,
      "count": 7997,
      "max": [
        1.0,
        1.0,
        1.0
      ],
      "min": [
        -1.0,
        -1.0,
        -1.0
      ],
      "type": "VEC3"
    },
    {
      "bufferView": 0,
      "byteOffset": 69852,
      "componentType": 5125,
      "count": 21690,
      "type": "SCALAR"
    },
    {
      "bufferView": 1,
      "byteOffset": 348888,
      "componentType": 5126,
      "count": 2,
      "max": [
        230.61410522460938,
        37.778831481933594,
        95.70128631591797
      ],
      "min": [
        230.61410522460938,
        31.98542022705078,
        93.30158233642578
      ],
      "type": "VEC3"
    },
    {
      "bufferView": 0,
      "byteOffset": 156612,
      "componentType": 5125,
      "count": 2,
      "type": "SCALAR"
    },
    {
      "bufferView": 1,
      "byteOffset": 348912,
      "componentType": 5126,
      "count": 2,
      "max": [
        317.51611328125,
        8.462392807006836,
        90.6803207397461
      ],
      "min": [
        317.51611328125,
        -1.8707510232925415,
        86.40019226074219
      ],
      "type": "VEC3"
    },
    {
      "bufferView": 0,
      "byteOffset": 156620,
      "componentType": 5125,
      "count": 2,
      "type": "SCALAR"
    },
    {
      "bufferView": 1,
      "byteOffset": 348936,
      "componentType": 5126,
      "count": 3531,
      "max": [
        347.1695861816406,
        -31.383920669555664,
        95.30712127685547
      ],
      "min": [
        205.67630004882813,
        -69.01081848144531,
        59.49435043334961
      ],
      "type": "VEC3"
    },
    {
      "bufferView": 1,
      "byteOffset": 391308,
      "componentType": 5126,
      "count": 3531,
      "max": [
        1.0,
        1.0,
        0.9999982714653015
      ],
      "min": [
        -1.0,
        -1.0,
        -0.9999982714653015
      ],
      "type": "VEC3"
    },
    {
      "bufferView": 0,
      "byteOffset": 156628,
      "componentType": 5125,
      "count": 10365,
      "type": "SCALAR"
    },
    {
      "bufferView": 1,
      "byteOffset": 433680,
      "componentType": 5126,
      "count": 750,
      "max": [
        347.1695861816406,
        -32.4565315246582,
        62.973758697509766
      ],
      "min": [
        205.67630004882813,
        -63.000709533691406,
        60.911930084228516
      ],
      "type": "VEC3"
    },
    {
      "bufferView": 1,
      "byteOffset": 442680,
      "componentType": 5126,
      "count": 750,
      "max": [
        1.0,
        0.9999595880508423,
        0.9999595880508423
      ],
      "min": [
        -1.0,
        -0.9999595880508423,
        -0.9999595880508423
      ],
      "type": "VEC3"
    },
    {
      "bufferView": 0,
      "byteOffset": 198088,
      "componentType": 5125,
      "count": 2214,
      "type": "SCALAR"
    },
    {
      "bufferView": 1,
      "byteOffset": 451680,
      "componentType": 5126,
      "count": 4241,
      "max": [
        347.1695861816406,
        68.31453704833984,
        103.11940002441406
      ],
      "min": [
        205.67630004882813,
        -183.3424072265625,
        0.04036334156990051
      ],
      "type": "VEC3"
    },
    {
      "bufferView": 0,
      "byteOffset": 206944,
      "componentType": 5125,
      "count": 13606,
      "type": "SCALAR"
    }
  ],
  "asset": {
    "extras": {
      "author": "mudroljub (https://sketchfab.com/mudroljub)",
      "license": "CC-BY-4.0 (http://creativecommons.org/licenses/by/4.0/)",
      "source": "https://sketchfab.com/3d-models/zar-55764834382e429f939aa7b1beeb129d",
      "title": "Zar"
    },
    "generator": "Sketchfab-13.42.0",
    "version": "2.0"
  },
  "bufferViews": [
    {
      "buffer": 0,
      "byteLength": 261368,
      "name": "floatBufferViews",
      "target": 34963
    },
    {
      "buffer": 0,
      "byteLength": 502572,
      "byteOffset": 261368,
      "byteStride": 12,
      "name": "floatBufferViews",
      "target": 34962
    }
  ],
  "buffers": [
    {
      "byteLength": 763940,
      "uri": "scene.bin"
    }
  ],
  "materials": [
    {
      "name": "Color_E19",
      "pbrMetallicRoughness": {
        "baseColorFactor": [
          0.4,
          0.4,
          0.239216,
          1.0
        ],
        "metallicFactor": 0.0,
        "roughnessFactor": 0.6
      }
    },
    {
      "name": "Color_B20",
      "pbrMetallicRoughness": {
        "baseColorFactor": [
          0.4,
          0.337255,
          0.317647,
          1.0
        ],
        "metallicFactor": 0.0,
        "roughnessFactor": 0.6
      }
    },
    {
      "name": "material",
      "pbrMetallicRoughness": {
        "baseColorFactor": [
          0.670588,
          0.690196,
          0.8,
          1.0
        ],
        "metallicFactor": 0.0,
        "roughnessFactor": 0.6
      }
    },
    {
      "name": "edge_color000255",
      "pbrMetallicRoughness": {
        "metallicFactor": 0.0,
        "roughnessFactor": 0.6
      }
    },
    {
      "name": "edge_color1028681255",
      "pbrMetallicRoughness": {
        "metallicFactor": 0.0,
        "roughnessFactor": 0.6
      }
    },
    {
      "name": "edge_color10210261255",
      "pbrMetallicRoughness": {
        "metallicFactor": 0.0,
        "roughnessFactor": 0.6
      }
    },
    {
      "name": "Color_B25",
      "pbrMetallicRoughness": {
        "baseColorFactor": [
          0.2,
          0.168628,
          0.156863,
          1.0
        ],
        "metallicFactor": 0.0,
        "roughnessFactor": 0.6
      }
    },
    {
      "name": "material_0",
      "pbrMetallicRoughness": {
        "metallicFactor": 0.0,
        "roughnessFactor": 0.6
      }
    }
  ],
  "meshes": [
    {
      "name": "Material3",
      "primitives": [
        {
          "attributes": {
            "NORMAL": 1,
            "POSITION": 0
          },
          "indices": 2,
          "material": 0,
          "mode": 4
        }
      ]
    },
    {
      "name": "Material2",
      "primitives": [
        {
          "attributes": {
            "NORMAL": 4,
            "POSITION": 3
          },
          "indices": 5,
          "material": 1,
          "mode": 4
        }
      ]
    },
    {
      "name": "Material2",
      "primitives": [
        {
          "attributes": {
            "NORMAL": 7,
            "POSITION": 6
          },
          "indices": 8,
          "material": 2,
          "mode": 4
        }
      ]
    },
    {
      "name": "Material5",
      "primitives": [
        {
          "attributes": {
            "POSITION": 9
          },
          "indices": 10,
          "material": 4,
          "mode": 1
        }
      ]
    },
    {
      "name": "Material5",
      "primitives": [
        {
          "attributes": {
            "POSITION": 11
          },
          "indices": 12,
          "material": 5,
          "mode": 1
        }
      ]
    },
    {
      "name": "Material3",
      "primitives": [
        {
          "attributes": {
            "NORMAL": 14,
            "POSITION": 13
          },
          "indices": 15,
          "material": 6,
          "mode": 4
        }
      ]
    },
    {
      "name": "Material3",
      "primitives": [
        {
          "attributes": {
            "NORMAL": 17,
            "POSITION": 16
          },
          "indices": 18,
          "material": 7,
          "mode": 4
        }
      ]
    },
    {
      "name": "Material2",
      "primitives": [
        {
          "attributes": {
            "POSITION": 19
          },
          "indices": 20,
          "material": 3,
          "mode": 1
        }
      ]
    }
  ],
  "nodes": [
    {
      "children": [
        1
      ],
      "matrix": [
        1.0,
        0.0,
        0.0,
        0.0,
        0.0,
        2.220446049250313e-16,
        -1.0,
        0.0,
        0.0,
        1.0,
        2.220446049250313e-16,
        0.0,
        0.0,
        0.0,
        0.0,
        1.0
      ],
      "name": "Sketchfab_model"
    },
    {
      "children": [
        2,
        3,
        4,
        5,
        6,
        7,
        8,
        9,
        10
      ],
      "name": "Collada visual scene group"
    },
    {
      "mesh": 0,
      "name": "Material3"
    },
    {
      "mesh": 1,
      "name": "Material2"
    },
    {
      "mesh": 2,
      "name": "Material2"
    },
    {
      "mesh": 3,
      "name": "Material5"
    },
    {
      "mesh": 4,
      "name": "Material5"
    },
    {
      "mesh": 5,
      "name": "Material3"
    },
    {
      "mesh": 6,
      "name": "Material3"
    },
    {
      "mesh": 7,
      "name": "Material2"
    },
    {
      "children": [
        11
      ],
      "name": "SketchUp"
    },
    {
      "children": [
        12
      ],
      "matrix": [
        -0.4509599,
        -0.8925442,
        0.0,
        0.0,
        0.6686486,
        -0.3378362,
        0.6624015,
        0.0,
        -0.5912226,
        0.2987165,
        0.749149,
        0.0,
        112.5086,
        53.3188,
        233.5825,
        1.0
      ],
      "name": "skp_camera_Last_Saved_SketchUp_View"
    },
    {
      "name": "ID1"
    }
  ],
  "scene": 0,
  "scenes": [
    {
      "name": "Sketchfab_Scene",
      "nodes": [
        0
      ]
    }
  ]
}
