{
  "accessors": [
    {
      "bufferView": 1,
      "componentType": 5126,
      "count": 4,
      "max": [
        425.10589599609375,
        45.5,
        65.21756744384766
      ],
      "min": [
        417.23089599609375,
        45.5,
        61.15507125854492
      ],
      "type": "VEC3"
    },
    {
      "bufferView": 0,
      "componentType": 5125,
      "count": 4,
      "type": "SCALAR"
    },
    {
      "bufferView": 1,
      "byteOffset": 48,
      "componentType": 5126,
      "count": 1647,
      "max": [
        610.9254150390625,
        59.8125,
        109.0188980102539
      ],
      "min": [
        337.7851867675781,
        -59.8125,
        17.19024085998535
      ],
      "type": "VEC3"
    },
    {
      "bufferView": 1,
      "byteOffset": 19812,
      "componentType": 5126,
      "count": 1647,
      "max": [
        1.0,
        1.0,
        1.0
      ],
      "min": [
        -1.0,
        -1.0,
        -1.0
      ],
      "type": "VEC3"
    },
    {
      "bufferView": 0,
      "byteOffset": 16,
      "componentType": 5125,
      "count": 5811,
      "type": "SCALAR"
    },
    {
      "bufferView": 1,
      "byteOffset": 39576,
      "componentType": 5126,
      "count": 7844,
      "max": [
        610.9254150390625,
        59.8125,
        109.0188980102539
      ],
      "min": [
        352.5976867675781,
        -59.8125,
        1.240952968597412
      ],
      "type": "VEC3"
    },
    {
      "bufferView": 1,
      "byteOffset": 133704,
      "componentType": 5126,
      "count": 7844,
      "max": [
        1.0,
        1.0,
        1.0
      ],
      "min": [
        -1.0,
        -1.0,
        -1.0
      ],
      "type": "VEC3"
    },
    {
      "bufferView": 0,
      "byteOffset": 23260,
      "componentType": 5125,
      "count": 25905,
      "type": "SCALAR"
    },
    {
      "bufferView": 1,
      "byteOffset": 227832,
      "componentType": 5126,
      "count": 3852,
      "max": [
        598.8325805664063,
        52.4375,
        43.4979362487793
      ],
      "min": [
        367.0224914550781,
        -52.4375,
        4.537536144256592
      ],
      "type": "VEC3"
    },
    {
      "bufferView": 1,
      "byteOffset": 274056,
      "componentType": 5126,
      "count": 3852,
      "max": [
        1.0,
        1.0,
        1.0
      ],
      "min": [
        -1.0,
        -1.0,
        -1.0
      ],
      "type": "VEC3"
    },
    {
      "bufferView": 0,
      "byteOffset": 126880,
      "componentType": 5125,
      "count": 13080,
      "type": "SCALAR"
    },
    {
      "bufferView": 1,
      "byteOffset": 320280,
      "componentType": 5126,
      "count": 606,
      "max": [
        562.2374877929688,
        42.6875,
        90.24400329589844
      ],
      "min": [
        395.67498779296875,
        -42.6875,
        4.537536144256592
      ],
      "type": "VEC3"
    },
    {
      "bufferView": 1,
      "byteOffset": 327552,
      "componentType": 5126,
      "count": 606,
      "max": [
        1.0,
        1.0,
        1.0
      ],
      "min": [
        0.0,
        -1.0,
        -1.0
      ],
      "type": "VEC3"
    },
    {
      "bufferView": 0,
      "byteOffset": 179200,
      "componentType": 5125,
      "count": 1632,
      "type": "SCALAR"
    },
    {
      "bufferView": 1,
      "byteOffset": 334824,
      "componentType": 5126,
      "count": 1560,
      "max": [
        601.2017211914063,
        58.8125,
        65.21756744384766
      ],
      "min": [
        364.6460876464844,
        -58.8125,
        1.240952968597412
      ],
      "type": "VEC3"
    },
    {
      "bufferView": 1,
      "byteOffset": 353544,
      "componentType": 5126,
      "count": 1560,
      "max": [
        0.9957122802734375,
        1.0,
        1.0
      ],
      "min": [
        -1.0,
        -1.0,
        -1.0
      ],
      "type": "VEC3"
    },
    {
      "bufferView": 0,
      "byteOffset": 185728,
      "componentType": 5125,
      "count": 3834,
      "type": "SCALAR"
    },
    {
      "bufferView": 1,
      "byteOffset": 372264,
      "componentType": 5126,
      "count": 48,
      "max": [
        427.29339599609375,
        45.5,
        65.21756744384766
      ],
      "min": [
        417.23089599609375,
        -45.5,
        54.78007125854492
      ],
      "type": "VEC3"
    },
    {
      "bufferView": 1,
      "byteOffset": 372840,
      "componentType": 5126,
      "count": 48,
      "max": [
        0.0,
        1.0,
        0.0
      ],
      "min": [
        0.0,
        -1.0,
        0.0
      ],
      "type": "VEC3"
    },
    {
      "bufferView": 0,
      "byteOffset": 201064,
      "componentType": 5125,
      "count": 96,
      "type": "SCALAR"
    },
    {
      "bufferView": 1,
      "byteOffset": 373416,
      "componentType": 5126,
      "count": 688,
      "max": [
        601.2017211914063,
        58.8125,
        45.78114318847656
      ],
      "min": [
        364.6460876464844,
        -58.8125,
        1.240952968597412
      ],
      "type": "VEC3"
    },
    {
      "bufferView": 0,
      "byteOffset": 201448,
      "componentType": 5125,
      "count": 2064,
      "type": "SCALAR"
    },
    {
      "bufferView": 1,
      "byteOffset": 381672,
      "componentType": 5126,
      "count": 78,
      "max": [
        453.0794982910156,
        18.937501907348633,
        92.52423858642578
      ],
      "min": [
        445.55029296875,
        -18.9375,
        72.87271118164063
      ],
      "type": "VEC3"
    },
    {
      "bufferView": 1,
      "byteOffset": 382608,
      "componentType": 5126,
      "count": 78,
      "max": [
        -0.07971584796905518,
        0.6812108755111694,
        0.994579017162323
      ],
      "min": [
        -1.0,
        -0.6812108755111694,
        -0.9186623096466064
      ],
      "type": "VEC3"
    },
    {
      "bufferView": 0,
      "byteOffset": 209704,
      "componentType": 5125,
      "count": 318,
      "type": "SCALAR"
    },
    {
      "bufferView": 1,
      "byteOffset": 383544,
      "componentType": 5126,
      "count": 24,
      "max": [
        406.0351867675781,
        2.61208176612854,
        86.11723327636719
      ],
      "min": [
        406.0351867675781,
        -2.612069845199585,
        80.89308166503906
      ],
      "type": "VEC3"
    },
    {
      "bufferView": 1,
      "byteOffset": 383832,
      "componentType": 5126,
      "count": 24,
      "max": [
        -1.0,
        0.0,
        0.0
      ],
      "min": [
        -1.0,
        0.0,
        0.0
      ],
      "type": "VEC3"
    },
    {
      "bufferView": 0,
      "byteOffset": 210976,
      "componentType": 5125,
      "count": 66,
      "type": "SCALAR"
    },
    {
      "bufferView": 1,
      "byteOffset": 384120,
      "componentType": 5126,
      "count": 336,
      "max": [
        407.7199401855469,
        23.906028747558594,
        83.41646575927734
      ],
      "min": [
        384.7906494140625,
        6.1981940269470215,
        58.58143997192383
      ],
      "type": "VEC3"
    },
    {
      "bufferView": 1,
      "byteOffset": 388152,
      "componentType": 5126,
      "count": 336,
      "max": [
        1.0,
        1.0,
        1.0
      ],
      "min": [
        -1.0,
        -1.0,
        -1.0
      ],
      "type": "VEC3"
    },
    {
      "bufferView": 0,
      "byteOffset": 211240,
      "componentType": 5125,
      "count": 1152,
      "type": "SCALAR"
    },
    {
      "bufferView": 1,
      "byteOffset": 392184,
      "componentType": 5126,
      "count": 622,
      "max": [
        521.7811889648438,
        23.326980590820313,
        82.57491302490234
      ],
      "min": [
        384.046875,
        -49.236228942871094,
        55.418914794921875
      ],
      "type": "VEC3"
    },
    {
      "bufferView": 1,
      "byteOffset": 399648,
      "componentType": 5126,
      "count": 622,
      "max": [
        1.0,
        1.0,
        1.0
      ],
      "min": [
        -1.0,
        -1.0,
        -1.0
      ],
      "type": "VEC3"
    },
    {
      "bufferView": 0,
      "byteOffset": 215848,
      "componentType": 5125,
      "count": 1824,
      "type": "SCALAR"
    },
    {
      "bufferView": 1,
      "byteOffset": 407112,
      "componentType": 5126,
      "count": 6080,
      "max": [
        430.1601867675781,
        23.906028747558594,
        83.41646575927734
      ],
      "min": [
        387.2763366699219,
        6.1981940269470215,
        58.58143997192383
      ],
      "type": "VEC3"
    },
    {
      "bufferView": 0,
      "byteOffset": 223144,
      "componentType": 5125,
      "count": 13908,
      "type": "SCALAR"
    },
    {
      "bufferView": 1,
      "byteOffset": 480072,
      "componentType": 5126,
      "count": 96,
      "max": [
        407.7199401855469,
        23.906028747558594,
        83.41646575927734
      ],
      "min": [
        384.7906494140625,
        6.1981940269470215,
        58.58143997192383
      ],
      "type": "VEC3"
    },
    {
      "bufferView": 0,
      "byteOffset": 278776,
      "componentType": 5125,
      "count": 212,
      "type": "SCALAR"
    },
    {
      "bufferView": 1,
      "byteOffset": 481224,
      "componentType": 5126,
      "count": 12256,
      "max": [
        602.5661010742188,
        27.5,
        83.41646575927734
      ],
      "min": [
        387.2763366699219,
        -23.350000381469727,
        44.508419036865234
      ],
      "type": "VEC3"
    },
    {
      "bufferView": 1,
      "byteOffset": 628296,
      "componentType": 5126,
      "count": 12256,
      "max": [
        1.0,
        1.0,
        1.0
      ],
      "min": [
        -1.0,
        -1.0,
        -1.0
      ],
      "type": "VEC3"
    },
    {
      "bufferView": 0,
      "byteOffset": 279624,
      "componentType": 5125,
      "count": 42708,
      "type": "SCALAR"
    },
    {
      "bufferView": 1,
      "byteOffset": 775368,
      "componentType": 5126,
      "count": 15,
      "max": [
        490.6696472167969,
        -45.861228942871094,
        64.43203735351563
      ],
      "min": [
        476.35089111328125,
        -49.236228942871094,
        55.418914794921875
      ],
      "type": "VEC3"
    },
    {
      "bufferView": 0,
      "byteOffset": 450456,
      "componentType": 5125,
      "count": 26,
      "type": "SCALAR"
    },
    {
      "bufferView": 1,
      "byteOffset": 775548,
      "componentType": 5126,
      "count": 755,
      "max": [
        610.9254150390625,
        59.8125,
        109.0188980102539
      ],
      "min": [
        337.7851867675781,
        -59.8125,
        17.19024085998535
      ],
      "type": "VEC3"
    },
    {
      "bufferView": 0,
      "byteOffset": 450560,
      "componentType": 5125,
      "count": 2632,
      "type": "SCALAR"
    },
    {
      "bufferView": 1,
      "byteOffset": 784608,
      "componentType": 5126,
      "count": 3256,
      "max": [
        610.9254150390625,
        59.8125,
        92.52423858642578
      ],
      "min": [
        342.1157531738281,
        -59.8125,
        4.537536144256592
      ],
      "type": "VEC3"
    },
    {
      "bufferView": 0,
      "byteOffset": 461088,
      "componentType": 5125,
      "count": 8574,
      "type": "SCALAR"
    }
  ],
  "asset": {
    "extras": {
      "author": "mudroljub (https://sketchfab.com/mudroljub)",
      "license": "CC-BY-4.0 (http://creativecommons.org/licenses/by/4.0/)",
      "source": "https://sketchfab.com/3d-models/panzer-iv-panther-80c11fb157f9427986502f072e376b33",
      "title": "Panzer IV Panther"
    },
    "generator": "Sketchfab-13.42.0",
    "version": "2.0"
  },
  "bufferViews": [
    {
      "buffer": 0,
      "byteLength": 495384,
      "name": "floatBufferViews",
      "target": 34963
    },
    {
      "buffer": 0,
      "byteLength": 823680,
      "byteOffset": 495384,
      "byteStride": 12,
      "name": "floatBufferViews",
      "target": 34962
    }
  ],
  "buffers": [
    {
      "byteLength": 1319064,
      "uri": "scene.bin"
    }
  ],
  "materials": [
    {
      "name": "edge_color170152116255",
      "pbrMetallicRoughness": {
        "metallicFactor": 0.0,
        "roughnessFactor": 0.6
      }
    },
    {
      "name": "edge_color000255",
      "pbrMetallicRoughness": {
        "metallicFactor": 0.0,
        "roughnessFactor": 0.6
      }
    },
    {
      "name": "edge_color255255255255",
      "pbrMetallicRoughness": {
        "metallicFactor": 0.0,
        "roughnessFactor": 0.6
      }
    },
    {
      "name": "Beige_2",
      "pbrMetallicRoughness": {
        "baseColorFactor": [
          0.666667,
          0.596078,
          0.454902,
          1.0
        ],
        "metallicFactor": 0.0,
        "roughnessFactor": 0.6
      }
    },
    {
      "name": "material",
      "pbrMetallicRoughness": {
        "baseColorFactor": [
          0.670588,
          0.690196,
          0.8,
          1.0
        ],
        "metallicFactor": 0.0,
        "roughnessFactor": 0.6
      }
    },
    {
      "name": "LightGray",
      "pbrMetallicRoughness": {
        "baseColorFactor": [
          0.662745,
          0.662745,
          0.662745,
          1.0
        ],
        "metallicFactor": 0.0,
        "roughnessFactor": 0.6
      }
    },
    {
      "name": "material_0",
      "pbrMetallicRoughness": {
        "metallicFactor": 0.0,
        "roughnessFactor": 0.6
      }
    },
    {
      "name": "Charcoal",
      "pbrMetallicRoughness": {
        "baseColorFactor": [
          0.137255,
          0.137255,
          0.137255,
          1.0
        ],
        "metallicFactor": 0.0,
        "roughnessFactor": 0.6
      }
    },
    {
      "name": "Color_000",
      "pbrMetallicRoughness": {
        "metallicFactor": 0.0,
        "roughnessFactor": 0.6
      }
    },
    {
      "name": "edge_color353535255",
      "pbrMetallicRoughness": {
        "metallicFactor": 0.0,
        "roughnessFactor": 0.6
      }
    },
    {
      "name": "Color_007",
      "pbrMetallicRoughness": {
        "baseColorFactor": [
          0.227451,
          0.227451,
          0.227451,
          1.0
        ],
        "metallicFactor": 0.0,
        "roughnessFactor": 0.6
      }
    },
    {
      "name": "Burnt_Umber_1",
      "pbrMetallicRoughness": {
        "baseColorFactor": [
          0.027451,
          0.0117647,
          0.00784314,
          1.0
        ],
        "metallicFactor": 0.0,
        "roughnessFactor": 0.6
      }
    },
    {
      "name": "Color_005",
      "pbrMetallicRoughness": {
        "baseColorFactor": [
          0.447059,
          0.447059,
          0.447059,
          1.0
        ],
        "metallicFactor": 0.0,
        "roughnessFactor": 0.6
      }
    },
    {
      "name": "Color_004",
      "pbrMetallicRoughness": {
        "baseColorFactor": [
          0.556863,
          0.556863,
          0.556863,
          1.0
        ],
        "metallicFactor": 0.0,
        "roughnessFactor": 0.6
      }
    },
    {
      "name": "edge_color303030255",
      "pbrMetallicRoughness": {
        "metallicFactor": 0.0,
        "roughnessFactor": 0.6
      }
    },
    {
      "name": "edge_color114114114255",
      "pbrMetallicRoughness": {
        "metallicFactor": 0.0,
        "roughnessFactor": 0.6
      }
    },
    {
      "name": "Color_008",
      "pbrMetallicRoughness": {
        "baseColorFactor": [
          0.117647,
          0.117647,
          0.117647,
          1.0
        ],
        "metallicFactor": 0.0,
        "roughnessFactor": 0.6
      }
    },
    {
      "name": "edge_color142142142255",
      "pbrMetallicRoughness": {
        "metallicFactor": 0.0,
        "roughnessFactor": 0.6
      }
    }
  ],
  "meshes": [
    {
      "name": "Material5",
      "primitives": [
        {
          "attributes": {
            "POSITION": 0
          },
          "indices": 1,
          "material": 2,
          "mode": 1
        }
      ]
    },
    {
      "name": "Material2",
      "primitives": [
        {
          "attributes": {
            "NORMAL": 3,
            "POSITION": 2
          },
          "indices": 4,
          "material": 3,
          "mode": 4
        }
      ]
    },
    {
      "name": "Material2",
      "primitives": [
        {
          "attributes": {
            "NORMAL": 6,
            "POSITION": 5
          },
          "indices": 7,
          "material": 4,
          "mode": 4
        }
      ]
    },
    {
      "name": "Material3",
      "primitives": [
        {
          "attributes": {
            "NORMAL": 9,
            "POSITION": 8
          },
          "indices": 10,
          "material": 5,
          "mode": 4
        }
      ]
    },
    {
      "name": "Material3",
      "primitives": [
        {
          "attributes": {
            "NORMAL": 12,
            "POSITION": 11
          },
          "indices": 13,
          "material": 6,
          "mode": 4
        }
      ]
    },
    {
      "name": "Material3",
      "primitives": [
        {
          "attributes": {
            "NORMAL": 15,
            "POSITION": 14
          },
          "indices": 16,
          "material": 7,
          "mode": 4
        }
      ]
    },
    {
      "name": "Material3",
      "primitives": [
        {
          "attributes": {
            "NORMAL": 18,
            "POSITION": 17
          },
          "indices": 19,
          "material": 8,
          "mode": 4
        }
      ]
    },
    {
      "name": "Material4",
      "primitives": [
        {
          "attributes": {
            "POSITION": 20
          },
          "indices": 21,
          "material": 9,
          "mode": 1
        }
      ]
    },
    {
      "name": "Material3",
      "primitives": [
        {
          "attributes": {
            "NORMAL": 23,
            "POSITION": 22
          },
          "indices": 24,
          "material": 10,
          "mode": 4
        }
      ]
    },
    {
      "name": "Material3",
      "primitives": [
        {
          "attributes": {
            "NORMAL": 26,
            "POSITION": 25
          },
          "indices": 27,
          "material": 11,
          "mode": 4
        }
      ]
    },
    {
      "name": "Material3",
      "primitives": [
        {
          "attributes": {
            "NORMAL": 29,
            "POSITION": 28
          },
          "indices": 30,
          "material": 12,
          "mode": 4
        }
      ]
    },
    {
      "name": "Material3",
      "primitives": [
        {
          "attributes": {
            "NORMAL": 32,
            "POSITION": 31
          },
          "indices": 33,
          "material": 13,
          "mode": 4
        }
      ]
    },
    {
      "name": "Material5",
      "primitives": [
        {
          "attributes": {
            "POSITION": 34
          },
          "indices": 35,
          "material": 14,
          "mode": 1
        }
      ]
    },
    {
      "name": "Material4",
      "primitives": [
        {
          "attributes": {
            "POSITION": 36
          },
          "indices": 37,
          "material": 15,
          "mode": 1
        }
      ]
    },
    {
      "name": "Material2",
      "primitives": [
        {
          "attributes": {
            "NORMAL": 39,
            "POSITION": 38
          },
          "indices": 40,
          "material": 16,
          "mode": 4
        }
      ]
    },
    {
      "name": "Material5",
      "primitives": [
        {
          "attributes": {
            "POSITION": 41
          },
          "indices": 42,
          "material": 17,
          "mode": 1
        }
      ]
    },
    {
      "name": "Material2",
      "primitives": [
        {
          "attributes": {
            "POSITION": 43
          },
          "indices": 44,
          "material": 0,
          "mode": 1
        }
      ]
    },
    {
      "name": "Material2",
      "primitives": [
        {
          "attributes": {
            "POSITION": 45
          },
          "indices": 46,
          "material": 1,
          "mode": 1
        }
      ]
    }
  ],
  "nodes": [
    {
      "children": [
        1
      ],
      "matrix": [
        1.0,
        0.0,
        0.0,
        0.0,
        0.0,
        2.220446049250313e-16,
        -1.0,
        0.0,
        0.0,
        1.0,
        2.220446049250313e-16,
        0.0,
        0.0,
        0.0,
        0.0,
        1.0
      ],
      "name": "Sketchfab_model"
    },
    {
      "children": [
        2,
        3,
        4,
        5,
        6,
        7,
        8,
        9,
        10,
        11,
        12,
        13,
        14,
        15,
        16,
        17,
        18,
        19,
        20
      ],
      "name": "Collada visual scene group"
    },
    {
      "mesh": 0,
      "name": "Material5"
    },
    {
      "mesh": 1,
      "name": "Material2"
    },
    {
      "mesh": 2,
      "name": "Material2"
    },
    {
      "mesh": 3,
      "name": "Material3"
    },
    {
      "mesh": 4,
      "name": "Material3"
    },
    {
      "mesh": 5,
      "name": "Material3"
    },
    {
      "mesh": 6,
      "name": "Material3"
    },
    {
      "mesh": 7,
      "name": "Material4"
    },
    {
      "mesh": 8,
      "name": "Material3"
    },
    {
      "mesh": 9,
      "name": "Material3"
    },
    {
      "mesh": 10,
      "name": "Material3"
    },
    {
      "mesh": 11,
      "name": "Material3"
    },
    {
      "mesh": 12,
      "name": "Material5"
    },
    {
      "mesh": 13,
      "name": "Material4"
    },
    {
      "mesh": 14,
      "name": "Material2"
    },
    {
      "mesh": 15,
      "name": "Material5"
    },
    {
      "mesh": 16,
      "name": "Material2"
    },
    {
      "mesh": 17,
      "name": "Material2"
    },
    {
      "children": [
        21
      ],
      "name": "SketchUp"
    },
    {
      "children": [
        22
      ],
      "matrix": [
        0.6498337,
        -0.7600765,
        1.387779e-16,
        0.0,
        0.5475516,
        0.4681338,
        0.693569,
        0.0,
        -0.5271655,
        -0.4507045,
        0.7203902,
        0.0,
        296.6068,
        -183.5948,
        288.3743,
        1.0
      ],
      "name": "skp_camera_Last_Saved_SketchUp_View"
    },
    {
      "name": "ID1"
    }
  ],
  "scene": 0,
  "scenes": [
    {
      "name": "Sketchfab_Scene",
      "nodes": [
        0
      ]
    }
  ]
}
