# Blender v2.79 (sub 0) OBJ File: ''
# www.blender.org
mtllib hummerTire.mtl
o Object_humvee_desert_tire_diffuse.jpg
v -0.278293 -0.551599 -0.537529
v -0.278293 -0.718828 -0.287185
v -0.278293 -0.777609 0.007993
v -0.278293 0.765463 0.007993
v -0.278293 0.539454 -0.537531
v -0.278293 0.706823 -0.287184
v 0.227096 0.146356 -0.359771
v 0.227096 0.275441 -0.273520
v 0.227096 0.361691 -0.144292
v 0.227096 0.361691 0.160423
v 0.227096 0.275441 0.289510
v 0.227096 0.146356 0.375759
v 0.227096 -0.158361 0.375759
v 0.227096 -0.287589 0.289510
v 0.227096 -0.373836 0.160423
v 0.227096 -0.373836 -0.144292
v 0.227096 -0.404153 0.007993
v -0.278293 0.706823 0.303314
v 0.303810 0.706823 0.303314
v -0.278292 0.539454 0.553519
v 0.303810 0.539454 0.553519
v 0.303810 0.289249 0.720892
v -0.278292 -0.006073 0.779529
v -0.278292 -0.301253 0.720892
v 0.303810 -0.301253 0.720892
v -0.278292 -0.551599 0.553519
v -0.278293 -0.718828 0.303314
v 0.303810 -0.777609 0.007993
v -0.278293 0.289249 -0.704762
v -0.278293 -0.006073 -0.763540
v -0.278293 -0.301253 -0.704762
v -0.278292 0.289249 0.720892
v 0.227096 -0.287589 -0.273520
v 0.227096 -0.158361 -0.359771
v 0.227096 -0.006073 -0.390084
v 0.227096 0.392004 0.007993
v 0.227096 -0.006073 0.406072
v 0.303810 0.534187 0.231869
v 0.303810 0.578734 0.007993
v 0.303810 0.765463 0.007993
v 0.303810 0.407518 0.421587
v 0.303810 0.217803 0.548255
v 0.303810 -0.006073 0.779529
v 0.303810 -0.006073 0.592799
v 0.303810 -0.229807 0.548255
v 0.303810 -0.551599 0.553519
v 0.303810 -0.419522 0.421586
v 0.303810 -0.718828 0.303314
v 0.303810 -0.546332 0.231868
v 0.303810 -0.590879 0.007993
v 0.303810 -0.718828 -0.287185
v 0.303810 -0.546332 -0.215739
v 0.303810 -0.551599 -0.537531
v 0.303810 -0.419522 -0.405457
v 0.303810 -0.301253 -0.704762
v 0.303810 -0.229807 -0.532266
v 0.303810 -0.006073 -0.763540
v 0.303810 -0.006073 -0.576813
v 0.303810 0.289249 -0.704762
v 0.303810 0.217803 -0.532266
v 0.303810 0.539454 -0.537531
v 0.303810 0.407518 -0.405457
v 0.303810 0.706823 -0.287184
v 0.303810 0.534187 -0.215739
vt 0.615500 0.636600
vt 0.682900 0.591500
vt 0.762600 0.575700
vt 0.909700 0.636600
vt 0.954800 0.704100
vt 0.970600 0.783700
vt 0.842200 0.975900
vt 0.762600 0.991700
vt 0.909700 0.930800
vt 0.615500 0.930800
vt 0.682900 0.975900
vt 0.399300 0.780700
vt 0.369700 0.825000
vt 0.325400 0.854500
vt 0.221000 0.854500
vt 0.176700 0.825000
vt 0.147100 0.780700
vt 0.147100 0.676200
vt 0.176700 0.631900
vt 0.221000 0.602300
vt 0.325400 0.602300
vt 0.273200 0.591900
vt 0.528800 0.243500
vt 0.528800 0.443900
vt 0.425300 0.443900
vt 0.425300 0.243500
vt 0.632300 0.243500
vt 0.632300 0.443900
vt 0.735800 0.243500
vt 0.735800 0.443900
vt 0.839300 0.243500
vt 0.839300 0.443900
vt 0.114000 0.021000
vt 0.114000 0.221500
vt 0.010500 0.221500
vt 0.010500 0.021000
vt 0.217500 0.021000
vt 0.217500 0.221500
vt 0.321000 0.021000
vt 0.321000 0.221500
vt 0.424500 0.021000
vt 0.424500 0.221500
vt 0.528100 0.021000
vt 0.528100 0.221500
vt 0.631600 0.021000
vt 0.631600 0.221500
vt 0.735100 0.021000
vt 0.735100 0.221500
vt 0.838600 0.021000
vt 0.838600 0.221500
vt 0.114800 0.243500
vt 0.114800 0.443900
vt 0.011300 0.443900
vt 0.011300 0.243500
vt 0.218300 0.243500
vt 0.218300 0.443900
vt 0.321800 0.243500
vt 0.321800 0.443900
vt 0.570400 0.863300
vt 0.554500 0.783700
vt 0.570400 0.704100
vt 0.842200 0.591500
vt 0.954800 0.863300
vt 0.369700 0.631900
vt 0.399300 0.676200
vt 0.409700 0.728400
vt 0.273200 0.864900
vt 0.136700 0.728400
vt 0.171900 0.972900
vt 0.196400 0.913700
vt 0.273200 0.929000
vt 0.273200 0.993000
vt 0.086100 0.915500
vt 0.131400 0.870200
vt 0.028800 0.829700
vt 0.087900 0.805200
vt 0.008600 0.728400
vt 0.072600 0.728400
vt 0.028800 0.627200
vt 0.087900 0.651700
vt 0.086100 0.541300
vt 0.131400 0.586600
vt 0.171900 0.484000
vt 0.196400 0.543100
vt 0.273200 0.463800
vt 0.273200 0.527900
vt 0.374400 0.484000
vt 0.349900 0.543100
vt 0.460300 0.541300
vt 0.415000 0.586600
vt 0.517600 0.627200
vt 0.458500 0.651700
vt 0.537800 0.728400
vt 0.473700 0.728400
vt 0.517600 0.829700
vt 0.458500 0.805200
vt 0.460300 0.915500
vt 0.415000 0.870200
vt 0.374400 0.972900
vt 0.349900 0.913700
vn -0.6657 -0.5277 -0.5277
vn -0.6658 -0.6894 -0.2856
vn -0.6657 -0.7462 -0.0000
vn -0.6658 -0.5277 0.5276
vn -0.6657 -0.2856 0.6894
vn -0.6658 -0.0000 0.7462
vn -0.6656 0.6894 0.2857
vn -0.6658 0.7462 -0.0000
vn -0.6658 0.5276 0.5276
vn -0.6658 0.5276 -0.5277
vn -0.6657 0.6894 -0.2856
vn 0.9762 -0.0830 0.2003
vn 0.9762 -0.1533 0.1533
vn 0.9762 -0.2002 0.0829
vn 0.9762 -0.2003 -0.0829
vn 0.9762 -0.1532 -0.1532
vn 0.9762 -0.0830 -0.2003
vn 0.9762 0.0829 -0.2003
vn 0.9762 0.1533 -0.1534
vn 0.9762 0.2003 -0.0830
vn 0.9762 0.2003 0.0830
vn 0.9762 0.2168 0.0000
vn 0.6656 0.6894 0.2857
vn 0.6658 0.7462 -0.0000
vn 0.6658 0.5276 0.5276
vn -0.6656 0.2857 0.6894
vn 0.6656 0.2857 0.6894
vn 0.6658 -0.0000 0.7462
vn 0.6657 -0.2856 0.6894
vn 0.6658 -0.5277 0.5276
vn -0.6657 -0.6894 0.2856
vn 0.6657 -0.6894 0.2856
vn 0.6657 -0.7462 -0.0000
vn 0.6658 -0.6894 -0.2856
vn 0.6657 -0.5277 -0.5277
vn -0.6658 -0.2856 -0.6894
vn 0.6658 -0.2856 -0.6894
vn -0.6657 -0.0000 -0.7462
vn 0.6657 -0.0000 -0.7462
vn -0.6657 0.2856 -0.6894
vn 0.6657 0.2856 -0.6894
vn 0.6658 0.5276 -0.5277
vn 0.6657 0.6894 -0.2856
vn 0.9762 0.1534 0.1533
vn 0.9762 0.0829 0.2002
vn 0.9762 0.0000 0.2168
vn 0.9762 -0.2168 0.0000
vn 0.9762 0.0000 -0.2168
vn 0.9854 -0.1573 -0.0651
vn 0.9854 -0.1702 0.0000
vn 0.9854 -0.1203 -0.1203
vn 0.9854 -0.0651 -0.1573
vn 0.9854 0.0000 -0.1702
vn 0.9854 0.0651 -0.1573
vn 0.9854 0.1203 -0.1204
vn 0.9854 0.1572 -0.0651
vn 0.9854 0.1702 0.0000
vn 0.9854 0.1572 0.0652
vn 0.9854 0.1204 0.1204
vn 0.9854 0.0651 0.1573
vn 0.9854 0.0000 0.1702
vn 0.9854 -0.0651 0.1572
vn 0.9854 -0.1204 0.1203
vn 0.9854 -0.1573 0.0651
usemtl mat_2-humvee_desert_tire_diffuse.jpgt
s 1
f 1/1/1 2/2/2 3/3/3
f 26/4/4 24/5/5 23/6/6
f 18/7/7 4/8/8 20/9/9
f 5/10/10 4/8/8 6/11/11
f 7/12/12 8/13/13 9/14/14
f 10/15/15 11/16/16 12/17/17
f 13/18/18 14/19/19 15/20/20
f 16/21/21 15/20/20 17/22/22
f 18/23/7 19/24/23 40/25/24
f 4/26/8 18/23/7 40/25/24
f 20/27/9 21/28/25 19/24/23
f 18/23/7 20/27/9 19/24/23
f 32/29/26 22/30/27 21/28/25
f 20/27/9 32/29/26 21/28/25
f 23/31/6 43/32/28 22/30/27
f 32/29/26 23/31/6 22/30/27
f 24/33/5 25/34/29 43/35/28
f 23/36/6 24/33/5 43/35/28
f 26/37/4 46/38/30 25/34/29
f 24/33/5 26/37/4 25/34/29
f 27/39/31 48/40/32 46/38/30
f 26/37/4 27/39/31 46/38/30
f 3/41/3 28/42/33 48/40/32
f 27/39/31 3/41/3 48/40/32
f 2/43/2 51/44/34 28/42/33
f 3/41/3 2/43/2 28/42/33
f 1/45/1 53/46/35 51/44/34
f 2/43/2 1/45/1 51/44/34
f 31/47/36 55/48/37 53/46/35
f 1/45/1 31/47/36 53/46/35
f 30/49/38 57/50/39 55/48/37
f 31/47/36 30/49/38 55/48/37
f 29/51/40 59/52/41 57/53/39
f 30/54/38 29/51/40 57/53/39
f 5/55/10 61/56/42 59/52/41
f 29/51/40 5/55/10 59/52/41
f 6/57/11 63/58/43 61/56/42
f 5/55/10 6/57/11 61/56/42
f 4/26/8 40/25/24 63/58/43
f 6/57/11 4/26/8 63/58/43
f 4/8/8 5/10/10 29/59/40
f 30/60/38 4/8/8 29/59/40
f 31/61/36 1/1/1 3/3/3
f 30/60/38 31/61/36 3/3/3
f 27/62/31 26/4/4 23/6/6
f 3/3/3 27/62/31 23/6/6
f 4/8/8 23/6/6 32/63/26
f 20/9/9 4/8/8 32/63/26
f 30/60/38 3/3/3 23/6/6
f 4/8/8 30/60/38 23/6/6
f 33/64/44 34/65/45 15/20/20
f 16/21/21 33/64/44 15/20/20
f 35/66/46 7/12/12 9/14/14
f 34/65/45 35/66/46 9/14/14
f 36/67/47 10/15/15 12/17/17
f 9/14/14 36/67/47 12/17/17
f 37/68/48 13/18/18 15/20/20
f 12/17/17 37/68/48 15/20/20
f 12/17/17 15/20/20 34/65/45
f 9/14/14 12/17/17 34/65/45
f 19/69/23 38/70/49 39/71/50
f 40/72/24 19/69/23 39/71/50
f 21/73/25 41/74/51 38/70/49
f 19/69/23 21/73/25 38/70/49
f 22/75/27 42/76/52 41/74/51
f 21/73/25 22/75/27 41/74/51
f 43/77/28 44/78/53 42/76/52
f 22/75/27 43/77/28 42/76/52
f 25/79/29 45/80/54 44/78/53
f 43/77/28 25/79/29 44/78/53
f 46/81/30 47/82/55 45/80/54
f 25/79/29 46/81/30 45/80/54
f 48/83/32 49/84/56 47/82/55
f 46/81/30 48/83/32 47/82/55
f 28/85/33 50/86/57 49/84/56
f 48/83/32 28/85/33 49/84/56
f 51/87/34 52/88/58 50/86/57
f 28/85/33 51/87/34 50/86/57
f 53/89/35 54/90/59 52/88/58
f 51/87/34 53/89/35 52/88/58
f 55/91/37 56/92/60 54/90/59
f 53/89/35 55/91/37 54/90/59
f 57/93/39 58/94/61 56/92/60
f 55/91/37 57/93/39 56/92/60
f 59/95/41 60/96/62 58/94/61
f 57/93/39 59/95/41 58/94/61
f 61/97/42 62/98/63 60/96/62
f 59/95/41 61/97/42 60/96/62
f 63/99/43 64/100/64 62/98/63
f 61/97/42 63/99/43 62/98/63
f 40/72/24 39/71/50 64/100/64
f 63/99/43 40/72/24 64/100/64
f 38/70/49 10/15/15 36/67/47
f 39/71/50 38/70/49 36/67/47
f 41/74/51 11/16/16 10/15/15
f 38/70/49 41/74/51 10/15/15
f 42/76/52 12/17/17 11/16/16
f 41/74/51 42/76/52 11/16/16
f 44/78/53 37/68/48 12/17/17
f 42/76/52 44/78/53 12/17/17
f 45/80/54 13/18/18 37/68/48
f 44/78/53 45/80/54 37/68/48
f 47/82/55 14/19/19 13/18/18
f 45/80/54 47/82/55 13/18/18
f 49/84/56 15/20/20 14/19/19
f 47/82/55 49/84/56 14/19/19
f 50/86/57 17/22/22 15/20/20
f 49/84/56 50/86/57 15/20/20
f 52/88/58 16/21/21 17/22/22
f 50/86/57 52/88/58 17/22/22
f 54/90/59 33/64/44 16/21/21
f 52/88/58 54/90/59 16/21/21
f 56/92/60 34/65/45 33/64/44
f 54/90/59 56/92/60 33/64/44
f 58/94/61 35/66/46 34/65/45
f 56/92/60 58/94/61 34/65/45
f 60/96/62 7/12/12 35/66/46
f 58/94/61 60/96/62 35/66/46
f 62/98/63 8/13/13 7/12/12
f 60/96/62 62/98/63 7/12/12
f 64/100/64 9/14/14 8/13/13
f 62/98/63 64/100/64 8/13/13
f 39/71/50 36/67/47 9/14/14
f 64/100/64 39/71/50 9/14/14
