{
  "accessors": [
    {
      "bufferView": 2,
      "componentType": 5126,
      "count": 871,
      "max": [
        -13.024680137634277,
        307.5430908203125,
        127.82060241699219
      ],
      "min": [
        -526.9273071289063,
        -315.6687927246094,
        0.0
      ],
      "type": "VEC3"
    },
    {
      "bufferView": 0,
      "componentType": 5125,
      "count": 4606,
      "type": "SCALAR"
    },
    {
      "bufferView": 2,
      "byteOffset": 10452,
      "componentType": 5126,
      "count": 1086,
      "max": [
        -13.024680137634277,
        307.5430908203125,
        127.82060241699219
      ],
      "min": [
        -526.9273071289063,
        -315.6687927246094,
        0.0
      ],
      "type": "VEC3"
    },
    {
      "bufferView": 2,
      "byteOffset": 23484,
      "componentType": 5126,
      "count": 1086,
      "max": [
        1.0,
        0.9999997019767761,
        0.9999998807907104
      ],
      "min": [
        -1.0,
        -0.9999997019767761,
        -0.9999929070472717
      ],
      "type": "VEC3"
    },
    {
      "bufferView": 1,
      "componentType": 5126,
      "count": 1086,
      "max": [
        2.6801180839538574,
        1.6176589727401733
      ],
      "min": [
        0.005650999955832958,
        -0.34365931153297424
      ],
      "type": "VEC2"
    },
    {
      "bufferView": 0,
      "byteOffset": 18424,
      "componentType": 5125,
      "count": 3696,
      "type": "SCALAR"
    },
    {
      "bufferView": 2,
      "byteOffset": 36516,
      "componentType": 5126,
      "count": 1067,
      "max": [
        -13.024680137634277,
        307.5430908203125,
        127.82060241699219
      ],
      "min": [
        -526.9273071289063,
        -315.6687927246094,
        0.0
      ],
      "type": "VEC3"
    },
    {
      "bufferView": 2,
      "byteOffset": 49320,
      "componentType": 5126,
      "count": 1067,
      "max": [
        1.0,
        0.9999997019767761,
        0.9999929070472717
      ],
      "min": [
        -1.0,
        -0.9999997019767761,
        -0.9999998807907104
      ],
      "type": "VEC3"
    },
    {
      "bufferView": 0,
      "byteOffset": 33208,
      "componentType": 5125,
      "count": 4497,
      "type": "SCALAR"
    },
    {
      "bufferView": 2,
      "byteOffset": 62124,
      "componentType": 5126,
      "count": 62,
      "max": [
        -197.0063018798828,
        11.824440002441406,
        91.83560180664063
      ],
      "min": [
        -274.53021240234375,
        -19.950170516967773,
        33.357139587402344
      ],
      "type": "VEC3"
    },
    {
      "bufferView": 0,
      "byteOffset": 51196,
      "componentType": 5125,
      "count": 190,
      "type": "SCALAR"
    },
    {
      "bufferView": 2,
      "byteOffset": 62868,
      "componentType": 5126,
      "count": 29,
      "max": [
        -213.54379272460938,
        10.314889907836914,
        89.73668670654297
      ],
      "min": [
        -274.53021240234375,
        -18.44062042236328,
        74.76255798339844
      ],
      "type": "VEC3"
    },
    {
      "bufferView": 0,
      "byteOffset": 51956,
      "componentType": 5125,
      "count": 100,
      "type": "SCALAR"
    },
    {
      "bufferView": 2,
      "byteOffset": 63216,
      "componentType": 5126,
      "count": 4,
      "max": [
        -282.2672119140625,
        -2.68806791305542,
        127.54440307617188
      ],
      "min": [
        -494.35150146484375,
        -5.597410202026367,
        21.11931037902832
      ],
      "type": "VEC3"
    },
    {
      "bufferView": 0,
      "byteOffset": 52356,
      "componentType": 5125,
      "count": 4,
      "type": "SCALAR"
    },
    {
      "bufferView": 2,
      "byteOffset": 63264,
      "componentType": 5126,
      "count": 55,
      "max": [
        -251.22540283203125,
        11.103890419006348,
        127.54440307617188
      ],
      "min": [
        -503.6842041015625,
        -19.2296199798584,
        18.363849639892578
      ],
      "type": "VEC3"
    },
    {
      "bufferView": 2,
      "byteOffset": 63924,
      "componentType": 5126,
      "count": 55,
      "max": [
        0.9939565062522888,
        0.6959530115127563,
        0.9995042085647583
      ],
      "min": [
        -0.9774805903434753,
        -0.6959527134895325,
        -0.9999306201934814
      ],
      "type": "VEC3"
    },
    {
      "bufferView": 1,
      "byteOffset": 8688,
      "componentType": 5126,
      "count": 55,
      "max": [
        4.4567670822143555,
        9.266441345214844
      ],
      "min": [
        -4.38906192779541,
        -9.24936580657959
      ],
      "type": "VEC2"
    },
    {
      "bufferView": 0,
      "byteOffset": 52372,
      "componentType": 5125,
      "count": 69,
      "type": "SCALAR"
    },
    {
      "bufferView": 2,
      "byteOffset": 64584,
      "componentType": 5126,
      "count": 240,
      "max": [
        -197.0063018798828,
        11.824440002441406,
        90.05785369873047
      ],
      "min": [
        -274.53021240234375,
        -19.950170516967773,
        74.76228332519531
      ],
      "type": "VEC3"
    },
    {
      "bufferView": 2,
      "byteOffset": 67464,
      "componentType": 5126,
      "count": 240,
      "max": [
        0.9998909831047058,
        0.9123299717903137,
        0.9913086295127869
      ],
      "min": [
        -0.9998909831047058,
        -0.9123294949531555,
        -0.9913086295127869
      ],
      "type": "VEC3"
    },
    {
      "bufferView": 1,
      "byteOffset": 9128,
      "componentType": 5126,
      "count": 240,
      "max": [
        0.7623617053031921,
        0.624049186706543
      ],
      "min": [
        -0.7615482211112976,
        -0.5787453055381775
      ],
      "type": "VEC2"
    },
    {
      "bufferView": 0,
      "byteOffset": 52648,
      "componentType": 5125,
      "count": 264,
      "type": "SCALAR"
    },
    {
      "bufferView": 2,
      "byteOffset": 70344,
      "componentType": 5126,
      "count": 2,
      "max": [
        -487.27130126953125,
        -2.8487420082092285,
        26.398090362548828
      ],
      "min": [
        -488.0163879394531,
        -5.436869144439697,
        22.94668960571289
      ],
      "type": "VEC3"
    },
    {
      "bufferView": 0,
      "byteOffset": 53704,
      "componentType": 5125,
      "count": 2,
      "type": "SCALAR"
    },
    {
      "bufferView": 2,
      "byteOffset": 70368,
      "componentType": 5126,
      "count": 22,
      "max": [
        -478.2304992675781,
        -1.4103649854660034,
        36.88246154785156
      ],
      "min": [
        -488.0163879394531,
        -6.875244140625,
        22.26721954345703
      ],
      "type": "VEC3"
    },
    {
      "bufferView": 2,
      "byteOffset": 70632,
      "componentType": 5126,
      "count": 22,
      "max": [
        0.7324238419532776,
        0.7363414168357849,
        0.8241952061653137
      ],
      "min": [
        -0.5714077949523926,
        -0.7369922995567322,
        -0.8133242130279541
      ],
      "type": "VEC3"
    },
    {
      "bufferView": 1,
      "byteOffset": 11048,
      "componentType": 5126,
      "count": 22,
      "max": [
        0.1273193061351776,
        8.923493385314941
      ],
      "min": [
        -0.10788209736347198,
        -3.799722909927368
      ],
      "type": "VEC2"
    },
    {
      "bufferView": 0,
      "byteOffset": 53712,
      "componentType": 5125,
      "count": 30,
      "type": "SCALAR"
    },
    {
      "bufferView": 2,
      "byteOffset": 70896,
      "componentType": 5126,
      "count": 157,
      "max": [
        -81.62651824951172,
        11.824440002441406,
        127.54440307617188
      ],
      "min": [
        -494.35150146484375,
        -32.19974136352539,
        32.387699127197266
      ],
      "type": "VEC3"
    },
    {
      "bufferView": 2,
      "byteOffset": 72780,
      "componentType": 5126,
      "count": 157,
      "max": [
        0.999998927116394,
        0.9986556172370911,
        0.9986096024513245
      ],
      "min": [
        -0.9918351173400879,
        -0.99858558177948,
        -0.9986096024513245
      ],
      "type": "VEC3"
    },
    {
      "bufferView": 0,
      "byteOffset": 53832,
      "componentType": 5125,
      "count": 462,
      "type": "SCALAR"
    },
    {
      "bufferView": 2,
      "byteOffset": 74664,
      "componentType": 5126,
      "count": 4,
      "max": [
        -73.51748657226563,
        113.92250061035156,
        26.685810089111328
      ],
      "min": [
        -487.27130126953125,
        -6.875246047973633,
        25.468460083007813
      ],
      "type": "VEC3"
    },
    {
      "bufferView": 0,
      "byteOffset": 55680,
      "componentType": 5125,
      "count": 4,
      "type": "SCALAR"
    },
    {
      "bufferView": 2,
      "byteOffset": 74712,
      "componentType": 5126,
      "count": 85,
      "max": [
        -219.7631072998047,
        17.82744026184082,
        90.2712631225586
      ],
      "min": [
        -248.12570190429688,
        -23.410640716552734,
        46.551300048828125
      ],
      "type": "VEC3"
    },
    {
      "bufferView": 2,
      "byteOffset": 75732,
      "componentType": 5126,
      "count": 85,
      "max": [
        0.9850550889968872,
        0.9997938871383667,
        0.9857270121574402
      ],
      "min": [
        -0.9995349049568176,
        -0.9997938871383667,
        -0.7756059169769287
      ],
      "type": "VEC3"
    },
    {
      "bufferView": 1,
      "byteOffset": 11224,
      "componentType": 5126,
      "count": 85,
      "max": [
        0.993818998336792,
        0.9685609936714172
      ],
      "min": [
        0.011921999976038933,
        0.04686800017952919
      ],
      "type": "VEC2"
    },
    {
      "bufferView": 0,
      "byteOffset": 55696,
      "componentType": 5125,
      "count": 282,
      "type": "SCALAR"
    },
    {
      "bufferView": 2,
      "byteOffset": 76752,
      "componentType": 5126,
      "count": 800,
      "max": [
        -197.0063018798828,
        11.824440002441406,
        91.83560180664063
      ],
      "min": [
        -274.53021240234375,
        -19.950170516967773,
        33.357139587402344
      ],
      "type": "VEC3"
    },
    {
      "bufferView": 2,
      "byteOffset": 86352,
      "componentType": 5126,
      "count": 800,
      "max": [
        0.8188108205795288,
        0.9817566275596619,
        0.9960076212882996
      ],
      "min": [
        -0.8188108205795288,
        -0.9817566275596619,
        -0.9960076212882996
      ],
      "type": "VEC3"
    },
    {
      "bufferView": 1,
      "byteOffset": 11904,
      "componentType": 5126,
      "count": 800,
      "max": [
        3.815790891647339,
        3.2356040477752686
      ],
      "min": [
        -3.815790891647339,
        -2.8937270641326904
      ],
      "type": "VEC2"
    },
    {
      "bufferView": 0,
      "byteOffset": 56824,
      "componentType": 5125,
      "count": 990,
      "type": "SCALAR"
    }
  ],
  "asset": {
    "extras": {
      "author": "mudroljub (https://sketchfab.com/mudroljub)",
      "license": "CC-BY-4.0 (http://creativecommons.org/licenses/by/4.0/)",
      "source": "https://sketchfab.com/3d-models/aircraft-ww2-spitfire-5bb0744e512f4c32bf140ae8d2a10ede",
      "title": "Aircraft ww2 Spitfire"
    },
    "generator": "Sketchfab-13.42.0",
    "version": "2.0"
  },
  "bufferViews": [
    {
      "buffer": 0,
      "byteLength": 60784,
      "name": "floatBufferViews",
      "target": 34963
    },
    {
      "buffer": 0,
      "byteLength": 18304,
      "byteOffset": 60784,
      "byteStride": 8,
      "name": "floatBufferViews",
      "target": 34962
    },
    {
      "buffer": 0,
      "byteLength": 95952,
      "byteOffset": 79088,
      "byteStride": 12,
      "name": "floatBufferViews",
      "target": 34962
    }
  ],
  "buffers": [
    {
      "byteLength": 175040,
      "uri": "scene.bin"
    }
  ],
  "images": [
    {
      "uri": "textures/Material_-_1_baseColor.jpeg"
    },
    {
      "uri": "textures/Metal_Aluminum_Anodized_1_baseColor.jpeg"
    },
    {
      "uri": "textures/Metal_Brushed_baseColor.jpeg"
    },
    {
      "uri": "textures/Metal_Aluminum_Anodized_baseColor.jpeg"
    },
    {
      "uri": "textures/Material_-_2_baseColor.jpeg"
    },
    {
      "uri": "textures/Translucent_Glass_Sky_Reflection_baseColor.jpeg"
    }
  ],
  "materials": [
    {
      "name": "edge_color000255",
      "pbrMetallicRoughness": {
        "metallicFactor": 0.0,
        "roughnessFactor": 0.6
      }
    },
    {
      "name": "Material_-_1",
      "pbrMetallicRoughness": {
        "baseColorTexture": {
          "index": 0
        },
        "metallicFactor": 0.0,
        "roughnessFactor": 0.6
      }
    },
    {
      "name": "material",
      "pbrMetallicRoughness": {
        "baseColorFactor": [
          0.670588,
          0.690196,
          0.8,
          1.0
        ],
        "metallicFactor": 0.0,
        "roughnessFactor": 0.6
      }
    },
    {
      "name": "edge_color126138183255",
      "pbrMetallicRoughness": {
        "metallicFactor": 0.0,
        "roughnessFactor": 0.6
      }
    },
    {
      "name": "edge_color433820255",
      "pbrMetallicRoughness": {
        "metallicFactor": 0.0,
        "roughnessFactor": 0.6
      }
    },
    {
      "name": "edge_color1196255",
      "pbrMetallicRoughness": {
        "metallicFactor": 0.0,
        "roughnessFactor": 0.6
      }
    },
    {
      "name": "Metal_Aluminum_Anodized_1",
      "pbrMetallicRoughness": {
        "baseColorTexture": {
          "index": 1
        },
        "metallicFactor": 0.0,
        "roughnessFactor": 0.6
      }
    },
    {
      "name": "Metal_Brushed",
      "pbrMetallicRoughness": {
        "baseColorTexture": {
          "index": 2
        },
        "metallicFactor": 0.0,
        "roughnessFactor": 0.6
      }
    },
    {
      "name": "edge_color12912288255",
      "pbrMetallicRoughness": {
        "metallicFactor": 0.0,
        "roughnessFactor": 0.6
      }
    },
    {
      "name": "Metal_Aluminum_Anodized",
      "pbrMetallicRoughness": {
        "baseColorTexture": {
          "index": 3
        },
        "metallicFactor": 0.0,
        "roughnessFactor": 0.6
      }
    },
    {
      "name": "material_0",
      "pbrMetallicRoughness": {
        "metallicFactor": 0.0,
        "roughnessFactor": 0.6
      }
    },
    {
      "name": "edge_color615743255",
      "pbrMetallicRoughness": {
        "metallicFactor": 0.0,
        "roughnessFactor": 0.6
      }
    },
    {
      "name": "Material_-_2",
      "pbrMetallicRoughness": {
        "baseColorTexture": {
          "index": 4
        },
        "metallicFactor": 0.0,
        "roughnessFactor": 0.6
      }
    },
    {
      "alphaMode": "BLEND",
      "name": "Translucent_Glass_Sky_Reflection",
      "pbrMetallicRoughness": {
        "baseColorFactor": [
          1.0,
          1.0,
          1.0,
          0.52
        ],
        "baseColorTexture": {
          "index": 5
        },
        "metallicFactor": 0.0,
        "roughnessFactor": 0.6
      }
    }
  ],
  "meshes": [
    {
      "name": "Material4",
      "primitives": [
        {
          "attributes": {
            "POSITION": 0
          },
          "indices": 1,
          "material": 0,
          "mode": 1
        }
      ]
    },
    {
      "name": "Material2",
      "primitives": [
        {
          "attributes": {
            "NORMAL": 3,
            "POSITION": 2,
            "TEXCOORD_0": 4
          },
          "indices": 5,
          "material": 1,
          "mode": 4
        }
      ]
    },
    {
      "name": "Material3",
      "primitives": [
        {
          "attributes": {
            "NORMAL": 7,
            "POSITION": 6
          },
          "indices": 8,
          "material": 2,
          "mode": 4
        }
      ]
    },
    {
      "name": "Material5",
      "primitives": [
        {
          "attributes": {
            "POSITION": 9
          },
          "indices": 10,
          "material": 3,
          "mode": 1
        }
      ]
    },
    {
      "name": "Material3",
      "primitives": [
        {
          "attributes": {
            "POSITION": 11
          },
          "indices": 12,
          "material": 4,
          "mode": 1
        }
      ]
    },
    {
      "name": "Material5",
      "primitives": [
        {
          "attributes": {
            "POSITION": 13
          },
          "indices": 14,
          "material": 5,
          "mode": 1
        }
      ]
    },
    {
      "name": "Material3",
      "primitives": [
        {
          "attributes": {
            "NORMAL": 16,
            "POSITION": 15,
            "TEXCOORD_0": 17
          },
          "indices": 18,
          "material": 6,
          "mode": 4
        }
      ]
    },
    {
      "name": "Material2",
      "primitives": [
        {
          "attributes": {
            "NORMAL": 20,
            "POSITION": 19,
            "TEXCOORD_0": 21
          },
          "indices": 22,
          "material": 7,
          "mode": 4
        }
      ]
    },
    {
      "name": "Material5",
      "primitives": [
        {
          "attributes": {
            "POSITION": 23
          },
          "indices": 24,
          "material": 8,
          "mode": 1
        }
      ]
    },
    {
      "name": "Material3",
      "primitives": [
        {
          "attributes": {
            "NORMAL": 26,
            "POSITION": 25,
            "TEXCOORD_0": 27
          },
          "indices": 28,
          "material": 9,
          "mode": 4
        }
      ]
    },
    {
      "name": "Material3",
      "primitives": [
        {
          "attributes": {
            "NORMAL": 30,
            "POSITION": 29
          },
          "indices": 31,
          "material": 10,
          "mode": 4
        }
      ]
    },
    {
      "name": "Material5",
      "primitives": [
        {
          "attributes": {
            "POSITION": 32
          },
          "indices": 33,
          "material": 11,
          "mode": 1
        }
      ]
    },
    {
      "name": "Material3",
      "primitives": [
        {
          "attributes": {
            "NORMAL": 35,
            "POSITION": 34,
            "TEXCOORD_0": 36
          },
          "indices": 37,
          "material": 12,
          "mode": 4
        }
      ]
    },
    {
      "name": "Material3",
      "primitives": [
        {
          "attributes": {
            "NORMAL": 39,
            "POSITION": 38,
            "TEXCOORD_0": 40
          },
          "indices": 41,
          "material": 13,
          "mode": 4
        }
      ]
    }
  ],
  "nodes": [
    {
      "children": [
        1
      ],
      "matrix": [
        1.0,
        0.0,
        0.0,
        0.0,
        0.0,
        2.220446049250313e-16,
        -1.0,
        0.0,
        0.0,
        1.0,
        2.220446049250313e-16,
        0.0,
        0.0,
        0.0,
        0.0,
        1.0
      ],
      "name": "Sketchfab_model"
    },
    {
      "children": [
        2,
        3,
        4,
        5,
        6,
        7,
        8,
        9,
        10,
        11,
        12,
        13,
        14,
        15,
        16
      ],
      "name": "Collada visual scene group"
    },
    {
      "mesh": 0,
      "name": "Material4"
    },
    {
      "mesh": 1,
      "name": "Material2"
    },
    {
      "mesh": 2,
      "name": "Material3"
    },
    {
      "mesh": 3,
      "name": "Material5"
    },
    {
      "mesh": 4,
      "name": "Material3"
    },
    {
      "mesh": 5,
      "name": "Material5"
    },
    {
      "mesh": 6,
      "name": "Material3"
    },
    {
      "mesh": 7,
      "name": "Material2"
    },
    {
      "mesh": 8,
      "name": "Material5"
    },
    {
      "mesh": 9,
      "name": "Material3"
    },
    {
      "mesh": 10,
      "name": "Material3"
    },
    {
      "mesh": 11,
      "name": "Material5"
    },
    {
      "mesh": 12,
      "name": "Material3"
    },
    {
      "mesh": 13,
      "name": "Material3"
    },
    {
      "children": [
        17
      ],
      "name": "SketchUp"
    },
    {
      "children": [
        18
      ],
      "matrix": [
        -0.5488402,
        0.8359272,
        -5.551115e-17,
        0.0,
        -0.4249981,
        -0.2790387,
        0.8611121,
        0.0,
        0.7198271,
        0.472613,
        0.5084152,
        0.0,
        200.5943,
        321.2964,
        345.2811,
        1.0
      ],
      "name": "skp_camera_Last_Saved_SketchUp_View"
    },
    {
      "name": "ID1"
    }
  ],
  "samplers": [
    {
      "magFilter": 9729,
      "minFilter": 9987,
      "wrapS": 10497,
      "wrapT": 10497
    }
  ],
  "scene": 0,
  "scenes": [
    {
      "name": "Sketchfab_Scene",
      "nodes": [
        0
      ]
    }
  ],
  "textures": [
    {
      "sampler": 0,
      "source": 0
    },
    {
      "sampler": 0,
      "source": 1
    },
    {
      "sampler": 0,
      "source": 2
    },
    {
      "sampler": 0,
      "source": 3
    },
    {
      "sampler": 0,
      "source": 4
    },
    {
      "sampler": 0,
      "source": 5
    }
  ]
}
