{
  "accessors": [
    {
      "bufferView": 2,
      "componentType": 5126,
      "count": 2841,
      "max": [
        8.358260154724121,
        7.0337300300598145,
        21.434490203857422
      ],
      "min": [
        -3.1026699542999268,
        -6.092599868774414,
        -0.34634000062942505
      ],
      "type": "VEC3"
    },
    {
      "bufferView": 2,
      "byteOffset": 34092,
      "componentType": 5126,
      "count": 2841,
      "max": [
        0.9999986290931702,
        0.9999998211860657,
        0.9999834895133972
      ],
      "min": [
        -0.9999985098838806,
        -0.9999991059303284,
        -1.0
      ],
      "type": "VEC3"
    },
    {
      "bufferView": 1,
      "componentType": 5126,
      "count": 2841,
      "max": [
        0.9952200055122375,
        0.9980800151824951
      ],
      "min": [
        0.001230000052601099,
        0.0030499999411404133
      ],
      "type": "VEC2"
    },
    {
      "bufferView": 0,
      "componentType": 5125,
      "count": 6222,
      "type": "SCALAR"
    }
  ],
  "asset": {
    "extras": {
      "author": "VitSh (https://sketchfab.com/VitSh)",
      "license": "CC-BY-4.0 (http://creativecommons.org/licenses/by/4.0/)",
      "source": "https://sketchfab.com/3d-models/castel-main-part-6ea3fde9a7c144119c0f6ac471966d3d",
      "title": "Castel Main Part"
    },
    "generator": "Sketchfab-12.65.0",
    "version": "2.0"
  },
  "bufferViews": [
    {
      "buffer": 0,
      "byteLength": 24888,
      "name": "floatBufferViews",
      "target": 34963
    },
    {
      "buffer": 0,
      "byteLength": 22728,
      "byteOffset": 24888,
      "byteStride": 8,
      "name": "floatBufferViews",
      "target": 34962
    },
    {
      "buffer": 0,
      "byteLength": 68184,
      "byteOffset": 47616,
      "byteStride": 12,
      "name": "floatBufferViews",
      "target": 34962
    }
  ],
  "buffers": [
    {
      "byteLength": 115800,
      "uri": "scene.bin"
    }
  ],
  "images": [
    {
      "uri": "textures/castle_mat_baseColor.png"
    }
  ],
  "materials": [
    {
      "doubleSided": true,
      "name": "castle_mat",
      "pbrMetallicRoughness": {
        "baseColorTexture": {
          "index": 0
        },
        "metallicFactor": 0.0,
        "roughnessFactor": 0.6
      }
    }
  ],
  "meshes": [
    {
      "name": "castle_0",
      "primitives": [
        {
          "attributes": {
            "NORMAL": 1,
            "POSITION": 0,
            "TEXCOORD_0": 2
          },
          "indices": 3,
          "material": 0,
          "mode": 4
        }
      ]
    }
  ],
  "nodes": [
    {
      "children": [
        1
      ],
      "matrix": [
        1.0,
        0.0,
        0.0,
        0.0,
        0.0,
        2.220446049250313e-16,
        -1.0,
        0.0,
        0.0,
        1.0,
        2.220446049250313e-16,
        0.0,
        0.0,
        0.0,
        0.0,
        1.0
      ],
      "name": "Sketchfab_model"
    },
    {
      "children": [
        2
      ],
      "name": "Root"
    },
    {
      "children": [
        3
      ],
      "matrix": [
        0.9494900000000001,
        0.9160400000000001,
        0.0,
        0.0,
        -0.9160400000000001,
        0.9494900000000001,
        0.0,
        0.0,
        0.0,
        0.0,
        1.31934,
        0.0,
        0.0,
        0.0,
        0.0,
        1.0
      ],
      "name": "castle"
    },
    {
      "mesh": 0,
      "name": "castle_0"
    }
  ],
  "samplers": [
    {
      "magFilter": 9729,
      "minFilter": 9987,
      "wrapS": 10497,
      "wrapT": 10497
    }
  ],
  "scene": 0,
  "scenes": [
    {
      "name": "Sketchfab_Scene",
      "nodes": [
        0
      ]
    }
  ],
  "textures": [
    {
      "sampler": 0,
      "source": 0
    }
  ]
}
