{
  "accessors": [
    {
      "bufferView": 2,
      "componentType": 5126,
      "count": 4348,
      "max": [
        -64.72850799560547,
        38.61722946166992,
        15.184619903564453
      ],
      "min": [
        -88.1697769165039,
        -30.853729248046875,
        -7.5510430335998535
      ],
      "type": "VEC3"
    },
    {
      "bufferView": 0,
      "componentType": 5125,
      "count": 21230,
      "type": "SCALAR"
    },
    {
      "bufferView": 2,
      "byteOffset": 52176,
      "componentType": 5126,
      "count": 20970,
      "max": [
        -64.72850799560547,
        38.61722946166992,
        15.184619903564453
      ],
      "min": [
        -88.1697769165039,
        -30.853729248046875,
        -7.5510430335998535
      ],
      "type": "VEC3"
    },
    {
      "bufferView": 2,
      "byteOffset": 303816,
      "componentType": 5126,
      "count": 20970,
      "max": [
        1.0,
        1.0,
        1.0
      ],
      "min": [
        -1.0,
        -1.0,
        -1.0
      ],
      "type": "VEC3"
    },
    {
      "bufferView": 1,
      "componentType": 5126,
      "count": 20970,
      "max": [
        1.0017269849777222,
        1.3526129722595215
      ],
      "min": [
        0.0,
        -0.0019359990255907178
      ],
      "type": "VEC2"
    },
    {
      "bufferView": 0,
      "byteOffset": 84920,
      "componentType": 5125,
      "count": 42138,
      "type": "SCALAR"
    },
    {
      "bufferView": 2,
      "byteOffset": 555456,
      "componentType": 5126,
      "count": 234,
      "max": [
        -65.94017028808594,
        27.98560905456543,
        9.27737808227539
      ],
      "min": [
        -87.3384780883789,
        -27.00469970703125,
        -1.367637038230896
      ],
      "type": "VEC3"
    },
    {
      "bufferView": 2,
      "byteOffset": 558264,
      "componentType": 5126,
      "count": 234,
      "max": [
        1.0,
        0.995953381061554,
        0.9993864297866821
      ],
      "min": [
        -1.0,
        -0.995953381061554,
        -0.9993864297866821
      ],
      "type": "VEC3"
    },
    {
      "bufferView": 1,
      "byteOffset": 167760,
      "componentType": 5126,
      "count": 234,
      "max": [
        87.34851837158203,
        16.4012508392334
      ],
      "min": [
        -86.60003662109375,
        -64.95934295654297
      ],
      "type": "VEC2"
    },
    {
      "bufferView": 0,
      "byteOffset": 253472,
      "componentType": 5125,
      "count": 330,
      "type": "SCALAR"
    }
  ],
  "asset": {
    "extras": {
      "author": "mudroljub (https://sketchfab.com/mudroljub)",
      "license": "CC-BY-4.0 (http://creativecommons.org/licenses/by/4.0/)",
      "source": "https://sketchfab.com/3d-models/puma-622bb6c40e1a44a3856e1b3bba4447e1",
      "title": "Puma"
    },
    "generator": "Sketchfab-13.42.0",
    "version": "2.0"
  },
  "bufferViews": [
    {
      "buffer": 0,
      "byteLength": 254792,
      "name": "floatBufferViews",
      "target": 34963
    },
    {
      "buffer": 0,
      "byteLength": 169632,
      "byteOffset": 254792,
      "byteStride": 8,
      "name": "floatBufferViews",
      "target": 34962
    },
    {
      "buffer": 0,
      "byteLength": 561072,
      "byteOffset": 424424,
      "byteStride": 12,
      "name": "floatBufferViews",
      "target": 34962
    }
  ],
  "buffers": [
    {
      "byteLength": 985496,
      "uri": "scene.bin"
    }
  ],
  "images": [
    {
      "uri": "textures/01_-_Default1_baseColor.jpeg"
    },
    {
      "uri": "textures/01_-_Default1_0_baseColor.jpeg"
    }
  ],
  "materials": [
    {
      "name": "edge_color595440255",
      "pbrMetallicRoughness": {
        "metallicFactor": 0.0,
        "roughnessFactor": 0.6
      }
    },
    {
      "name": "01_-_Default1",
      "pbrMetallicRoughness": {
        "baseColorTexture": {
          "index": 0
        },
        "metallicFactor": 0.0,
        "roughnessFactor": 0.6
      }
    },
    {
      "name": "01_-_Default1_0",
      "pbrMetallicRoughness": {
        "baseColorTexture": {
          "index": 1
        },
        "metallicFactor": 0.0,
        "roughnessFactor": 0.6
      }
    }
  ],
  "meshes": [
    {
      "name": "Material3",
      "primitives": [
        {
          "attributes": {
            "POSITION": 0
          },
          "indices": 1,
          "material": 0,
          "mode": 1
        }
      ]
    },
    {
      "name": "Material2",
      "primitives": [
        {
          "attributes": {
            "NORMAL": 3,
            "POSITION": 2,
            "TEXCOORD_0": 4
          },
          "indices": 5,
          "material": 1,
          "mode": 4
        }
      ]
    },
    {
      "name": "Material2",
      "primitives": [
        {
          "attributes": {
            "NORMAL": 7,
            "POSITION": 6,
            "TEXCOORD_0": 8
          },
          "indices": 9,
          "material": 2,
          "mode": 4
        }
      ]
    }
  ],
  "nodes": [
    {
      "children": [
        1
      ],
      "matrix": [
        1.0,
        0.0,
        0.0,
        0.0,
        0.0,
        2.220446049250313e-16,
        -1.0,
        0.0,
        0.0,
        1.0,
        2.220446049250313e-16,
        0.0,
        0.0,
        0.0,
        0.0,
        1.0
      ],
      "name": "Sketchfab_model"
    },
    {
      "children": [
        2,
        3,
        4,
        5
      ],
      "name": "Collada visual scene group"
    },
    {
      "mesh": 0,
      "name": "Material3"
    },
    {
      "mesh": 1,
      "name": "Material2"
    },
    {
      "mesh": 2,
      "name": "Material2"
    },
    {
      "children": [
        6
      ],
      "name": "SketchUp"
    },
    {
      "children": [
        7
      ],
      "matrix": [
        -0.7384384,
        0.6743209,
        0.0,
        0.0,
        -0.1010311,
        -0.1106376,
        0.9887123,
        0.0,
        0.6667094,
        0.7301031,
        0.1498265,
        0.0,
        -27.83036,
        57.03464,
        13.97728,
        1.0
      ],
      "name": "skp_camera_Last_Saved_SketchUp_View"
    },
    {
      "name": "ID1"
    }
  ],
  "samplers": [
    {
      "magFilter": 9729,
      "minFilter": 9987,
      "wrapS": 10497,
      "wrapT": 10497
    }
  ],
  "scene": 0,
  "scenes": [
    {
      "name": "Sketchfab_Scene",
      "nodes": [
        0
      ]
    }
  ],
  "textures": [
    {
      "sampler": 0,
      "source": 0
    },
    {
      "sampler": 0,
      "source": 1
    }
  ]
}
